<?xml version="1.0" encoding="UTF-8"?>
<svg version="1.1" xmlns="http://www.w3.org/2000/svg" width="605" height="601">
<path d="M0 0 C199.65 0 399.3 0 605 0 C605 198.33 605 396.66 605 601 C405.35 601 205.7 601 0 601 C0 402.67 0 204.34 0 0 Z " fill="#10151C" transform="translate(0,0)"/>
<path d="M0 0 C112.2 0 224.4 0 340 0 C340 144.87 340 289.74 340 439 C302.38 439 264.76 439 226 439 C226 410.95 226 382.9 226 354 C188.38 354 150.76 354 112 354 C112 382.05 112 410.1 112 439 C75.04 439 38.08 439 0 439 C0 294.13 0 149.26 0 0 Z " fill="#FFFFFF" transform="translate(127,76)"/>
<path d="M0 0 C74.58 0 149.16 0 226 0 C226 74.58 226 149.16 226 226 C151.42 226 76.84 226 0 226 C0 151.42 0 76.84 0 0 Z " fill="#10151C" transform="translate(184,133)"/>
</svg>
