<?xml version="1.0" encoding="utf-8"?>
<!-- Generator: Adobe Illustrator 23.0.5, SVG Export Plug-In . SVG Version: 6.00 Build 0)  -->
<svg version="1.1" id="Capa_1" xmlns="http://www.w3.org/2000/svg" xmlns:xlink="http://www.w3.org/1999/xlink" x="0px" y="0px"
	 viewBox="0 0 256 256" style="enable-background:new 0 0 256 256;" xml:space="preserve">
<style type="text/css">
	.st0{fill:#FFFFFF;}
	.st1{fill:#2F3A3E;}
	.st2{fill:#3AB14A;}
</style>
<path class="st0" d="M224,52.2L143.3,4.3c-9.6-5.7-21.5-5.7-31.1,0L31.6,52.2C21.9,58,15.9,68.5,16,79.9v95.7
	c-0.1,11.3,5.9,21.8,15.5,27.7l80.6,47.9c9.6,5.7,21.5,5.7,31.1,0l80.6-47.9c9.7-5.8,15.6-16.4,15.6-27.7V79.9
	C239.6,68.5,233.7,58,224,52.2L224,52.2z"/>
<path class="st1" d="M224.4,52.3l-80.8-48c-9.6-5.7-21.6-5.7-31.2,0l-80.8,48C21.9,58.1,15.9,68.7,16,80.1V176
	c-0.1,11.3,5.9,21.9,15.6,27.8l80.8,48c9.6,5.7,21.6,5.7,31.2,0l80.8-48c9.7-5.9,15.7-16.4,15.6-27.8V80.1
	C240.1,68.7,234.1,58.1,224.4,52.3L224.4,52.3z M115.2,246.8l-80.8-48c-8-4.8-12.9-13.5-12.8-22.8V80.1c0-9.3,4.8-18,12.8-22.8
	l80.8-48c7.9-4.7,17.7-4.7,25.5,0l80.7,48c6.7,4,11.2,10.8,12.4,18.5c-2.7-5.7-8.7-7.3-15.8-3.2l-76.4,47.3
	c-9.5,5.6-16.6,11.8-16.6,23.3v94.2c0,6.9,2.8,11.3,7,12.6c-1.4,0.3-2.8,0.4-4.2,0.4C123.5,250.3,119.1,249.1,115.2,246.8z"/>
<path class="st2" d="M203,185.1l-20.1,12c-0.5,0.2-0.9,0.7-0.9,1.3v5.3c0,0.6,0.4,0.9,1,0.6l20.4-12.4c0.5-0.4,0.7-1,0.6-1.6v-4.6
	C204,185,203.5,184.8,203,185.1z"/>
<path class="st0" d="M160.3,140.8c0.6-0.3,1.2,0,1.2,0.9l0.1,7c2.4-1.1,5.1-1.4,7.7-0.9c0.5,0.1,0.7,0.8,0.5,1.6l-1.5,6.2
	c-0.1,0.5-0.4,0.9-0.7,1.2c-0.1,0.1-0.3,0.2-0.4,0.3c-0.2,0.1-0.4,0.1-0.6,0.1c-2.5-0.6-5.2-0.1-7.4,1.2c-3.3,1.5-5.4,4.7-5.5,8.3
	c0,3.2,1.6,4.1,7.2,4.2c7.4,0.1,10.7,3.4,10.8,10.9c-0.2,7.8-3.8,15.2-9.9,20.1l0.1,6.9c0,0.9-0.5,1.6-1.2,2.1l-4.1,2.3
	c-0.6,0.3-1.2,0-1.2-0.9v-6.8c-3.5,1.5-7,1.8-9.3,0.9c-0.4-0.2-0.6-0.8-0.4-1.5l1.5-6.2c0.1-0.5,0.4-0.9,0.7-1.3
	c0.1-0.1,0.2-0.2,0.4-0.3c0.2-0.1,0.5-0.1,0.7,0c2.9,0.8,5.9,0.4,8.5-1.1c3.7-1.8,6.2-5.5,6.3-9.7c0-3.5-1.9-4.9-6.5-5
	c-5.9,0-11.3-1.1-11.4-9.7c0.1-7.5,3.6-14.5,9.5-19.1l-0.3-7c0-0.9,0.4-1.7,1.2-2.1L160.3,140.8z"/>
</svg>
