<?xml version="1.0" encoding="UTF-8"?>
<svg version="1.1" xmlns="http://www.w3.org/2000/svg" width="447" height="508">
<path d="M0 0 C0.91652344 0.54591797 1.83304687 1.09183594 2.77734375 1.65429688 C7.9272266 4.7269451 13.06537958 7.81860656 18.19921875 10.91796875 C26.63400213 15.99813525 35.13532826 20.96384625 43.63989258 25.92602539 C50.21996266 29.76935577 56.77409473 33.65072054 63.3041687 37.57820129 C70.26974487 41.76724242 77.25940404 45.91539244 84.25 50.0625 C85.6442215 50.89002877 87.03842692 51.71758463 88.43261719 52.54516602 C95.66321206 56.83663778 102.89580659 61.12471713 110.13191223 65.40689087 C114.0318263 67.71501942 117.9283468 70.02880734 121.82421875 72.34375 C125.79300445 74.70019721 129.77415426 77.03270536 133.76953125 79.34375 C142.67186227 84.52460161 150.85148974 89.48300983 158 97 C158.55300781 97.53367187 159.10601562 98.06734375 159.67578125 98.6171875 C173.1935806 112.65893256 174.45139862 131.56165525 174.38818359 149.8984375 C174.3922552 151.89056688 174.39760037 153.882694 174.40411377 155.87481689 C174.41772309 161.25496266 174.41251518 166.63493473 174.40297651 172.01508331 C174.39534672 177.66289211 174.40243471 183.31068667 174.40713501 188.95849609 C174.41258292 198.44045666 174.40542629 207.92234699 174.39111328 217.40429688 C174.37478867 228.34476286 174.38007786 239.28506107 174.3965925 250.22552299 C174.41023488 259.64244961 174.41211358 269.05932592 174.40427649 278.47625923 C174.3996151 284.09021883 174.39893277 289.70409975 174.40888596 295.3180542 C174.41759346 300.59756011 174.41146487 305.87685107 174.39420319 311.15633392 C174.39025849 313.08636876 174.39133752 315.01642188 174.39799118 316.94644928 C174.45785495 336.0851589 171.28385955 352.31500313 158 367 C157.37480469 367.69222656 156.74960937 368.38445312 156.10546875 369.09765625 C148.32149077 376.82553349 138.58217861 381.79093287 129.13623047 387.19482422 C123.76763067 390.2849244 118.4492385 393.45928951 113.125 396.625 C111.41912551 397.636339 109.71324827 398.64767342 108.00715637 399.65864563 C98.98498512 405.00521367 89.96852267 410.36140803 80.95147705 415.71661377 C70.71582952 421.79548892 60.47623837 427.86765161 50.23364258 433.93481445 C43.45778978 437.94911591 36.6841635 441.9671325 29.91331482 445.98986816 C26.47418313 448.03308202 23.03431489 450.07502878 19.5925293 452.11376953 C13.55856219 455.68925074 7.53250417 459.27473053 1.5390625 462.91796875 C-16.90560283 474.08546982 -32.836012 480.64653494 -54.7265625 477.45703125 C-65.05445223 474.88110559 -73.94785685 469.41086752 -83 464 C-83.91652344 463.45408203 -84.83304688 462.90816406 -85.77734375 462.34570312 C-90.9272266 459.2730549 -96.06537958 456.18139344 -101.19921875 453.08203125 C-109.63400213 448.00186475 -118.13532826 443.03615375 -126.63989258 438.07397461 C-133.21996266 434.23064423 -139.77409473 430.34927946 -146.3041687 426.42179871 C-153.26974487 422.23275758 -160.25940404 418.08460756 -167.25 413.9375 C-168.6442215 413.10997123 -170.03842692 412.28241537 -171.43261719 411.45483398 C-178.66310383 407.16342646 -185.89543765 402.87515145 -193.13163757 398.59338379 C-195.95119408 396.92479708 -198.7692274 395.25372294 -201.58520508 393.57910156 C-206.6046058 390.59440941 -211.631568 387.62869448 -216.69921875 384.7265625 C-234.76558881 374.30473439 -249.85263905 362.11727783 -255.53018731 341.03088647 C-256.79901504 335.69517473 -257.28793859 330.72740612 -257.26069641 325.25382996 C-257.26452196 324.42156224 -257.26834751 323.58929453 -257.27228898 322.73180658 C-257.28253212 319.96851797 -257.27864347 317.20544054 -257.2746582 314.44213867 C-257.27900952 312.45045277 -257.28419407 310.45876855 -257.29014587 308.46708679 C-257.30350275 303.07440505 -257.30411817 297.68179355 -257.30158257 292.2890985 C-257.30051049 287.77890154 -257.30540237 283.26871865 -257.310188 278.75852472 C-257.321272 268.11301287 -257.32172698 257.46753631 -257.31567383 246.82202148 C-257.30963599 235.85947182 -257.32194283 224.89705057 -257.3432439 213.93452281 C-257.36088903 204.50492417 -257.36685661 195.0753663 -257.36360615 185.64575177 C-257.36179761 180.02167951 -257.36438657 174.39769883 -257.37832069 168.77364159 C-257.39094161 163.48187571 -257.38891467 158.19030921 -257.37590981 152.89854622 C-257.37355365 150.96367194 -257.376244 149.02878344 -257.38453293 147.09392548 C-257.46064456 127.93623885 -254.2983412 111.701006 -241 97 C-240.06220703 95.96166016 -240.06220703 95.96166016 -239.10546875 94.90234375 C-231.32149077 87.17446651 -221.58217861 82.20906713 -212.13623047 76.80517578 C-206.76763067 73.7150756 -201.4492385 70.54071049 -196.125 67.375 C-194.41912551 66.363661 -192.71324827 65.35232658 -191.00715637 64.34135437 C-181.98498512 58.99478633 -172.96852267 53.63859197 -163.95147705 48.28338623 C-153.71582952 42.20451108 -143.47623837 36.13234839 -133.23364258 30.06518555 C-126.45778978 26.05088409 -119.6841635 22.0328675 -112.91331482 18.01013184 C-109.47418313 15.96691798 -106.03431489 13.92497122 -102.5925293 11.88623047 C-96.55856219 8.31074926 -90.53250417 4.72526947 -84.5390625 1.08203125 C-54.29341087 -17.23049115 -30.71360236 -18.35888261 0 0 Z " fill="#FEFEFE" transform="translate(265,22)"/>
<path d="M0 0 C0.91652344 0.54591797 1.83304687 1.09183594 2.77734375 1.65429688 C7.9272266 4.7269451 13.06537958 7.81860656 18.19921875 10.91796875 C26.63400213 15.99813525 35.13532826 20.96384625 43.63989258 25.92602539 C50.21996266 29.76935577 56.77409473 33.65072054 63.3041687 37.57820129 C70.26974487 41.76724242 77.25940404 45.91539244 84.25 50.0625 C85.6442215 50.89002877 87.03842692 51.71758463 88.43261719 52.54516602 C95.66321206 56.83663778 102.89580659 61.12471713 110.13191223 65.40689087 C114.0318263 67.71501942 117.9283468 70.02880734 121.82421875 72.34375 C125.79300445 74.70019721 129.77415426 77.03270536 133.76953125 79.34375 C142.67186227 84.52460161 150.85148974 89.48300983 158 97 C158.55300781 97.53367187 159.10601562 98.06734375 159.67578125 98.6171875 C173.1935806 112.65893256 174.45139862 131.56165525 174.38818359 149.8984375 C174.3922552 151.89056688 174.39760037 153.882694 174.40411377 155.87481689 C174.41772309 161.25496266 174.41251518 166.63493473 174.40297651 172.01508331 C174.39534672 177.66289211 174.40243471 183.31068667 174.40713501 188.95849609 C174.41258292 198.44045666 174.40542629 207.92234699 174.39111328 217.40429688 C174.37478867 228.34476286 174.38007786 239.28506107 174.3965925 250.22552299 C174.41023488 259.64244961 174.41211358 269.05932592 174.40427649 278.47625923 C174.3996151 284.09021883 174.39893277 289.70409975 174.40888596 295.3180542 C174.41759346 300.59756011 174.41146487 305.87685107 174.39420319 311.15633392 C174.39025849 313.08636876 174.39133752 315.01642188 174.39799118 316.94644928 C174.45785495 336.0851589 171.28385955 352.31500313 158 367 C157.37480469 367.69222656 156.74960937 368.38445312 156.10546875 369.09765625 C148.32149077 376.82553349 138.58217861 381.79093287 129.13623047 387.19482422 C123.76763067 390.2849244 118.4492385 393.45928951 113.125 396.625 C111.41912551 397.636339 109.71324827 398.64767342 108.00715637 399.65864563 C98.98498512 405.00521367 89.96852267 410.36140803 80.95147705 415.71661377 C70.71582952 421.79548892 60.47623837 427.86765161 50.23364258 433.93481445 C43.45778978 437.94911591 36.6841635 441.9671325 29.91331482 445.98986816 C26.47418313 448.03308202 23.03431489 450.07502878 19.5925293 452.11376953 C13.55856219 455.68925074 7.53250417 459.27473053 1.5390625 462.91796875 C-16.90560283 474.08546982 -32.836012 480.64653494 -54.7265625 477.45703125 C-65.05445223 474.88110559 -73.94785685 469.41086752 -83 464 C-83.91652344 463.45408203 -84.83304688 462.90816406 -85.77734375 462.34570312 C-90.9272266 459.2730549 -96.06537958 456.18139344 -101.19921875 453.08203125 C-109.63400213 448.00186475 -118.13532826 443.03615375 -126.63989258 438.07397461 C-133.21996266 434.23064423 -139.77409473 430.34927946 -146.3041687 426.42179871 C-153.26974487 422.23275758 -160.25940404 418.08460756 -167.25 413.9375 C-168.6442215 413.10997123 -170.03842692 412.28241537 -171.43261719 411.45483398 C-178.66310383 407.16342646 -185.89543765 402.87515145 -193.13163757 398.59338379 C-195.95119408 396.92479708 -198.7692274 395.25372294 -201.58520508 393.57910156 C-206.6046058 390.59440941 -211.631568 387.62869448 -216.69921875 384.7265625 C-234.76558881 374.30473439 -249.85263905 362.11727783 -255.53018731 341.03088647 C-256.79901504 335.69517473 -257.28793859 330.72740612 -257.26069641 325.25382996 C-257.26452196 324.42156224 -257.26834751 323.58929453 -257.27228898 322.73180658 C-257.28253212 319.96851797 -257.27864347 317.20544054 -257.2746582 314.44213867 C-257.27900952 312.45045277 -257.28419407 310.45876855 -257.29014587 308.46708679 C-257.30350275 303.07440505 -257.30411817 297.68179355 -257.30158257 292.2890985 C-257.30051049 287.77890154 -257.30540237 283.26871865 -257.310188 278.75852472 C-257.321272 268.11301287 -257.32172698 257.46753631 -257.31567383 246.82202148 C-257.30963599 235.85947182 -257.32194283 224.89705057 -257.3432439 213.93452281 C-257.36088903 204.50492417 -257.36685661 195.0753663 -257.36360615 185.64575177 C-257.36179761 180.02167951 -257.36438657 174.39769883 -257.37832069 168.77364159 C-257.39094161 163.48187571 -257.38891467 158.19030921 -257.37590981 152.89854622 C-257.37355365 150.96367194 -257.376244 149.02878344 -257.38453293 147.09392548 C-257.46064456 127.93623885 -254.2983412 111.701006 -241 97 C-240.06220703 95.96166016 -240.06220703 95.96166016 -239.10546875 94.90234375 C-231.32149077 87.17446651 -221.58217861 82.20906713 -212.13623047 76.80517578 C-206.76763067 73.7150756 -201.4492385 70.54071049 -196.125 67.375 C-194.41912551 66.363661 -192.71324827 65.35232658 -191.00715637 64.34135437 C-181.98498512 58.99478633 -172.96852267 53.63859197 -163.95147705 48.28338623 C-153.71582952 42.20451108 -143.47623837 36.13234839 -133.23364258 30.06518555 C-126.45778978 26.05088409 -119.6841635 22.0328675 -112.91331482 18.01013184 C-109.47418313 15.96691798 -106.03431489 13.92497122 -102.5925293 11.88623047 C-96.55856219 8.31074926 -90.53250417 4.72526947 -84.5390625 1.08203125 C-54.29341087 -17.23049115 -30.71360236 -18.35888261 0 0 Z M-80.91210938 12.11425781 C-86.19856228 15.34263876 -91.54041026 18.47705147 -96.875 21.625 C-99.16441663 22.98117855 -101.45354144 24.33783537 -103.7421875 25.6953125 C-104.6179393 26.21460327 -104.6179393 26.21460327 -105.51138306 26.74438477 C-113.35921226 31.39822922 -121.20375073 36.0576189 -129.04852295 40.71661377 C-138.19612172 46.14930483 -147.34640515 51.57741587 -156.5 57 C-158.69272403 58.29945268 -160.88543217 59.59893217 -163.078125 60.8984375 C-166.68766018 63.03761483 -170.29749183 65.17628506 -173.90820312 67.31347656 C-181.37898791 71.73587618 -188.84607191 76.1643483 -196.30384827 80.60865784 C-199.36952906 82.435446 -202.4366116 84.25968749 -205.50927734 86.07470703 C-208.65752267 87.93657255 -211.79836094 89.8103342 -214.9375 91.6875 C-216.28473145 92.47858154 -216.28473145 92.47858154 -217.65917969 93.28564453 C-231.50640585 101.6220239 -240.61017669 112.2579992 -245 128 C-245.9512602 132.71665175 -246.1506699 137.30489519 -246.15390015 142.09947205 C-246.1582824 142.89847492 -246.16266465 143.6974778 -246.1671797 144.52069288 C-246.18049982 147.18949763 -246.18673129 149.8582694 -246.19287109 152.52709961 C-246.20077757 154.44451036 -246.20904686 156.36191965 -246.21765137 158.27932739 C-246.24381373 164.57031851 -246.2591757 170.86131607 -246.2734375 177.15234375 C-246.27880002 179.32324286 -246.28417754 181.49414193 -246.28956985 183.66504097 C-246.31119227 192.70083382 -246.32992583 201.73662494 -246.34119225 210.7724371 C-246.35741149 223.69276283 -246.39054766 236.61278692 -246.44759309 249.53299898 C-246.48639214 258.63306674 -246.50583686 267.73305416 -246.51111281 276.83320242 C-246.51475329 282.26022032 -246.52663522 287.68691608 -246.55921555 293.11384392 C-246.58947095 298.22673068 -246.59554609 303.33910331 -246.58383179 308.4520607 C-246.58361249 310.31796379 -246.59179669 312.18389197 -246.60948563 314.04971123 C-246.76369685 331.26752205 -243.64997173 345.72184374 -232.1015625 359.21875 C-224.39209064 366.90038983 -214.50264675 371.83643191 -205.13623047 377.19482422 C-199.76763067 380.2849244 -194.4492385 383.45928951 -189.125 386.625 C-187.41912551 387.636339 -185.71324827 388.64767342 -184.00715637 389.65864563 C-174.98498512 395.00521367 -165.96852267 400.36140803 -156.95147705 405.71661377 C-146.71582952 411.79548892 -136.47623837 417.86765161 -126.23364258 423.93481445 C-119.4577019 427.94916797 -112.6840138 431.96728025 -105.91304016 435.99000549 C-102.47538656 438.03230789 -99.03705265 440.07344148 -95.59692383 442.11157227 C-89.53938905 445.70155399 -83.48929757 449.30125631 -77.46875 452.953125 C-76.48173096 453.54778564 -75.49471191 454.14244629 -74.4777832 454.75512695 C-72.7007474 455.82657273 -70.92794456 456.90509375 -69.16088867 457.99291992 C-60.65770471 463.09898368 -52.35885831 466.75183538 -42.3125 466.25 C-41.59900391 466.23195313 -40.88550781 466.21390625 -40.15039062 466.1953125 C-38.43297851 466.14920748 -36.71628092 466.07752335 -35 466 C-35 465.34 -35 464.68 -35 464 C-35.7425 463.608125 -36.485 463.21625 -37.25 462.8125 C-42.59302634 459.29095991 -44.10900527 454.17911349 -45.56887853 448.20417452 C-46.24118405 444.7669096 -46.27921414 441.35468019 -46.26069641 437.86761475 C-46.26452196 437.08928764 -46.26834751 436.31096053 -46.27228898 435.50904775 C-46.28254014 432.92230263 -46.27864191 430.33578277 -46.2746582 427.74902344 C-46.27900912 425.8855621 -46.28419354 424.02210254 -46.29014587 422.15864563 C-46.30350821 417.11093371 -46.30411747 412.0632968 -46.30158257 407.01557064 C-46.30051069 402.79372155 -46.30540194 398.57188749 -46.310188 394.35004163 C-46.32127426 384.38390297 -46.32172596 374.417802 -46.31567383 364.45166016 C-46.30963812 354.19065389 -46.32193686 343.92978488 -46.3432439 333.66880202 C-46.36089453 324.84219039 -46.36685568 316.01562231 -46.36360615 307.18899369 C-46.36179821 301.92484444 -46.36438033 296.66079304 -46.37832069 291.39665985 C-46.39095032 286.44224154 -46.38890657 281.4880361 -46.37590981 276.53362083 C-46.37355539 274.72291426 -46.37623768 272.91219247 -46.38453293 271.10150337 C-46.45136305 255.37020757 -45.1446449 241.9991147 -34.03515625 229.8515625 C-27.73938787 223.91923699 -20.33103203 219.51618445 -13 215 C-11.38900702 213.99920624 -9.77834765 212.99787532 -8.16796875 211.99609375 C-2.78554783 208.65285484 2.60690465 205.32598182 8 202 C11.54257353 199.81396507 15.08427719 197.62653128 18.625 195.4375 C19.93343872 194.62865356 19.93343872 194.62865356 21.26831055 193.8034668 C26.99330637 190.25845728 32.69023479 186.67157988 38.375 183.0625 C46.4089146 177.96449427 54.52370711 173.00670548 62.65917969 168.07275391 C68.80487534 164.34342936 74.92352698 160.57606421 81.01123047 156.75292969 C87.31791495 152.79295591 93.65412275 148.88128259 99.99243164 144.97216797 C105.23465388 141.73273733 110.44297795 138.4463986 115.62890625 135.11767578 C119.39741972 132.7094263 123.19222937 130.34556476 127 128 C128.66289063 126.96939453 128.66289063 126.96939453 130.359375 125.91796875 C137.69570782 121.77429928 144.63229386 120.41965841 153 122 C156.13923843 123.60184014 158.56644079 125.46063387 161 128 C159.54899601 116.85365114 153.31732263 107.36677147 145 100 C141.3707522 97.4310902 137.61634709 95.17676541 133.74462891 92.99316406 C131.42383868 91.67200892 129.14257292 90.28683527 126.85961914 88.90161133 C116.2996811 82.50195318 105.63481732 76.27393205 95 70 C73.55467577 57.34848911 73.55467577 57.34848911 63.74462891 51.44335938 C54.53079538 45.90458049 45.2592187 40.46240779 36 35 C32.18713034 32.75062566 28.37455919 30.50074762 24.5625 28.25 C23.63969238 27.70520996 22.71688477 27.16041992 21.76611328 26.59912109 C16.60112571 23.5468722 11.45012938 20.47301859 6.3125 17.375 C0.57913478 13.93017637 -5.1692673 10.51112597 -10.9375 7.125 C-11.71891357 6.66013184 -12.50032715 6.19526367 -13.30541992 5.71630859 C-38.45588751 -8.96487704 -57.82075548 -2.07341632 -80.91210938 12.11425781 Z " fill="#2A3238" transform="translate(265,22)"/>
<path d="M0 0 C0 4.95 0 9.9 0 15 C1.98 14.34 3.96 13.68 6 13 C8.51953125 12.76953125 8.51953125 12.76953125 10.8125 12.8125 C11.96685547 12.82216797 11.96685547 12.82216797 13.14453125 12.83203125 C15 13 15 13 16 14 C15.94926595 20.50664139 14.5335077 26.05176452 12 32 C11.29875 31.95359375 10.5975 31.9071875 9.875 31.859375 C3.31185281 31.60969005 -1.6525281 31.97188252 -7 36 C-11.92717716 40.8303549 -14.06586099 44.01178149 -14.328125 51.02734375 C-13.89710373 53.61860255 -13.01451214 54.3520728 -11 56 C-9.08377847 56.54014826 -9.08377847 56.54014826 -6.98046875 56.625 C-6.20509766 56.69203125 -5.42972656 56.7590625 -4.63085938 56.828125 C-3.42139648 56.91320312 -3.42139648 56.91320312 -2.1875 57 C5.11764549 57.52137291 10.38969219 58.33036701 15.75 63.8125 C20.48021088 70.51363209 20.75348335 76.99781611 20 85 C17.91333386 95.38335067 13.6108585 106.52404234 5.125 113.25 C2.27548879 115.77799557 2.00691262 116.94520079 1.515625 120.83984375 C1.40887323 123.00931523 1.3737175 125.1441735 1.43798828 127.31542969 C1.4609375 129.35546875 1.4609375 129.35546875 1 133 C-1.359375 135.375 -1.359375 135.375 -4 137 C-4.86625 137.598125 -5.7325 138.19625 -6.625 138.8125 C-7.40875 139.204375 -8.1925 139.59625 -9 140 C-9.99 139.67 -10.98 139.34 -12 139 C-12.33 134.71 -12.66 130.42 -13 126 C-14.98 126.495 -14.98 126.495 -17 127 C-19.24907152 127.06790675 -21.50001605 127.08499984 -23.75 127.0625 C-24.92046875 127.05347656 -26.0909375 127.04445313 -27.296875 127.03515625 C-28.63492187 127.01775391 -28.63492187 127.01775391 -30 127 C-30.35044272 120.69203097 -29.74090218 114.78634905 -27 109 C-24.12207803 108.04069268 -22.85518867 107.99157535 -19.9375 108.1875 C-13.66995113 108.22833094 -7.88867599 106.51344592 -3.10546875 102.3515625 C1.77393178 96.91417699 3.20316892 92.30330854 3.36328125 85.0859375 C2.90468969 82.45273436 2.09307144 81.61759619 0 80 C-4.63055577 78.45648141 -9.38275455 78.66015455 -14.23828125 78.4765625 C-18.83671219 77.89399908 -22.22865729 76.65353369 -25.64453125 73.46484375 C-31.32937439 66.03081811 -30.87800137 58.0890859 -30 49 C-27.90060593 40.27868537 -22.81277094 32.73726731 -17 26 C-16.26910156 25.566875 -15.53820312 25.13375 -14.78515625 24.6875 C-12.60612745 22.98449445 -12.60612745 22.98449445 -12.53125 19.34765625 C-12.48727127 17.19469738 -12.50008979 15.04587324 -12.51171875 12.89257812 C-12.44023918 9.38683011 -12.32234291 7.41251818 -10.12890625 4.60546875 C-4.02189781 0 -4.02189781 0 0 0 Z " fill="#FBFBFB" transform="translate(288,278)"/>
<path d="M0 0 C1.4814835 4.78934614 1.69580143 8.24275175 0 13 C-5.11825737 17.95456344 -11.86879197 21.0843541 -18.09960938 24.41259766 C-22.56180013 26.8547832 -26.82915382 29.59188641 -31.125 32.3125 C-38.54064092 37 -38.54064092 37 -42 37 C-42.8113307 32.4510005 -43.04251275 28.52628652 -42 24 C-38.9143126 20.81770728 -35.25149109 19.1124677 -31.29589844 17.17822266 C-26.5661185 14.75096638 -22.05774256 11.91989109 -17.5 9.1875 C-15.61559807 8.07510216 -13.73023005 6.96433872 -11.84375 5.85546875 C-9.317495 4.36971628 -6.80570632 2.87821216 -4.32226562 1.3215332 C-2 0 -2 0 0 0 Z " fill="#4CA625" transform="translate(370,363)"/>
</svg>
