<?xml version="1.0" encoding="UTF-8"?>
<svg version="1.1" xmlns="http://www.w3.org/2000/svg" width="512" height="512">
<path d="M0 0 C147.84 0 295.68 0 448 0 C448 6.52259024 447.98906009 12.75324527 447.39371586 19.19723606 C447.29539539 20.32610718 447.29539539 20.32610718 447.19508865 21.47778377 C446.97666826 23.97215189 446.75141839 26.46585279 446.52613831 28.95960999 C446.36557167 30.77685246 446.20543012 32.59413254 446.04567474 34.41144651 C445.60728498 39.38437222 445.16288976 44.35674544 444.71748245 49.32904685 C444.23746923 54.69960905 443.76306393 60.07066699 443.28796387 65.44166565 C442.35712175 75.95492416 441.4211737 86.46772215 440.48356313 96.98037893 C439.39164442 109.22574557 438.30511444 121.47158854 437.21888613 133.71746104 C435.28053287 155.56824828 433.33777978 177.41864201 431.39233398 199.26879883 C429.50501803 220.46616388 427.62004128 241.66373493 425.73803711 262.86157227 C425.62210969 264.16730633 425.50618226 265.47304039 425.38674188 266.81834216 C424.92075578 272.06700872 424.45478213 277.31567638 423.98882595 282.5643456 C420.41730313 322.79440872 416.84376823 363.0242949 413.26276398 403.25351524 C412.88721779 407.4725904 412.51191833 411.69168739 412.13684654 415.91080475 C411.70490118 420.7695265 411.27243234 425.62820136 410.8395431 430.48683911 C410.6832147 432.24237996 410.52706726 433.99793693 410.37112135 435.75351179 C409.62306749 444.17348285 408.86556453 452.59109657 408 461 C401.52687688 463.56148172 394.98277897 465.48724497 388.26953125 467.31640625 C387.09007935 467.64123489 385.91062744 467.96606354 384.69543457 468.30073547 C382.10551905 469.01376641 379.51529077 469.72552376 376.92446899 470.4352417 C370.49259156 472.19753044 364.06406523 473.97198445 357.63536644 475.74582672 C356.0745398 476.17646765 354.5136783 476.60698227 352.95278358 477.0373764 C331.43219071 482.97188438 309.93421548 488.98742781 288.43572617 495.00141525 C285.32389067 495.87181396 282.21196431 496.74188703 279.1000061 497.61184692 C274.14082224 498.99821384 269.18176472 500.38503158 264.2228241 501.7722683 C262.3899668 502.28497504 260.55708206 502.79758367 258.72416687 503.31008339 C257.00329215 503.79131534 255.28249934 504.27284033 253.56179619 504.7546854 C251.94165678 505.20794855 250.32117921 505.66000503 248.70033455 506.11073971 C245.11034094 507.11197841 241.5306136 508.13317175 237.96737671 509.22613525 C236.75248566 509.59382019 235.5375946 509.96150513 234.28588867 510.34033203 C233.25461349 510.66244659 232.22333832 510.98456116 231.16081238 511.31643677 C224.64650367 512.72523343 219.27431264 512.07804053 212.92919922 510.26953125 C212.2646318 510.08326298 211.60006437 509.89699471 210.91535854 509.70508194 C208.70889653 509.08401967 206.50695651 508.44825587 204.3046875 507.8125 C202.71219833 507.36125254 201.11943213 506.91098175 199.52641296 506.46160889 C196.10118213 505.493336 192.67785795 504.51868132 189.25588989 503.53894043 C183.82705804 501.98474773 178.39429855 500.44463604 172.96069336 498.90722656 C167.25103723 497.29114817 161.54158345 495.67438298 155.8334198 494.05303955 C135.99207774 488.41852029 116.12623917 482.87262329 96.25714111 477.33691406 C90.63501166 475.77047608 85.01350887 474.2017977 79.39208984 472.6328125 C76.76206358 471.89893154 74.13201957 471.16511421 71.50196266 470.43134308 C69.86577384 469.97483962 68.22960247 469.51827358 66.59345055 469.06163788 C64.34307146 468.43366967 62.09256037 467.80617625 59.84204102 467.17871094 C59.15386512 466.98646816 58.46568922 466.79422539 57.75665951 466.59615707 C52.8171647 465.21893141 47.866748 463.88639181 42.90611267 462.58746338 C41 462 41 462 40 461 C39.68594554 458.49265986 39.43340023 456.00246154 39.21646118 453.48602295 C39.1070364 452.27909778 39.1070364 452.27909778 38.99540102 451.04779029 C38.74732474 448.29883218 38.50580737 445.54933491 38.26416016 442.79980469 C38.08512191 440.80033766 37.90569081 438.80090577 37.72590256 436.80150604 C37.22399851 431.20636736 36.7278832 425.6107274 36.23263121 420.01499653 C35.68987911 413.89332108 35.14202468 407.77210191 34.59487915 401.65081787 C33.60751822 390.59569602 32.62382762 379.54025242 31.64221191 368.48461914 C30.50698262 355.69907247 29.36906129 342.9137683 28.22888184 330.12866211 C28.07618139 328.41630003 27.92348153 326.7039379 27.77078223 324.99157572 C27.53847799 322.38654847 27.30617362 319.78152124 27.07386623 317.17649427 C23.85439763 281.07317252 20.64597934 244.96887726 17.44514084 208.86389923 C17.10618024 205.04061273 16.76720616 201.21732743 16.42822266 197.39404297 C16.34413608 196.44562812 16.26004951 195.49721327 16.17341486 194.52005857 C14.78687213 178.88229794 13.39637649 163.24489111 12.00448267 147.60760596 C10.55414857 131.31296872 9.10745213 115.01801165 7.6642853 98.72273803 C6.8620506 89.66550687 6.05824296 80.60842164 5.25022507 71.55170441 C4.56980233 63.92511697 3.89263872 56.29824919 3.21977429 48.67099103 C2.87785583 44.79632397 2.53439603 40.92181037 2.18667984 37.04765892 C1.86832924 33.50029412 1.55450209 29.95255824 1.2441612 26.404484 C1.07885733 24.52773162 0.90882292 22.65139771 0.73857248 20.77508759 C0.6402376 19.64076854 0.54190272 18.50644948 0.440588 17.33775711 C0.31201977 15.88957529 0.31201977 15.88957529 0.1808542 14.41213727 C-0.07343871 9.61444772 0 4.80442399 0 0 Z " fill="#2196F3" transform="translate(32,0)"/>
<path d="M0 0 C93.72 0 187.44 0 284 0 C282.8784585 16.82312253 282.8784585 16.82312253 282.203125 23.578125 C282.05013409 25.13426173 281.89731072 26.69041494 281.74462891 28.24658203 C281.66448547 29.05597229 281.58434204 29.86536255 281.50177002 30.69927979 C279.71236801 48.82798266 278.13647665 66.97125488 276.625 85.125 C274.87503744 106.11684536 272.9919148 127.09256647 271 148.0625 C269.03436419 168.76330295 267.14443578 189.46882673 265.375 210.1875 C265.27336548 211.37653931 265.17173096 212.56557861 265.0670166 213.79064941 C264.66765509 218.46492525 264.2687078 223.13923618 263.87036133 227.81359863 C262.93156346 238.82381683 261.9802493 249.83289965 261.01104736 260.84048462 C260.83904685 262.79870467 260.6680823 264.75701603 260.49822998 266.71542358 C260.2670736 269.37953135 260.03245042 272.04331112 259.796875 274.70703125 C259.73043793 275.48116364 259.66400085 276.25529602 259.59555054 277.05288696 C259.26367697 280.75992985 258.82496767 284.36862115 258 288 C251.61996261 290.24482797 245.15810377 292.09493455 238.63769531 293.87939453 C232.02656531 295.69591812 225.4507466 297.62228521 218.875 299.5625 C210.90099414 301.9079061 202.91991117 304.08233045 194.84375 306.04296875 C188.29546387 307.67338552 181.80828787 309.52186308 175.31298828 311.35009766 C172.95833752 312.01170631 170.60248409 312.6688341 168.24609375 313.32421875 C167.07880737 313.64894165 167.07880737 313.64894165 165.88793945 313.98022461 C164.35184977 314.40613672 162.81523612 314.83016415 161.27807617 315.25219727 C158.08286582 316.13094195 154.90637954 317.02918623 151.7421875 318.015625 C150.81664062 318.29921875 149.89109375 318.5828125 148.9375 318.875 C148.18339844 319.11992187 147.42929687 319.36484375 146.65234375 319.6171875 C139.82419642 320.6026933 133.07493392 318.67372709 126.5625 316.75 C124.98052318 316.296685 123.39849032 315.84356553 121.81640625 315.390625 C120.61781982 315.04354492 120.61781982 315.04354492 119.39501953 314.68945312 C115.60443358 313.59825896 111.80198589 312.55063082 108 311.5 C106.49213852 311.08090536 104.98432603 310.6616344 103.4765625 310.2421875 C100.55583728 309.43066393 97.63394581 308.62357176 94.7109375 307.8203125 C86.07362663 305.44148328 77.46873882 302.96949383 68.875 300.4375 C62.05003429 298.42813829 55.22763304 296.48739244 48.3125 294.8125 C31.44852941 290.72426471 31.44852941 290.72426471 26 288 C25.45727539 285.38012695 25.45727539 285.38012695 25.03515625 281.67578125 C24.95507828 280.98003494 24.87500031 280.28428864 24.79249573 279.56745911 C23.61774181 269.0329181 22.70233151 258.46882525 21.76782227 247.91088867 C21.4390643 244.20513272 21.1036024 240.50002517 20.76757812 236.79492188 C20.55167768 234.37764036 20.33617018 231.96032372 20.12109375 229.54296875 C20.02316025 228.4662944 19.92522675 227.38962006 19.82432556 226.28031921 C18.96890292 216.51612757 18.51631005 206.80989088 18 197 C36.81 197 55.62 197 75 197 C75.474375 201.95 75.94875 206.9 76.4375 212 C76.58501709 213.52496094 76.73253418 215.04992187 76.88452148 216.62109375 C77.77997608 226.07264418 78.46499362 235.52137734 79 245 C79.70439209 245.091604 80.40878418 245.18320801 81.13452148 245.27758789 C87.82068804 246.18744875 94.15773977 247.80047833 100.625 249.6875 C101.5013208 249.94305664 102.3776416 250.19861328 103.28051758 250.46191406 C105.16423419 251.01185092 107.04794151 251.56181963 108.93164062 252.11181641 C114.56751994 253.74320795 120.21797042 255.31873929 125.875 256.875 C126.97408691 257.18526123 128.07317383 257.49552246 129.20556641 257.81518555 C130.77056885 258.24311401 130.77056885 258.24311401 132.3671875 258.6796875 C133.74559814 259.06229736 133.74559814 259.06229736 135.15185547 259.45263672 C140.98556768 260.57377359 146.02860344 259.96048606 151.7265625 258.4609375 C153.63103149 257.96509155 153.63103149 257.96509155 155.57397461 257.45922852 C156.92437843 257.09805083 158.27471904 256.73663672 159.625 256.375 C161.01490913 256.00977839 162.40496583 255.64511797 163.79516602 255.28100586 C172.70472053 252.93550514 181.58450378 250.4863921 190.40283203 247.81591797 C191.1657959 247.5892041 191.92875977 247.36249023 192.71484375 247.12890625 C193.35542725 246.93369385 193.99601074 246.73848145 194.65600586 246.53735352 C198.07731614 245.75302856 201.51333791 245.40119308 205 245 C205.06682228 244.11958038 205.06682228 244.11958038 205.13499451 243.22137451 C206.30856097 227.97686657 207.84151768 212.80031131 209.65942383 197.61962891 C210.07048881 194.18321525 210.47410795 190.74597981 210.87695312 187.30859375 C211.13759409 185.10672028 211.39864548 182.90489534 211.66015625 180.703125 C211.77996353 179.6834967 211.89977081 178.66386841 212.02320862 177.61334229 C212.13680222 176.67005066 212.25039581 175.72675903 212.36743164 174.75488281 C212.46576797 173.93014465 212.56410431 173.10540649 212.66542053 172.25567627 C213 170 213 170 214 166 C148.33 166 82.66 166 15 166 C9.83116883 124.64935065 9.83116883 124.64935065 10 113 C22.50091216 112.19938298 34.96017668 111.81286013 47.48486328 111.70288086 C49.35941935 111.68337803 51.23397171 111.66351548 53.10852051 111.64332581 C58.13618823 111.59017298 63.16389202 111.54197357 68.19161844 111.49474788 C73.46866725 111.44430973 78.74566735 111.38919896 84.02267456 111.33460999 C93.98809748 111.23221748 103.95355654 111.13395224 113.91903579 111.03721577 C125.27598124 110.9267677 136.63287789 110.81164857 147.98977304 110.69616115 C171.3264661 110.45895546 194.66321656 110.22815384 218 110 C219.32 91.19 220.64 72.38 222 53 C150.06 53 78.12 53 4 53 C3.33415383 49.67076915 2.83528897 46.78639581 2.61108398 43.45678711 C2.55109726 42.58916245 2.49111053 41.72153778 2.42930603 40.82762146 C2.36884598 39.90352982 2.30838593 38.97943817 2.24609375 38.02734375 C2.14833397 36.58724693 2.14833397 36.58724693 2.04859924 35.11805725 C1.91179463 33.09337573 1.77656998 31.06858692 1.64282227 29.04370117 C1.43798903 25.9448982 1.22820246 22.84646108 1.01757812 19.74804688 C0.88512611 17.77866535 0.75295511 15.80926491 0.62109375 13.83984375 C0.55860947 12.91372787 0.49612518 11.987612 0.43174744 11.03343201 C0.37491287 10.1689595 0.31807831 9.304487 0.25952148 8.41381836 C0.20924301 7.65612656 0.15896454 6.89843475 0.10716248 6.11778259 C0.00408934 4.08081505 0 2.03957369 0 0 Z " fill="#F8F9F9" transform="translate(114,94)"/>
</svg>
