<?xml version="1.0" encoding="UTF-8"?>
<svg version="1.1" xmlns="http://www.w3.org/2000/svg" width="213" height="240">
<path d="M0 0 C0.83848804 1.45537568 1.67063934 2.91440373 2.5 4.375 C2.9640625 5.18710937 3.428125 5.99921875 3.90625 6.8359375 C5 9 5 9 5 11 C6.14855469 10.855625 7.29710938 10.71125 8.48046875 10.5625 C24.03247386 8.67231253 38.48098275 9.04923689 54 11 C54.44472656 9.60394531 54.44472656 9.60394531 54.8984375 8.1796875 C55.95365536 5.13377495 57.25510156 2.69666122 59 0 C68.70164332 0.65276093 77.33033279 3.18920484 86.52734375 6.20458984 C88.77858435 6.92877447 91.03903599 7.58833926 93.3125 8.23828125 C102.07973779 10.95508793 106.74218144 15.18205384 111.01953125 23.09765625 C111.68245103 24.39703129 112.34258996 25.69782867 113 27 C113.68980402 28.29122181 114.38121749 29.58158508 115.07421875 30.87109375 C123.18895478 46.2695155 129.20547517 62.01193017 133 79 C133.16516113 79.6909375 133.33032227 80.381875 133.50048828 81.09375 C136.28507497 93.07294404 136.33838864 105.20127312 136.4375 117.4375 C136.44971588 118.27343689 136.46193176 119.10937378 136.47451782 119.97064209 C136.50412918 122.3755091 136.50480654 124.77859329 136.49609375 127.18359375 C136.5071817 127.91199966 136.51826965 128.64040558 136.5296936 129.3908844 C136.48399708 132.75476173 136.28090272 134.63629528 134.19775391 137.33349609 C130.89040231 139.84138123 127.48532012 142.03452656 123.9375 144.1875 C123.15036621 144.66582275 122.36323242 145.14414551 121.55224609 145.63696289 C92.42287958 163 92.42287958 163 80 163 C78.75732422 161.57885742 78.75732422 161.57885742 77.5546875 159.60546875 C77.11769531 158.89712891 76.68070313 158.18878906 76.23046875 157.45898438 C75.78316406 156.70939453 75.33585938 155.95980469 74.875 155.1875 C74.41996094 154.44951172 73.96492187 153.71152344 73.49609375 152.95117188 C71.67455596 149.96482283 70.11088793 147.33266379 69 144 C74.28 141.36 79.56 138.72 85 136 C85 135.34 85 134.68 85 134 C80.24396245 134.54303565 76.24660013 135.53335175 71.8125 137.3125 C43.11223308 147.66144321 11.76616804 146.87606064 -16.62402344 135.93115234 C-20.03139349 134.61770157 -22.28250922 134 -26 134 C-26 134.66 -26 135.32 -26 136 C-18.575 139.465 -18.575 139.465 -11 143 C-11.93782074 147.68910371 -13.02311657 150.11943248 -15.4375 154.125 C-16.05496094 155.15882813 -16.67242187 156.19265625 -17.30859375 157.2578125 C-18.50315345 159.19448896 -19.7378055 161.10670825 -21 163 C-33.00359341 160.89410642 -43.87909113 155.75161281 -54.625 150.1875 C-55.36347168 149.80980469 -56.10194336 149.43210938 -56.86279297 149.04296875 C-58.39057258 148.23259579 -59.90002739 147.38694521 -61.39160156 146.51171875 C-63.36551562 145.36772064 -65.39463492 144.3183015 -67.44433594 143.31640625 C-75.9875963 138.77897413 -75.9875963 138.77897413 -77.68878174 134.10934448 C-78.72569181 128.63745661 -78.33428503 123.15078863 -78 117.625 C-77.94003315 115.89735553 -77.88422143 114.16956195 -77.83251953 112.44165039 C-77.43390949 101.17661017 -76.76376385 89.95898876 -74 79 C-73.79600586 78.16839355 -73.59201172 77.33678711 -73.38183594 76.47998047 C-68.68339177 57.77169221 -61.44116672 40.80431176 -52.06494141 23.98193359 C-50.89856843 21.87666242 -50.89856843 21.87666242 -49.73046875 19.08203125 C-46.07673371 11.58090031 -37.95430959 9.42341431 -30.55078125 6.796875 C-8.51304186 -0.55033806 -8.51304186 -0.55033806 0 0 Z M-17.8125 72.6875 C-22.42281263 77.56125906 -24.76425576 83.28128913 -25 90 C-24.41021698 96.92681338 -21.88568133 102.0561558 -17 107 C-12.54587293 109.87662373 -8.20548892 111.499023 -2.8671875 110.66796875 C3.63157237 108.96066743 7.2876195 105.50529154 11 100 C13.68636859 94.51046419 13.96532545 88.50291751 12.34765625 82.6328125 C9.87509356 76.32936942 6.23523234 72.02253953 0.0859375 69.0859375 C-6.55174942 66.89100517 -12.05136825 69.23082095 -17.8125 72.6875 Z M53.20703125 72.484375 C48.62771198 77.41421007 46.4204744 82.75634034 45.5625 89.375 C46.35173726 95.91439442 48.3247936 101.87477461 53.1875 106.5 C57.81330415 109.96195577 62.60073823 111.44948916 68.36328125 110.6875 C74.25472117 109.10324725 77.84818001 106.1859019 81 101 C84.15976846 94.76148278 84.78900365 88.77421505 83 82 C80.45997305 76.32401671 76.93378202 71.54431677 71 69.21484375 C64.41522735 67.30571696 58.58609198 68.03112211 53.20703125 72.484375 Z " fill="#5765F1" transform="translate(77,28)"/>
</svg>
