<?xml version="1.0" encoding="utf-8"?>
<!-- Generator: Adobe Illustrator 23.0.5, SVG Export Plug-In . SVG Version: 6.00 Build 0)  -->
<svg version="1.1" id="Capa_1" xmlns="http://www.w3.org/2000/svg" xmlns:xlink="http://www.w3.org/1999/xlink" x="0px" y="0px"
	 viewBox="0 0 100 100" style="enable-background:new 0 0 100 100;" xml:space="preserve">
<style type="text/css">
	.st0{fill:#6665D2;}
</style>
<g id="Layer_1">
</g>
<g id="Layer_2">
	<g>
		<g>
			<path class="st0" d="M87.7,23.2c-12.3-9.2-24-8.9-24-8.9l-1.2,1.4C77,20.1,83.8,26.5,83.8,26.5C63,15,36.4,15.1,14.7,26.5
				c0,0,7-6.8,22.5-11.1l-0.9-1c0,0-11.7-0.3-24,8.9c0,0-12.3,22.2-12.3,49.5c0,0,7.2,12.3,26.1,12.9c0,0,3.2-3.8,5.7-7
				c-10.9-3.3-15-10-15-10c6.8,4.3,13.8,7,22.4,8.7c14,2.9,31.5-0.1,44.5-8.7c0,0-4.3,6.9-15.5,10.1c2.6,3.2,5.7,6.9,5.7,6.9
				C92.8,85,100,72.7,100,72.8C100,45.4,87.7,23.2,87.7,23.2z M34,64.8c-4.8,0-8.7-4.2-8.7-9.4c0.4-12.5,17.2-12.5,17.5,0
				C42.8,60.6,38.9,64.8,34,64.8z M65.3,64.8c-4.8,0-8.7-4.2-8.7-9.4c0.4-12.5,17-12.5,17.5,0C74,60.6,70.2,64.8,65.3,64.8z"/>
		</g>
	</g>
</g>
</svg>
