<?xml version="1.0" encoding="UTF-8"?>
<svg version="1.1" xmlns="http://www.w3.org/2000/svg" width="2203" height="2049">
<path d="M0 0 C1.07454506 -0.0030531 2.14909012 -0.00610619 3.25619715 -0.00925181 C6.85259829 -0.01703806 10.4488307 -0.01062517 14.04523259 -0.00426924 C16.66251692 -0.00696294 19.27980046 -0.01053095 21.89708254 -0.01489371 C27.60325233 -0.02298384 33.30938566 -0.02366076 39.0155591 -0.01948182 C47.55798855 -0.01326011 56.10038462 -0.01856324 64.64281165 -0.02607924 C79.20258721 -0.03854633 93.76235088 -0.04149152 108.32213098 -0.03924429 C123.07726499 -0.0369956 137.83238891 -0.03906283 152.58752137 -0.04638922 C153.51943879 -0.04684853 154.4513562 -0.04730783 155.41151353 -0.04778106 C159.20707183 -0.04966433 163.00263011 -0.05157571 166.79818837 -0.05352344 C206.39682735 -0.07381417 245.99546067 -0.07993548 285.59410425 -0.08110766 C289.85665686 -0.08123716 294.11920948 -0.08137303 298.38176209 -0.08151448 C299.43951454 -0.08154849 300.49726699 -0.0815825 301.58707254 -0.08161754 C325.02392441 -0.08243435 348.4607752 -0.08681388 371.89762649 -0.09182617 C381.5472483 -0.09388287 391.19687012 -0.09586293 400.84649193 -0.09785867 C402.44577719 -0.09819044 402.44577719 -0.09819044 404.07737125 -0.09852891 C465.17756665 -0.11117756 526.27776134 -0.11942708 587.37795812 -0.1185118 C589.66467178 -0.11848024 591.95138544 -0.11844877 594.23809911 -0.11841738 C604.56249923 -0.11827061 614.88689935 -0.11809427 625.21129948 -0.11790961 C629.81524464 -0.11782736 634.4191898 -0.11774707 639.02313497 -0.11766698 C641.32749262 -0.11762619 643.63185027 -0.11758415 645.93620793 -0.11754086 C718.80831885 -0.11618026 791.68041033 -0.13081669 864.5525158 -0.15862143 C882.91366681 -0.16562341 901.27481783 -0.1725623 919.63596898 -0.17915022 C920.76652084 -0.17955597 921.8970727 -0.17996172 923.06188371 -0.18037976 C957.90320931 -0.19280856 992.74453331 -0.20034065 1027.58586103 -0.2028662 C1028.67964464 -0.2029461 1029.77342825 -0.203026 1030.90035682 -0.20310832 C1054.91085806 -0.20481482 1078.92135919 -0.20533728 1102.93186048 -0.20476757 C1111.52311645 -0.2045746 1120.11437243 -0.20447051 1128.70562841 -0.20441011 C1130.8429322 -0.20439428 1132.98023598 -0.20437387 1135.11753977 -0.20434886 C1169.17988266 -0.20399615 1203.24220892 -0.21539487 1237.30454704 -0.2326565 C1271.60911909 -0.24995253 1305.9136681 -0.25434215 1340.21824267 -0.24113385 C1344.95853448 -0.23930926 1349.69882632 -0.2376227 1354.43911821 -0.23601782 C1355.83295525 -0.23553756 1355.83295525 -0.23553756 1357.25495062 -0.2350476 C1371.96823147 -0.23034161 1386.68147247 -0.23905666 1401.39474582 -0.2533602 C1415.86251439 -0.26714421 1430.33022412 -0.26665094 1444.79799139 -0.25097592 C1453.27945 -0.24221312 1461.76073531 -0.24435623 1470.24217956 -0.26270949 C1475.87890377 -0.27381058 1481.51549896 -0.27033652 1487.15221328 -0.25514393 C1490.34507929 -0.246942 1493.53754006 -0.24703107 1496.73039732 -0.26064531 C1526.99193487 -0.38103378 1551.10502929 7.34470579 1573.46682245 28.50299966 C1588.05663084 43.56176618 1598.96169528 65.73167981 1598.96838428 86.95708596 C1598.97254726 88.64157795 1598.97254726 88.64157795 1598.97679433 90.36010009 C1598.97373982 92.20052416 1598.97373982 92.20052416 1598.97062361 94.07812852 C1598.97239862 95.39406947 1598.97417363 96.71001042 1598.97600243 98.06582837 C1598.98080617 101.73482576 1598.97936625 105.40379859 1598.97694473 109.07279736 C1598.97540473 113.07311788 1598.97965751 117.07343291 1598.98317149 121.0737516 C1598.98855098 128.1173407 1598.99018781 135.16092312 1598.98942075 142.20451412 C1598.98828668 152.74921229 1598.9928621 163.29390267 1598.99855159 173.83859909 C1599.00807038 191.80801404 1599.0127719 209.77742743 1599.01486093 227.74684465 C1599.01698814 245.96462499 1599.0212449 264.18240293 1599.02810365 282.40018213 C1599.02853426 283.54960448 1599.02896488 284.69902683 1599.02940854 285.88328016 C1599.03116686 290.56449816 1599.0329365 295.24571615 1599.03472156 299.92693414 C1599.05633019 356.70473117 1599.06720159 413.48252869 1599.0761978 470.2603289 C1599.07913105 488.66989538 1599.08250085 507.07946175 1599.08616501 525.4890281 C1599.0864233 526.78747004 1599.08668159 528.08591199 1599.08694771 529.42370066 C1599.08799391 534.67657154 1599.08904234 539.92944243 1599.09009353 545.18231331 C1599.1055313 622.39329016 1599.12036885 699.60426782 1599.13085256 814.73756504 C1599.13137702 821.08961673 1599.13191434 827.44166841 1599.13245103 833.7937201 C1599.13263024 835.91503281 1599.1328092 838.03634552 1599.13298812 840.15765823 C1599.1341252 853.63381534 1599.13527127 867.10997245 1599.13643632 880.58612956 C1599.13674363 884.14159139 1599.13704956 887.69705323 1599.13735222 891.25251506 C1599.14307173 958.3996516 1599.15231338 1025.54678436 1599.17476922 1092.69391763 C1599.17500545 1093.40072594 1599.17524168 1094.10753426 1599.17548506 1094.835761 C1599.18311292 1117.63010815 1599.19116175 1140.42445515 1599.19927033 1163.21880212 C1599.20707795 1185.16749938 1599.21480139 1207.11619667 1599.22216016 1229.06489408 C1599.22239425 1229.76259349 1599.22262834 1230.4602929 1599.22286952 1231.17913471 C1599.23750732 1274.8775291 1599.24730828 1318.57592247 1599.25203496 1362.27431905 C1599.25214535 1363.28676162 1599.25214535 1363.28676162 1599.25225798 1364.31965757 C1599.2555564 1394.6280977 1599.25769333 1424.9365378 1599.25870803 1455.2449781 C1599.25912278 1467.16540899 1599.25967767 1479.08583988 1599.26026994 1491.00627077 C1599.26036094 1492.96321772 1599.26036094 1492.96321772 1599.26045378 1494.95969896 C1599.26247058 1537.00154045 1599.27671493 1579.04336679 1599.29721494 1621.08520299 C1599.31778812 1663.42720458 1599.32569403 1705.76918864 1599.31613718 1748.11119472 C1599.3148187 1753.96093163 1599.31364066 1759.81066856 1599.31254655 1765.66040552 C1599.31221678 1767.3804874 1599.31221678 1767.3804874 1599.31188034 1769.13531841 C1599.30876478 1787.30024377 1599.31909737 1805.46513564 1599.3350221 1823.63005323 C1599.35039882 1841.48748222 1599.35153311 1859.34486486 1599.33747387 1877.20229545 C1599.32965804 1887.67405471 1599.33279286 1898.14567241 1599.35211103 1908.61741755 C1599.36385029 1915.57344278 1599.36106006 1922.52936463 1599.34649639 1929.48538426 C1599.33864797 1933.42776206 1599.33691397 1937.369863 1599.35311542 1941.31222158 C1599.42970787 1961.245079 1598.69453995 1978.95220646 1589.84182245 1997.25299966 C1589.40096307 1998.17467935 1588.9601037 1999.09635904 1588.50588495 2000.04596841 C1577.71607617 2021.17849444 1558.22803362 2037.25306911 1535.8950451 2044.92145669 C1528.84322649 2047.16320019 1521.6455327 2049.37707076 1514.20014236 2049.37908883 C1512.83389535 2049.3830934 1512.83389535 2049.3830934 1511.44004739 2049.38717887 C1510.44558814 2049.38502439 1509.4511289 2049.38286992 1508.42653453 2049.38065016 C1507.35940953 2049.38230094 1506.29228453 2049.38395172 1505.1928224 2049.38565252 C1501.5855727 2049.38999652 1497.97836344 2049.38717024 1494.37111264 2049.38442743 C1491.76021678 2049.38607616 1489.14932116 2049.38816202 1486.53842595 2049.39064753 C1480.82762406 2049.3953666 1475.11683084 2049.39634435 1469.40602732 2049.39491919 C1460.85659545 2049.39280131 1452.30717258 2049.39640679 1443.7577421 2049.40113396 C1429.18843799 2049.40901511 1414.61913633 2049.4120964 1400.04983026 2049.41257989 C1385.2792799 2049.41308188 1370.50873229 2049.41572472 1355.73818284 2049.42098749 C1354.34026351 2049.42148269 1354.34026351 2049.42148269 1352.91410339 2049.42198789 C1349.11858988 2049.42333785 1345.32307638 2049.42470052 1341.52756288 2049.42608 C1296.5634924 2049.44239318 1251.59942243 2049.44876996 1206.63534949 2049.45352787 C1184.25011847 2049.45591 1161.86488774 2049.45961326 1139.47965695 2049.46356496 C1067.69464374 2049.47623034 995.90963054 2049.48701419 924.12461623 2049.49040542 C920.69278222 2049.49056766 917.26094821 2049.49073322 913.8291142 2049.49089981 C906.94637867 2049.49123361 900.06364314 2049.49156409 893.18090761 2049.49189436 C885.1226903 2049.49228127 877.06447299 2049.49267087 869.00625568 2049.49306543 C866.69991778 2049.49317785 864.39357987 2049.49328927 862.08724197 2049.49339968 C788.00908923 2049.49694944 713.93094619 2049.51202864 639.85279715 2049.53533743 C586.63167315 2049.55207673 533.41055099 2049.56755315 480.18942434 2049.57207239 C479.09513094 2049.57216587 478.00083754 2049.57225936 476.87338373 2049.57235568 C452.85194662 2049.57437464 428.83050954 2049.57553075 404.80907235 2049.57588426 C396.21385633 2049.57602044 387.61864032 2049.57622943 379.0234243 2049.57647752 C376.88509993 2049.57653908 374.74677556 2049.5765974 372.60845118 2049.57665246 C338.52166811 2049.57757264 304.43489515 2049.58754525 270.34811541 2049.60210995 C236.01776263 2049.61672003 201.68742227 2049.62177145 167.35706694 2049.61369041 C162.61406851 2049.61257501 157.87107007 2049.61156436 153.12807161 2049.61061609 C152.19830471 2049.61042612 151.26853782 2049.61023615 150.31059617 2049.61004043 C135.58300166 2049.60730577 120.85543009 2049.61465199 106.12784058 2049.62618946 C91.64919469 2049.63732252 77.17058126 2049.63776925 62.69193488 2049.62681927 C54.20177246 2049.62071932 45.71170798 2049.62282692 37.22155478 2049.63707124 C31.58156016 2049.64571354 25.94163755 2049.6434559 20.30164737 2049.63237253 C17.10531638 2049.6263953 13.9092143 2049.62667684 10.71288906 2049.63705739 C-19.51128085 2049.72877207 -43.66783777 2042.73936896 -66.22067755 2021.56549966 C-81.88855483 2005.36061853 -92.28873268 1982.13782675 -92.28122538 1959.48829877 C-92.28237923 1958.84201661 -92.28353307 1958.19573445 -92.28472188 1957.52986798 C-92.28735976 1955.373511 -92.28288985 1953.21722934 -92.27843207 1951.06087625 C-92.27886835 1949.49566015 -92.27974431 1947.93044412 -92.28102124 1946.36522847 C-92.28325502 1942.07123966 -92.27926017 1937.77727583 -92.27424318 1933.4832902 C-92.26992286 1928.85010479 -92.27138623 1924.21692077 -92.27214545 1919.58373392 C-92.27266968 1911.55876269 -92.2695334 1903.5337996 -92.26390761 1895.50883043 C-92.25577898 1883.90608598 -92.25317599 1872.30334546 -92.25191962 1860.70059847 C-92.24973125 1841.87569677 -92.24307697 1823.0507994 -92.23361701 1804.22590005 C-92.22443734 1785.93976746 -92.21735922 1767.65363605 -92.2131092 1749.36750162 C-92.21271511 1747.67663372 -92.21271511 1747.67663372 -92.21231306 1745.95160688 C-92.21100802 1740.29652239 -92.20974431 1734.6414379 -92.20850116 1728.9863534 C-92.19813523 1682.07523248 -92.18052274 1635.1641163 -92.15817755 1588.25299966 C-93.06484439 1588.25413882 -93.97151123 1588.25527799 -94.90565282 1588.25645167 C-148.65836599 1588.32360579 -202.4110747 1588.37506941 -256.16382144 1588.40619565 C-262.61994803 1588.40994771 -269.07607453 1588.41383068 -275.53220099 1588.41779459 C-276.81748361 1588.41858152 -278.10276623 1588.41936845 -279.42699681 1588.42017923 C-300.23006752 1588.43322828 -321.03311332 1588.45687938 -341.83616926 1588.48445805 C-363.1866896 1588.51252615 -384.53719691 1588.5291789 -405.88773495 1588.53526515 C-419.05901467 1588.53937866 -432.23022399 1588.55236462 -445.40148203 1588.57674906 C-454.43710858 1588.59262356 -463.47269881 1588.59739613 -472.50833829 1588.5935038 C-477.71910659 1588.59158494 -482.92975197 1588.59449831 -488.14049834 1588.61061609 C-492.91785433 1588.6252849 -497.69500551 1588.62590695 -502.47237121 1588.61569635 C-504.19401277 1588.61443559 -505.91566746 1588.61818171 -507.63728346 1588.62764921 C-532.70615173 1588.7574101 -555.28757002 1581.27694224 -574.15817755 1564.25299966 C-575.32993537 1563.20499185 -575.32993537 1563.20499185 -576.52536505 1562.13581216 C-591.86789819 1547.64269262 -603.46093512 1525.31514292 -604.28473939 1503.97440107 C-604.28547837 1502.77497011 -604.28621735 1501.57553915 -604.28697872 1500.33976179 C-604.28964124 1499.32624335 -604.28964124 1499.32624335 -604.29235754 1498.2922498 C-604.29709323 1496.02529172 -604.29472557 1493.75839739 -604.29239863 1491.49143636 C-604.29435201 1489.84384941 -604.29674103 1488.19626293 -604.2995266 1486.54867718 C-604.30593148 1482.0019437 -604.30608783 1477.45522789 -604.30524919 1472.90849076 C-604.3054186 1467.96907439 -604.31132366 1463.02966436 -604.31649005 1458.09025115 C-604.32582221 1448.28474452 -604.32973914 1438.47924241 -604.33200902 1428.6737319 C-604.3349695 1416.93206047 -604.34366601 1405.19039504 -604.3524233 1393.44872675 C-604.37327522 1365.06621701 -604.3837422 1336.68370545 -604.39255291 1308.30118996 C-604.39548721 1298.90105955 -604.39885715 1289.50092936 -604.40252012 1280.1007992 C-604.40277841 1279.43757203 -604.4030367 1278.77434487 -604.40330282 1278.09101991 C-604.40434906 1275.40777175 -604.40539748 1272.72452359 -604.40644864 1270.04127544 C-604.42441394 1224.14099525 -604.43979221 1178.2407147 -604.44720767 1132.3404315 C-604.44779164 1128.73514235 -604.44838891 1125.1298532 -604.44898529 1121.52456405 C-604.44910341 1120.80939402 -604.44922153 1120.09422399 -604.44934323 1119.35738214 C-604.4505406 1112.11178766 -604.45174937 1104.86619318 -604.45297576 1097.62059871 C-604.453221 1096.16784346 -604.45346485 1094.71508822 -604.45370733 1093.26233297 C-604.46149531 1046.6155467 -604.48387452 999.9687856 -604.51638376 953.32201032 C-604.53973493 919.80464239 -604.56128382 886.28727947 -604.56839007 852.76990354 C-604.56853709 852.08034038 -604.56868411 851.39077722 -604.56883559 850.6803182 C-604.5720207 835.54122711 -604.57407139 820.40213606 -604.57506314 805.26304467 C-604.57547786 799.17133586 -604.57603276 793.07962706 -604.57662505 786.98791826 C-604.57668572 786.32122975 -604.57674639 785.65454124 -604.57680889 784.96765005 C-604.57888578 762.84359914 -604.59435144 740.71958052 -604.6154669 718.59554034 C-604.63571884 697.03421611 -604.64120517 675.47292735 -604.63169626 653.91159537 C-604.62647885 641.10206031 -604.63237026 628.29264331 -604.65423093 615.48312523 C-604.66773531 606.92316644 -604.66666516 598.36328894 -604.65382898 589.80332935 C-604.64693004 584.92825332 -604.64627075 580.05340304 -604.66338906 575.17834713 C-604.67886426 570.73490957 -604.67559684 566.29187788 -604.65797878 561.84845189 C-604.65485365 560.25906799 -604.6582911 558.66965248 -604.66947053 557.08030483 C-604.7711829 541.59981415 -601.95039353 527.29421807 -595.15817755 513.25299966 C-594.71731818 512.33131998 -594.2764588 511.40964029 -593.82224005 510.46003091 C-583.03243128 489.32750488 -563.54438873 473.25293021 -541.21140021 465.58454263 C-537.23155762 464.3193674 -533.21781703 463.22857194 -529.15817755 462.25299966 C-528.05490008 461.98682843 -528.05490008 461.98682843 -526.92933416 461.71528 C-523.51469445 461.14565474 -520.25934767 461.12894832 -516.79623431 461.12995183 C-516.06108766 461.12879799 -515.325941 461.12764415 -514.56851718 461.12645534 C-512.09782687 461.12380221 -509.62720134 461.12830013 -507.15651435 461.13274515 C-505.37028516 461.13230918 -503.58405603 461.1314338 -501.79782724 461.13015598 C-496.88363596 461.12791605 -491.9694664 461.13192549 -487.05527788 461.13693404 C-481.7581111 461.14124552 -476.46094558 461.13979162 -471.16377753 461.13903177 C-461.98414493 461.13850698 -452.80451942 461.14164911 -443.6248886 461.14726961 C-430.35262136 461.15539066 -417.08035756 461.15800045 -403.8080881 461.1592576 C-382.27561272 461.16144716 -360.74314112 461.16810467 -339.21066779 461.17756021 C-318.29172267 461.18673679 -297.37277858 461.19381642 -276.45383185 461.19806802 C-274.52022914 461.19846211 -274.52022914 461.19846211 -272.54756375 461.19886415 C-266.08079815 461.20016918 -259.61403254 461.20143289 -253.14726692 461.20267606 C-199.48423452 461.2130457 -145.82120622 461.23066143 -92.15817755 461.25299966 C-92.1598863 460.06178857 -92.1598863 460.06178857 -92.16162956 458.84651262 C-92.22880598 411.74904659 -92.28025856 364.65158579 -92.31137354 317.55408144 C-92.31512553 311.89537116 -92.31900851 306.23666097 -92.32297248 300.57795084 C-92.32375941 299.45143311 -92.32454634 298.32491538 -92.32535712 297.16426075 C-92.33840073 278.93877451 -92.36204882 260.71331675 -92.38963594 242.48784738 C-92.4177192 223.77816141 -92.43435999 205.06849032 -92.44044304 186.35878414 C-92.44455342 174.81971101 -92.45752225 163.28071837 -92.48192696 151.74167002 C-92.49782019 143.82221754 -92.5025698 135.9028065 -92.49868169 127.98333924 C-92.49676572 123.41850016 -92.49964276 118.85380145 -92.51579398 114.28898752 C-92.53050419 110.10062147 -92.53105863 105.91248881 -92.52087424 101.7241115 C-92.51961745 100.21779333 -92.52332827 98.71145997 -92.5328271 97.20517122 C-92.69071233 70.59697689 -83.91670269 46.16944359 -65.1230213 27.12018716 C-47.48304838 9.83720694 -24.73834008 -0.11483306 0 0 Z " fill="#117B41" transform="translate(604.1581775546074,-0.2529996633529663)"/>
<path d="M0 0 C87.78 0 175.56 0 266 0 C266 168.96 266 337.92 266 512 C536.6 512 807.2 512 1086 512 C1086.16151457 748.48873581 1086.16151457 748.48873581 1086.19265985 839.04302347 C1086.20107232 863.44042447 1086.20970986 887.83782539 1086.21891702 912.23522611 C1086.2197246 914.38127078 1086.22052532 916.52731546 1086.22132435 918.67336013 C1086.23358189 951.52563238 1086.24918121 984.37789867 1086.2746582 1017.23016357 C1086.2752058 1017.93636495 1086.27575339 1018.64256633 1086.27631758 1019.37016776 C1086.2851668 1030.75585098 1086.29430134 1042.14153398 1086.30347376 1053.52721695 C1086.32989652 1086.33107053 1086.35420117 1119.13491953 1086.36455917 1151.93878269 C1086.36488038 1152.9511796 1086.36488038 1152.9511796 1086.36520808 1153.98402897 C1086.36966226 1168.13679377 1086.37321195 1182.28955865 1086.37565996 1196.44232394 C1086.37681258 1203.07064012 1086.37811513 1209.69895627 1086.37950897 1216.32727242 C1086.37977866 1217.63182028 1086.38004836 1218.93636814 1086.38032622 1220.28044776 C1086.38505311 1241.28017703 1086.40360543 1262.27987242 1086.42732814 1283.27958787 C1086.45088233 1304.39131872 1086.4598706 1325.50301597 1086.45400551 1346.6147595 C1086.4509632 1359.15765299 1086.45907418 1371.70042356 1086.48319017 1384.24329486 C1086.49820574 1392.62572642 1086.49864335 1401.00807762 1086.48732725 1409.39051476 C1086.48129712 1414.16430599 1086.48151046 1418.93786498 1086.49953273 1423.71163117 C1086.51583586 1428.0632355 1086.51336857 1432.41442848 1086.4965599 1436.7660272 C1086.49372656 1438.32218311 1086.49745429 1439.87837016 1086.50894098 1441.43448626 C1086.61513323 1456.80772352 1083.74187618 1471.0628466 1077 1485 C1076.55914063 1485.92167969 1076.11828125 1486.84335938 1075.6640625 1487.79296875 C1064.87425372 1508.92549478 1045.38621118 1525.00006945 1023.05322266 1532.66845703 C1016.00140404 1534.91020053 1008.80371025 1537.1240711 1001.35831991 1537.12608917 C1000.44748857 1537.12875888 999.53665723 1537.13142859 998.59822494 1537.1341792 C997.6037657 1537.13202473 996.60930646 1537.12987026 995.58471209 1537.1276505 C994.51758709 1537.12930128 993.45046208 1537.13095206 992.35099996 1537.13265286 C988.74375025 1537.13699685 985.13654099 1537.13417058 981.5292902 1537.13142776 C978.91839433 1537.1330765 976.30749871 1537.13516236 973.69660351 1537.13764787 C967.98580162 1537.14236693 962.2750084 1537.14334469 956.56420488 1537.14191952 C948.01477301 1537.13980165 939.46535014 1537.14340713 930.91591965 1537.1481343 C916.34661554 1537.15601544 901.77731389 1537.15909673 887.20800781 1537.15958023 C872.43745746 1537.16008222 857.66690985 1537.16272506 842.8963604 1537.16798782 C841.49844107 1537.16848302 841.49844107 1537.16848302 840.07228094 1537.16898823 C836.27676744 1537.17033819 832.48125393 1537.17170085 828.68574044 1537.17308033 C783.72166995 1537.18939351 738.75759999 1537.19577029 693.79352704 1537.2005282 C671.40829602 1537.20291034 649.0230653 1537.20661359 626.6378345 1537.2105653 C554.85282129 1537.22323068 483.0678081 1537.23401452 411.28279379 1537.23740576 C407.85095978 1537.237568 404.41912577 1537.23773356 400.98729176 1537.23790014 C394.10455623 1537.23823395 387.22182069 1537.23856443 380.33908516 1537.2388947 C372.28086785 1537.2392816 364.22265055 1537.23967121 356.16443324 1537.24006577 C353.85809533 1537.24017818 351.55175743 1537.2402896 349.24541952 1537.24040002 C275.16726678 1537.24394977 201.08912374 1537.25902898 127.0109747 1537.28233776 C73.78985071 1537.29907707 20.56872855 1537.31455349 -32.65239811 1537.31907272 C-33.74669151 1537.31916621 -34.84098491 1537.3192597 -35.96843871 1537.31935601 C-59.98987582 1537.32137498 -84.0113129 1537.32253109 -108.03275009 1537.3228846 C-116.62796611 1537.32302078 -125.22318213 1537.32322977 -133.81839815 1537.32347785 C-135.95672252 1537.32353941 -138.09504689 1537.32359773 -140.23337126 1537.3236528 C-174.32015434 1537.32457298 -208.40692729 1537.33454559 -242.49370704 1537.34911029 C-276.82405981 1537.36372037 -311.15440017 1537.36877179 -345.48475551 1537.36069075 C-350.22775393 1537.35957535 -354.97075238 1537.3585647 -359.71375084 1537.35761642 C-360.64351773 1537.35742646 -361.57328463 1537.35723649 -362.53122628 1537.35704076 C-377.25882079 1537.35430611 -391.98639235 1537.36165232 -406.71398187 1537.37318979 C-421.19262776 1537.38432285 -435.67124118 1537.38476958 -450.14988757 1537.37381961 C-458.64004998 1537.36771966 -467.13011446 1537.36982726 -475.62026766 1537.38407158 C-481.26026229 1537.39271387 -486.9001849 1537.39045624 -492.54017507 1537.37937287 C-495.73650606 1537.37339564 -498.93260814 1537.37367718 -502.12893339 1537.38405773 C-532.3531033 1537.47577241 -556.50966022 1530.4863693 -579.0625 1509.3125 C-594.73037727 1493.10761887 -605.13055513 1469.88482709 -605.12304783 1447.23529911 C-605.12420167 1446.58901695 -605.12535552 1445.94273478 -605.12654433 1445.27686831 C-605.12918221 1443.12051134 -605.12471229 1440.96422968 -605.12025452 1438.80787659 C-605.1206908 1437.24266048 -605.12156675 1435.67744445 -605.12284368 1434.11222881 C-605.12507747 1429.81823999 -605.12108261 1425.52427617 -605.11606562 1421.23029053 C-605.1117453 1416.59710512 -605.11320867 1411.96392111 -605.1139679 1407.33073425 C-605.11449213 1399.30576303 -605.11135584 1391.28079994 -605.10573006 1383.25583076 C-605.09760142 1371.65308631 -605.09499844 1360.0503458 -605.09374207 1348.44759881 C-605.09155369 1329.62269711 -605.08489942 1310.79779974 -605.07543945 1291.97290039 C-605.06625979 1273.6867678 -605.05918166 1255.40063638 -605.05493164 1237.11450195 C-605.05466892 1235.98725669 -605.05440619 1234.86001143 -605.05413551 1233.69860721 C-605.05283047 1228.04352273 -605.05156676 1222.38843823 -605.05032361 1216.73335373 C-605.03995768 1169.82223282 -605.02234519 1122.91111663 -605 1076 C-603.34653072 1075.99796521 -603.34653072 1075.99796521 -601.65965801 1075.99588931 C-553.05649866 1075.93594741 -504.4533433 1075.87354621 -455.85020447 1075.79867554 C-455.11384897 1075.79754191 -454.37749346 1075.79640829 -453.61882416 1075.79524031 C-437.61408239 1075.77058626 -421.60934134 1075.74549326 -405.60460097 1075.71994839 C-397.75536236 1075.70742303 -389.90612361 1075.69499463 -382.05688477 1075.68261719 C-380.88527276 1075.6807672 -380.88527276 1075.6807672 -379.68999183 1075.67887984 C-354.39387557 1075.63898243 -329.09775577 1075.60548123 -303.80162619 1075.57531309 C-277.79668404 1075.54426573 -251.79175906 1075.50673326 -225.78683823 1075.46109388 C-222.10998717 1075.45464391 -218.43313598 1075.44826773 -214.75628471 1075.44193649 C-214.03266005 1075.44068819 -213.30903539 1075.43943988 -212.56348271 1075.43815375 C-200.9364906 1075.41828581 -189.3095004 1075.4052114 -177.68249648 1075.39470672 C-165.98049797 1075.38398825 -154.27852952 1075.36588432 -142.57655282 1075.34083296 C-136.24143065 1075.32748455 -129.90634593 1075.31730557 -123.57120895 1075.31578636 C-117.7630362 1075.31432242 -111.95495349 1075.30364649 -106.14680844 1075.28586559 C-104.05365818 1075.28104415 -101.960497 1075.27950651 -99.86734236 1075.28172119 C-70.77858359 1075.30743026 -43.29126754 1071.4203933 -21 1051 C-20.2575 1050.34902344 -19.515 1049.69804688 -18.75 1049.02734375 C-1.89887234 1033.37568871 7.31369 1010.67905623 9 988 C9.1472403 982.66568373 9.13977535 977.33283572 9.13422108 971.99702549 C9.13617601 970.35988809 9.13856562 968.72275115 9.14134905 967.08561495 C9.14773446 962.58187441 9.14791184 958.07815174 9.14707164 953.57440754 C9.14724143 948.67636644 9.15315078 943.7783317 9.1583125 938.88029379 C9.16763268 929.16337768 9.17155956 919.44646612 9.17383147 909.7295461 C9.17679501 898.09144189 9.18549327 886.45334372 9.19424575 874.81524269 C9.21508396 846.68673298 9.22556215 818.55822221 9.23437535 790.42970658 C9.23856765 777.12317889 9.24380428 763.81665164 9.24905988 750.51012433 C9.266715 705.67432132 9.2817212 660.83851792 9.28903012 616.00271194 C9.28961408 612.42972895 9.29021135 608.85674595 9.29080774 605.28376296 C9.29098492 604.22063135 9.29098492 604.22063135 9.29116567 603.13602233 C9.29236304 595.95554231 9.2935718 588.77506228 9.29479821 581.59458226 C9.29504344 580.15489359 9.2952873 578.71520493 9.29552978 577.27551626 C9.30331848 531.04394057 9.32570047 484.81239027 9.3582062 438.58082568 C9.38155869 405.35635945 9.40310673 372.13189827 9.41021252 338.90742397 C9.41035954 338.22384317 9.41050656 337.54026238 9.41065803 336.83596701 C9.41384318 321.82805182 9.41589385 306.82013668 9.41688558 291.8122212 C9.4173003 285.77332219 9.4178552 279.7344232 9.41844749 273.69552422 C9.41850816 273.03462355 9.41856883 272.37372288 9.41863134 271.69279493 C9.42070779 249.76556128 9.43617023 227.83836955 9.45728934 205.91114785 C9.47754471 184.54172785 9.48302596 163.17234364 9.47351871 141.80291582 C9.46830284 129.10910806 9.47418545 116.41541946 9.49605338 103.72162886 C9.50956393 95.23764065 9.50848215 86.75373443 9.49565142 78.2697454 C9.48875666 73.4389328 9.48807889 68.60834795 9.50521151 63.77755571 C9.52070416 59.37314791 9.51740116 54.96914927 9.49980123 50.56475303 C9.49668007 48.99062658 9.5000985 47.41646811 9.51129298 45.84237837 C9.60788593 31.2998151 7.65734691 17.05409879 0.953125 3.96875 C0 2 0 2 0 0 Z " fill="#185C37" transform="translate(1117,512)"/>
<path d="M0 0 C182.655 -0.12375 182.655 -0.12375 369 -0.25 C407.48753906 -0.28641602 445.97507812 -0.32283203 485.62890625 -0.36035156 C532.52929688 -0.37841797 532.52929688 -0.37841797 554.46655273 -0.3817749 C570.84151811 -0.38575638 587.21641753 -0.40301513 603.59136439 -0.42669371 C620.29115517 -0.45051558 636.99090431 -0.45934424 653.69071144 -0.4537798 C663.61826339 -0.4509113 673.54566037 -0.45885196 683.47318362 -0.48323038 C690.03326772 -0.49824557 696.59324907 -0.49866897 703.15334029 -0.48734136 C706.8865131 -0.48130804 710.61938883 -0.48148837 714.35252953 -0.49953032 C746.13487825 -0.64407433 770.96613682 5.86444369 794.625 28.25 C809.64644214 43.75427421 820.12708509 66.03259475 820.1241985 87.79173458 C820.12547658 88.45424806 820.12675467 89.11676154 820.12807148 89.79935119 C820.13113637 92.02141439 820.12707117 94.24340661 820.12304783 96.46546745 C820.12378753 98.08067927 820.12496617 99.69589094 820.12654433 101.31110215 C820.12961873 105.76783274 820.12643375 110.22454059 820.12226619 114.68126949 C820.11883694 119.52286332 820.12120185 124.3644548 820.12284368 129.20604908 C820.12491962 137.69745078 820.1232699 146.18884547 820.11920547 154.68024635 C820.11317855 167.30671489 820.11286892 179.933179 820.11374746 192.55964871 C820.11506245 213.79781234 820.11171585 235.03597286 820.10573006 256.27413559 C820.0998169 277.30838918 820.09596489 298.34264148 820.09487724 319.3768959 C820.0948085 320.68380848 820.09473976 321.99072106 820.09466894 323.33723704 C820.09433062 329.97414564 820.09402923 336.61105424 820.09374207 343.24796285 C820.09314779 356.74471596 820.09221055 370.24146904 820.09113979 383.73822212 C820.09108648 384.41351918 820.09103316 385.08881624 820.09097823 385.78457685 C820.08835636 418.63828609 820.08204865 451.49199449 820.07543945 484.34570312 C820.0731478 495.74745686 820.07087245 507.1492106 820.06866455 518.55096436 C820.06845913 519.61166328 820.06845913 519.61166328 820.06824955 520.69379046 C820.0619068 553.55967478 820.05819109 586.42555925 820.05513173 619.29144403 C820.05493116 621.44166366 820.05472886 623.59188329 820.05452599 625.74210292 C820.05218911 650.5200858 820.05001183 675.29806869 820.04788104 700.07605159 C820.03849038 808.05070266 820.01842082 916.02534932 820 1024 C549.4 1024 278.8 1024 0 1024 C0 686.08 0 348.16 0 0 Z " fill="#21A366" transform="translate(1383,0)"/>
<path d="M0 0 C70.95 0 141.9 0 215 0 C215 168.96 215 337.92 215 512 C485.6 512 756.2 512 1035 512 C1035 681.29 1035 850.58 1035 1025 C764.4 1025 493.8 1025 215 1025 C215 856.04 215 687.08 215 513 C147.35 513 79.7 513 10 513 C9.98541748 498.44181152 9.97083496 483.88362305 9.95581055 468.88427734 C9.92321072 437.73938077 9.88673417 406.59449529 9.84101868 375.44961548 C9.84002311 374.77064504 9.83902754 374.09167461 9.83800181 373.39212932 C9.81634153 358.63504453 9.79401871 343.87796081 9.77101372 329.12087806 C9.75973554 321.88364546 9.74860372 314.64641263 9.73754883 307.40917969 C9.73644626 306.68900129 9.7353437 305.9688229 9.73420772 305.22682092 C9.69856122 281.89830921 9.67257239 258.56979894 9.65161031 235.24126981 C9.63001169 211.26125047 9.59863289 187.28126324 9.55500887 163.30127337 C9.54884694 159.91157932 9.54279641 156.52188508 9.53681374 153.1321907 C9.53563285 152.46507294 9.53445197 151.79795518 9.53323531 151.11062173 C9.51569584 141.05036451 9.50671103 130.99012247 9.50238609 120.92985153 C9.49739398 109.47620394 9.48240898 98.02262539 9.45433434 86.56901012 C9.44033609 80.72638039 9.43114233 74.88384819 9.43499184 69.04120064 C9.43841281 63.68649422 9.42797529 58.3319958 9.40676448 52.97733195 C9.40151486 51.04574343 9.40124237 49.1141332 9.40660437 47.18254499 C9.45029769 29.64926465 6.37749581 17.00665551 0 0 Z " fill="#107C41" transform="translate(1168,512)"/>
<path d="M0 0 C185.27515763 -0.16151457 185.27515763 -0.16151457 256.23969173 -0.19265985 C274.79615062 -0.2008246 293.3526094 -0.20917624 311.90906793 -0.21810398 C314.15358442 -0.21918334 316.39810091 -0.22025683 318.6426174 -0.22132435 C354.41757257 -0.2383883 390.19250242 -0.26840084 425.96744229 -0.30518888 C462.73898466 -0.34293302 499.51051303 -0.36754497 536.28207445 -0.37565996 C541.47714269 -0.37681256 546.67221087 -0.37811511 551.86727905 -0.37950897 C553.40095793 -0.37991351 553.40095793 -0.37991351 554.96562023 -0.38032622 C571.41680773 -0.38505101 587.86795194 -0.40359766 604.31912179 -0.42732814 C620.86263124 -0.4508963 637.40609782 -0.4598671 653.94962347 -0.45400551 C663.77549766 -0.45096584 673.60121479 -0.45905052 683.42706059 -0.48319017 C689.99712492 -0.49822663 696.5670868 -0.49862878 703.13715829 -0.48732725 C706.8766479 -0.48130792 710.61584121 -0.48146525 714.35529864 -0.49953273 C746.13648099 -0.64406668 770.96712659 5.86538019 794.625 28.25 C809.91277105 44.0291637 820.12946511 66.38110532 820.12304783 88.4693737 C820.12420157 89.20425227 820.12535532 89.93913084 820.12654402 90.69627846 C820.12919075 93.15885982 820.12470557 95.62137585 820.12025452 98.08395386 C820.12069201 99.86261511 820.12156907 101.64127629 820.12284851 103.41993713 C820.12509368 108.31843404 820.12107501 113.21690913 820.11607273 118.11540326 C820.11171125 123.4748395 820.113167 128.83427471 820.11389065 134.19371223 C820.11442269 144.6009832 820.10980164 155.00824555 820.10338932 165.4155143 C820.09619514 177.45157093 820.09539489 189.48762238 820.09460449 201.52368164 C820.0893521 233.30745579 820.07539102 265.09122803 820.0625 296.875 C820.041875 367.86625 820.02125 438.8575 820 512 C549.4 512 278.8 512 0 512 C0 343.04 0 174.08 0 0 Z " fill="#32C380" transform="translate(1383,0)"/>
<path d="M0 0 C1.36010977 -0.00148217 2.72021882 -0.0038424 4.08032575 -0.006993 C7.80547426 -0.01309779 11.53051262 -0.00680871 15.25565287 0.00156327 C19.31285925 0.00845856 23.37005496 0.00368497 27.42726356 0.00040829 C34.53371712 -0.00373214 41.64013714 -0.00046368 48.7465868 0.00768471 C59.3135707 0.0197673 69.8805335 0.02035515 80.44752305 0.01860073 C98.22387537 0.01597429 116.0002128 0.02265061 133.77656078 0.03463554 C151.37643666 0.04647108 168.97630635 0.05416774 186.57618618 0.05634117 C188.21787291 0.05654739 188.21787291 0.05654739 189.89272503 0.05675778 C195.45096196 0.05743444 201.0091989 0.05803721 206.56743584 0.05861153 C245.93262783 0.06281194 285.29781172 0.07628551 324.66299915 0.09521675 C362.9048607 0.11358654 401.14672002 0.1277195 439.38858509 0.13623238 C441.79351379 0.13677366 444.1984425 0.13731507 446.6033712 0.1378566 C466.14454045 0.14223417 485.68570976 0.14631932 505.22687908 0.15033357 C595.58751076 0.16910675 685.94812131 0.20924803 776.30875111 0.24609566 C776.30875111 169.20609566 776.30875111 338.16609566 776.30875111 512.24609566 C705.35875111 512.24609566 634.40875111 512.24609566 561.30875111 512.24609566 C558.66875111 508.28609566 556.02875111 504.32609566 553.30875111 500.24609566 C540.65222685 483.49481355 525.15681931 472.71175424 505.30875111 466.24609566 C504.5197469 465.91815368 503.7307427 465.5902117 502.91782928 465.25233209 C491.01391577 460.66138054 477.26032622 461.95581987 464.73276234 461.96762276 C462.31764516 461.96261642 459.90252966 461.95673964 457.48741651 461.95007002 C452.24774557 461.93758581 447.00810441 461.93121507 441.76842022 461.9303093 C433.97729941 461.92892893 426.18622616 461.9161194 418.39512134 461.90102155 C405.28700837 461.87594131 392.17889943 461.86005027 379.0707674 461.84943962 C366.09654085 461.83890717 353.1223296 461.82426396 340.1481142 461.80415916 C339.34069891 461.8029103 338.53328361 461.80166143 337.70140118 461.80037472 C333.60076241 461.79401076 329.50012376 461.78757363 325.39948514 461.78110833 C296.37266641 461.73547458 267.34584271 461.69901455 238.31900501 461.66797066 C210.12401063 461.63779537 181.92902634 461.60345157 153.73404408 461.56347847 C152.86458779 461.56224747 151.99513151 461.56101646 151.09932807 461.55974816 C142.36770124 461.54738105 133.63607453 461.53492935 124.90444791 461.52241567 C107.11793133 461.49692697 89.33141398 461.4720028 71.54489613 461.44742012 C70.72714356 461.44628921 69.909391 461.4451583 69.06685806 461.44399312 C14.48083411 461.36856821 -40.10520635 461.30634327 -94.69124889 461.24609566 C-94.75995887 413.3464677 -94.81279995 365.44684498 -94.84444488 317.54717743 C-94.84819687 311.88846715 -94.85207985 306.22975697 -94.85604382 300.57104683 C-94.85683075 299.4445291 -94.85761768 298.31801137 -94.85842846 297.15735675 C-94.87147207 278.93187051 -94.89512016 260.70641274 -94.92270728 242.48094337 C-94.95079054 223.7712574 -94.96743133 205.06158632 -94.97351438 186.35188013 C-94.97762476 174.812807 -94.99059359 163.27381436 -95.01499829 151.73476601 C-95.03089153 143.81531354 -95.03564114 135.89590249 -95.03175303 127.97643524 C-95.02983706 123.41159616 -95.03271409 118.84689745 -95.04886532 114.28208351 C-95.06357553 110.09371746 -95.06412997 105.9055848 -95.05394558 101.7172075 C-95.05268879 100.21088933 -95.05639961 98.70455596 -95.06589844 97.19826721 C-95.22378367 70.59007288 -86.44977402 46.16253959 -67.65609264 27.11328316 C-49.0131989 8.84767894 -25.92970987 -0.10999715 0 0 Z " fill="#20A265" transform="translate(606.6912488937378,-0.2460956573486328)"/>
<path d="M0 0 C16.83 0 33.66 0 51 0 C53.6836314 5.36726279 55.83929136 9.9712316 57.6875 15.5625 C58.31205078 17.42068359 58.31205078 17.42068359 58.94921875 19.31640625 C60.72365367 25.53682308 61.14697659 31.58284064 61.1276505 38.02192885 C61.12930128 38.80550597 61.13095206 39.58908308 61.13265286 40.39640496 C61.1369707 43.0251045 61.13417877 45.65374782 61.13142776 48.28244877 C61.13307773 50.19303942 61.13516416 52.10362974 61.13764787 54.01421949 C61.14322 59.28651036 61.1425411 64.558785 61.14087028 69.83107787 C61.14014006 75.55870372 61.14516006 81.28632496 61.1494453 87.01394886 C61.15703165 98.38387919 61.15921868 109.75380482 61.15977435 121.12373741 C61.16035296 130.57997975 61.16337504 140.03621905 61.16798782 149.49246025 C61.16848302 150.51352222 61.16848302 150.51352222 61.16898823 151.5552117 C61.17033822 154.32761005 61.17170089 157.10000838 61.17308033 159.87240672 C61.18938384 192.69743745 61.19576903 225.52246746 61.2005282 258.34750155 C61.20291128 274.69172934 61.20661472 291.03595673 61.2105653 307.38018421 C61.22322973 359.80435641 61.23401373 412.2285286 61.23740576 464.65270231 C61.237568 467.15834881 61.23773356 469.66399531 61.23790014 472.1696418 C61.23823394 477.19477088 61.23856442 482.21989996 61.2388947 487.24502903 C61.2392816 493.12825755 61.23967121 499.01148608 61.24006577 504.8947146 C61.24017818 506.57854341 61.2402896 508.26237223 61.24040002 509.94620104 C61.24394964 564.02783322 61.25902887 618.10945212 61.28233776 672.19107923 C61.29907959 711.051445 61.3145545 749.91180827 61.31907272 788.7721777 C61.31916621 789.57137219 61.3192597 790.37056669 61.31935601 791.1939792 C61.32137507 808.73841116 61.32253111 826.28284308 61.3228846 843.82727515 C61.32302077 850.1050707 61.32322977 856.38286624 61.32347785 862.66066179 C61.32353941 864.22242482 61.32359773 865.78418786 61.3236528 867.3459509 C61.32457255 892.23017791 61.33453997 917.11439105 61.34911029 941.99861349 C61.36372771 967.06357813 61.36876721 992.12852575 61.36069075 1017.1934939 C61.35957539 1020.65824001 61.35856472 1024.12298615 61.35761642 1027.58773232 C61.35742646 1028.26690752 61.35723649 1028.94608273 61.35704076 1029.64583901 C61.35414269 1041.04654307 61.36312124 1052.44720596 61.37525584 1063.84790413 C61.38498783 1073.7669099 61.38384461 1083.68587574 61.37381961 1093.60488113 C61.36841478 1099.25859107 61.36775871 1104.91219165 61.38032833 1110.56589264 C61.39167471 1115.71229042 61.38913454 1120.85848994 61.37566125 1126.00488089 C61.3732317 1127.85212086 61.37579552 1129.69937615 61.38405773 1131.54659925 C61.49348589 1157.74031685 53.61761976 1180.36068617 36 1200 C35.13955078 1200.96679688 35.13955078 1200.96679688 34.26171875 1201.953125 C19.0116899 1218.11306011 -4.35742974 1228.5475717 -26.48660673 1230.18386687 C-29.09445685 1230.25170269 -31.69548369 1230.26122625 -34.30417061 1230.24609566 C-35.29665416 1230.24840335 -36.28913772 1230.25071103 -37.31169653 1230.25308865 C-40.62771682 1230.25837019 -43.94354176 1230.24941983 -47.259552 1230.24050903 C-49.66469203 1230.24138148 -52.06983187 1230.24313317 -54.4749707 1230.24568737 C-59.69905282 1230.24922447 -64.92309375 1230.24656787 -70.14716911 1230.23841095 C-77.91511189 1230.2263158 -85.68302601 1230.22574167 -93.45097649 1230.22749493 C-106.51937029 1230.23011984 -119.58774383 1230.22345087 -132.65613174 1230.21146011 C-145.59292832 1230.19962056 -158.52971645 1230.19192711 -171.4665184 1230.18975449 C-172.67368853 1230.18954827 -172.67368853 1230.18954827 -173.90524593 1230.18933788 C-177.99242243 1230.1886612 -182.07959893 1230.18805844 -186.16677545 1230.18748413 C-215.10598104 1230.18328483 -244.04517561 1230.16981436 -272.984375 1230.15087891 C-301.09602805 1230.13250618 -329.20767808 1230.11834084 -357.31933594 1230.10986328 C-358.18606716 1230.10960023 -359.05279838 1230.10933718 -359.94579419 1230.10906615 C-368.64997333 1230.10642908 -377.35415248 1230.10387746 -386.05833166 1230.10138843 C-403.78928466 1230.09631619 -421.52023747 1230.09067369 -439.25119019 1230.08468628 C-440.47401443 1230.08427441 -440.47401443 1230.08427441 -441.7215422 1230.08385422 C-466.705649 1230.0754091 -491.68975393 1230.06454725 -516.67385864 1230.05130005 C-517.38309742 1230.05092493 -518.09233619 1230.05054982 -518.82306704 1230.05016333 C-547.54871222 1230.03493372 -576.27435592 1230.01714523 -605 1230 C-605 1179.18 -605 1128.36 -605 1076 C-589.21551025 1075.98018066 -573.43102051 1075.96036133 -557.16821289 1075.93994141 C-546.62679519 1075.92641519 -536.08537763 1075.91284835 -525.54396057 1075.89883423 C-524.53935111 1075.89749943 -524.53935111 1075.89749943 -523.51444651 1075.89613767 C-500.95969529 1075.86613447 -478.40494886 1075.83341998 -455.85020447 1075.79867554 C-455.11384897 1075.79754191 -454.37749346 1075.79640829 -453.61882416 1075.79524031 C-437.61408239 1075.77058626 -421.60934134 1075.74549326 -405.60460097 1075.71994839 C-397.75536236 1075.70742303 -389.90612361 1075.69499463 -382.05688477 1075.68261719 C-380.88527276 1075.6807672 -380.88527276 1075.6807672 -379.68999183 1075.67887984 C-354.39387557 1075.63898243 -329.09775577 1075.60548123 -303.80162619 1075.57531309 C-277.79668404 1075.54426573 -251.79175906 1075.50673326 -225.78683823 1075.46109388 C-222.10998717 1075.45464391 -218.43313598 1075.44826773 -214.75628471 1075.44193649 C-214.03266005 1075.44068819 -213.30903539 1075.43943988 -212.56348271 1075.43815375 C-200.9364906 1075.41828581 -189.3095004 1075.4052114 -177.68249648 1075.39470672 C-165.98049797 1075.38398825 -154.27852952 1075.36588432 -142.57655282 1075.34083296 C-136.24143065 1075.32748455 -129.90634593 1075.31730557 -123.57120895 1075.31578636 C-117.7630362 1075.31432242 -111.95495349 1075.30364649 -106.14680844 1075.28586559 C-104.05365818 1075.28104415 -101.960497 1075.27950651 -99.86734236 1075.28172119 C-70.77858359 1075.30743026 -43.29126754 1071.4203933 -21 1051 C-20.2575 1050.34902344 -19.515 1049.69804688 -18.75 1049.02734375 C-1.89887234 1033.37568871 7.31369 1010.67905623 9 988 C9.1472403 982.66568373 9.13977535 977.33283572 9.13422108 971.99702549 C9.13617601 970.35988809 9.13856562 968.72275115 9.14134905 967.08561495 C9.14773446 962.58187441 9.14791184 958.07815174 9.14707164 953.57440754 C9.14724143 948.67636644 9.15315078 943.7783317 9.1583125 938.88029379 C9.16763268 929.16337768 9.17155956 919.44646612 9.17383147 909.7295461 C9.17679501 898.09144189 9.18549327 886.45334372 9.19424575 874.81524269 C9.21508396 846.68673298 9.22556215 818.55822221 9.23437535 790.42970658 C9.23856765 777.12317889 9.24380428 763.81665164 9.24905988 750.51012433 C9.266715 705.67432132 9.2817212 660.83851792 9.28903012 616.00271194 C9.28961408 612.42972895 9.29021135 608.85674595 9.29080774 605.28376296 C9.29098492 604.22063135 9.29098492 604.22063135 9.29116567 603.13602233 C9.29236304 595.95554231 9.2935718 588.77506228 9.29479821 581.59458226 C9.29504344 580.15489359 9.2952873 578.71520493 9.29552978 577.27551626 C9.30331848 531.04394057 9.32570047 484.81239027 9.3582062 438.58082568 C9.38155869 405.35635945 9.40310673 372.13189827 9.41021252 338.90742397 C9.41035954 338.22384317 9.41050656 337.54026238 9.41065803 336.83596701 C9.41384318 321.82805182 9.41589385 306.82013668 9.41688558 291.8122212 C9.4173003 285.77332219 9.4178552 279.7344232 9.41844749 273.69552422 C9.41850816 273.03462355 9.41856883 272.37372288 9.41863134 271.69279493 C9.42070779 249.76556128 9.43617023 227.83836955 9.45728934 205.91114785 C9.47754471 184.54172785 9.48302596 163.17234364 9.47351871 141.80291582 C9.46830284 129.10910806 9.47418545 116.41541946 9.49605338 103.72162886 C9.50956393 95.23764065 9.50848215 86.75373443 9.49565142 78.2697454 C9.48875666 73.4389328 9.48807889 68.60834795 9.50521151 63.77755571 C9.52070416 59.37314791 9.51740116 54.96914927 9.49980123 50.56475303 C9.49668007 48.99062658 9.5000985 47.41646811 9.51129298 45.84237837 C9.60788593 31.2998151 7.65734691 17.05409879 0.953125 3.96875 C0 2 0 2 0 0 Z " fill="#0D351F" transform="translate(1117,512)"/>
<path d="M0 0 C47.85 0 95.7 0 145 0 C156.85712844 22.52854403 156.85712844 22.52854403 162.33081055 33.21826172 C162.74535492 34.02777283 163.15989929 34.83728394 163.58700562 35.67132568 C164.01204376 36.50166321 164.43708191 37.33200073 164.875 38.1875 C165.31832672 39.05264221 165.76165344 39.91778442 166.21841431 40.80914307 C173.94046534 55.88431203 181.54901991 71.01460166 189.07568359 86.18823242 C192.89486021 93.875525 196.77685035 101.51922908 200.80078125 109.1015625 C207.47908199 121.69548187 213.7714266 134.48276241 220.11376953 147.24804688 C225.80418126 158.69449572 231.53648828 170.10568929 237.52972412 181.39689636 C241.11219524 188.16415672 244.51420756 195.00924111 247.83349609 201.90893555 C248.7604693 203.83424457 249.69438737 205.75607839 250.62890625 207.67773438 C262 231.15652448 262 231.15652448 262 236 C264.70878758 234.64560621 264.96351445 233.25200161 266.1796875 230.49609375 C266.60749512 229.54017334 267.03530273 228.58425293 267.47607422 227.59936523 C267.93771973 226.55594971 268.39936523 225.51253418 268.875 224.4375 C276.91220711 206.62217931 285.56225127 189.25046141 295.28466797 172.29272461 C298.64883827 166.42180889 301.88715096 160.50770967 305 154.5 C309.20020136 146.40157817 313.66564543 138.47162889 318.18359375 130.546875 C321.57004838 124.58671486 324.8435589 118.58483806 328 112.5 C331.56019075 105.64010266 335.29155559 98.8983482 339.125 92.1875 C344.25009055 83.20941775 349.16405919 74.1355486 354 65 C359.33802112 54.91597431 364.80737682 44.92772885 370.47070312 35.02124023 C374.36379958 28.1905699 378.07925277 21.28199529 381.66748047 14.28637695 C382.37656044 12.91282595 383.10093965 11.54698828 383.84522724 10.19219208 C385.02249019 8.04502348 385.02249019 8.04502348 385.86124706 5.87871552 C387.00158745 3.45563731 388.03465412 1.83435059 390 0 C394.24307763 -1.18830252 398.39635485 -1.01099234 402.77661133 -0.90820312 C404.72354385 -0.90995544 404.72354385 -0.90995544 406.70980835 -0.91174316 C410.26194205 -0.91403588 413.8119085 -0.86705522 417.36353898 -0.8111515 C421.07767085 -0.76109132 424.79185418 -0.75643793 428.50627136 -0.74694824 C435.53665291 -0.7220971 442.56603753 -0.65646891 449.59598035 -0.57615232 C457.60063961 -0.4866878 465.60534686 -0.44273615 473.61038172 -0.40258884 C490.07417114 -0.31899992 506.53695829 -0.17831589 523 0 C521.58473939 3.63167642 519.99522875 6.87769985 517.98046875 10.21875 C517.07542603 11.72429443 517.07542603 11.72429443 516.15209961 13.26025391 C515.50378174 14.32937012 514.85546387 15.39848633 514.1875 16.5 C513.17925171 18.1713501 513.17925171 18.1713501 512.15063477 19.87646484 C507.43772255 27.67960937 502.66032395 35.44237073 497.84643555 43.18359375 C493.85824845 49.59876457 489.91994061 56.04292821 486 62.5 C481.53402301 69.85478457 477.03847913 77.18973046 472.5 84.5 C468.02601554 91.70729557 463.59137657 98.93715494 459.1875 106.1875 C450.8378531 119.93239294 442.39707757 133.62081816 433.95898438 147.31152344 C426.94603414 158.69159848 419.94158319 170.0762164 413 181.5 C404.71174133 195.14001135 396.33332353 208.72425833 387.95898438 222.31152344 C380.30230437 234.73619353 372.66790117 247.17334058 365.09082031 259.64672852 C361.13160918 266.15787244 357.13768482 272.6466966 353.125 279.125 C352.59036133 279.99294189 352.05572266 280.86088379 351.50488281 281.75512695 C349.16573518 285.5461971 346.80944143 289.31576566 344.33984375 293.0234375 C343.94974121 293.6201123 343.55963867 294.21678711 343.15771484 294.83154297 C342.15096199 296.36523645 341.12518908 297.88640024 340.09765625 299.40625 C338.70130752 301.92573099 338.70130752 301.92573099 339.72900391 304.32226562 C341.07439079 307.1567265 342.58308732 309.77181283 344.23828125 312.4375 C344.88692139 313.48655518 345.53556152 314.53561035 346.20385742 315.61645508 C347.2476355 317.29130981 347.2476355 317.29130981 348.3125 319 C349.03853152 320.17124242 349.7641945 321.34271335 350.48950195 322.5144043 C351.95866485 324.88640813 353.42998084 327.25705302 354.90332031 329.62646484 C356.77012325 332.63013077 358.63260892 335.63638944 360.4921875 338.64453125 C363.13313639 342.91659586 365.77753052 347.18651063 368.42333984 351.45556641 C371.66163266 356.68156327 374.89664306 361.90959293 378.13232422 367.13720703 C380.80203244 371.45018186 383.47242352 375.76273007 386.14453125 380.07421875 C391.39296865 388.54465417 396.63040572 397.02157913 401.84692383 405.51171875 C407.73485754 415.09458426 413.65008045 424.65860056 419.625 434.1875 C425.06809226 442.86931031 430.42363616 451.60010659 435.73535156 460.36279297 C440.50548649 468.21893499 445.3670235 476.01532988 450.24951172 483.80200195 C456.27242965 493.41487755 462.21385799 503.07701004 468.15234375 512.7421875 C473.22211636 520.99272156 478.32202498 529.22451306 483.42333984 537.45556641 C486.66163266 542.68156327 489.89664306 547.90959293 493.13232422 553.13720703 C495.80203244 557.45018186 498.47242352 561.76273007 501.14453125 566.07421875 C503.82578997 570.40083296 506.50357511 574.72958493 509.18017578 579.05908203 C510.4897703 581.1754458 511.80057043 583.29102904 513.11279297 585.40576172 C514.964547 588.39007781 516.81318104 591.37630785 518.66000366 594.36367798 C519.38240263 595.53100044 520.10588071 596.69765583 520.83047485 597.86361694 C521.8429728 599.49323917 522.85126409 601.12547274 523.859375 602.7578125 C524.44170898 603.6977002 525.02404297 604.63758789 525.62402344 605.60595703 C527 608 527 608 528 611 C481.14 611 434.28 611 386 611 C372.45945946 586.17567568 372.45945946 586.17567568 368 577.5 C364.08993212 569.9488107 360.09428252 562.45287364 356 555 C351.90568257 547.5470628 347.91267417 540.04987063 344 532.5 C340.20632415 525.18257586 336.34449669 517.91104902 332.375 510.6875 C327.21846945 501.2989749 322.18967776 491.84629894 317.1875 482.375 C309.78471705 468.36048108 302.32876451 454.37614066 294.83105469 440.41210938 C292.96077774 436.92691062 291.09314069 433.44030542 289.2265625 429.953125 C288.75661613 429.07537918 288.75661613 429.07537918 288.2771759 428.17990112 C286.70928531 425.2513868 285.14211012 422.32249502 283.57592773 419.39306641 C280.76410651 414.13835743 277.94507629 408.88809745 275.08955383 403.65701294 C274.12976476 401.89869762 273.17241489 400.13905156 272.21508789 398.37939453 C271.03298693 396.20841913 269.84635367 394.03990206 268.65405273 391.87451172 C259 374.11591135 259 374.11591135 259 369 C258.01 369 257.02 369 256 369 C255.8457959 369.5978833 255.6915918 370.1957666 255.53271484 370.81176758 C253.65949638 377.5872526 250.94678781 383.50946982 247.625 389.6875 C247.09680664 390.68515381 246.56861328 391.68280762 246.02441406 392.71069336 C241.86868914 400.50849365 237.5308743 408.1981918 233.14575195 415.86865234 C228.55045319 423.93847847 224.16282983 432.10911191 219.8125 440.3125 C215.17007496 449.06522838 210.50086926 457.79602018 205.65551758 466.4387207 C202.20959686 472.59323168 198.85111825 478.79343663 195.5 485 C191.3198334 492.73988232 187.09845093 500.4532649 182.80859375 508.1328125 C179.31930501 514.39333699 175.90596515 520.69382787 172.5 527 C168.31972011 534.73982216 164.0984518 542.45326334 159.80859375 550.1328125 C156.3193035 556.39333969 152.90615026 562.69392558 149.5 569 C145.5724794 576.26723338 141.63195143 583.52620023 137.625 590.75 C137.25697266 591.41515625 136.88894531 592.0803125 136.50976562 592.765625 C135.792826 594.05381599 135.06083512 595.33377281 134.31234837 596.60389328 C132.91812825 599.05700535 132.91812825 599.05700535 131.72243404 601.99367142 C127.79064781 610.33161821 127.79064781 610.33161821 123.07917976 612.09023285 C119.36322945 612.48162004 115.81325891 612.48512245 112.07836914 612.36230469 C110.66849051 612.35891608 109.25859073 612.36082712 107.84872437 612.36761475 C104.03540417 612.3710481 100.22664484 612.30069165 96.41438222 612.21672726 C92.42545388 612.14152951 88.43641191 612.1346489 84.44688416 612.12042236 C76.89896952 612.08317536 69.35314931 611.98477985 61.80615562 611.86422849 C53.21153221 611.72993369 44.61680685 611.66408073 36.02139485 611.60388327 C18.3464106 611.47856875 0.67337387 611.2676057 -17 611 C-15.66140354 608.29007749 -14.25230825 605.7116975 -12.63671875 603.15625 C-12.16911133 602.41552246 -11.70150391 601.67479492 -11.21972656 600.91162109 C-10.7140918 600.11578613 -10.20845703 599.31995117 -9.6875 598.5 C-9.15479492 597.65904785 -8.62208984 596.8180957 -8.07324219 595.95166016 C-3.80881776 589.2360017 0.51815873 582.56217138 4.86499023 575.8996582 C9.2406872 569.18699251 13.56347695 562.44152683 17.875 555.6875 C23.64781975 546.64728083 29.47825841 537.64721611 35.35058594 528.67138672 C40.67065335 520.52930979 45.91473673 512.33988611 51.14916992 504.14257812 C56.895422 495.14881127 62.70491532 486.19738283 68.53125 477.25537109 C75.36290562 466.76487332 82.13317835 456.23593386 88.875 445.6875 C95.3790858 435.51182708 101.93845184 425.37371852 108.53125 415.25537109 C115.32194674 404.82776862 122.05091618 394.36167044 128.75 383.875 C134.56378496 374.7753718 140.43409742 365.71502251 146.34570312 356.67871094 C151.70675742 348.47364835 157.00498085 340.22920619 162.26342773 331.95800781 C165.28628588 327.20817734 168.3289979 322.480777 171.48828125 317.8203125 C172.01196289 317.04026855 172.53564453 316.26022461 173.07519531 315.45654297 C174.03471772 314.03300989 175.00594549 312.61726421 175.99121094 311.21142578 C178.37316851 307.76153994 178.37316851 307.76153994 178.85913086 303.72094727 C177.74567873 300.19454089 175.9523396 297.24580326 174 294.13671875 C173.17526766 292.7937723 172.35106361 291.4505013 171.52734375 290.10693359 C170.89481689 289.08234039 170.89481689 289.08234039 170.24951172 288.03704834 C168.31686712 284.88630521 166.4397576 281.7034756 164.5625 278.51953125 C163.81434147 277.25524451 163.06596619 275.99108601 162.31738281 274.72705078 C161.93988892 274.08930725 161.56239502 273.45156372 161.17346191 272.79449463 C154.60173554 261.69475103 147.97308408 250.63369523 141.25 239.625 C135.18443435 229.6906798 129.29971864 219.66325494 123.51367188 209.56347656 C118.74359329 201.24983906 113.85051322 193.01713485 108.90136719 184.80908203 C104.1771756 176.97238155 99.49974011 169.10917937 94.83764648 161.23547363 C88.37615431 150.32300592 81.85934458 139.44855273 75.25 128.625 C69.18455498 118.69060513 63.29972055 108.66325827 57.51367188 98.56347656 C52.74490383 90.25212317 47.85271821 82.02196346 42.90576172 73.81567383 C37.73259135 65.23270129 32.6100109 56.62068296 27.5 48 C19.84712181 35.0929501 12.15089703 22.21283621 4.41601562 9.35473633 C3.94873047 8.57767334 3.48144531 7.80061035 3 7 C2.44505859 6.11658936 1.89011719 5.23317871 1.31835938 4.32299805 C0 2 0 2 0 0 Z " fill="#FEFEFE" transform="translate(308,719)"/>
<path d="M0 0 C0.33 0 0.66 0 1 0 C1.06976424 13.18770789 1.12294491 26.37537128 1.15543652 39.5632267 C1.17103733 45.68805117 1.1921729 51.81274861 1.22631836 57.9375 C1.25911178 63.85733652 1.27689493 69.77705149 1.28463173 75.69697189 C1.29013955 77.94620042 1.30089414 80.19542292 1.31719017 82.44459915 C1.51148137 110.39311246 -5.02310202 133.84542521 -24 155 C-24.86044922 155.96679688 -24.86044922 155.96679688 -25.73828125 156.953125 C-40.9883101 173.11306011 -64.35742974 183.5475717 -86.48660673 185.18386687 C-89.09445685 185.25170269 -91.69548369 185.26122625 -94.30417061 185.24609566 C-95.29665416 185.24840335 -96.28913772 185.25071103 -97.31169653 185.25308865 C-100.62771682 185.25837019 -103.94354176 185.24941983 -107.259552 185.24050903 C-109.66469203 185.24138148 -112.06983187 185.24313317 -114.4749707 185.24568737 C-119.69905282 185.24922447 -124.92309375 185.24656787 -130.14716911 185.23841095 C-137.91511189 185.2263158 -145.68302601 185.22574167 -153.45097649 185.22749493 C-166.51937029 185.23011984 -179.58774383 185.22345087 -192.65613174 185.21146011 C-205.59292832 185.19962056 -218.52971645 185.19192711 -231.4665184 185.18975449 C-232.67368853 185.18954827 -232.67368853 185.18954827 -233.90524593 185.18933788 C-237.99242243 185.1886612 -242.07959893 185.18805844 -246.16677545 185.18748413 C-275.10598104 185.18328483 -304.04517561 185.16981436 -332.984375 185.15087891 C-361.09602805 185.13250618 -389.20767808 185.11834084 -417.31933594 185.10986328 C-418.18606716 185.10960023 -419.05279838 185.10933718 -419.94579419 185.10906615 C-428.64997333 185.10642908 -437.35415248 185.10387746 -446.05833166 185.10138843 C-463.78928466 185.09631619 -481.52023747 185.09067369 -499.25119019 185.08468628 C-500.47401443 185.08427441 -500.47401443 185.08427441 -501.7215422 185.08385422 C-556.14769966 185.06545712 -610.57384993 185.03331016 -665 185 C-665 151.01 -665 117.02 -665 82 C-657.72944077 81.99413376 -650.45888153 81.98826752 -642.96800232 81.98222351 C-594.94228826 81.94247911 -546.91657986 81.89940222 -498.8908844 81.84101868 C-498.07107827 81.84002311 -497.25127214 81.83902754 -496.4066234 81.83800181 C-478.58898686 81.81634205 -460.77135121 81.79401927 -442.95371636 81.77101372 C-434.21564505 81.75973544 -425.47757355 81.74860364 -416.73950195 81.73754883 C-415.86997005 81.73644626 -415.00043814 81.7353437 -414.10455679 81.73420772 C-385.93285301 81.69855466 -357.76115041 81.67256927 -329.58943219 81.65161031 C-300.63346389 81.63001675 -271.6775222 81.59864389 -242.72157832 81.55500887 C-238.62947523 81.54884685 -234.53737199 81.54279633 -230.44526863 81.53681374 C-229.63990325 81.53563285 -228.83453786 81.53445197 -228.00476746 81.53323531 C-215.05329436 81.51453151 -202.10183409 81.50610219 -189.15034913 81.50153876 C-176.1220519 81.49672814 -163.09380344 81.48103682 -150.06553238 81.45433434 C-142.3301822 81.43880819 -134.59492829 81.43152937 -126.85956341 81.43623071 C-121.07466177 81.43882539 -115.28987797 81.4257679 -109.50501085 81.40676448 C-107.17098338 81.40150737 -104.83693792 81.4012503 -102.50291067 81.40660437 C-72.24870837 81.46891589 -47.19697209 74.57156494 -24.85546875 52.921875 C-10.68410705 37.82811697 -3.85322336 19.99142942 0 0 Z " fill="#124529" transform="translate(1177,1557)"/>
<path d="M0 0 C60.18953563 -0.0676505 120.37907081 -0.13217543 180.56863403 -0.16937256 C181.45992261 -0.16992479 182.35121118 -0.17047702 183.2695085 -0.17104598 C202.641133 -0.18301852 222.01275791 -0.19409912 241.38438343 -0.20426132 C250.88467368 -0.20925052 260.38496382 -0.21443676 269.88525391 -0.21972656 C270.83063051 -0.2202496 271.77600712 -0.22077263 272.7500315 -0.22131152 C303.37437847 -0.23834696 333.99869586 -0.26838476 364.62302492 -0.30518888 C396.10208725 -0.34295137 427.58113322 -0.36754922 459.06021783 -0.37565996 C463.50975102 -0.37681252 467.95928416 -0.37811507 472.40881729 -0.37950897 C473.28452108 -0.37977866 474.16022487 -0.38004836 475.06246514 -0.38032622 C489.14032698 -0.38504708 503.21813811 -0.40358306 517.29597929 -0.42732814 C531.46020419 -0.45092253 545.62437899 -0.45986056 559.78862284 -0.45400551 C568.19658825 -0.45097077 576.60436982 -0.45900602 585.01230192 -0.48319017 C590.63977904 -0.49826592 596.26713673 -0.49860154 601.89462232 -0.48732725 C605.0941416 -0.48132811 608.29324857 -0.48363607 611.49274372 -0.49953273 C641.60252149 -0.64037208 668.22343494 5.72389351 690.32421875 27.26171875 C706.54144128 43.85773772 717.33372744 65.16523605 717.17578125 88.69921875 C717.15902344 89.66472656 717.14226563 90.63023437 717.125 91.625 C717.11597656 92.62917969 717.10695313 93.63335937 717.09765625 94.66796875 C717.07437746 97.11224126 717.04168487 99.55598408 717 102 C709.18560634 102.278965 701.37239288 102.49170153 693.55426025 102.62174606 C689.9228851 102.68419294 686.29493204 102.7687364 682.66552734 102.90527344 C679.15738873 103.03641095 675.65252166 103.10754726 672.14212036 103.13852692 C670.16257507 103.17125379 668.18433554 103.26483318 666.20678711 103.35955811 C662.44917967 103.36234822 659.55880075 103.21937094 656 102 C652.47281744 98.40283093 650.35164916 94.41605232 648 90 C635.80414998 73.12687999 619.58459511 62.37983022 600 56 C599.2109958 55.67205802 598.42199159 55.34411605 597.60907817 55.00623643 C585.70516466 50.41528488 571.95157511 51.70972421 559.42401123 51.7215271 C557.00889406 51.71652077 554.59377855 51.71064398 552.1786654 51.70397437 C546.93899446 51.69149015 541.69935331 51.68511941 536.45966911 51.68421364 C528.6685483 51.68283327 520.87747505 51.67002374 513.08637023 51.6549259 C499.97825726 51.62984565 486.87014833 51.61395462 473.7620163 51.60334396 C460.78778974 51.59281152 447.81357849 51.5781683 434.8393631 51.55806351 C434.0319478 51.55681464 433.2245325 51.55556577 432.39265008 51.55427906 C428.2920113 51.5479151 424.19137265 51.54147797 420.09073403 51.53501268 C391.0639153 51.48937892 362.0370916 51.45291889 333.01025391 51.421875 C304.81525952 51.39169971 276.62027524 51.35735591 248.42529297 51.31738281 C247.55583669 51.31615181 246.6863804 51.31492081 245.79057696 51.3136525 C237.05895013 51.30128539 228.32732343 51.28883369 219.59569681 51.27632002 C201.80918023 51.25083131 184.02266287 51.22590714 166.23614502 51.20132446 C165.41839246 51.20019355 164.60063989 51.19906264 163.75810695 51.19789747 C109.17208278 51.12247255 54.58604228 51.06065905 0 51 C0 34.17 0 17.34 0 0 Z " fill="#1D915B" transform="translate(512,410)"/>
<path d="M0 0 C17.16 0 34.32 0 52 0 C52.03382291 54.70234434 52.06608551 109.40468849 52.08468628 164.10704041 C52.08496239 164.91697837 52.08523851 165.72691634 52.08552299 166.56139788 C52.09150916 184.16460104 52.09704947 201.76780431 52.10213066 219.37100774 C52.10462528 228.00393032 52.10721839 236.63685286 52.10986328 245.26977539 C52.1101248 246.1288434 52.11038632 246.9879114 52.11065576 247.87301177 C52.11917461 275.70521166 52.13419436 303.53740341 52.15259444 331.36959837 C52.1714725 359.97682136 52.18377388 388.58403986 52.18782998 417.19126897 C52.18840627 421.23418113 52.18905754 425.27709328 52.18975449 429.32000542 C52.18988933 430.11568875 52.19002418 430.91137208 52.19016311 431.73116703 C52.19252422 444.52643438 52.20179407 457.32168779 52.21366407 470.11694946 C52.2254567 482.98839552 52.22993141 495.85982781 52.22700275 508.73127908 C52.22548454 516.373307 52.22951078 524.01528438 52.24159509 531.65730315 C52.25001321 537.37270351 52.24790345 543.08806223 52.24179779 548.80346375 C52.24095492 551.10923491 52.24347314 553.41501038 52.24976636 555.72077311 C52.3327508 588.01308984 46.63782191 615.08508366 23.375 639.125 C19.01997068 643.46445288 14.34543275 647.1294251 9.25 650.5625 C8.64849121 650.96807129 8.04698242 651.37364258 7.42724609 651.79150391 C3.13300067 654.5553596 -1.17350524 656.33624134 -6 658 C-5.731875 656.80375 -5.46375 655.6075 -5.1875 654.375 C-5.00675896 653.53141737 -4.82601793 652.68783473 -4.63979989 651.81868899 C-4.22112309 649.97417527 -3.75657288 648.13933509 -3.24180096 646.3192991 C-0.06540588 634.09985133 -0.57494519 621.74626851 -0.60127258 609.2093811 C-0.59582904 606.57803803 -0.58920096 603.94672196 -0.58113068 601.31538808 C-0.56599824 595.60948509 -0.56182958 589.90365772 -0.56500816 584.19773674 C-0.56968402 575.71337653 -0.55714762 567.22910148 -0.54117843 558.7447581 C-0.51479335 544.46996243 -0.50222719 530.19518617 -0.49761391 515.92036819 C-0.49300261 501.79228066 -0.482202 487.66422003 -0.46318626 473.53614426 C-0.46200614 472.65677641 -0.46082601 471.77740856 -0.45961012 470.8713932 C-0.45358447 466.40528997 -0.44744872 461.93918691 -0.44127061 457.4730839 C-0.39774106 425.86292241 -0.36801169 394.25276158 -0.34643555 362.64257812 C-0.32544663 331.93911778 -0.29818345 301.23567345 -0.26245117 270.53222656 C-0.26135169 269.58534242 -0.26025222 268.63845829 -0.25911942 267.66288069 C-0.24807082 258.15363628 -0.23689493 248.64439202 -0.2256258 239.13514787 C-0.20267342 219.76477186 -0.18057045 200.39439491 -0.15898132 181.02401733 C-0.1579877 180.13345393 -0.15699409 179.24289052 -0.15597036 178.32534034 C-0.08974735 118.88357279 -0.04400421 59.44178752 0 0 Z " fill="#155230" transform="translate(1178,1025)"/>
<path d="M0 0 C0.07507333 5.84917507 0.129031 11.69805967 0.16479492 17.54760742 C0.17972977 19.53073014 0.20008507 21.51382073 0.22631836 23.49682617 C0.58881 51.63612804 -5.90694772 76.90208189 -25.69335938 97.8359375 C-38.15126701 110.41479569 -53.7621102 119.66369397 -71 124 C-71.96757051 124.25052024 -71.96757051 124.25052024 -72.95468789 124.50610149 C-83.03307844 126.72966529 -93.29722527 126.27064419 -103.55754089 126.24050903 C-105.7655536 126.24138178 -107.9735661 126.24313404 -110.1815775 126.24568737 C-116.23379015 126.25015121 -122.28593176 126.2421704 -128.33813536 126.23213124 C-134.19906602 126.22437374 -140.05998895 126.22605329 -145.92092345 126.22749493 C-157.90477765 126.23011825 -169.88860974 126.22345694 -181.8724575 126.21146011 C-193.73385922 126.19961636 -205.59525173 126.19192626 -217.45665932 126.18975449 C-218.19482601 126.18961701 -218.93299271 126.18947953 -219.6935281 126.18933788 C-223.44247348 126.18866119 -227.19141888 126.18805843 -230.94036428 126.18748413 C-257.4775831 126.18328599 -284.0147899 126.16981874 -310.55200195 126.15087891 C-336.32869401 126.13250312 -362.10538278 126.11833928 -387.88208008 126.10986328 C-389.0744076 126.1094687 -389.0744076 126.1094687 -390.29082254 126.10906615 C-398.27355886 126.10642906 -406.2562952 126.10387744 -414.23903157 126.10138843 C-430.50003754 126.09631633 -446.76104329 126.09067383 -463.02204895 126.08468628 C-464.14347206 126.08427441 -464.14347206 126.08427441 -465.28755018 126.08385422 C-515.19170547 126.06546033 -565.09585271 126.03331342 -615 126 C-615 109.17 -615 92.34 -615 75 C-608.47303848 74.99191315 -601.94607697 74.98382629 -595.22132874 74.97549438 C-552.09761338 74.92140537 -508.9739027 74.86510541 -465.85020447 74.79867554 C-464.74567121 74.7969751 -464.74567121 74.7969751 -463.61882416 74.79524031 C-447.61408239 74.77058626 -431.60934134 74.74549326 -415.60460097 74.71994839 C-407.75536236 74.70742303 -399.90612361 74.69499463 -392.05688477 74.68261719 C-390.88527276 74.6807672 -390.88527276 74.6807672 -389.68999183 74.67887984 C-364.39387557 74.63898243 -339.09775577 74.60548123 -313.80162619 74.57531309 C-287.79668404 74.54426573 -261.79175906 74.50673326 -235.78683823 74.46109388 C-232.10998717 74.45464391 -228.43313598 74.44826773 -224.75628471 74.44193649 C-223.67084772 74.44006404 -223.67084772 74.44006404 -222.56348271 74.43815375 C-210.9364906 74.41828581 -199.3095004 74.4052114 -187.68249648 74.39470672 C-175.98049797 74.38398825 -164.27852952 74.36588432 -152.57655282 74.34083296 C-146.24143065 74.32748455 -139.90634593 74.31730557 -133.57120895 74.31578636 C-127.7630362 74.31432242 -121.95495349 74.30364649 -116.14680844 74.28586559 C-114.05365818 74.28104415 -111.960497 74.27950651 -109.86734236 74.28172119 C-80.77858359 74.30743026 -53.29126754 70.4203933 -31 50 C-30.2575 49.34902344 -29.515 48.69804688 -28.75 48.02734375 C-16.46568466 36.6174328 -7.68506283 20.88155395 -3.9375 4.55859375 C-3.628125 3.38425781 -3.31875 2.20992187 -3 1 C-1 0 -1 0 0 0 Z " fill="#0B2A19" transform="translate(1127,1513)"/>
<path d="M0 0 C20.46 0 40.92 0 62 0 C62 169.29 62 338.58 62 513 C44.84 513 27.68 513 10 513 C9.99413376 506.98002777 9.98826752 500.96005554 9.98222351 494.75765991 C9.94247524 454.9883018 9.89939343 415.21895084 9.84101868 375.44961548 C9.84002311 374.77064504 9.83902754 374.09167461 9.83800181 373.39212932 C9.81634153 358.63504453 9.79401871 343.87796081 9.77101372 329.12087806 C9.75973554 321.88364546 9.74860372 314.64641263 9.73754883 307.40917969 C9.73644626 306.68900129 9.7353437 305.9688229 9.73420772 305.22682092 C9.69856122 281.89830921 9.67257239 258.56979894 9.65161031 235.24126981 C9.63001169 211.26125047 9.59863289 187.28126324 9.55500887 163.30127337 C9.54884694 159.91157932 9.54279641 156.52188508 9.53681374 153.1321907 C9.53563285 152.46507294 9.53445197 151.79795518 9.53323531 151.11062173 C9.51569584 141.05036451 9.50671103 130.99012247 9.50238609 120.92985153 C9.49739398 109.47620394 9.48240898 98.02262539 9.45433434 86.56901012 C9.44033609 80.72638039 9.43114233 74.88384819 9.43499184 69.04120064 C9.43841281 63.68649422 9.42797529 58.3319958 9.40676448 52.97733195 C9.40151486 51.04574343 9.40124237 49.1141332 9.40660437 47.18254499 C9.45029769 29.64926465 6.37749581 17.00665551 0 0 Z " fill="#0D6E39" transform="translate(1168,512)"/>
<path d="M0 0 C16.83 0 33.66 0 51 0 C53.6836314 5.36726279 55.83929136 9.9712316 57.6875 15.5625 C58.10386719 16.80128906 58.52023437 18.04007813 58.94921875 19.31640625 C60.76059462 25.66632241 61.14586789 31.83295641 61.12304783 38.4045248 C61.12420167 39.2280862 61.12535552 40.0516476 61.12654433 40.90016541 C61.12919103 43.65957388 61.12470487 46.41892399 61.12025452 49.17832947 C61.12069062 51.17664957 61.12156624 53.17496962 61.12284368 55.17328936 C61.12508103 60.66444136 61.12107771 66.15557387 61.11606562 71.64672339 C61.11175043 77.5682644 61.11320831 83.4898043 61.1139679 89.41134644 C61.11452663 100.33927715 61.11063781 111.26720076 61.10462701 122.19512968 C61.09912383 132.28610334 61.09589638 142.37707489 61.09487724 152.46805 C61.0948085 153.13717432 61.09473976 153.80629864 61.09466894 154.49569945 C61.09433061 157.89387843 61.09402922 161.29205741 61.09374207 164.6902364 C61.09164196 188.75613914 61.08490544 212.82203857 61.07543945 236.88793945 C61.0662543 260.26684552 61.05917104 283.64575069 61.05493164 307.0246582 C61.05473435 308.10572069 61.05473435 308.10572069 61.05453308 309.20862282 C61.05321455 316.44630763 61.05193874 323.68399246 61.05069422 330.92167729 C61.04815804 345.66552274 61.04533679 360.40936814 61.04234314 375.1532135 C61.0421372 376.17004868 61.0421372 376.17004868 61.04192711 377.20742599 C61.03272728 422.47161877 61.01665378 467.73580942 61 513 C35.755 513.495 35.755 513.495 10 514 C9.99635437 507.98891022 9.99270874 501.97782043 9.98895264 495.78457642 C9.96353321 456.06270262 9.93365156 416.34083853 9.88336182 376.61898804 C9.88250431 375.94056983 9.8816468 375.26215163 9.8807633 374.56317529 C9.86209503 359.8171621 9.84254224 345.07115019 9.82207905 330.32513938 C9.8120484 323.09306189 9.80221309 315.86098414 9.79248047 308.62890625 C9.79102276 307.54942321 9.79102276 307.54942321 9.7895356 306.44813244 C9.75816252 283.14757649 9.7396728 259.8470321 9.72790753 236.54645869 C9.71574269 212.58992346 9.69049361 188.63343644 9.64892386 164.67693333 C9.64305029 161.28852233 9.63732536 157.90011109 9.63169098 154.51169968 C9.63002079 153.51142757 9.63002079 153.51142757 9.62831686 152.49094796 C9.6097405 141.12308744 9.60726811 129.75527261 9.60857043 118.38739847 C9.60860024 108.26589721 9.59392885 98.14448297 9.56783572 88.02301563 C9.55322277 82.1879635 9.5449586 76.35308979 9.55419731 70.51802254 C9.5625282 65.16552081 9.55220928 59.81337647 9.52766338 54.46092753 C9.52201338 52.53465213 9.52294243 50.60834246 9.53148755 48.68207772 C9.59473639 33.07493495 8.17668919 18.06775481 0.953125 3.96875 C0 2 0 2 0 0 Z " fill="#094725" transform="translate(1117,512)"/>
<path d="M0 0 C7.47067316 -0.05105481 14.94130067 -0.08588149 22.41210938 -0.10986328 C24.94923585 -0.11986976 27.48635095 -0.13347911 30.0234375 -0.15087891 C33.68752873 -0.17536379 37.35146638 -0.18653701 41.015625 -0.1953125 C42.69449799 -0.21079636 42.69449799 -0.21079636 44.4072876 -0.22659302 C66.26514118 -0.22964972 86.03880801 7.26593746 103 21 C104.37285156 22.10794922 104.37285156 22.10794922 105.7734375 23.23828125 C114.88362836 31.0342569 121.73179609 40.249407 127 51 C119.72367119 51.30490646 112.44899218 51.51464318 105.16772461 51.65917969 C102.69281475 51.71943667 100.21833056 51.80126557 97.74487305 51.90527344 C77.1312404 52.75019629 77.1312404 52.75019629 71.96582031 48.50830078 C70.17350931 45.37686768 69.06335213 42.43827245 68 39 C55.63243647 19.48771668 33.0987849 7.39318975 11.15625 2.40625 C7.45689495 1.70927006 3.7465502 1.35400474 0 1 C0 0.67 0 0.34 0 0 Z " fill="#135E3B" transform="translate(1041,461)"/>
</svg>
