<?xml version="1.0" encoding="utf-8"?>
<!-- Generator: Adobe Illustrator 23.0.5, SVG Export Plug-In . SVG Version: 6.00 Build 0)  -->
<svg version="1.1" id="Layer_1" xmlns="http://www.w3.org/2000/svg" xmlns:xlink="http://www.w3.org/1999/xlink" x="0px" y="0px"
	 viewBox="0 0 3000 3000" style="enable-background:new 0 0 3000 3000;" xml:space="preserve">
<style type="text/css">
	.st0{fill:#0ACF83;}
	.st1{fill:#A259FF;}
	.st2{fill:#F24E1E;}
	.st3{fill:#FF7262;}
	.st4{fill:#1ABCFE;}
</style>
<title></title>
<desc></desc>
<path id="path0_fill" class="st0" d="M1000,3000c276,0,500-224,500-500v-500h-500c-276,0-500,224-500,500S724,3000,1000,3000z"/>
<path id="path1_fill" class="st1" d="M500,1500c0-276,224-500,500-500h500v1000h-500C724,2000,500,1776,500,1500z"/>
<path id="path1_fill_1_" class="st2" d="M500,500C500,224,724,0,1000,0h500v1000h-500C724,1000,500,776,500,500z"/>
<path id="path2_fill" class="st3" d="M1500,0h500c276,0,500,224,500,500s-224,500-500,500h-500V0z"/>
<path id="path3_fill" class="st4" d="M2500,1500c0,276-224,500-500,500s-500-224-500-500s224-500,500-500S2500,1224,2500,1500z"/>
</svg>
