<?xml version="1.0" encoding="UTF-8"?>
<svg version="1.1" xmlns="http://www.w3.org/2000/svg" width="1024" height="1024">
<path d="M0 0 C1.97241093 -0.00551503 1.97241093 -0.00551503 3.98466855 -0.01114148 C7.62435229 -0.02111774 11.26401955 -0.02487121 14.90371501 -0.02753079 C18.83380697 -0.03144704 22.76388604 -0.04102459 26.69396973 -0.04974365 C36.18177526 -0.06947364 45.66958181 -0.07957109 55.15740272 -0.08847144 C59.63321865 -0.09286111 64.1090334 -0.09822625 68.5848484 -0.10346031 C83.47797875 -0.12047116 98.37110838 -0.13496229 113.26424694 -0.14220905 C117.12605986 -0.14411874 120.98787277 -0.1460391 124.84968567 -0.147995 C126.28931737 -0.14872061 126.28931737 -0.14872061 127.75803254 -0.14946087 C143.2831763 -0.15774981 158.80824273 -0.18306814 174.33335277 -0.21557567 C190.29848768 -0.24872994 206.26358341 -0.26666546 222.22875291 -0.26985329 C231.18201228 -0.27201095 240.13515897 -0.28064962 249.08838463 -0.30631447 C256.71832226 -0.32813633 264.34811983 -0.33601602 271.97808512 -0.32634769 C275.86315723 -0.3218356 279.74794109 -0.32350594 283.63297272 -0.34310913 C327.17490613 -0.55039312 364.99299654 11.30460533 396.61750793 42.33467102 C420.20971881 66.19489399 436.85701839 100.07592448 437.23078918 134.00263977 C437.24058304 134.73792404 437.25037689 135.47320831 437.26046753 136.23077393 C437.4264291 151.91450339 437.4874502 166.97930647 432.99250793 182.14717102 C432.77820129 182.90546204 432.56389465 183.66375305 432.34309387 184.44502258 C421.67658778 221.56819009 396.0954706 253.27755032 362.34260559 271.9848175 C347.14981008 279.98479109 328.41814709 287.68750092 310.99250793 287.14717102 C310.99250793 287.80717102 310.99250793 288.46717102 310.99250793 289.14717102 C312.44076965 289.08529602 312.44076965 289.08529602 313.91828918 289.02217102 C344.78405524 289.08407278 376.07824213 310.32643334 397.24250793 330.95967102 C420.56366816 354.56398867 436.8620143 388.52939649 437.23078918 422.00263977 C437.24058304 422.73792404 437.25037689 423.47320831 437.26046753 424.23077393 C437.4264291 439.91450339 437.4874502 454.97930647 432.99250793 470.14717102 C432.77820129 470.90546204 432.56389465 471.66375305 432.34309387 472.44502258 C421.67658778 509.56819009 396.0954706 541.27755032 362.34260559 559.9848175 C344.32824103 569.47052674 323.59809588 576.16003271 303.13703918 576.38545227 C302.40175491 576.39524612 301.66647064 576.40503998 300.90890503 576.41513062 C285.22517557 576.58109218 270.16037249 576.64211329 254.99250793 572.14717102 C254.23421692 571.93286438 253.4759259 571.71855774 252.69465637 571.49775696 C215.57148887 560.83125086 183.86212863 535.25013368 165.15486145 501.49726868 C162.28848751 496.05372156 159.91421006 490.43835408 157.68000793 484.70967102 C157.36644348 483.9127887 157.05287903 483.11590637 156.72981262 482.2948761 C154.65674006 476.71808917 153.20958731 471.07961709 151.87849426 465.29145813 C151.69594337 464.50631584 151.51339249 463.72117355 151.32530975 462.91223907 C150.8789342 460.99103835 150.43542839 459.06917124 149.99250793 457.14717102 C149.99191085 457.73416409 149.99131376 458.32115716 149.99069858 458.92593789 C149.9547295 493.79037728 149.89797575 528.6547234 149.81458698 563.51908238 C149.80457068 567.71428476 149.79472635 571.90948752 149.7849884 576.10469055 C149.78207634 577.35736537 149.78207634 577.35736537 149.77910545 578.63534674 C149.7481656 592.12070548 149.73112727 605.60604724 149.71931371 619.09143475 C149.70686046 632.95005152 149.67926555 646.80857984 149.63789487 660.66714072 C149.61287832 669.20435058 149.59938194 677.74141354 149.60107836 686.27866057 C149.60110834 692.14946083 149.58630375 698.02011254 149.56034365 703.89085481 C149.54583413 707.26759196 149.53959054 710.64377227 149.54670525 714.02057076 C149.62363608 756.17754793 136.69187083 793.31276286 106.80500793 823.77217102 C82.94478497 847.3643819 49.06375448 864.01168148 15.13703918 864.38545227 C14.40175491 864.39524612 13.66647064 864.40503998 12.90890503 864.41513062 C-2.77482443 864.58109218 -17.83962751 864.64211329 -33.00749207 860.14717102 C-33.76578308 859.93286438 -34.5240741 859.71855774 -35.30534363 859.49775696 C-72.42851113 848.83125086 -104.13787137 823.25013368 -122.84513855 789.49726868 C-132.33084778 771.48290411 -139.02035375 750.75275897 -139.24577332 730.29170227 C-139.25556717 729.556418 -139.26536102 728.82113373 -139.27545166 728.06356812 C-139.44141323 712.37983865 -139.50243433 697.31503557 -135.00749207 682.14717102 C-134.6860321 681.0097345 -134.6860321 681.0097345 -134.358078 679.84931946 C-123.69157191 642.72615195 -98.11045473 611.01679172 -64.35758972 592.30952454 C-49.16479421 584.30955095 -30.43313122 576.60684112 -13.00749207 577.14717102 C-13.00749207 576.48717102 -13.00749207 575.82717102 -13.00749207 575.14717102 C-14.45575378 575.20904602 -14.45575378 575.20904602 -15.93327332 575.27217102 C-46.79903938 575.21026926 -78.09322626 553.9679087 -99.25749207 533.33467102 C-126.9136246 505.34274733 -139.85392227 467.81802226 -140.01676941 428.93183899 C-139.48700425 390.29489885 -122.47884814 353.8928117 -95.18986511 326.91035461 C-74.96023813 307.59207837 -44.70862837 289.72951608 -16.03092957 289.05342102 C-15.03319519 289.08435852 -14.03546082 289.11529602 -13.00749207 289.14717102 C-13.00749207 288.48717102 -13.00749207 287.82717102 -13.00749207 287.14717102 C-14.45575378 287.20904602 -14.45575378 287.20904602 -15.93327332 287.27217102 C-46.79903938 287.21026926 -78.09322626 265.9679087 -99.25749207 245.33467102 C-126.9136246 217.34274733 -139.85392227 179.81802226 -140.01676941 140.93183899 C-139.48700425 102.29489885 -122.47884814 65.8928117 -95.18986511 38.91035461 C-69.55360449 14.4290152 -35.46610404 -0.00533054 0 0 Z M148.99250793 288.14717102 C148.99250793 329.72717102 148.99250793 371.30717102 148.99250793 414.14717102 C149.32250793 414.14717102 149.65250793 414.14717102 149.99250793 414.14717102 C150.21164856 412.91224915 150.43078918 411.67732727 150.65657043 410.40498352 C158.03377292 370.36414154 178.19186654 335.92419393 211.95002747 312.5226593 C230.82440728 299.8118948 252.48054456 292.14294909 274.99250793 289.14717102 C274.99250793 288.81717102 274.99250793 288.48717102 274.99250793 288.14717102 C233.41250793 288.14717102 191.83250793 288.14717102 148.99250793 288.14717102 Z " fill="#A259FF" transform="translate(363.0074920654297,79.85282897949219)"/>
<path d="M0 0 C1.97241093 -0.00551503 1.97241093 -0.00551503 3.98466855 -0.01114148 C7.62435229 -0.02111774 11.26401955 -0.02487121 14.90371501 -0.02753079 C18.83380697 -0.03144704 22.76388604 -0.04102459 26.69396973 -0.04974365 C36.18177526 -0.06947364 45.66958181 -0.07957109 55.15740272 -0.08847144 C59.63321865 -0.09286111 64.1090334 -0.09822625 68.5848484 -0.10346031 C83.47797875 -0.12047116 98.37110838 -0.13496229 113.26424694 -0.14220905 C117.12605986 -0.14411874 120.98787277 -0.1460391 124.84968567 -0.147995 C126.28931737 -0.14872061 126.28931737 -0.14872061 127.75803254 -0.14946087 C143.2831763 -0.15774981 158.80824273 -0.18306814 174.33335277 -0.21557567 C190.29848768 -0.24872994 206.26358341 -0.26666546 222.22875291 -0.26985329 C231.18201228 -0.27201095 240.13515897 -0.28064962 249.08838463 -0.30631447 C256.71832226 -0.32813633 264.34811983 -0.33601602 271.97808512 -0.32634769 C275.86315723 -0.3218356 279.74794109 -0.32350594 283.63297272 -0.34310913 C327.17490613 -0.55039312 364.99299654 11.30460533 396.61750793 42.33467102 C420.20971881 66.19489399 436.85701839 100.07592448 437.23078918 134.00263977 C437.24058304 134.73792404 437.25037689 135.47320831 437.26046753 136.23077393 C437.4264291 151.91450339 437.4874502 166.97930647 432.99250793 182.14717102 C432.77820129 182.90546204 432.56389465 183.66375305 432.34309387 184.44502258 C421.67658778 221.56819009 396.0954706 253.27755032 362.34260559 271.9848175 C342.23711178 282.57163935 320.65000025 288.29774858 297.98501587 288.29434204 C296.01260494 288.29985707 296.01260494 288.29985707 294.00034732 288.30548352 C290.36066357 288.31545978 286.72099632 288.31921325 283.08130085 288.32187283 C279.15120889 288.32578908 275.22112983 288.33536663 271.29104614 288.34408569 C261.80324061 288.36381568 252.31543406 288.37391313 242.82761315 288.38281348 C238.35179722 288.38720315 233.87598247 288.39256829 229.40016747 288.39780235 C214.50703712 288.4148132 199.61390749 288.42930433 184.72076893 288.43655109 C180.85895601 288.43846078 176.9971431 288.44038114 173.1353302 288.44233704 C171.6956985 288.44306265 171.6956985 288.44306265 170.22698333 288.44380292 C154.70183957 288.45209185 139.17677314 288.47741018 123.6516631 288.50991771 C107.68652819 288.54307198 91.72143245 288.5610075 75.75626296 288.56419533 C66.80300359 288.56635299 57.84985689 288.57499166 48.89663124 288.60065651 C41.26669361 288.62247837 33.63689604 288.63035806 26.00693075 288.62068973 C22.12185864 288.61617764 18.23707478 288.61784798 14.35204315 288.63745117 C-29.18989026 288.84473516 -67.00798067 276.98973671 -98.63249207 245.95967102 C-126.58314203 217.69149626 -139.85189596 180.30188411 -140.01676941 140.93183899 C-139.48700425 102.29489885 -122.47884814 65.8928117 -95.18986511 38.91035461 C-69.55360449 14.4290152 -35.46610404 -0.00533054 0 0 Z " fill="#F24E1E" transform="translate(363.0074920654297,79.85282897949219)"/>
<path d="M0 0 C39.47625 -0.12375 39.47625 -0.12375 79.75 -0.25 C88.02545898 -0.28641602 96.30091797 -0.32283203 104.82714844 -0.36035156 C115.02001953 -0.37841797 115.02001953 -0.37841797 119.80865479 -0.3817749 C123.11622093 -0.38546539 126.42352396 -0.40030828 129.73101807 -0.42230225 C166.06913277 -0.6531189 166.06913277 -0.6531189 182 4 C183.19062923 4.34311092 183.19062923 4.34311092 184.40531158 4.69315338 C221.50283058 15.54613075 253.08868633 40.82181218 271.83764648 74.64990234 C281.32335572 92.66426691 288.01286169 113.39441206 288.23828125 133.85546875 C288.2480751 134.59075302 288.25786896 135.32603729 288.26795959 136.08360291 C288.43392116 151.76733237 288.49494227 166.83213545 284 182 C283.78569336 182.75829102 283.57138672 183.51658203 283.35058594 184.29785156 C272.68407984 221.42101907 247.10296266 253.1303793 213.35009766 271.83764648 C195.74794096 281.10630205 175.05029545 288.13580318 155.0080719 288.12025452 C154.34215027 288.12111053 153.67622864 288.12196655 152.99012756 288.12284851 C150.77146656 288.12449205 148.55288252 288.11899918 146.33422852 288.11352539 C144.71138225 288.1132188 143.08853586 288.11335298 141.46568966 288.11389065 C137.13174503 288.1141158 132.79782817 288.10833268 128.46389008 288.10128021 C124.39255183 288.09557249 120.32122024 288.09531639 116.24987793 288.09460449 C104.35408163 288.08936349 92.45829046 288.07540228 80.5625 288.0625 C53.976875 288.041875 27.39125 288.02125 0 288 C0 192.96 0 97.92 0 0 Z " fill="#FE7161" transform="translate(512,80)"/>
<path d="M0 0 C0.66751646 -0.00085442 1.33503291 -0.00170885 2.02277714 -0.00258917 C4.2398273 -0.00422473 6.4568003 0.00124561 8.67384338 0.00672913 C10.2709147 0.00701144 11.86798614 0.0068524 13.46505737 0.00628662 C17.78683052 0.00600037 22.10857576 0.01186925 26.43034244 0.01886058 C30.95202412 0.0251228 35.47370649 0.02570019 39.99539185 0.02688599 C48.55166258 0.02999085 57.10792049 0.03819284 65.66418558 0.04823548 C75.40781253 0.05942286 85.15144009 0.06491368 94.89507186 0.06993091 C114.93274569 0.08037616 134.97040799 0.09795923 155.0080719 0.12025452 C155.10189953 20.89697244 155.17223811 41.67365495 155.21532059 62.45054245 C155.2358645 72.09963351 155.26382696 81.74859222 155.30982971 91.39759827 C155.34994969 99.8167818 155.37556393 108.23586939 155.38442588 116.65514588 C155.38959846 121.10485621 155.40158098 125.55429228 155.43099213 130.00391388 C155.66069663 166.19107918 155.66069663 166.19107918 151.0080719 182.12025452 C150.77933128 182.91400734 150.55059067 183.70776016 150.31491852 184.5255661 C139.46194115 221.6230851 114.18625972 253.20894085 80.35816956 271.957901 C62.34380499 281.44361023 41.61365984 288.1331162 21.15260315 288.35853577 C20.41731888 288.36832962 19.68203461 288.37812347 18.92446899 288.38821411 C3.24073953 288.55417568 -11.82406355 288.61519679 -26.9919281 284.12025452 C-28.12936462 283.79879456 -28.12936462 283.79879456 -29.28977966 283.47084045 C-66.41294717 272.80433436 -98.1223074 247.22321718 -116.82957458 213.47035217 C-126.31528382 195.45598761 -133.00478979 174.72584246 -133.23020935 154.26478577 C-133.2400032 153.5295015 -133.24979706 152.79421722 -133.2598877 152.03665161 C-133.42584926 136.35292215 -133.48687037 121.28811907 -128.9919281 106.12025452 C-128.77762146 105.3619635 -128.56331482 104.60367249 -128.34251404 103.82240295 C-117.67600794 66.69923545 -92.09489076 34.98987521 -58.34202576 16.28260803 C-40.73986906 7.01395247 -20.04222355 -0.01554866 0 0 Z " fill="#0ACF83" transform="translate(356.99192810058594,655.8797454833984)"/>
<path d="M0 0 C0.73528427 -0.00979385 1.47056854 -0.01958771 2.22813416 -0.02967834 C17.91186362 -0.19563991 32.9766667 -0.25666102 48.14453125 4.23828125 C48.90282227 4.45258789 49.66111328 4.66689453 50.44238281 4.88769531 C87.56555032 15.55420141 119.27491055 41.13531859 137.98217773 74.88818359 C147.46788697 92.90254816 154.15739294 113.63269331 154.3828125 134.09375 C154.39260635 134.82903427 154.40240021 135.56431854 154.41249084 136.32188416 C154.57845241 152.00561362 154.63947352 167.0704167 150.14453125 182.23828125 C149.93022461 182.99657227 149.71591797 183.75486328 149.49511719 184.53613281 C138.82861109 221.65930032 113.24749391 253.36866055 79.49462891 272.07592773 C61.48026434 281.56163697 40.75011919 288.25114294 20.2890625 288.4765625 C19.55377823 288.48635635 18.81849396 288.49615021 18.06092834 288.50624084 C2.37719888 288.67220241 -12.6876042 288.73322352 -27.85546875 284.23828125 C-28.99290527 283.91682129 -28.99290527 283.91682129 -30.15332031 283.58886719 C-67.27648782 272.92236109 -98.98584805 247.34124391 -117.69311523 213.58837891 C-127.17882447 195.57401434 -133.86833044 174.84386919 -134.09375 154.3828125 C-134.10354385 153.64752823 -134.11333771 152.91224396 -134.12342834 152.15467834 C-134.28938991 136.47094888 -134.35041102 121.4061458 -129.85546875 106.23828125 C-129.64116211 105.47999023 -129.42685547 104.72169922 -129.20605469 103.94042969 C-118.53954859 66.81726218 -92.95843141 35.10790195 -59.20556641 16.40063477 C-41.19120184 6.91492553 -20.46105669 0.22541956 0 0 Z " fill="#1ABCFE" transform="translate(645.85546875,367.76171875)"/>
</svg>
