<?xml version="1.0" encoding="utf-8"?>
<!-- Generator: Adobe Illustrator 23.0.5, SVG Export Plug-In . SVG Version: 6.00 Build 0)  -->
<svg version="1.1" id="Capa_1" xmlns="http://www.w3.org/2000/svg" xmlns:xlink="http://www.w3.org/1999/xlink" x="0px" y="0px"
	 viewBox="0 0 512 512" style="enable-background:new 0 0 512 512;" xml:space="preserve">
<style type="text/css">
	.st0{fill:#F05033;}
</style>
<g id="_x31_41-git">
	<g>
		<path class="st0" d="M21.5,216.8c0,28.9,18.5,68.6,47.4,78.3v1.1c-21.5,9.5-27.4,57.8,1.1,75.2v1.1
			c-31.2,10.3-51.8,30.1-51.8,64.2c0,58.9,55.8,75.2,104.6,75.2c59.4,0,103.7-21.4,103.7-86.9c0-80.6-115.4-50.9-115.4-94.6
			c0-15.4,8.2-21.4,22.5-24.3c47.4-8.8,77.1-45.7,77.1-93.9c0-8.3-1.7-16.2-4.6-24c7.7-1.7,15.1-3.8,22.5-6.3v-57.7
			c-19.7,7.8-40.8,13.5-62.3,13.5C104.9,102.3,21.5,139.2,21.5,216.8L21.5,216.8z M121.7,404c19.4,0,47.1,3.4,47.1,28.6
			c0,24.9-22.3,30.1-43.1,30.1c-19.8,0-49.5-3.1-49.5-28.8C76.3,408.3,101.5,404,121.7,404L121.7,404z M118.1,256
			c-25.1,0-35.8-14.9-35.8-38.6c0-56.3,69.7-55.8,69.7-0.6C152,240,142.9,256,118.1,256z M493.7,312.6v56
			c-15.2,8.3-34.9,11.2-52,11.2c-61.1,0-68.3-48.2-68.3-97.9V181.6h0.6v-1.1c-8,0-8.3-1.8-27.4,1.1v-54.3h27.4
			c0-25.5,0.3-35.4-1.7-47.1H437c-2.3,15.8-1.7,31.4-1.7,47.1h58.3v54.3c0,0-22.1-1.1-58.3-1.1v104.1c0,16.9,3.8,37.5,24.9,37.5
			C471.4,322.1,484.6,318.9,493.7,312.6z M326.9,41.9c0,21.4-16.6,41.4-38.6,41.4c-22.6,0-39.4-19.7-39.4-41.4
			c0-22.1,16.6-41.9,39.4-41.9C310.9,0,326.9,20.6,326.9,41.9z M319.8,127.1c-2.1,16.7-1.8,228.3,0,248.9h-63.4
			c1.8-20.7,2.1-232,0-248.9H319.8z"/>
	</g>
</g>
<g id="Layer_1">
</g>
</svg>
