<?xml version="1.0" encoding="utf-8"?>
<!-- Generator: Adobe Illustrator 23.0.5, SVG Export Plug-In . SVG Version: 6.00 Build 0)  -->
<svg version="1.1" id="Capa_1" xmlns="http://www.w3.org/2000/svg" xmlns:xlink="http://www.w3.org/1999/xlink" x="0px" y="0px"
	 viewBox="0 0 512 512" style="enable-background:new 0 0 512 512;" xml:space="preserve">
<path d="M457.1,0H54.9C24.6,0,0,24.6,0,54.9v402.3C0,487.4,24.6,512,54.9,512h402.3c30.3,0,54.9-24.6,54.9-54.9V54.9
	C512,24.6,487.4,0,457.1,0z M316.9,438.5c-9.6,1.7-13.1-4.2-13.1-9.1c0-6.2,0.2-37.7,0.2-63.2c0-17.8-5.9-29.1-12.9-35.1
	c42.3-4.7,86.9-10.5,86.9-83.5c0-20.8-7.4-31.2-19.5-44.6c1.9-4.9,8.5-25.1-1.9-51.4c-15.9-4.9-52.2,20.5-52.2,20.5
	c-15.1-4.2-31.4-6.4-47.5-6.4s-32.5,2.2-47.5,6.4c0,0-36.3-25.4-52.2-20.5c-10.4,26.2-4,46.4-1.9,51.4
	c-12.1,13.4-17.8,23.8-17.8,44.6c0,72.7,42.6,78.9,84.9,83.5c-5.5,4.9-10.4,13.4-12.1,25.5c-10.9,4.9-38.6,13.4-55.2-15.9
	c-10.4-18.1-29.1-19.5-29.1-19.5c-18.5-0.2-1.3,11.7-1.3,11.7c12.3,5.7,21,27.7,21,27.7c11.1,33.9,64.1,22.5,64.1,22.5
	c0,15.9,0.2,41.7,0.2,46.4c0,4.9-3.4,10.9-13.1,9.1c-75.4-25.3-128.2-97-128.2-180.9C68.3,152.7,148.6,73,253.5,73
	s189.9,79.7,189.9,184.6C443.5,341.5,392.3,413.4,316.9,438.5z M204.8,368.7c-2.2,0.5-4.2-0.5-4.5-1.9c-0.2-1.7,1.3-3.2,3.4-3.7
	c2.2-0.2,4.2,0.7,4.5,2.2C208.6,366.7,207.1,368.2,204.8,368.7L204.8,368.7z M193.9,367.7c0,1.5-1.7,2.7-4,2.7
	c-2.5,0.2-4.2-1-4.2-2.7c0-1.5,1.7-2.7,4-2.7C191.9,364.7,193.9,365.9,193.9,367.7z M178.3,366.4c-0.5,1.5-2.7,2.2-4.7,1.5
	c-2.2-0.5-3.7-2.2-3.2-3.7c0.5-1.5,2.7-2.2,4.7-1.7C177.4,363.2,178.9,364.9,178.3,366.4L178.3,366.4z M164.2,360.2
	c-1,1.3-3.2,1-4.9-0.7c-1.7-1.5-2.2-3.7-1-4.7c1-1.3,3.2-1,4.9,0.7C164.7,357,165.3,359.3,164.2,360.2z M153.8,349.8
	c-1,0.7-3,0-4.2-1.7s-1.3-3.7,0-4.5c1.3-1,3.2-0.2,4.2,1.5C155.1,346.9,155.1,348.9,153.8,349.8z M146.4,338.7c-1,1-2.7,0.5-4-0.7
	c-1.3-1.5-1.5-3.2-0.5-4c1-1,2.7-0.5,4,0.7C147.2,336.2,147.4,337.9,146.4,338.7z M138.7,330.3c-0.5,1-1.9,1.3-3.2,0.5
	c-1.5-0.7-2.2-1.9-1.7-3c0.5-0.7,1.7-1,3.2-0.5C138.5,328.1,139.2,329.4,138.7,330.3z"/>
</svg>
