<?xml version="1.0" encoding="UTF-8"?>
<svg version="1.1" xmlns="http://www.w3.org/2000/svg" width="512" height="512">
<path d="M0 0 C0.98532715 0.16628906 1.9706543 0.33257812 2.98583984 0.50390625 C24.18611333 4.19864489 44.57971535 10.7349485 64 20 C64.94069336 20.43965088 64.94069336 20.43965088 65.90039062 20.88818359 C83.83081574 29.30385678 100.52209654 39.65351362 116 52 C117.03640625 52.81210937 118.0728125 53.62421875 119.140625 54.4609375 C126.44751422 60.40012694 133.13235876 66.93105544 139.8125 73.5625 C140.69639404 74.43704834 141.58028809 75.31159668 142.4909668 76.21264648 C157.32761139 91.12198547 169.70049037 108.69134788 180 127 C180.36013184 127.62600098 180.72026367 128.25200195 181.09130859 128.89697266 C195.99805506 154.93286347 205.64219944 184.35197236 210 214 C210.17732666 215.19882813 210.35465332 216.39765625 210.53735352 217.6328125 C212.16591312 229.4590302 212.35792093 241.20144687 212.3125 253.125 C212.30976578 254.61484909 212.30976578 254.61484909 212.30697632 256.13479614 C212.26225311 270.60574163 211.89830215 284.77525533 209 299 C208.72663818 300.37454346 208.72663818 300.37454346 208.44775391 301.77685547 C207.13613995 308.22973313 205.63902372 314.62284326 204 321 C203.80680176 321.75474609 203.61360352 322.50949219 203.41455078 323.28710938 C198.77690953 341.00681357 191.63018141 357.87280628 183 374 C182.39800781 375.13308594 181.79601562 376.26617187 181.17578125 377.43359375 C170.01115322 397.67972214 155.83583059 415.73674462 140.125 432.625 C139.53090332 433.26397217 138.93680664 433.90294434 138.32470703 434.5612793 C134.11906775 439.00277617 129.64097238 443.02116062 125 447 C123.58847656 448.2684375 123.58847656 448.2684375 122.1484375 449.5625 C101.98909169 467.28000956 78.70421049 480.73646828 54 491 C53.28505371 491.30486328 52.57010742 491.60972656 51.83349609 491.92382812 C35.33271276 498.91523758 35.33271276 498.91523758 27 497 C23.65733459 495.33879659 21.61448076 493.17253358 19.86460876 489.83348083 C18.74251913 486.15618817 18.7158847 482.65863512 18.72875977 478.85180664 C18.72091965 477.64086334 18.72091965 477.64086334 18.71292114 476.40545654 C18.70270076 474.65619404 18.69690416 472.9069013 18.69503975 471.15760994 C18.69136189 468.37661375 18.67459195 465.59596972 18.65428162 462.81504822 C18.59903667 454.90923668 18.56835357 447.00337185 18.54370117 439.09741211 C18.52769336 434.25450302 18.49732901 429.41183989 18.45893669 424.56905937 C18.4473922 422.7357491 18.44135728 420.90239455 18.44125557 419.06904793 C18.43968645 398.29429176 14.68799273 382.75417437 2 366 C6.94719859 364.83066215 11.88655646 363.83247516 16.90087891 362.99047852 C32.19085899 360.40530795 46.01512218 356.81261357 60 350 C60.65419922 349.68514648 61.30839844 349.37029297 61.98242188 349.04589844 C70.92407815 344.69027499 78.60472579 339.74029823 86 333 C86.72832031 332.35289062 87.45664062 331.70578125 88.20703125 331.0390625 C93.57560985 326.00922786 97.37234418 320.3731317 101 314 C101.5878125 312.97261719 102.175625 311.94523437 102.78125 310.88671875 C112.48698696 292.7736 117.19137443 271.46067741 118 251 C118.04084717 249.98413818 118.04084717 249.98413818 118.08251953 248.94775391 C118.95044974 223.89786881 114.53806302 197.06998472 97.05859375 177.8671875 C96.50300781 177.29226562 95.94742187 176.71734375 95.375 176.125 C93 173 93 173 92.9375 169.4375 C93.25055014 167.94908888 93.61138699 166.47049243 94 165 C99.2859382 144.15596534 97.28222192 125.27213129 90 105 C88.30318094 103.30318094 86.26816687 103.70655766 83.9375 103.625 C64.31614045 103.87922256 43.62110738 115.61374693 27.79785156 126.27758789 C23.42024371 129.09951315 20.52100483 130.71917392 15.14501953 129.56347656 C14.43716309 129.3775293 13.72930664 129.19158203 13 129 C11.25709629 128.62357908 9.51355406 128.25010767 7.76953125 127.87890625 C6.81691406 127.66637207 5.86429687 127.45383789 4.8828125 127.23486328 C-28.94385099 119.8272113 -65.99372063 119.52119882 -99.54882812 128.81762695 C-105.08840316 130.29057347 -108.81018994 130.19634038 -113.8671875 127.43359375 C-114.85976562 126.77488281 -115.85234375 126.11617187 -116.875 125.4375 C-127.20431807 118.82152158 -138.08742551 113.60086721 -149.5 109.125 C-150.22920654 108.83874756 -150.95841309 108.55249512 -151.7097168 108.25756836 C-158.77417906 105.56869226 -165.34743136 103.71557149 -173 103.875 C-174.7015625 103.90207031 -174.7015625 103.90207031 -176.4375 103.9296875 C-177.283125 103.95289062 -178.12875 103.97609375 -179 104 C-179.17958252 104.82008545 -179.17958252 104.82008545 -179.36279297 105.65673828 C-180.22550045 109.57107515 -181.11021385 113.47551693 -182.0703125 117.3671875 C-186.20059853 134.65263466 -186.19391497 150.21093144 -181.33203125 167.35546875 C-180.875 169.375 -180.875 169.375 -181 173 C-182.44648854 175.13045117 -184.10855965 176.86366084 -185.90234375 178.7109375 C-202.80263263 197.1533384 -207.05317929 224.47172428 -206.12109375 248.51953125 C-205.19351716 267.51989047 -201.84792287 286.5601714 -194 304 C-193.47535156 305.17046875 -192.95070313 306.3409375 -192.41015625 307.546875 C-188.84810536 315.20241179 -184.66502136 321.73866061 -179 328 C-178.33484375 328.75796875 -177.6696875 329.5159375 -176.984375 330.296875 C-157.87355163 350.82331492 -129.45812804 358.47846362 -102.92724609 363.44677734 C-98.6110429 364.26250015 -94.30517781 365.12820896 -90 366 C-90.40919678 366.52110352 -90.81839355 367.04220703 -91.23999023 367.57910156 C-98.43365866 376.8147575 -103.91901428 386.92744124 -105.328125 398.75390625 C-106 401 -106 401 -107.96875 402.29296875 C-116.93439148 405.46138217 -125.50290235 407.36686016 -135 408 C-135.72960937 408.05414063 -136.45921875 408.10828125 -137.2109375 408.1640625 C-149.2623249 408.64263745 -159.63949083 404.40872075 -168.71484375 396.69140625 C-176.43137063 389.4077841 -183.69226997 380.45811372 -188.02734375 370.68359375 C-189.31384334 368.45676113 -190.67532581 368.02406651 -193 367 C-194.22670338 366.08666845 -195.43447773 365.14751689 -196.625 364.1875 C-204.68775998 358.09199384 -214.2882305 353.04999941 -224.6953125 354.33203125 C-226.81935152 354.7947921 -228.91501393 355.38475821 -231 356 C-228.8598176 362.80967126 -224.23802972 365.87028982 -218.625 369.8125 C-205.35805729 379.34478055 -198.69118182 392.96829378 -192.25878906 407.58813477 C-186.49868755 420.21744555 -178.30660159 427.4212226 -165.6875 433.02734375 C-155.08863352 436.94346905 -143.60448131 437.30908891 -132.4375 437.1875 C-130.74463867 437.1865332 -130.74463867 437.1865332 -129.01757812 437.18554688 C-121.63174265 437.14732231 -114.35454811 436.65435996 -107 436 C-106.92391038 443.31397841 -106.87138336 450.62785466 -106.83520508 457.94213867 C-106.82012239 460.4301332 -106.79965346 462.91810117 -106.77368164 465.40600586 C-106.73727663 468.98297688 -106.72026816 472.55959622 -106.70703125 476.13671875 C-106.69154739 477.24834885 -106.67606354 478.35997894 -106.66011047 479.5052948 C-106.65977058 481.06634697 -106.65977058 481.06634697 -106.65942383 482.65893555 C-106.64943108 484.02794258 -106.64943108 484.02794258 -106.63923645 485.42460632 C-107.21756667 489.55314976 -109.32206622 492.21613907 -112 495.3125 C-117.09608381 498.17904714 -122.97961852 497.73175658 -128.59082031 496.37231445 C-131.1482984 495.50479653 -133.63157649 494.53714034 -136.125 493.5 C-137.03169434 493.13688721 -137.93838867 492.77377441 -138.87255859 492.3996582 C-141.59454981 491.29458038 -144.29946739 490.15643122 -147 489 C-147.76183594 488.67435059 -148.52367187 488.34870117 -149.30859375 488.01318359 C-182.96564007 473.38332372 -214.31715317 450.1031042 -238 422 C-238.46019531 421.46810059 -238.92039063 420.93620117 -239.39453125 420.38818359 C-249.47110319 408.71355066 -257.86134798 396.07988787 -266 383 C-266.64026123 381.97495361 -266.64026123 381.97495361 -267.29345703 380.92919922 C-287.86041348 347.62817616 -300.00386596 305.29043826 -300.203125 266.0859375 C-300.21013931 265.16174011 -300.21715363 264.23754272 -300.22438049 263.28533936 C-300.24180898 260.31517625 -300.24823376 257.34521238 -300.25 254.375 C-300.25067474 253.36145447 -300.25134949 252.34790894 -300.25204468 251.3036499 C-300.23651574 236.64926345 -299.82219251 222.41919799 -297 208 C-296.8443457 207.12037598 -296.68869141 206.24075195 -296.52832031 205.33447266 C-292.11973065 180.53285595 -283.81375657 156.23942172 -272 134 C-271.65227539 133.34161133 -271.30455078 132.68322266 -270.94628906 132.00488281 C-263.58477762 118.23706093 -254.6413714 105.26041965 -245 93 C-244.25105469 92.04480469 -243.50210938 91.08960937 -242.73046875 90.10546875 C-236.7136098 82.72415675 -230.14740477 75.94150246 -223.4375 69.1875 C-222.56319336 68.30392822 -221.68888672 67.42035645 -220.78808594 66.51000977 C-215.15739699 60.90623918 -209.31635977 55.81477614 -203 51 C-202.28529541 50.45158447 -201.57059082 49.90316895 -200.83422852 49.33813477 C-184.97357341 37.31932829 -167.99290371 27.46356098 -150 19 C-148.92363281 18.49082031 -147.84726563 17.98164063 -146.73828125 17.45703125 C-127.97274691 9.01367262 -108.25711884 3.41869937 -88 0 C-87.05205566 -0.16371094 -86.10411133 -0.32742188 -85.12744141 -0.49609375 C-57.40262254 -5.08137047 -27.66645888 -4.7780252 0 0 Z " fill="#000000" transform="translate(300,9)"/>
</svg>
