<?xml version="1.0" encoding="UTF-8"?>
<svg version="1.1" xmlns="http://www.w3.org/2000/svg" width="512" height="512">
<path d="M0 0 C1.09162414 -0.00872064 1.09162414 -0.00872064 2.20530128 -0.01761746 C4.64518032 -0.03222159 7.084054 -0.01833099 9.52392578 -0.00457001 C11.29024775 -0.00917877 13.05656588 -0.01553152 14.82287598 -0.02347898 C19.677714 -0.04019879 24.53223808 -0.03191387 29.38707733 -0.01953411 C34.62233116 -0.01049681 39.8575304 -0.02444679 45.09277344 -0.0354538 C55.34904982 -0.0532577 65.60520924 -0.04939069 75.86149025 -0.03780323 C84.19559312 -0.02877655 92.52966317 -0.0275416 100.86376953 -0.0318985 C102.04907887 -0.03251143 103.2343882 -0.03312436 104.455616 -0.03375587 C106.86340842 -0.03503475 109.27120083 -0.0363316 111.67899323 -0.03764623 C134.26678696 -0.04905752 156.8545158 -0.03592972 179.44229889 -0.01444477 C198.83151952 0.00342669 218.22064437 0.00032274 237.60986328 -0.01811981 C260.11579974 -0.03951683 282.6216793 -0.04795883 305.12762451 -0.03567076 C307.52665201 -0.03439654 309.92567952 -0.03313905 312.32470703 -0.0318985 C314.09534452 -0.03097285 314.09534452 -0.03097285 315.90175247 -0.03002849 C324.22764703 -0.02657209 332.55350555 -0.0324102 340.87939453 -0.04181671 C351.02330232 -0.05302508 361.16708627 -0.05002109 371.31097984 -0.02869374 C376.48841545 -0.01816771 381.66564445 -0.01408797 386.84307861 -0.02729034 C391.58038077 -0.03918786 396.3172843 -0.03269532 401.05455017 -0.01138014 C402.77047836 -0.00690286 404.48644006 -0.0092055 406.2023468 -0.01888329 C408.53153822 -0.03101482 410.85935721 -0.01860661 413.18847656 0 C414.48310822 0.00064941 415.77773987 0.00129882 417.11160278 0.00196791 C422.45862779 0.77178159 425.49821663 3.23428687 428.96923828 7.25336456 C434.01194965 17.06450444 430.25873521 34.07916472 429.39285278 44.873909 C429.26176023 46.56616838 429.13120996 48.25846985 429.0011481 49.95080876 C428.64571816 54.5551817 428.28263537 59.15892257 427.9181807 63.76258874 C427.5250994 68.74519246 427.13923056 73.72835565 426.75241089 78.71144867 C425.99496953 88.45405363 425.23086755 98.19612504 424.464368 107.93802109 C423.84140583 115.85736372 423.22095995 123.77689983 422.60229111 131.69657898 C422.46993994 133.39081433 422.46993994 133.39081433 422.334915 135.11927666 C422.15565567 137.41415581 421.97640316 139.70903549 421.79715739 142.0039157 C420.11857806 163.49122612 418.43253587 184.97794585 416.74381731 206.46446148 C415.2960704 224.88699703 413.85429869 243.30999208 412.41699219 261.73334503 C410.74594317 283.15273729 409.07151212 304.57186043 407.39146984 325.99054933 C407.21224916 328.27550371 407.03303153 330.56045834 406.85381699 332.84541321 C406.76564688 333.96952596 406.67747678 335.09363871 406.58663485 336.25181548 C405.96653224 344.16056927 405.3488017 352.06950628 404.73196793 359.97851562 C403.98006593 369.6183402 403.22434879 379.25785682 402.46380772 388.8970038 C402.07612291 393.81169694 401.69009779 398.72650493 401.30866241 403.64168739 C400.95906331 408.14597348 400.6045492 412.64984548 400.24620567 417.15344408 C400.11782721 418.77752029 399.99119962 420.40173612 399.86655904 422.02610347 C397.78982244 449.04760587 397.78982244 449.04760587 392.734375 454.04877472 C387.74391028 457.44065115 381.86944685 458.94065501 376.15673828 460.69086456 C374.59334765 461.18883944 373.03062899 461.68892773 371.46850586 462.19086456 C367.8957243 463.33375314 364.31846549 464.46113181 360.73779297 465.57904816 C353.95432887 467.6987251 347.18458898 469.86079257 340.41455078 472.02289581 C329.77327162 475.41757538 319.12722361 478.79685057 308.47705078 482.16352081 C297.0109206 485.78821096 285.54727371 489.42059909 274.08642578 493.06195831 C272.64522823 493.51981404 271.20403052 493.97766927 269.76283264 494.43552399 C264.88473174 495.98531607 260.00668242 497.53527053 255.12865829 499.08530426 C253.80241783 499.5067165 252.47616757 499.92809792 251.14990711 500.34944725 C249.2335236 500.95831742 247.31720831 501.56740233 245.40089417 502.17649078 C242.98760328 502.94207546 240.57359298 503.7053968 238.15879822 504.46622467 C233.31994656 505.99160858 228.48866536 507.52365072 223.69140625 509.17572784 C222.61897926 509.53665276 222.61897926 509.53665276 221.52488708 509.90486908 C219.76615581 510.49973146 218.01359947 511.1127782 216.26196289 511.72821808 C205.32392511 514.03989151 196.02699749 511.57265929 185.67626953 508.10492706 C184.23595709 507.63702321 182.79511518 507.1707465 181.35379028 506.70597076 C178.2913929 505.71493731 175.23275637 504.71332634 172.17672729 503.70282745 C167.34500898 502.10531463 162.50569804 500.53177443 157.66479492 498.96234894 C152.72597696 497.36006494 147.78761743 495.75645885 142.85197449 494.14441681 C129.26693676 489.70786651 115.65052793 485.37967282 102.01565552 481.09864044 C98.55094615 480.00940314 95.08783259 478.91524182 91.62524414 477.81928253 C81.51737888 474.62092859 71.40579626 471.4375475 61.27326965 468.31806183 C56.8734467 466.96116703 52.47771851 465.59131529 48.08255005 464.21942902 C46.0368834 463.58465615 43.98929312 462.95604356 41.93966675 462.33417511 C39.13972037 461.48431612 36.34711843 460.61347328 33.55517578 459.73773956 C32.74447128 459.49783295 31.93376678 459.25792633 31.09849548 459.01074982 C25.15928766 457.1127065 19.58857353 454.28513263 16.57205296 448.56504059 C15.12942317 444.04796272 14.89789627 439.54243022 14.53767395 434.8294754 C14.44772813 433.73512255 14.3577823 432.6407697 14.26511085 431.51325464 C13.96323824 427.81489908 13.67291298 424.1157277 13.38256836 420.4164505 C13.16665937 417.73835776 12.95015136 415.06031904 12.73299122 412.38232803 C12.1979876 405.7647615 11.67212994 399.14649681 11.14956186 392.52793781 C10.71602813 387.03811927 10.27955609 381.54854149 9.84121323 376.05910492 C7.9446985 352.30225367 6.07273329 328.54349988 4.20783803 304.78414786 C3.90239408 300.89320345 3.59677529 297.00227278 3.29115444 293.11134227 C1.93652883 275.86508935 0.58271551 258.61877288 -0.76865864 241.37226486 C-1.09438227 237.2154434 -1.4201102 233.05862228 -1.74584961 228.90180206 C-1.82675932 227.86928903 -1.90766902 226.836776 -1.99103054 225.7729747 C-3.31211366 208.91609609 -4.63850575 192.05963943 -5.96699069 175.20334271 C-7.3413887 157.76337929 -8.7110867 140.32305172 -10.07619065 122.88235831 C-10.838716 113.14174783 -11.60324918 103.40130447 -12.37310219 93.66127014 C-13.02544384 85.40781275 -13.67351531 77.15403393 -14.31608186 68.89980951 C-14.64309088 64.70080208 -14.97205678 60.50197366 -15.30654144 56.30355453 C-15.61336727 52.45170535 -15.91429318 48.59943938 -16.21079972 44.74678251 C-16.36846344 42.71716705 -16.53218358 40.68802475 -16.69622499 38.6589148 C-18.6608876 12.82626069 -18.6608876 12.82626069 -15.78076172 7.25336456 C-11.07344196 1.8027838 -7.17369234 0.00359845 0 0 Z M64.59423828 94.50336456 C64.59423828 100.30748999 64.5959853 105.77599986 65.04307556 111.50524139 C65.14260025 112.80465164 65.24212494 114.10406189 65.34466553 115.44284821 C65.45634491 116.84998925 65.56810287 118.25712406 65.67993164 119.66425323 C65.79685941 121.17156752 65.91345263 122.67890779 66.02973938 124.18627167 C66.34442951 128.2524181 66.66392845 132.31817329 66.98445582 136.38386321 C67.32016875 140.65114613 67.65181491 144.91874534 67.98402405 149.18630219 C68.54210374 156.34745727 69.10321578 163.50836967 69.66625977 170.66913605 C70.31634795 178.9372706 70.96212023 187.20573332 71.60547918 195.47439402 C72.22588448 203.44729217 72.84886449 211.41998694 73.47317696 219.39258003 C73.73825644 222.77790662 74.00252719 226.16329489 74.26615715 229.54873466 C74.57677019 233.53556449 74.88967059 237.52220854 75.20431328 241.50872231 C75.31916425 242.96831885 75.43325933 244.42797511 75.54652786 245.88769531 C75.70173082 247.88610679 75.86000645 249.88427891 76.01841736 251.88243866 C76.10598769 252.99864688 76.19355803 254.1148551 76.28378201 255.26488781 C76.61211597 258.68985291 77.10765449 262.09727805 77.59423828 265.50336456 C144.25423828 265.50336456 210.91423828 265.50336456 279.59423828 265.50336456 C279.26423828 266.82336456 278.93423828 268.14336456 278.59423828 269.50336456 C278.40094711 271.27089542 278.24450057 273.04262676 278.11352539 274.81586456 C278.03351791 275.8779715 277.95351044 276.94007843 277.87107849 278.03437042 C277.74757774 279.75152252 277.74757774 279.75152252 277.62158203 281.50336456 C277.5342128 282.69002716 277.44684357 283.87668976 277.35682678 285.09931183 C277.17272298 287.61423849 276.99043342 290.12929851 276.80981445 292.64447784 C276.53477878 296.46117131 276.25142572 300.27718322 275.96728516 304.09320831 C275.78904311 306.54239017 275.61129337 308.99160791 275.43408203 311.44086456 C275.30754494 313.13372589 275.30754494 313.13372589 275.17845154 314.86078644 C274.66762279 322.08782682 274.49547724 329.25905056 274.59423828 336.50336456 C273.25425781 336.64632965 273.25425781 336.64632965 271.88720703 336.79218292 C266.10550505 337.62311273 260.52644498 339.32691329 254.90673828 340.88227081 C252.40941294 341.56286805 249.91201487 342.24319848 247.41455078 342.92328644 C243.49634034 343.99431836 239.57930575 345.06954576 235.66357422 346.1496048 C231.87215624 347.19482646 228.07695932 348.22594231 224.28173828 349.25727081 C223.11489502 349.58224045 221.94805176 349.90721008 220.74584961 350.24202728 C209.6160983 353.25327259 202.15198368 352.10530325 191.14501953 349.00336456 C189.84206698 348.64371605 188.53885467 348.28500742 187.23539734 347.92719269 C183.82034952 346.98774597 180.40809361 346.03857099 176.99658203 345.08637238 C171.52706447 343.56053033 166.05459412 342.04548953 160.579916 340.53827667 C158.67309922 340.01112734 156.76820953 339.47702324 154.86335754 338.94281769 C153.70502914 338.62248566 152.54670074 338.30215363 151.35327148 337.97211456 C149.82607231 337.54575714 149.82607231 337.54575714 148.26802063 337.11078644 C145.40112135 336.35567633 145.40112135 336.35567633 141.59423828 336.50336456 C141.59423828 321.98336456 141.59423828 307.46336456 141.59423828 292.50336456 C121.13423828 292.50336456 100.67423828 292.50336456 79.59423828 292.50336456 C81.06301176 313.90549241 82.53833015 335.30439807 84.21923828 356.69086456 C84.28140533 357.48937836 84.34357239 358.28789215 84.40762329 359.11060333 C84.58486107 361.38102314 84.76481201 363.65120977 84.94580078 365.92133331 C85.04715332 367.19774689 85.14850586 368.47416046 85.25292969 369.78925323 C85.61324029 373.71014392 86.08551471 377.59927609 86.59423828 381.50336456 C90.80899016 382.8474028 95.02385985 384.19107128 99.23876953 385.53461456 C99.89597237 385.74412624 100.5531752 385.95363792 101.23029327 386.16949844 C109.29270516 388.73955619 117.35624889 391.30599608 125.42211914 393.86518097 C127.7002906 394.58814694 129.97845252 395.31114295 132.25660515 396.03416824 C133.78899257 396.52049596 135.32139855 397.0067652 136.85382271 397.49297714 C146.0308899 400.4054337 155.20060116 403.3387905 164.35871887 406.31031036 C169.03212962 407.82480967 173.70965977 409.32628983 178.38803101 410.82538605 C180.55479324 411.52338495 182.71956884 412.22758334 184.88223267 412.93817902 C187.87638719 413.92126019 190.87672791 414.88259368 193.87939453 415.83930206 C194.73905823 416.12780029 195.59872192 416.41629852 196.48443604 416.71353912 C206.3779034 419.80944655 214.3306813 417.22449998 223.93798828 414.10102081 C225.0371608 413.75130722 226.13633331 413.40159363 227.26881409 413.04128265 C230.87981238 411.89054919 234.48695645 410.72819015 238.09423828 409.56586456 C240.60884922 408.76241095 243.12374637 407.9598526 245.63891602 407.15814972 C249.56577929 405.90613391 253.49233878 404.65319633 257.41758728 403.39612579 C266.95001517 400.34339309 276.49002334 397.31536306 286.03564453 394.30414581 C286.69816097 394.0951446 287.36067741 393.88614338 288.04327011 393.67080879 C291.30754908 392.64117664 294.57195359 391.61194325 297.83642578 390.58292389 C303.93485004 388.66039936 310.03204699 386.73398819 316.12939453 384.80805206 C318.17504372 384.16203978 320.22069744 383.51604189 322.26635742 382.87006378 C323.10703262 382.6045874 323.94770782 382.33911102 324.81385803 382.0655899 C325.69514626 381.78728836 325.69514626 381.78728836 326.59423828 381.50336456 C329.55901069 350.93174115 331.87444299 320.30361285 334.26413929 289.68299329 C334.7270168 283.75630829 335.19439656 277.82998421 335.66269225 271.90372521 C336.11989167 266.11548304 336.57407331 260.32700919 337.02591974 254.53834671 C337.29348462 251.11111712 337.56219579 247.68398782 337.83397484 244.25708961 C338.13431136 240.45998406 338.4297025 236.66252408 338.72387695 232.86493683 C338.8126712 231.75583954 338.90146545 230.64674225 338.99295044 229.50403595 C339.0727565 228.46096786 339.15256256 227.41789978 339.23478699 226.34322357 C339.30463397 225.4513865 339.37448095 224.55954943 339.44644451 223.64068699 C339.65252112 219.26615368 339.59423828 214.88274914 339.59423828 210.50336456 C271.94423828 210.50336456 204.29423828 210.50336456 134.59423828 210.50336456 C134.09923828 203.07836456 134.09923828 203.07836456 133.59423828 195.50336456 C131.94423828 179.99336456 130.29423828 164.48336456 128.59423828 148.50336456 C199.87423828 148.50336456 271.15423828 148.50336456 344.59423828 148.50336456 C346.3440416 132.76531752 346.3440416 132.76531752 347.71923828 117.00336456 C347.84878906 115.39074738 347.84878906 115.39074738 347.98095703 113.74555206 C348.06216797 112.68594269 348.14337891 111.62633331 348.22705078 110.53461456 C348.29811035 109.61229034 348.36916992 108.68996613 348.44238281 107.73969269 C348.64919455 103.33214232 348.59423828 98.91576429 348.59423828 94.50336456 C254.87423828 94.50336456 161.15423828 94.50336456 64.59423828 94.50336456 Z " fill="#FC490B" transform="translate(49.40576171875,-0.5033645629882813)"/>
</svg>
