<?xml version="1.0" encoding="UTF-8"?>
<svg version="1.1" xmlns="http://www.w3.org/2000/svg" width="1200" height="1170">
<path d="M0 0 C1.3933883 -0.00195514 2.78677604 -0.00434483 4.18016294 -0.00712797 C8.01183563 -0.01351089 11.8434873 -0.01369096 15.67516429 -0.01285056 C19.84303727 -0.0130204 24.01090279 -0.01893038 28.17877203 -0.02409142 C36.44677501 -0.03341025 44.71477263 -0.03733827 52.98278021 -0.03961039 C62.88624029 -0.0425744 72.78969329 -0.05127309 82.69314966 -0.06002467 C106.63282634 -0.08086381 130.57250425 -0.09133872 154.51218789 -0.10015428 C165.84156802 -0.10436225 177.17094763 -0.10958409 188.50032732 -0.11483881 C227.29454632 -0.1327301 266.08876547 -0.14772465 304.88298798 -0.155159 C307.31834228 -0.15563375 309.75369658 -0.15610964 312.18905089 -0.15658666 C313.39675125 -0.15682303 314.60445162 -0.15705941 315.84874897 -0.15730295 C321.9674036 -0.15850413 328.08605824 -0.15971958 334.20471287 -0.16094494 C335.41897244 -0.16118509 336.63323201 -0.16142524 337.88428732 -0.16167267 C377.23356939 -0.16956164 416.58282126 -0.19298461 455.93209015 -0.22550088 C497.54937274 -0.25982841 539.16663768 -0.27951293 580.78393465 -0.28280324 C585.35620154 -0.28322076 589.92846841 -0.28370032 594.50073528 -0.28422642 C595.6265285 -0.28434961 596.75232171 -0.2844728 597.91222987 -0.28459973 C616.00142147 -0.2869283 634.09057792 -0.30256929 652.17975701 -0.32306826 C670.37811446 -0.34336303 688.57642987 -0.34878635 706.77479654 -0.33929763 C717.5741746 -0.3340966 728.37341232 -0.33989377 739.17277008 -0.3618323 C746.40295395 -0.37540466 753.63304192 -0.37420697 760.86322689 -0.36143034 C764.97221155 -0.35457618 769.0809292 -0.35371605 773.1898893 -0.37099043 C835.03420694 -0.61480175 888.34927106 19.35682707 933.34167576 62.13422108 C933.99394138 62.7452367 934.64620701 63.35625233 935.31823826 63.98578358 C940.47882629 68.95785698 944.93086277 74.49739937 949.34167576 80.13422108 C949.76996677 80.68078358 950.19825779 81.22734608 950.63952732 81.79047108 C958.56353612 91.99255995 965.22750147 102.76180881 971.34167576 114.13422108 C971.70889744 114.81645741 972.07611912 115.49869373 972.45446873 116.20160389 C986.85326256 143.51129364 994.70334003 175.34234985 994.59894466 206.185359 C994.60164636 207.53574424 994.60521884 208.88612797 994.60956913 210.23650891 C994.61893303 213.91617006 994.61605744 217.59573099 994.61101359 221.27539675 C994.60772384 225.29063188 994.61604859 229.30584663 994.62283194 233.32107508 C994.63310504 240.34836388 994.63598043 247.37562515 994.63391972 254.40292072 C994.63086269 264.85347654 994.63920927 275.30400201 994.64966897 285.75455191 C994.66898903 305.50915686 994.67463646 325.26375142 994.67578308 345.01836471 C994.67670303 360.27856962 994.68082421 375.53877046 994.68718433 390.79897404 C994.6889795 395.19554698 994.69075912 399.59211993 994.69253409 403.98869288 C994.69297619 405.08177759 994.69341828 406.1748623 994.69387377 407.30107079 C994.70617872 438.03935019 994.71407526 468.77762818 994.71318722 499.51591015 C994.71315606 500.67431761 994.7131249 501.83272507 994.7130928 503.02623579 C994.71292659 508.89718207 994.71272851 514.76812834 994.71252339 520.63907461 C994.71246355 522.38797793 994.71246355 522.38797793 994.71240251 524.17221263 C994.71232163 526.53001862 994.71223804 528.88782461 994.71215172 531.24563059 C994.71092666 567.91602948 994.72593269 604.58639137 994.75329685 641.25677967 C994.78404738 682.48191081 994.80122753 723.70701764 994.79937041 764.93216097 C994.79922115 769.33187747 994.79912374 773.73159396 994.79906178 778.13131046 C994.79902681 779.75622026 994.79902681 779.75622026 994.79899114 781.41395651 C994.79892971 798.8137551 994.81167778 816.21352144 994.8289263 833.61331045 C994.84591659 851.11516821 994.84783012 868.61697903 994.83470766 886.1188405 C994.82734092 896.50277984 994.83090808 906.88657616 994.85059234 917.27050022 C994.86265372 924.2235209 994.8599334 931.17643876 994.84565135 938.12945486 C994.83793987 942.08001201 994.83618508 946.03029386 994.85256605 949.98083083 C995.09064691 1011.44475947 974.77739217 1064.50118601 932.34167576 1109.13422108 C931.42515232 1110.11261951 931.42515232 1110.11261951 930.49011326 1111.11078358 C925.51803986 1116.27137161 919.97849747 1120.72340809 914.34167576 1125.13422108 C913.79511326 1125.56251209 913.24855076 1125.99080311 912.68542576 1126.43207264 C902.48333689 1134.35608144 891.71408802 1141.02004679 880.34167576 1147.13422108 C879.65943943 1147.50144276 878.9772031 1147.86866444 878.27429295 1148.24701405 C850.77703176 1162.74470326 818.85638723 1170.49252879 787.82201672 1170.39148998 C786.4204687 1170.39419121 785.01892216 1170.39776343 783.61737829 1170.40211445 C779.79566283 1170.41148464 775.97404379 1170.40860066 772.15232387 1170.40355891 C767.98309844 1170.40027083 763.8138927 1170.40859255 759.64467371 1170.41537726 C752.34701372 1170.42565299 745.04938026 1170.42852528 737.75171375 1170.42646503 C726.89912073 1170.4234087 716.04655694 1170.43175306 705.19396962 1170.44221429 C684.67972093 1170.46153679 664.16548224 1170.46718187 643.65122552 1170.4683284 C627.80463615 1170.46924826 611.95805069 1170.47336896 596.11146259 1170.47972965 C591.54638017 1170.48152481 586.98129773 1170.48330444 582.4162153 1170.48507941 C581.28124424 1170.4855215 580.14627318 1170.4859636 578.97690905 1170.48641909 C547.05975435 1170.49872444 515.14260101 1170.50662054 483.22544384 1170.50573254 C481.42110393 1170.5056858 481.42110393 1170.5056858 479.58031272 1170.50563812 C473.48386997 1170.50547191 467.38742722 1170.50527383 461.29098447 1170.5050687 C460.08026073 1170.50502881 458.86953699 1170.50498892 457.62212466 1170.50494782 C455.17374599 1170.50486695 452.72536731 1170.50478335 450.27698864 1170.50469704 C412.19681047 1170.50347194 374.11666795 1170.51847851 336.03649998 1170.54584217 C293.2292376 1170.57659013 250.42199863 1170.593773 207.61472452 1170.59191573 C203.04649854 1170.59176647 198.47827256 1170.59166905 193.91004658 1170.59160709 C192.78527887 1170.59158379 191.66051115 1170.59156048 190.50165957 1170.59153646 C172.43238166 1170.59147502 154.36313477 1170.60422517 136.29386607 1170.62147162 C118.11988437 1170.63845872 99.94594787 1170.64037792 81.7719626 1170.62725298 C70.98810393 1170.61988414 60.20438296 1170.62345976 49.42053899 1170.64313766 C42.20094333 1170.65519357 34.98144671 1170.65248469 27.76185547 1170.63819666 C23.65904571 1170.63048067 19.55650114 1170.62874393 15.45371075 1170.64511137 C-36.28142712 1170.83792347 -86.17626224 1157.62639684 -126.65832424 1124.13422108 C-127.51635647 1123.42845936 -127.51635647 1123.42845936 -128.39172268 1122.70843983 C-140.29414117 1112.86443195 -151.22764754 1102.42588959 -160.65832424 1090.13422108 C-161.14027248 1089.51224842 -161.62222073 1088.89027576 -162.11877346 1088.24945545 C-185.16776691 1058.28360918 -199.27072905 1023.48797717 -204.65832424 986.13422108 C-204.82817953 985.03340417 -204.99803481 983.93258726 -205.17303723 982.79841226 C-205.90436091 976.8623233 -205.79973239 970.91669081 -205.79254532 964.94441795 C-205.79450064 963.60219247 -205.7968904 962.25996756 -205.79967329 960.91774353 C-205.80605392 957.22812615 -205.80623646 953.5385306 -205.80539588 949.84890876 C-205.80556577 945.83502625 -205.81147626 941.82115148 -205.81663674 937.80727285 C-205.82595417 929.84534439 -205.82988335 921.88342149 -205.83215571 913.92148826 C-205.83512009 904.38436259 -205.843819 894.84724429 -205.85256999 885.31012249 C-205.87340775 862.25599383 -205.88388387 839.2018639 -205.8926996 816.14772802 C-205.89690781 805.2369146 -205.90212963 794.32610173 -205.90738412 783.41528877 C-205.92527541 746.05267768 -205.9402698 708.69006644 -205.94770432 671.32745171 C-205.94817907 668.98202502 -205.94865496 666.63659833 -205.94913198 664.29117164 C-205.94936835 663.1280691 -205.94960473 661.96496657 -205.94984827 660.7666185 C-205.95104944 654.87393459 -205.9522649 648.98125068 -205.95349026 643.08856678 C-205.95373041 641.91915249 -205.95397056 640.7497382 -205.95421798 639.54488711 C-205.96210658 601.65065878 -205.9855288 563.75646179 -206.0180462 525.86224714 C-206.05237668 485.78182147 -206.07205852 445.70141414 -206.07534856 405.62097353 C-206.07576608 401.21721613 -206.07624564 396.81345874 -206.07677174 392.40970135 C-206.07689493 391.32540265 -206.07701812 390.24110395 -206.07714504 389.12394771 C-206.07947326 371.70423536 -206.09511228 354.2845595 -206.11561358 336.86486014 C-206.13591221 319.33862675 -206.14132986 301.812437 -206.13184295 284.28619403 C-206.12664339 273.88673519 -206.13243204 263.48742212 -206.15437762 253.08798437 C-206.16795612 246.12437561 -206.16674697 239.16086638 -206.15397566 232.19725646 C-206.1471255 228.24052431 -206.14624714 224.28406937 -206.16353575 220.32736278 C-206.41697131 158.47099003 -185.63051536 103.78796764 -142.09582424 59.32172108 C-136.88263731 54.23442076 -131.44863271 49.5495 -125.65832424 45.13422108 C-125.01508205 44.64163807 -124.37183987 44.14905506 -123.70910549 43.6415453 C-112.88636292 35.42196238 -101.79926707 28.24832801 -89.65832424 22.13422108 C-88.51121975 21.55462635 -88.51121975 21.55462635 -87.34094143 20.96332264 C-66.65713178 10.69458152 -44.49395325 4.34610483 -21.65832424 1.13422108 C-20.02306661 0.8799291 -20.02306661 0.8799291 -18.35477346 0.62049991 C-12.25511295 -0.13147214 -6.1365474 -0.00710729 0 0 Z " fill="#330000" transform="translate(205.65832424163818,-0.13422107696533203)"/>
<path d="M0 0 C1.1427388 -0.00997513 2.2854776 -0.01995026 3.46284485 -0.03022766 C4.7226416 -0.03089233 5.98243835 -0.03155701 7.28041077 -0.03224182 C8.61572739 -0.03986024 9.95103961 -0.04828719 11.28634644 -0.0574646 C14.9185534 -0.07944671 18.55067617 -0.08821332 22.18294215 -0.09329104 C24.45073307 -0.09692994 26.71850178 -0.1031675 28.98628426 -0.11029243 C36.89358112 -0.13479884 44.80081225 -0.1478416 52.70814514 -0.15138245 C60.0859756 -0.15501975 67.46339056 -0.18492555 74.84109396 -0.22678703 C81.16980578 -0.26144126 87.49837958 -0.27693003 93.82718569 -0.27762848 C97.60959317 -0.27842291 101.39157756 -0.2872367 105.17388725 -0.31562614 C108.73058631 -0.34172458 112.28650905 -0.34405929 115.84325981 -0.3279705 C117.77382636 -0.32527964 119.70437723 -0.34739524 121.6348114 -0.37016296 C122.78037003 -0.36039932 123.92592865 -0.35063568 125.10620117 -0.34057617 C126.10374892 -0.3425875 127.10129667 -0.34459883 128.12907314 -0.3466711 C130.61659241 0.27415466 130.61659241 0.27415466 132.37645817 2.60060024 C133.90448294 5.89480603 135.1868686 9.23975478 136.38221741 12.66477966 C136.64793549 13.41194244 136.91365356 14.15910522 137.18742371 14.9289093 C138.08566402 17.45885309 138.97605741 19.99148928 139.86659241 22.52415466 C140.51666509 24.36009968 141.16723479 26.19586878 141.81825256 28.03147888 C143.27471586 32.14152867 144.72759942 36.25282271 146.17811584 40.36497498 C148.58253929 47.18058405 150.99459258 53.99347976 153.40784073 60.80596733 C157.5957998 72.62865852 161.7795859 84.45282097 165.96034241 96.27806091 C170.79965391 109.96583202 175.64378282 123.65189069 180.49159241 137.33665466 C181.17999037 139.28001305 181.86838556 141.22337242 182.55677795 143.16673279 C183.57309453 146.03582801 184.58941747 148.90492098 185.60577393 151.77400208 C187.96035385 158.42093589 190.3140387 165.06818623 192.66737366 171.71556091 C200.64138126 194.23831243 208.62518902 216.75757056 216.61659241 239.27415466 C225.27823998 263.67921927 233.92968131 288.08788013 242.57215881 312.4997406 C244.66335739 318.40647039 246.7551356 324.31299481 248.84706116 330.21946716 C249.19869324 331.21228699 249.55032532 332.20510681 249.91261292 333.22801208 C250.98059708 336.24339613 252.0485925 339.25877619 253.11659241 342.27415466 C257.30861867 354.10987273 261.50042858 365.94566705 265.69081116 377.78196716 C272.98846813 398.39441406 280.29077769 419.00521223 287.60105228 439.61318779 C289.02043318 443.61480088 290.43871136 447.61680271 291.85616016 451.61910057 C296.31531204 464.20851713 300.79082586 476.79116324 305.35096741 489.34446716 C306.06449305 491.31527993 306.77787703 493.28614399 307.49110413 495.25706482 C308.78447711 498.83093843 310.0897008 502.40015259 311.40223694 505.96702576 C311.97157134 507.53797574 312.54044985 509.10909105 313.10877991 510.68040466 C313.3669751 511.37111053 313.62517029 512.06181641 313.89118958 512.77345276 C315.30349921 516.71732958 316.24345711 520.09304988 315.61659241 524.27415466 C312.80615633 526.93277947 310.85960748 527.65057645 307.03115845 527.66856384 C306.1157428 527.67991364 305.20032715 527.69126343 304.25717163 527.70295715 C303.26017746 527.70002655 302.26318329 527.69709595 301.23597717 527.69407654 C300.18028534 527.70254608 299.12459351 527.71101562 298.03691101 527.71974182 C294.54381801 527.74315956 291.05116425 527.74413283 287.55799866 527.74290466 C285.131885 527.7500032 282.70577302 527.75770174 280.27966309 527.76597595 C275.19295078 527.77943168 270.10639371 527.7809845 265.01966858 527.77513123 C258.49798518 527.76923348 251.97704578 527.79982581 245.45550632 527.84024811 C240.44465108 527.86608442 235.43397595 527.86900619 230.42306328 527.86535645 C228.0184689 527.86705142 225.61386654 527.87672995 223.20933723 527.89450073 C219.84791743 527.91660946 216.48801631 527.90702829 213.12660217 527.88938904 C211.63414726 527.90928391 211.63414726 527.90928391 210.11154175 527.92958069 C205.51669069 527.87349184 203.32598286 527.80748126 199.56637573 524.98097229 C197.93089343 522.71048804 196.77233586 520.97967751 195.91004944 518.34983826 C195.65794708 517.60642181 195.40584473 516.86300537 195.14610291 516.09706116 C194.89144257 515.29698639 194.63678223 514.49691162 194.37440491 513.67259216 C194.08937103 512.82006866 193.80433716 511.96754517 193.51066589 511.08918762 C192.57429578 508.28007729 191.65832633 505.46472746 190.74159241 502.64915466 C189.75015298 499.66194284 188.75330881 496.67656565 187.75648499 493.69114685 C187.07031608 491.63444198 186.38593031 489.57714141 185.70326233 487.51927185 C182.20453067 476.98090354 178.54588092 466.50057113 174.86659241 456.02415466 C168.70713017 438.46645185 162.6655255 420.87105093 156.61659241 403.27415466 C95.23659241 403.27415466 33.85659241 403.27415466 -29.38340759 403.27415466 C-41.76482043 441.11767005 -41.76482043 441.11767005 -53.94590759 479.02415466 C-55.81601442 484.90533143 -57.68894578 490.78544328 -59.58311462 496.65892029 C-60.82608425 500.51385657 -62.03453669 504.37782445 -63.22666931 508.24876404 C-63.82920906 510.15842316 -64.43221822 512.06793426 -65.03575134 513.97727966 C-65.29908768 514.85591675 -65.56242401 515.73455383 -65.83374023 516.63981628 C-66.09497177 517.45404053 -66.35620331 518.26826477 -66.62535095 519.10716248 C-66.84509079 519.81802002 -67.06483063 520.52887756 -67.29122925 521.26127625 C-68.92197468 524.26673072 -70.42006943 525.52372844 -73.38340759 527.27415466 C-76.62041329 527.8419122 -79.80374578 527.80039072 -83.08311462 527.75999451 C-84.05438293 527.7637912 -85.02565125 527.76758789 -86.02635193 527.77149963 C-89.23163811 527.77889959 -92.43601471 527.75753286 -95.64122009 527.73509216 C-97.86891066 527.73270768 -100.09660326 527.73180243 -102.32429504 527.73231506 C-106.9897981 527.72918818 -111.65499361 527.71262885 -116.32041931 527.68577576 C-122.30734069 527.65175684 -128.29392476 527.64414836 -134.28093147 527.64566612 C-138.87907647 527.64512295 -143.4771474 527.63416493 -148.07526779 527.61966324 C-150.28332331 527.61328997 -152.49138723 527.60935511 -154.69945145 527.60787582 C-157.78061044 527.60355072 -160.861408 527.58606772 -163.94248962 527.56468201 C-164.85892242 527.56558838 -165.77535522 527.56649475 -166.71955872 527.56742859 C-167.55787231 527.55889862 -168.39618591 527.55036865 -169.25990295 527.5415802 C-169.98807787 527.53822851 -170.71625278 527.53487682 -171.46649361 527.53142357 C-173.38340759 527.27415466 -173.38340759 527.27415466 -176.38340759 525.27415466 C-177.68980953 519.08064859 -175.70911308 513.06128032 -173.62950134 507.28196716 C-173.33770996 506.43600983 -173.04591858 505.59005249 -172.74528503 504.71846008 C-171.78355338 501.94061783 -170.80235768 499.1700849 -169.82090759 496.39915466 C-169.13386996 494.42693224 -168.44810138 492.45426732 -167.76353455 490.48118591 C-165.99363605 485.38978792 -164.20794039 480.30408274 -162.4183197 475.21958923 C-160.82921994 470.69689661 -159.25450482 466.16923025 -157.68028259 461.64134216 C-155.55310916 455.52680322 -153.42123529 449.4139459 -151.28308105 443.30323792 C-146.61852229 429.97102748 -141.99866665 416.62349795 -137.38340759 403.27415466 C-131.60635586 386.56688137 -125.8074702 369.86752716 -119.97666931 353.17893982 C-114.75109253 338.22027049 -109.56178431 323.2492238 -104.38340759 308.27415466 C-98.60606904 291.56698002 -92.80747053 274.86752813 -86.97666931 258.17893982 C-81.75109253 243.22027049 -76.56178431 228.2492238 -71.38340759 213.27415466 C-65.60641619 196.56798391 -59.80840573 179.86944987 -53.97767639 163.18196106 C-48.34393498 147.05589905 -42.75537309 130.91438185 -37.17436218 114.77000427 C-31.42277064 98.13436631 -25.63526912 81.51173919 -19.79722595 64.90623474 C-18.53772804 61.32279609 -17.28550459 57.73689434 -16.03831482 54.14915466 C-15.42805213 52.40197203 -14.80796866 50.6582282 -14.18711853 48.91477966 C-9.88327269 36.5615147 -8.91321734 24.50785348 -8.17247009 11.51048279 C-8.09770447 10.34839294 -8.02293884 9.1863031 -7.94590759 7.98899841 C-7.88532166 6.93833191 -7.82473572 5.88766541 -7.76231384 4.80516052 C-7.01867533 -0.16217224 -4.38910376 0.02046947 0 0 Z " fill="#FE9900" transform="translate(423.38340759277344,297.72584533691406)"/>
<path d="M0 0 C0.88182953 -0.00845947 1.76365906 -0.01691895 2.67221069 -0.02563477 C3.63696823 -0.01956207 4.60172577 -0.01348938 5.59571838 -0.00723267 C6.6138562 -0.01248962 7.63199402 -0.01774658 8.6809845 -0.02316284 C12.05449154 -0.03639197 15.42752861 -0.02761358 18.80104065 -0.01748657 C21.14129731 -0.01950662 23.48155336 -0.02241748 25.82180786 -0.02618408 C30.73039229 -0.03061152 35.63881311 -0.02416332 40.54737854 -0.01016235 C46.84370433 0.00692015 53.13964624 -0.00290335 59.43595791 -0.02087975 C64.27004901 -0.03171418 69.10404894 -0.0282726 73.93814278 -0.02049637 C76.2598125 -0.01849294 78.58149046 -0.02095861 80.90315056 -0.02793503 C84.1472507 -0.03554266 87.39072726 -0.02395393 90.63478088 -0.00723267 C92.07888084 -0.01634171 92.07888084 -0.01634171 93.55215454 -0.02563477 C94.43680389 -0.01717529 95.32145325 -0.00871582 96.23291016 0 C96.99963264 0.00113108 97.76635511 0.00226215 98.55631161 0.00342751 C101.40311208 0.50950963 102.6210878 1.34050764 104.6799469 3.38095093 C105.17904222 6.26245922 105.17904222 6.26245922 105.17772484 9.86093044 C105.18293941 10.52503607 105.18815398 11.18914171 105.19352657 11.87337175 C105.20619207 14.11483886 105.19016291 16.35519904 105.17442322 18.59663391 C105.17759767 20.21329829 105.18252313 21.82996003 105.18905604 23.44661433 C105.20192408 27.90165917 105.18971558 32.35634239 105.17352748 36.81136358 C105.16040414 41.61103531 105.17026375 46.41066558 105.17729187 51.21034241 C105.1873907 60.61813673 105.17607392 70.02579079 105.15759127 79.4335677 C105.13685366 90.38151201 105.13696285 101.32942575 105.13793643 112.27738602 C105.13893843 131.80762418 105.12059469 151.33779692 105.09156799 170.86801147 C105.06339552 189.83319287 105.04922623 208.79831668 105.05055237 227.76351929 C105.05067224 229.51529801 105.05067224 229.51529801 105.05079453 231.30246621 C105.05091559 233.05117003 105.05091559 233.05117003 105.0510391 234.8352012 C105.05241797 256.4041288 105.04064279 277.97303184 105.02273267 299.54195149 C105.01669317 307.17894336 105.01457273 314.81593073 105.01366806 322.45292473 C105.0123053 331.75665051 105.00339724 341.06033494 104.98500244 350.36404317 C104.97575314 355.11382399 104.96968034 359.86355184 104.97219086 364.61334229 C104.97437575 368.95765531 104.96737606 373.30185102 104.95289381 377.64613957 C104.94925773 379.22147658 104.94901569 380.79682566 104.95242839 382.37216317 C104.95654182 384.50662598 104.94845969 386.64070127 104.93721581 388.77513027 C104.93580696 389.96278813 104.93439811 391.15044598 104.93294656 392.37409347 C104.68702513 395.29682734 104.30384178 396.96523644 102.6799469 399.38095093 C100.38167662 400.53008607 99.07446066 400.51374557 96.51811218 400.52812195 C95.64607147 400.53527725 94.77403076 400.54243256 93.87556458 400.54980469 C92.43706146 400.55383804 92.43706146 400.55383804 90.96949768 400.55795288 C89.96125946 400.56452408 88.95302124 400.57109528 87.91423035 400.5778656 C84.56790601 400.59762461 81.22162656 400.6092659 77.8752594 400.61923218 C76.73469967 400.6233077 75.59413994 400.62738323 74.41901779 400.63158226 C68.38441396 400.65245231 62.34983294 400.66675101 56.31520081 400.67611694 C50.07150578 400.68719417 43.8281659 400.72160685 37.58459663 400.76128864 C32.79256002 400.78738708 28.00060898 400.79580267 23.20850754 400.79939842 C20.90635144 400.8042805 18.60419956 400.81594023 16.30211258 400.83443642 C13.08418052 400.85868744 9.86717993 400.85788851 6.64918518 400.85092163 C5.21675476 400.87013672 5.21675476 400.87013672 3.75538635 400.88973999 C2.87770599 400.88279617 2.00002563 400.87585236 1.0957489 400.86869812 C-0.04522153 400.87228065 -0.04522153 400.87228065 -1.20924187 400.87593555 C-4.27263227 400.15757139 -5.3698752 398.8276095 -7.3200531 396.38095093 C-7.82029909 393.36768144 -7.82029909 393.36768144 -7.82062435 389.7595129 C-7.82613852 389.09226546 -7.83165268 388.42501801 -7.83733395 387.73755094 C-7.85097907 385.49143509 -7.83600634 383.2464164 -7.82125854 381.00032043 C-7.82514964 379.37795478 -7.83078854 377.75559253 -7.83802944 376.13323838 C-7.85282962 371.66712844 -7.84257595 367.20136943 -7.82829273 362.73527062 C-7.81721274 357.92199639 -7.82911562 353.10877259 -7.83813477 348.29550171 C-7.85208924 338.86345405 -7.84449493 329.43153999 -7.82945918 319.99949866 C-7.81262613 309.02357755 -7.81580589 298.04768997 -7.81955326 287.07175995 C-7.82543582 267.4932373 -7.81124439 247.91477891 -7.78660583 228.33627319 C-7.76268063 209.32257682 -7.75560235 190.30896629 -7.76609802 171.29525757 C-7.77749755 150.60698712 -7.77944951 129.91875641 -7.76499993 109.23048645 C-7.76347403 107.02611006 -7.76195367 104.82173366 -7.76043892 102.61735725 C-7.7596811 101.53266401 -7.75892329 100.44797076 -7.75814251 99.33040802 C-7.75339247 91.67289194 -7.75525619 84.01539355 -7.75950432 76.35787773 C-7.76442202 67.03144327 -7.75848668 57.70509012 -7.73861002 48.37867432 C-7.72871278 43.6168342 -7.72365902 38.85511808 -7.73150253 34.09327126 C-7.73852796 29.73913409 -7.73182886 25.38524784 -7.7138989 21.03114391 C-7.70983394 19.45114458 -7.71088829 17.87112261 -7.71741777 16.29113155 C-7.72550287 14.15263209 -7.71533689 12.01499153 -7.70036983 9.87654781 C-7.69934071 8.68601455 -7.69831158 7.49548128 -7.69725126 6.26887125 C-7.3200531 3.38095093 -7.3200531 3.38095093 -5.92114544 1.49857134 C-3.83451308 0.04202642 -2.53573799 0.00374259 0 0 Z " fill="#FE9900" transform="translate(801.3200531005859,426.6190490722656)"/>
<path d="M0 0 C2 1 2 1 2.66674805 2.85986328 C2.86308838 3.67181152 3.05942871 4.48375977 3.26171875 5.3203125 C3.48972168 6.23594971 3.71772461 7.15158691 3.95263672 8.0949707 C4.31639404 9.59483521 4.31639404 9.59483521 4.6875 11.125 C7.46926472 22.1789451 10.65970189 33.05793403 14.04833984 43.93896484 C15.42479673 48.36636771 16.78401522 52.79902844 18.14501953 57.23120117 C19.44149794 61.45189117 20.74172798 65.67141947 22.04223633 69.89086914 C23.05808887 73.18857043 24.07200813 76.4868632 25.0859375 79.78515625 C26.52557737 84.46442272 27.9746359 89.14044616 29.4375 93.8125 C29.86460171 95.17707758 30.29168451 96.54166108 30.71875 97.90625 C30.93144531 98.58558594 31.14414062 99.26492188 31.36328125 99.96484375 C31.98279133 101.94499559 32.60102385 103.925541 33.21875 105.90625 C34.93713743 111.41448668 36.65590545 116.92245226 38.40234375 122.421875 C40.7680803 129.87379861 43.10854556 137.33063597 45.35984802 144.8180542 C49.6567638 159.08741716 54.28904416 173.23857768 58.97583008 187.38378906 C59.97595893 190.40566598 60.97072634 193.42926616 61.96484375 196.453125 C62.27099106 197.37168274 62.57713837 198.29024048 62.89256287 199.2366333 C63.30913902 200.50636993 63.30913902 200.50636993 63.73413086 201.80175781 C63.97949081 202.54290833 64.22485077 203.28405884 64.47764587 204.04766846 C65 206 65 206 65 209 C23.09 209 -18.82 209 -62 209 C-59.98448257 201.60976941 -57.84770156 194.54089816 -55.25 187.375 C-52.45046885 179.4851798 -49.94400143 171.57861475 -47.75 163.5 C-44.70074295 152.28312252 -41.35893765 141.17066528 -37.9375 130.0625 C-37.68778442 129.2487793 -37.43806885 128.43505859 -37.18078613 127.59667969 C-34.25886321 118.0827718 -31.22415007 108.61704665 -28.04881287 99.18470764 C-26.19939329 93.66551007 -24.52454339 88.11822472 -23 82.5 C-21.69295183 77.68328546 -20.32772936 72.9041871 -18.69628906 68.1862793 C-14.33228842 55.56038799 -10.97667101 42.77067346 -7.75 29.8125 C-6.95645691 26.65258434 -6.16098805 23.49316005 -5.36480713 20.33390808 C-4.87532851 18.38885643 -4.38770258 16.44333723 -3.90228271 14.49726868 C-2.6863725 9.63681764 -1.40976777 4.8079332 0 0 Z " fill="#350100" transform="translate(485,390)"/>
<path d="M0 0 C7.76730458 5.97152107 13.26342103 12.46118092 18 21 C18.39832031 21.64195312 18.79664063 22.28390625 19.20703125 22.9453125 C26.66477247 35.84971866 27.08819184 55.29264696 23.75 69.5625 C23.20217517 71.38604654 22.62054006 73.19989887 22 75 C21.7215625 75.85722656 21.443125 76.71445312 21.15625 77.59765625 C18.80802501 84.14636991 15.21400199 89.5014667 11 95 C10.37609375 95.83789062 9.7521875 96.67578125 9.109375 97.5390625 C-0.63776145 108.91072169 -15.83684064 114.92523807 -30.4921875 116.22021484 C-48.60239533 117.1732026 -65.4133642 113.7976945 -79.4375 101.625 C-92.69853607 88.7552732 -99.24038138 73.59450822 -99.51928711 55.0546875 C-99.51292236 53.92289062 -99.50655762 52.79109375 -99.5 51.625 C-99.49141968 49.84609375 -99.49141968 49.84609375 -99.48266602 48.03125 C-99.30044031 39.09789572 -98.29671266 31.96410881 -94 24 C-93.46890625 23.01257813 -92.9378125 22.02515625 -92.390625 21.0078125 C-83.98019694 6.77181271 -70.18779028 -3.43988936 -54.37890625 -8.1875 C-37.08738287 -11.94741527 -14.93750842 -10.05693636 0 0 Z " fill="#FE9900" transform="translate(888,269)"/>
</svg>
