<?xml version="1.0" encoding="utf-8"?>
<!-- Generator: Adobe Illustrator 23.0.5, SVG Export Plug-In . SVG Version: 6.00 Build 0)  -->
<svg version="1.1" id="Capa_1" xmlns="http://www.w3.org/2000/svg" xmlns:xlink="http://www.w3.org/1999/xlink" x="0px" y="0px"
	 viewBox="0 0 512 512" style="enable-background:new 0 0 512 512;" xml:space="preserve">
<style type="text/css">
	.st0{fill:#5382A1;}
	.st1{fill:#F8981D;}
</style>
<g id="_x31_81-java">
	<g>
		<path class="st0" d="M342,312.9c9.8-6.7,23.4-12.5,23.4-12.5s-38.7,7-77.2,10.2c-47.1,3.9-97.7,4.7-123.1,1.3
			c-60.1-8,33-30.1,33-30.1s-36.1-2.4-80.6,19C65,326.2,247.5,337.8,342,312.9z"/>
		<path class="st1" d="M256.6,280.8c-19-42.7-83.1-80.2,0-145.8C360.3,53.2,307.1,0,307.1,0c21.5,84.5-75.6,110.1-110.7,162.6
			C172.5,198.5,208.1,237,256.6,280.8z"/>
		<path class="st1" d="M371.2,104.6c0.1,0-175.2,43.8-91.5,140.2c24.7,28.4-6.5,54-6.5,54s62.7-32.4,33.9-72.9
			C280.2,188.1,259.6,169.3,371.2,104.6z"/>
		<path class="st0" d="M365.1,375.1c-0.5,1.2-2,2.5-2,2.6c128.3-33.7,81.1-118.9,19.8-97.3c-5.4,1.9-8.2,6.3-8.2,6.3s3.4-1.4,11-3
			C416.7,277.2,461.2,325.2,365.1,375.1L365.1,375.1z"/>
		<path class="st0" d="M412.3,437.4c0,0,14.5,11.9-15.9,21.2c-57.9,17.5-240.8,22.8-291.6,0.7c-18.3-7.9,16-19,26.8-21.3
			c11.2-2.4,17.7-2,17.7-2C129,421.7,18,464.1,92.9,476.2C297.1,509.4,465.3,461.3,412.3,437.4L412.3,437.4z"/>
		<path class="st0" d="M188.7,396c-78.7,22,47.9,67.4,148.1,24.5c-16.4-6.4-28.2-13.8-28.2-13.8c-44.7,8.5-65.4,9.1-106,4.5
			C169.1,407.4,188.7,396,188.7,396L188.7,396z"/>
		<path class="st0" d="M368.5,493.2c-78.7,14.8-175.8,13.1-233.3,3.6c0-0.1,11.8,9.7,72.4,13.6c92.2,5.9,233.8-3.3,237.1-46.9
			C444.7,463.5,438.3,480,368.5,493.2L368.5,493.2z"/>
		<path class="st0" d="M324.9,353c-59.2,11.4-93.5,11.1-136.8,6.6c-33.5-3.5-11.6-19.7-11.6-19.7c-86.8,28.8,48.2,61.4,169.5,25.9
			C333.1,361.3,324.9,353,324.9,353z"/>
	</g>
</g>
<g id="Layer_1">
</g>
</svg>
