<?xml version="1.0" encoding="UTF-8"?>
<svg version="1.1" xmlns="http://www.w3.org/2000/svg" width="2160" height="2160">
<path d="M0 0 C712.8 0 1425.6 0 2160 0 C2160 712.8 2160 1425.6 2160 2160 C1447.2 2160 734.4 2160 0 2160 C0 1447.2 0 734.4 0 0 Z " fill="#F6DE1D" transform="translate(0,0)"/>
<path d="M0 0 C0.51884766 0.41588379 1.03769531 0.83176758 1.57226562 1.26025391 C9.78126836 7.88308487 17.33272552 15.13190005 24.8125 22.5625 C25.68390625 23.42464111 26.5553125 24.28678223 27.453125 25.17504883 C33.39037339 31.14110236 38.76972207 37.40986276 44 44 C44.94171934 45.15705564 45.88425808 46.31344558 46.828125 47.46875 C57.1062642 60.33300164 66.26426086 73.94741583 74.9375 87.9375 C75.74562134 89.207146 75.74562134 89.207146 76.57006836 90.50244141 C77.05096924 91.29440918 77.53187012 92.08637695 78.02734375 92.90234375 C78.67304321 93.94636353 78.67304321 93.94636353 79.33178711 95.01147461 C80 97 80 97 79.39892578 99.06445312 C77.7071871 101.4051345 76.04739075 102.54976417 73.58984375 104.06640625 C72.69136719 104.6284375 71.79289062 105.19046875 70.8671875 105.76953125 C69.90039062 106.36121094 68.93359375 106.95289063 67.9375 107.5625 C65.91499316 108.82362328 63.89286104 110.0853477 61.87109375 111.34765625 C60.86933105 111.96914551 59.86756836 112.59063477 58.83544922 113.23095703 C55.0262216 115.60754247 51.26027331 118.04698764 47.5 120.5 C41.08819293 124.66582415 34.64313185 128.777467 28.1875 132.875 C21.09790801 137.37586131 14.033407 141.91183918 7 146.5 C-0.96573528 151.69635428 -8.97706076 156.81742923 -17.0065918 161.91455078 C-23.12475293 165.80041717 -29.22082399 169.71810017 -35.29956055 173.6652832 C-42.90285308 178.59712432 -50.54338118 183.47078629 -58.18481445 188.34326172 C-63.60078317 191.80206197 -68.97469516 195.29840664 -74.2578125 198.95776367 C-76 200 -76 200 -78 200 C-79.58337239 197.48487386 -81.054819 194.96831237 -82.5 192.375 C-101.80435809 158.66119144 -129.04759082 129.44127949 -167.40600586 118.64306641 C-199.86391812 110.07229069 -234.18310179 111.52516837 -263.99609375 127.6171875 C-283.22308214 139.01701891 -296.82671815 157.37121796 -302.4375 178.9375 C-307.83825318 202.38727482 -304.31698123 230.15406782 -291.6875 250.8125 C-285.75973249 259.49524315 -279.31127342 267.51747968 -271 274 C-269.46666016 275.21236328 -269.46666016 275.21236328 -267.90234375 276.44921875 C-258.34755288 283.81810692 -248.13174971 289.80869184 -237.56103516 295.59619141 C-235.26476847 296.85486952 -232.98142393 298.13406151 -230.69921875 299.41796875 C-214.38625913 308.44030484 -197.073693 315.56556996 -180 323 C-178.46545166 323.66854004 -178.46545166 323.66854004 -176.89990234 324.35058594 C-168.97720948 327.80146497 -161.05185269 331.24618795 -153.125 334.6875 C-151.97241699 335.18788788 -150.81983398 335.68827576 -149.63232422 336.2038269 C-133.9925804 342.99457657 -133.9925804 342.99457657 -118.3125 349.69140625 C-98.57110989 358.06581188 -79.32327999 367.36792042 -60.13659668 376.93493652 C-58.18626371 377.90715015 -56.23442781 378.87627198 -54.28222656 379.84472656 C-37.27782908 388.31955504 -21.0987128 397.94063862 -5 408 C-3.82945068 408.72775635 -3.82945068 408.72775635 -2.63525391 409.47021484 C28.19592802 428.68665545 58.35990903 452.45704702 81 481 C81.93255591 482.12174109 82.86757462 483.24143804 83.8046875 484.359375 C116.8346425 524.09294648 135.30270367 575.72509198 139 627 C139.08685059 628.12647949 139.17370117 629.25295898 139.26318359 630.41357422 C139.97208301 640.42223029 140.15510876 650.38589463 140.13037109 660.41796875 C140.12500529 662.99745557 140.13035812 665.57676836 140.13671875 668.15625 C140.14328388 681.74460802 139.85041261 695.30549868 137.6875 708.75 C137.55778809 709.57725586 137.42807617 710.40451172 137.29443359 711.25683594 C134.89586537 726.18940284 131.94594125 740.69506152 127 755 C126.59056152 756.21695557 126.59056152 756.21695557 126.17285156 757.45849609 C116.62204011 785.72573198 103.25097843 812.087076 84 835 C83.06996461 836.13382931 82.1402826 837.26794857 81.2109375 838.40234375 C70.38319839 851.46560586 58.46451613 863.6517256 45 874 C44.02160156 874.78375 43.04320312 875.5675 42.03515625 876.375 C15.98535502 897.116848 -14.07459738 911.71962908 -45.23632812 922.9921875 C-47.60984598 923.85772475 -49.97061858 924.74830663 -52.328125 925.65625 C-86.44972537 938.59674575 -123.79942529 943.45457418 -160 946 C-161.25780273 946.09498779 -162.51560547 946.18997559 -163.81152344 946.2878418 C-174.54326695 947.04374033 -185.24371448 947.20295003 -196 947.1875 C-196.91717804 947.18623108 -197.83435608 947.18496216 -198.77932739 947.18365479 C-246.97645878 947.05763015 -295.6482457 941.72936489 -341.65625 926.75927734 C-344.0877574 925.97157026 -346.52744602 925.21377862 -348.96875 924.45703125 C-368.28919982 918.35942289 -387.10624503 910.46046773 -405.03662109 901.02441406 C-407.17634286 899.90799121 -409.33118101 898.82462635 -411.48828125 897.7421875 C-437.43422314 884.58676319 -462.10643692 867.37950274 -483.34765625 847.46875 C-485.4627585 845.50005394 -487.60453352 843.61133948 -489.8125 841.75 C-499.17047913 833.63057693 -508.13919552 824.5761919 -516 815 C-516.65935547 814.21133545 -516.65935547 814.21133545 -517.33203125 813.40673828 C-535.82622183 791.27464006 -555.49227518 766.12595183 -566 739 C-564.53125 738.14322917 -563.0625 737.28645833 -561.59375 736.4296875 C-560.15539795 735.59062866 -560.15539795 735.59062866 -558.68798828 734.73461914 C-556.53015772 733.47591219 -554.37227872 732.21728828 -552.21435547 730.95874023 C-546.80065333 727.80120375 -541.38753124 724.64268832 -535.9765625 721.48046875 C-524.57535613 714.81962387 -513.1532946 708.19646717 -501.71142578 701.60571289 C-494.46078014 697.42672406 -487.22527414 693.2226866 -480 689 C-471.68248149 684.13897005 -463.34789436 679.30867491 -455 674.5 C-446.4268633 669.55985258 -437.86175909 664.60637281 -429.3125 659.625 C-428.3222583 659.04862793 -427.3320166 658.47225586 -426.31176758 657.87841797 C-421.94336319 655.32929262 -417.58834214 652.76383676 -413.2734375 650.125 C-412.57307373 649.69751465 -411.87270996 649.2700293 -411.15112305 648.82958984 C-409.88831491 648.05491679 -408.62903526 647.27444626 -407.37426758 646.48681641 C-404.65762495 644.81720892 -403.25994062 644 -400 644 C-398.33967622 646.34577856 -396.88054673 648.64967828 -395.4375 651.125 C-385.4198042 667.70639467 -373.75097642 683.18471357 -360.49609375 697.31640625 C-358.36940178 699.60284973 -356.32927439 701.92987084 -354.3125 704.3125 C-350.85747144 708.28089365 -347.03360518 711.63293605 -343 715 C-342.06800781 715.79664063 -341.13601563 716.59328125 -340.17578125 717.4140625 C-307.42928392 745.1710167 -268.55682333 760.71701578 -226 765 C-224.19789063 765.19722656 -224.19789063 765.19722656 -222.359375 765.3984375 C-180.75843718 769.18965597 -131.46004162 763.3905457 -98 736 C-84.40365231 724.61890179 -74.93189258 712.29722192 -68.625 695.75 C-68.3863623 695.12536865 -68.14772461 694.5007373 -67.90185547 693.85717773 C-64.63925979 684.80895957 -63.63336123 675.95833583 -63.6875 666.375 C-63.69313965 665.32320557 -63.6987793 664.27141113 -63.70458984 663.18774414 C-64.10392089 637.34390838 -73.92241482 616.34253631 -92 598 C-92.80244141 597.15707397 -92.80244141 597.15707397 -93.62109375 596.29711914 C-97.72068169 592.05782522 -102.02885682 588.53832679 -106.875 585.1875 C-107.61766113 584.67106934 -108.36032227 584.15463867 -109.12548828 583.62255859 C-134.72572562 566.04571138 -163.13984403 553.32085304 -191.50683594 540.96289062 C-195.72384272 539.12406508 -199.92998671 537.26159546 -204.1328125 535.390625 C-216.66087379 529.82001029 -229.21446277 524.31853092 -241.83203125 518.953125 C-291.94628432 497.6401668 -342.05059794 475.69797534 -386 443 C-386.86987549 442.35538818 -386.86987549 442.35538818 -387.75732422 441.69775391 C-396.12159972 435.4670025 -404.12156008 428.8283313 -412 422 C-412.80566406 421.30777344 -413.61132812 420.61554688 -414.44140625 419.90234375 C-426.52134614 409.29407166 -438.30158219 397.84295601 -448 385 C-448.50563477 384.34902344 -449.01126953 383.69804688 -449.53222656 383.02734375 C-477.18376056 347.39113048 -495.84887156 303.80560066 -502 259 C-502.13245117 258.12005371 -502.26490234 257.24010742 -502.40136719 256.33349609 C-504.91050462 239.13885652 -505.31641149 222.03583136 -505.375 204.6875 C-505.38276459 203.64402405 -505.39052917 202.6005481 -505.39852905 201.52545166 C-505.52258759 180.36900264 -503.49528147 159.76719075 -498.25 139.25 C-498.07603699 138.55353363 -497.90207397 137.85706726 -497.72283936 137.13949585 C-484.35874213 83.69903285 -454.07054418 33.77470629 -410 0 C-409.3591748 -0.50080078 -408.71834961 -1.00160156 -408.05810547 -1.51757812 C-368.68378272 -32.17724383 -322.00917733 -50.74572392 -273 -59 C-272.18354004 -59.14034668 -271.36708008 -59.28069336 -270.52587891 -59.42529297 C-264.69941614 -60.413638 -258.86289146 -61.25863799 -253 -62 C-252.1745166 -62.10586426 -251.3490332 -62.21172852 -250.49853516 -62.32080078 C-164.21489768 -72.78093051 -68.47967811 -55.6128879 0 0 Z " fill="#000000" transform="translate(1852,1044)"/>
<path d="M0 0 C66.99 0 133.98 0 203 0 C203.06039235 83.41173916 203.06039235 83.41173916 203.07695007 109.23387146 C203.07783807 110.61525066 203.07783807 110.61525066 203.07874402 112.02453651 C203.09863462 143.05050028 203.11438019 174.07646471 203.12702942 205.10243225 C203.12744359 206.11570687 203.12785776 207.1289815 203.12828448 208.17296141 C203.13726504 230.19878846 203.14557532 252.22461571 203.15319599 274.25044328 C203.15693771 285.05327408 203.16082741 295.85610483 203.16479492 306.65893555 C203.1651872 307.73389692 203.16557948 308.8088583 203.16598364 309.91639426 C203.17874769 344.70404579 203.20126662 379.49168262 203.22889166 414.27932526 C203.25724888 450.0543058 203.27567008 485.82927822 203.28174497 521.60426981 C203.28260932 526.66739391 203.28358623 531.73051798 203.28463173 536.79364204 C203.284834 537.79005173 203.28503627 538.78646142 203.28524467 539.81306534 C203.28877774 555.79597041 203.30265912 571.77885022 203.3204961 587.76174503 C203.33824253 603.86418309 203.34488288 619.96659633 203.34050413 636.06904381 C203.33823756 645.61359451 203.34416829 655.15805375 203.36239263 664.70258779 C203.37377548 671.10683186 203.37389923 677.51101716 203.36549544 683.91526555 C203.36103487 687.54606429 203.36086805 691.17669215 203.37464955 694.80747139 C203.46720194 720.72527873 202.18113218 746.83154625 197.125 772.3125 C196.8592542 773.69612203 196.59396616 775.07983206 196.32910156 776.46362305 C195.58326269 780.31551499 194.79783047 784.15851535 194 788 C193.80180664 788.96679688 193.60361328 789.93359375 193.39941406 790.9296875 C188.659351 813.43865004 180.09613365 835.3803117 170 856 C169.64615234 856.72687012 169.29230469 857.45374023 168.92773438 858.20263672 C158.19067838 879.99571974 143.77684491 899.49763951 127 917 C126.49742676 917.52980469 125.99485352 918.05960938 125.47705078 918.60546875 C117.56687647 926.90757753 109.21208182 934.18030196 100 941 C99.13955078 941.64364502 99.13955078 941.64364502 98.26171875 942.30029297 C84.68121338 952.42052849 70.31573766 960.78929234 55 968 C54.35981934 968.30147949 53.71963867 968.60295898 53.06005859 968.91357422 C42.73147978 973.71994258 32.13578982 977.60819937 21.33544922 981.21533203 C19.2805835 981.90572911 17.23563491 982.6187687 15.19140625 983.33984375 C-3.37605151 989.595618 -22.92255379 992.81069694 -42.3125 995.3125 C-43.54363525 995.47177979 -44.77477051 995.63105957 -46.04321289 995.79516602 C-63.35991676 997.90752689 -80.51661642 998.18640844 -97.94360352 998.18530273 C-101.79389506 998.18748943 -105.64389947 998.20570556 -109.49414062 998.22460938 C-123.14232485 998.25622671 -136.47425982 997.83517156 -150 996 C-151.22904053 995.84861572 -152.45808105 995.69723145 -153.72436523 995.54125977 C-216.85720093 987.64135709 -278.53503821 963.51734695 -325.77734375 920.0390625 C-327.79562103 918.18749705 -329.85349135 916.40167 -331.9375 914.625 C-339.87240688 907.70203468 -347.26859549 900.09355513 -354 892 C-354.45068848 891.46310547 -354.90137695 890.92621094 -355.36572266 890.37304688 C-371.59973797 870.98140929 -385.02498868 850.30863114 -397.125 828.125 C-397.69404053 827.08400146 -398.26308105 826.04300293 -398.84936523 824.97045898 C-399.37602783 823.99278564 -399.90269043 823.0151123 -400.4453125 822.0078125 C-400.91469238 821.13785645 -401.38407227 820.26790039 -401.86767578 819.37158203 C-402.89007888 817.2302229 -403.53249906 815.31738269 -404 813 C-398.16556028 809.04082391 -392.25301811 805.28110523 -386.1875 801.6875 C-377.66159056 796.60476207 -369.16833065 791.46993107 -360.6875 786.3125 C-346.43338491 777.64714661 -346.43338491 777.64714661 -339.5 773.5 C-332.58622672 769.36287445 -325.6987392 765.18273209 -318.8125 761 C-317.91318253 760.45378998 -317.91318253 760.45378998 -316.99569702 759.89654541 C-310.86758934 756.17434195 -304.74051555 752.45043994 -298.61433411 748.72506714 C-286.59229813 741.41489181 -274.5623969 734.1184425 -262.5 726.875 C-261.51620361 726.28380371 -260.53240723 725.69260742 -259.51879883 725.08349609 C-252.71051254 721.00142764 -245.86474888 716.98632405 -239 713 C-238.6690332 713.5669458 -238.33806641 714.1338916 -237.99707031 714.71801758 C-224.16897784 738.36519774 -210.36742955 761.56851116 -192 782 C-191.33613281 782.74894531 -190.67226563 783.49789062 -189.98828125 784.26953125 C-176.55271305 798.57943144 -158.78829289 807.97738705 -140 813 C-138.14375 813.5878125 -138.14375 813.5878125 -136.25 814.1875 C-129.32642364 815.91839409 -122.2621859 816.16317967 -115.15234375 816.203125 C-114.3373793 816.20882507 -113.52241486 816.21452515 -112.68275452 816.22039795 C-110.96763375 816.22977752 -109.25249554 816.2363536 -107.53735352 816.24023438 C-104.9679254 816.24988572 -102.39931757 816.28095442 -99.83007812 816.3125 C-86.25440164 816.40036608 -73.2165633 815.06758736 -60.375 810.3125 C-59.32880493 809.93121948 -59.32880493 809.93121948 -58.26147461 809.54223633 C-37.86085044 801.79607366 -23.09220238 787.96873769 -13.8828125 768.2578125 C-9.22610566 757.89746881 -5.87326371 747.52989709 -3.6875 736.375 C-3.52797852 735.56522705 -3.36845703 734.7554541 -3.20410156 733.92114258 C-0.26648919 717.58432147 -0.84571011 700.85138081 -0.8427946 684.32423083 C-0.84104966 680.67176016 -0.83355567 677.01930027 -0.82681805 673.36683601 C-0.81581002 666.97722517 -0.80840855 660.58761822 -0.80341911 654.19799995 C-0.79598351 644.6969905 -0.78289369 635.19599461 -0.76867336 625.69499318 C-0.74490695 609.70991523 -0.7256843 593.72483486 -0.70907402 577.739748 C-0.69261886 561.91830679 -0.6741302 546.0968701 -0.65294075 530.27543449 C-0.65162314 529.29077303 -0.65030554 528.30611156 -0.648948 527.29161187 C-0.64224568 522.29077428 -0.63550718 517.28993673 -0.62875474 512.28909921 C-0.58102387 476.89154904 -0.53782963 441.49399465 -0.49731445 406.09643555 C-0.45795032 371.71361993 -0.41652435 337.33080779 -0.37231445 302.94799805 C-0.37095192 301.88769719 -0.36958939 300.82739633 -0.36818558 299.73496514 C-0.3544999 289.08674204 -0.34077239 278.43851899 -0.32701423 267.79029599 C-0.2989896 246.0996945 -0.27124415 224.40909266 -0.2436676 202.7184906 C-0.2423994 201.72124733 -0.2411312 200.72400405 -0.23982458 199.69654128 C-0.20097678 169.13717821 -0.16331206 138.57781384 -0.1268158 108.01844788 C-0.1257794 107.15103353 -0.12474301 106.28361918 -0.12367522 105.38991954 C-0.08171969 70.25994722 -0.04101735 35.12997343 0 0 Z " fill="#000000" transform="translate(973,992)"/>
<path d="M0 0 C0.33 0 0.66 0 1 0 C1.1959375 0.90878906 1.391875 1.81757813 1.59375 2.75390625 C5.38952063 18.70595956 12.28530837 30.56973184 24 42 C24.57105469 42.59167969 25.14210938 43.18335937 25.73046875 43.79296875 C35.27371273 52.94368856 48.38377183 57.27990542 61 60 C61 60.33 61 60.66 61 61 C40.87 61 20.74 61 0 61 C0 40.87 0 20.74 0 0 Z " fill="#000000" transform="translate(0,2099)"/>
<path d="M0 0 C0.33 0 0.66 0 1 0 C1 20.13 1 40.26 1 61 C-19.13 61 -39.26 61 -60 61 C-60 60.67 -60 60.34 -60 60 C-58.63681641 59.70609375 -58.63681641 59.70609375 -57.24609375 59.40625 C-42.55491901 55.91050381 -30.63003806 49.93213506 -20 39 C-19.30519531 38.32582031 -18.61039063 37.65164062 -17.89453125 36.95703125 C-7.8423761 26.59378426 -2.98685753 13.85351684 0 0 Z " fill="#000000" transform="translate(2159,2099)"/>
<path d="M0 0 C20.13 0 40.26 0 61 0 C61 20.13 61 40.26 61 61 C60.67 61 60.34 61 60 61 C59.8040625 60.09121094 59.608125 59.18242188 59.40625 58.24609375 C55.91050381 43.55491901 49.93213506 31.63003806 39 21 C38.32582031 20.30519531 37.65164062 19.61039063 36.95703125 18.89453125 C26.59378426 8.8423761 13.85351684 3.98685753 0 1 C0 0.67 0 0.34 0 0 Z " fill="#000000" transform="translate(2099,0)"/>
<path d="M0 0 C20.13 0 40.26 0 61 0 C61 0.33 61 0.66 61 1 C60.09121094 1.1959375 59.18242188 1.391875 58.24609375 1.59375 C43.55491901 5.08949619 31.63003806 11.06786494 21 22 C20.30519531 22.67417969 19.61039063 23.34835938 18.89453125 24.04296875 C8.8423761 34.40621574 3.98685753 47.14648316 1 61 C0.67 61 0.34 61 0 61 C0 40.87 0 20.74 0 0 Z " fill="#000000" transform="translate(0,0)"/>
</svg>
