<?xml version="1.0" encoding="UTF-8"?>
<svg version="1.1" xmlns="http://www.w3.org/2000/svg" width="512" height="512">
<path d="M0 0 C1.26083153 -0.01814066 2.52166306 -0.03628132 3.8207016 -0.05497169 C15.74926538 0.03251188 28.06290163 2.54597777 38.59960938 8.31787109 C39.2636377 8.66696533 39.92766602 9.01605957 40.61181641 9.37573242 C50.42231405 14.60902793 59.35301201 20.93491421 68.32617188 27.46728516 C73.22435457 31.03126137 78.15960595 34.52697547 83.16210938 37.94287109 C91.72232555 43.7891595 100.21016578 49.73628467 108.69628906 55.68945312 C112.16250321 58.11893869 115.63285186 60.54248623 119.10302734 62.96630859 C122.41402636 65.28103868 125.72086494 67.60167089 129.02734375 69.92285156 C131.11498701 71.38483337 133.2081454 72.83852458 135.30273438 74.29052734 C148.96775352 83.81993765 162.72836398 94.06895485 166.85475194 110.978127 C167.75999223 116.26949708 167.5638581 121.63763121 167.54780579 126.99066162 C167.55082949 128.35844959 167.55472006 129.72623587 167.55939835 131.09401917 C167.56965922 134.83812887 167.56750141 138.5821426 167.56321776 142.32626009 C167.56074701 146.37002368 167.56976911 150.41376437 167.57725525 154.45751953 C167.58999526 162.37466553 167.59179675 170.29177761 167.58945499 178.20893213 C167.58767064 184.64647627 167.58942398 191.08401013 167.59367943 197.52155304 C167.59427462 198.43842438 167.59486981 199.35529571 167.59548303 200.29995103 C167.59669481 202.16271399 167.59790894 204.02547694 167.59912541 205.88823989 C167.60999857 223.35246673 167.6078397 240.81667425 167.60174056 258.28090218 C167.59657342 274.24463152 167.60782189 290.2082998 167.62683878 306.17201707 C167.64622934 322.57559406 167.65447093 338.97914219 167.65071553 355.38273072 C167.6488051 364.58720296 167.65127546 373.79162325 167.66543007 382.99608612 C167.67736048 390.83336193 167.67873028 398.67055383 167.6666399 406.50783083 C167.66076243 410.50325332 167.65962024 414.49852247 167.6716423 418.49393463 C167.68253932 422.15817861 167.67935283 425.82214192 167.66538062 429.48637298 C167.66150406 431.42566039 167.67224963 433.36496044 167.68367749 435.30421805 C167.58184924 451.91324152 162.42273046 467.2385532 150.73632812 479.32177734 C132.64726212 495.44903077 109.55313909 495.98245534 86.61962891 497.29882812 C84.04399281 497.45438625 81.46841217 497.610865 78.8928833 497.76818848 C73.37199488 498.10398048 67.85070002 498.43221041 62.32904434 498.75513077 C54.32743798 499.22309667 46.32656569 499.70276639 38.32581638 500.18513773 C25.31648788 500.96916526 12.30662319 501.74389292 -0.70361328 502.51269531 C-13.28984833 503.25646261 -25.87580821 504.00464208 -38.46142578 504.75878906 C-39.23643991 504.80522742 -40.01145403 504.85166577 -40.80995344 504.89951135 C-44.70094374 505.13268382 -48.59192895 505.36594126 -52.48291183 505.59923768 C-76.9170212 507.06415977 -101.35153294 508.522198 -125.78662109 509.97070312 C-126.99921978 510.04258724 -128.21181847 510.11447136 -129.46116257 510.18853378 C-134.97107424 510.51508598 -140.48100579 510.84129507 -145.9909811 511.16677189 C-149.62803056 511.38166844 -153.26498623 511.59803375 -156.90184879 511.8160696 C-158.07955922 511.88632495 -158.07955922 511.88632495 -159.28106177 511.95799959 C-161.31415337 512.0793117 -163.34720649 512.20126845 -165.3802557 512.32328892 C-172.35678909 512.7044595 -179.33072593 512.76807136 -186.31616211 512.80053711 C-188.04443501 512.81212968 -189.77267014 512.83269436 -191.50073242 512.86206055 C-210.73336798 513.18619592 -226.74154129 509.62082742 -241.23730469 496.08154297 C-246.45408579 490.98921119 -250.84073268 485.31792849 -255.20751953 479.49755859 C-257.4256937 476.56205726 -259.69430611 473.6666364 -261.95947266 470.76733398 C-267.3699044 463.84171948 -272.73631383 456.88275402 -278.08789062 449.91162109 C-281.27917137 445.76295612 -284.49728044 441.63518549 -287.71289062 437.50537109 C-290.04678717 434.50580884 -292.38003853 431.5057457 -294.71289062 428.50537109 C-295.41744385 427.59972412 -295.41744385 427.59972412 -296.13623047 426.67578125 C-298.59842463 423.50721237 -301.04413088 420.32699392 -303.47119141 417.13134766 C-304.33396779 416.00156183 -305.20256933 414.87621028 -306.07568359 413.75439453 C-317.36304301 399.23706585 -328.81795302 381.28808231 -328.84431839 362.25405788 C-328.84815953 361.20996775 -328.85200068 360.16587762 -328.85595822 359.09014839 C-328.8546585 357.37918254 -328.8546585 357.37918254 -328.85333252 355.63365173 C-328.8577892 353.8084705 -328.8577892 353.8084705 -328.86233592 351.94641691 C-328.86950908 348.57179483 -328.87219469 345.19722367 -328.87293339 341.82259762 C-328.87478651 338.18165272 -328.88233524 334.54071881 -328.8890686 330.89978027 C-328.90264308 322.93878224 -328.90867552 314.97778925 -328.91307926 307.01678157 C-328.91584368 302.043129 -328.92008145 297.06947836 -328.92458344 292.0958271 C-328.9367759 278.31794704 -328.94707464 264.54006853 -328.95045853 250.76218319 C-328.95067809 249.88056178 -328.95089766 248.99894036 -328.95112388 248.09060315 C-328.95134216 247.20689971 -328.95156043 246.32319627 -328.95178533 245.41271394 C-328.95222879 243.62206646 -328.95267535 241.83141897 -328.953125 240.04077148 C-328.95334643 239.1525529 -328.95356786 238.26433432 -328.953796 237.34920002 C-328.95774153 222.96634661 -328.97518816 208.58354393 -328.99848452 194.20071011 C-329.02222434 179.42444971 -329.03466161 164.64821473 -329.03582644 149.87193495 C-329.03674183 141.57955732 -329.04245949 133.28724578 -329.06064606 124.9948864 C-329.0760827 117.93158468 -329.08114662 110.86836946 -329.07290795 103.80505406 C-329.06901377 100.20456873 -329.06987031 96.6042574 -329.0839653 93.00379372 C-329.09914168 89.09111373 -329.09080108 85.17867567 -329.0803833 81.26597595 C-329.08843971 80.14094711 -329.09649611 79.01591826 -329.10479665 77.85679764 C-329.00360503 61.54376474 -323.43554291 47.54707541 -312.08789062 35.72021484 C-299.16522027 23.66897456 -284.12225246 19.77296908 -266.94445801 18.54354858 C-265.38729073 18.42460407 -265.38729073 18.42460407 -263.79866552 18.30325663 C-260.3440613 18.04094848 -256.88886503 17.7875374 -253.43359375 17.53417969 C-250.94540709 17.34719525 -248.457259 17.15969704 -245.96914673 16.97172546 C-239.92088137 16.51641029 -233.87220023 16.06707373 -227.82324976 15.62098311 C-222.89038874 15.25717117 -217.95768039 14.89135494 -213.02507019 14.52415848 C-198.97972231 13.4788174 -184.93400037 12.43871971 -170.88776523 11.40536825 C-170.131707 11.34974614 -169.37564877 11.29412403 -168.59667969 11.23681641 C-167.46117213 11.15328039 -167.46117213 11.15328039 -166.30272502 11.06805678 C-154.09735738 10.1698237 -141.89295057 9.25920553 -129.68893534 8.34279732 C-117.09855696 7.39752402 -104.50749673 6.46182922 -91.91569853 5.53565657 C-84.87088175 5.01729606 -77.82638917 4.49522748 -70.78260803 3.9629631 C-20.26568731 0.15103127 -20.26568731 0.15103127 0 0 Z " fill="#010101" transform="translate(336.712890625,-0.50537109375)"/>
<path d="M0 0 C4.40915243 -0.24905494 7.58517568 -0.34650938 11.1887207 2.40356445 C14.67481481 6.42598073 15.875167 9.81447057 15.8806963 15.10373402 C15.88652849 16.06668945 15.89236068 17.02964489 15.89836961 18.02178079 C15.89459029 19.07177041 15.89081096 20.12176002 15.88691711 21.2035675 C15.89074266 22.325172 15.89456821 23.4467765 15.89850968 24.60236901 C15.90884573 28.36858636 15.9048463 32.13465143 15.90087891 35.90087891 C15.90522508 38.59796659 15.9103433 41.29504302 15.91636658 43.99212646 C15.92911878 50.5627942 15.93090657 57.13342107 15.92856631 63.7040991 C15.92678333 69.04573548 15.92853237 74.38735947 15.93279076 79.72899437 C15.93338595 80.48923148 15.93398113 81.24946859 15.93459436 82.03274318 C15.93580611 83.57718466 15.93702025 85.12162614 15.93823674 86.66606762 C15.94911458 101.15196444 15.94694881 115.63783798 15.94085189 130.12373611 C15.93568428 143.37118905 15.94693361 156.61856843 15.96595011 169.86600683 C15.98533076 183.47156002 15.993584 197.07707841 15.98982686 210.6826455 C15.98791493 218.31984546 15.99040141 225.95698283 16.0045414 233.59417152 C16.01645917 240.09691825 16.01785579 246.59956388 16.00575123 253.10231201 C15.99986479 256.41880734 16.00038556 259.73496635 16.01075363 263.05147362 C16.02119318 266.65035751 16.0131421 270.24874452 16.0004425 273.84761047 C16.00781679 274.89090792 16.01519107 275.93420538 16.02278882 277.0091179 C15.97069322 284.02681049 15.42272168 290.26420231 10.3762207 295.59106445 C3.81870327 299.46596112 -3.30925349 299.7422104 -10.7487793 300.27856445 C-12.37807373 300.4031604 -12.37807373 300.4031604 -14.0402832 300.53027344 C-22.94775455 301.18152422 -31.85903009 301.5924677 -40.78540039 301.87451172 C-45.33801147 302.02312342 -49.85232297 302.23224174 -54.38549805 302.68481445 C-63.6782392 303.58611434 -73.02408875 303.85381265 -82.34863281 304.265625 C-93.11878247 304.74529257 -103.86781856 305.36676504 -114.61987305 306.1574707 C-129.99645127 307.28819001 -145.38250295 308.20510512 -160.77480698 309.08823395 C-163.03607787 309.21820832 -165.29729577 309.34907271 -167.5585022 309.48016357 C-186.56604878 310.58119643 -205.57434833 311.61080924 -224.59539795 312.45330811 C-234.62566709 312.89841134 -244.61750767 313.49404004 -254.6237793 314.34106445 C-262.57926496 314.9919275 -270.51679759 315.49692375 -278.4987793 315.65356445 C-279.38210938 315.68788574 -280.26543945 315.72220703 -281.17553711 315.75756836 C-286.46269259 315.79344475 -290.05947904 314.8113518 -294.58032227 312.07568359 C-300.60821681 305.82541505 -300.95210433 299.08062354 -300.88171387 290.86106873 C-300.88795383 289.73619539 -300.89419379 288.61132205 -300.90062284 287.45236164 C-300.91654424 283.69296113 -300.90395121 279.93420972 -300.89135742 276.17480469 C-300.89677888 273.47563797 -300.90375722 270.77651558 -300.91259766 268.07736206 C-300.93035754 261.51340845 -300.92655444 254.94963809 -300.91494709 248.38567739 C-300.90590381 243.05029109 -300.90469263 237.71495605 -300.90904236 232.37956429 C-300.90965529 231.61944492 -300.91026822 230.85932556 -300.91089973 230.07617228 C-300.91217866 228.53188966 -300.91347551 226.98760705 -300.91479009 225.44332445 C-300.92618827 210.97267321 -300.91309378 196.50212344 -300.89158863 182.03148884 C-300.87371471 169.62006288 -300.87682561 157.20878655 -300.89526367 144.79736328 C-300.91667766 130.37601177 -300.9250935 115.95474909 -300.91281462 101.53338391 C-300.91154045 99.99517224 -300.91028297 98.45696055 -300.90904236 96.91874886 C-300.90842526 96.16196342 -300.90780815 95.40517798 -300.90717235 94.62545965 C-300.9037213 89.29712855 -300.90954242 83.9688539 -300.91896057 78.64053154 C-300.93018767 72.14620785 -300.92712556 65.65207751 -300.9058376 59.15777593 C-300.89533705 55.84541557 -300.89334725 52.53344339 -300.9044342 49.22107506 C-300.91535137 45.62842002 -300.90167061 42.03667356 -300.88171387 38.44407654 C-300.89063675 37.3999126 -300.89955964 36.35574867 -300.90875292 35.27994341 C-300.84154613 29.04997217 -300.05927659 25.29621072 -296.3737793 20.21606445 C-292.74224778 17.30468613 -289.77192696 16.78610103 -285.18310547 16.52758789 C-283.92462799 16.45004272 -282.66615051 16.37249756 -281.36953735 16.29260254 C-279.96861845 16.22000479 -278.56768821 16.14762561 -277.16674805 16.07543945 C-275.66353594 15.98794986 -274.16039398 15.89924805 -272.65731812 15.80944824 C-269.37140111 15.61579671 -266.08514501 15.43081874 -262.79837036 15.25231934 C-257.48866232 14.96392188 -252.18011674 14.65704509 -246.87158203 14.34790039 C-238.9069249 13.8860026 -230.94177624 13.43345733 -222.97631836 12.9855957 C-205.12487349 11.98071797 -187.27571937 10.93626519 -169.42640686 9.89434814 C-168.41256494 9.83516925 -168.41256494 9.83516925 -167.37824136 9.77479482 C-163.28482554 9.53585523 -163.28482554 9.53585523 -159.19141495 9.29682589 C-150.39900076 8.78333471 -141.60640016 8.27321787 -132.8135643 7.76699829 C-127.69307389 7.47203897 -122.57266174 7.17573511 -117.45225906 6.8792572 C-115.05596146 6.74085339 -112.65962783 6.60307156 -110.26325607 6.46595764 C-106.95437784 6.27656145 -103.6456357 6.08493188 -100.33691406 5.89282227 C-99.3830289 5.83880627 -98.42914373 5.78479027 -97.44635296 5.72913742 C-91.89497168 5.40421591 -86.36574061 4.95863547 -80.82934856 4.43835068 C-77.91185901 4.17424991 -74.99617724 3.99029393 -72.07055664 3.84301758 C-70.96505463 3.78625854 -69.85955261 3.72949951 -68.72055054 3.67102051 C-67.5619754 3.61369751 -66.40340027 3.55637451 -65.2097168 3.49731445 C-63.97822906 3.43451294 -62.74674133 3.37171143 -61.47793579 3.30700684 C-57.56831792 3.10797107 -53.65856027 2.91186775 -49.7487793 2.71606445 C-44.61070839 2.45663063 -39.47269898 2.19599918 -34.3347168 1.93481445 C-33.10648697 1.87250641 -31.87825714 1.81019836 -30.61280823 1.7460022 C-20.40462199 1.22498608 -10.20064253 0.65327221 0 0 Z " fill="#FDFDFD" transform="translate(428.373779296875,132.783935546875)"/>
<path d="M0 0 C1.26083153 -0.01814066 2.52166306 -0.03628132 3.8207016 -0.05497169 C15.74926538 0.03251188 28.06290163 2.54597777 38.59960938 8.31787109 C39.2636377 8.66696533 39.92766602 9.01605957 40.61181641 9.37573242 C50.42231405 14.60902793 59.35301201 20.93491421 68.32617188 27.46728516 C73.22435457 31.03126137 78.15960595 34.52697547 83.16210938 37.94287109 C91.72232555 43.7891595 100.21016578 49.73628467 108.69628906 55.68945312 C112.16250321 58.11893869 115.63285186 60.54248623 119.10302734 62.96630859 C122.41402636 65.28103868 125.72086494 67.60167089 129.02734375 69.92285156 C131.11498701 71.38483337 133.2081454 72.83852458 135.30273438 74.29052734 C148.96775352 83.81993765 162.72836398 94.06895485 166.85475194 110.978127 C167.75999223 116.26949708 167.5638581 121.63763121 167.54780579 126.99066162 C167.55082949 128.35844959 167.55472006 129.72623587 167.55939835 131.09401917 C167.56965922 134.83812887 167.56750141 138.5821426 167.56321776 142.32626009 C167.56074701 146.37002368 167.56976911 150.41376437 167.57725525 154.45751953 C167.58999526 162.37466553 167.59179675 170.29177761 167.58945499 178.20893213 C167.58767064 184.64647627 167.58942398 191.08401013 167.59367943 197.52155304 C167.59427462 198.43842438 167.59486981 199.35529571 167.59548303 200.29995103 C167.59669481 202.16271399 167.59790894 204.02547694 167.59912541 205.88823989 C167.60999857 223.35246673 167.6078397 240.81667425 167.60174056 258.28090218 C167.59657342 274.24463152 167.60782189 290.2082998 167.62683878 306.17201707 C167.64622934 322.57559406 167.65447093 338.97914219 167.65071553 355.38273072 C167.6488051 364.58720296 167.65127546 373.79162325 167.66543007 382.99608612 C167.67736048 390.83336193 167.67873028 398.67055383 167.6666399 406.50783083 C167.66076243 410.50325332 167.65962024 414.49852247 167.6716423 418.49393463 C167.68253932 422.15817861 167.67935283 425.82214192 167.66538062 429.48637298 C167.66150406 431.42566039 167.67224963 433.36496044 167.68367749 435.30421805 C167.58184924 451.91324152 162.42273046 467.2385532 150.73632812 479.32177734 C132.64726212 495.44903077 109.55313909 495.98245534 86.61962891 497.29882812 C84.04399281 497.45438625 81.46841217 497.610865 78.8928833 497.76818848 C73.37199488 498.10398048 67.85070002 498.43221041 62.32904434 498.75513077 C54.32743798 499.22309667 46.32656569 499.70276639 38.32581638 500.18513773 C25.31648788 500.96916526 12.30662319 501.74389292 -0.70361328 502.51269531 C-13.28984833 503.25646261 -25.87580821 504.00464208 -38.46142578 504.75878906 C-39.23643991 504.80522742 -40.01145403 504.85166577 -40.80995344 504.89951135 C-44.70094374 505.13268382 -48.59192895 505.36594126 -52.48291183 505.59923768 C-76.9170212 507.06415977 -101.35153294 508.522198 -125.78662109 509.97070312 C-126.99921978 510.04258724 -128.21181847 510.11447136 -129.46116257 510.18853378 C-134.97107424 510.51508598 -140.48100579 510.84129507 -145.9909811 511.16677189 C-149.62803056 511.38166844 -153.26498623 511.59803375 -156.90184879 511.8160696 C-158.07955922 511.88632495 -158.07955922 511.88632495 -159.28106177 511.95799959 C-161.31415337 512.0793117 -163.34720649 512.20126845 -165.3802557 512.32328892 C-172.35678909 512.7044595 -179.33072593 512.76807136 -186.31616211 512.80053711 C-188.04443501 512.81212968 -189.77267014 512.83269436 -191.50073242 512.86206055 C-210.73336798 513.18619592 -226.74154129 509.62082742 -241.23730469 496.08154297 C-246.45408579 490.98921119 -250.84073268 485.31792849 -255.20751953 479.49755859 C-257.4256937 476.56205726 -259.69430611 473.6666364 -261.95947266 470.76733398 C-267.3699044 463.84171948 -272.73631383 456.88275402 -278.08789062 449.91162109 C-281.27917137 445.76295612 -284.49728044 441.63518549 -287.71289062 437.50537109 C-290.04678717 434.50580884 -292.38003853 431.5057457 -294.71289062 428.50537109 C-295.41744385 427.59972412 -295.41744385 427.59972412 -296.13623047 426.67578125 C-298.59842463 423.50721237 -301.04413088 420.32699392 -303.47119141 417.13134766 C-304.33396779 416.00156183 -305.20256933 414.87621028 -306.07568359 413.75439453 C-317.36304301 399.23706585 -328.81795302 381.28808231 -328.84431839 362.25405788 C-328.84815953 361.20996775 -328.85200068 360.16587762 -328.85595822 359.09014839 C-328.8546585 357.37918254 -328.8546585 357.37918254 -328.85333252 355.63365173 C-328.8577892 353.8084705 -328.8577892 353.8084705 -328.86233592 351.94641691 C-328.86950908 348.57179483 -328.87219469 345.19722367 -328.87293339 341.82259762 C-328.87478651 338.18165272 -328.88233524 334.54071881 -328.8890686 330.89978027 C-328.90264308 322.93878224 -328.90867552 314.97778925 -328.91307926 307.01678157 C-328.91584368 302.043129 -328.92008145 297.06947836 -328.92458344 292.0958271 C-328.9367759 278.31794704 -328.94707464 264.54006853 -328.95045853 250.76218319 C-328.95067809 249.88056178 -328.95089766 248.99894036 -328.95112388 248.09060315 C-328.95134216 247.20689971 -328.95156043 246.32319627 -328.95178533 245.41271394 C-328.95222879 243.62206646 -328.95267535 241.83141897 -328.953125 240.04077148 C-328.95334643 239.1525529 -328.95356786 238.26433432 -328.953796 237.34920002 C-328.95774153 222.96634661 -328.97518816 208.58354393 -328.99848452 194.20071011 C-329.02222434 179.42444971 -329.03466161 164.64821473 -329.03582644 149.87193495 C-329.03674183 141.57955732 -329.04245949 133.28724578 -329.06064606 124.9948864 C-329.0760827 117.93158468 -329.08114662 110.86836946 -329.07290795 103.80505406 C-329.06901377 100.20456873 -329.06987031 96.6042574 -329.0839653 93.00379372 C-329.09914168 89.09111373 -329.09080108 85.17867567 -329.0803833 81.26597595 C-329.08843971 80.14094711 -329.09649611 79.01591826 -329.10479665 77.85679764 C-329.00360503 61.54376474 -323.43554291 47.54707541 -312.08789062 35.72021484 C-299.16522027 23.66897456 -284.12225246 19.77296908 -266.94445801 18.54354858 C-265.38729073 18.42460407 -265.38729073 18.42460407 -263.79866552 18.30325663 C-260.3440613 18.04094848 -256.88886503 17.7875374 -253.43359375 17.53417969 C-250.94540709 17.34719525 -248.457259 17.15969704 -245.96914673 16.97172546 C-239.92088137 16.51641029 -233.87220023 16.06707373 -227.82324976 15.62098311 C-222.89038874 15.25717117 -217.95768039 14.89135494 -213.02507019 14.52415848 C-198.97972231 13.4788174 -184.93400037 12.43871971 -170.88776523 11.40536825 C-170.131707 11.34974614 -169.37564877 11.29412403 -168.59667969 11.23681641 C-167.46117213 11.15328039 -167.46117213 11.15328039 -166.30272502 11.06805678 C-154.09735738 10.1698237 -141.89295057 9.25920553 -129.68893534 8.34279732 C-117.09855696 7.39752402 -104.50749673 6.46182922 -91.91569853 5.53565657 C-84.87088175 5.01729606 -77.82638917 4.49522748 -70.78260803 3.9629631 C-20.26568731 0.15103127 -20.26568731 0.15103127 0 0 Z M-21.71289062 31.50537109 C-24.30793867 31.70310212 -26.89218256 31.8720454 -29.49023438 32.00537109 C-30.58459557 32.0662793 -30.58459557 32.0662793 -31.70106506 32.12841797 C-34.01734776 32.2572044 -36.33382517 32.38178231 -38.65039062 32.50537109 C-41.70137727 32.66851524 -44.75209865 32.83580605 -47.80273438 33.00537109 C-48.83587013 33.05854492 -48.83587013 33.05854492 -49.88987732 33.11279297 C-52.98122342 33.28465874 -56.00915962 33.5486299 -59.07373047 33.99609375 C-63.65989039 34.63789769 -68.22810705 34.89835235 -72.84960938 35.15380859 C-74.87167302 35.27140067 -76.89372665 35.38916495 -78.91577148 35.50708008 C-80.50033646 35.59806473 -80.50033646 35.59806473 -82.11691284 35.69088745 C-98.49259952 36.6358991 -114.84673144 37.67766781 -131.18597412 39.1229248 C-149.53903382 40.73927155 -167.92364629 41.92632915 -186.30639648 43.14770508 C-187.53629303 43.2303511 -188.76618958 43.31299713 -190.03335571 43.39814758 C-192.35406383 43.55400746 -194.6749197 43.70768848 -196.99594116 43.85881042 C-202.28284275 44.21488327 -207.46876086 44.72715285 -212.71289062 45.50537109 C-215.06652587 45.67610111 -217.42238426 45.8179666 -219.77929688 45.93505859 C-221.15179424 46.00685861 -222.52427066 46.07906002 -223.89672852 46.15161133 C-224.96771286 46.20706619 -224.96771286 46.20706619 -226.06033325 46.26364136 C-238.48740544 46.91852681 -250.88722459 47.75846276 -263.27539062 48.94287109 C-265.10855835 49.10795166 -265.10855835 49.10795166 -266.97875977 49.27636719 C-277.77490896 50.35998712 -286.326315 52.09938119 -293.71289062 60.50537109 C-297.45295492 66.20194301 -298.83450852 71.77409103 -298.84431839 78.56927586 C-298.84815953 79.57156524 -298.85200068 80.57385463 -298.85595822 81.60651642 C-298.85509174 82.70046894 -298.85422526 83.79442145 -298.85333252 84.92152405 C-298.85630364 86.08930891 -298.85927476 87.25709377 -298.86233592 88.46026605 C-298.86950746 91.69806214 -298.87219456 94.93582587 -298.87293339 98.17362869 C-298.8747869 101.66733319 -298.88233584 105.16102625 -298.8890686 108.65472412 C-298.90264155 116.29341832 -298.9086753 123.93210726 -298.91307926 131.57081151 C-298.91584398 136.34345247 -298.9200818 141.11609141 -298.92458344 145.888731 C-298.93677576 159.11073333 -298.94707449 172.33273404 -298.95045853 185.55474186 C-298.95067809 186.40075194 -298.95089766 187.24676202 -298.95112388 188.11840877 C-298.95134216 188.96641283 -298.95156043 189.81441689 -298.95178533 190.68811804 C-298.95222879 192.40641789 -298.95267535 194.12471773 -298.953125 195.84301758 C-298.95334643 196.69534878 -298.95356786 197.54767999 -298.953796 198.42583942 C-298.95774129 212.22670644 -298.97518726 226.02752057 -298.99848452 239.82836718 C-299.02222728 254.00798112 -299.03466174 268.18756856 -299.03582644 282.3672027 C-299.03674167 290.32423339 -299.04245531 298.2811952 -299.06064606 306.23820686 C-299.07608671 313.01604676 -299.08114429 319.79379648 -299.07290795 326.57165063 C-299.06901515 330.02631954 -299.06986341 333.4808071 -299.0839653 336.93545341 C-299.0967035 340.69056778 -299.09079716 344.44522107 -299.0803833 348.20033264 C-299.09246791 349.81783884 -299.09246791 349.81783884 -299.10479665 351.46802193 C-298.97939195 370.88896134 -290.17588681 384.53938477 -278.51123047 399.23486328 C-276.09060031 402.29104852 -273.70203239 405.37162777 -271.3125 408.45214844 C-269.5389105 410.7379467 -267.76109813 413.02040473 -265.98242188 415.30224609 C-263.21215722 418.85956316 -260.45823312 422.42878741 -257.71289062 426.00537109 C-253.13377964 431.97026567 -248.51747264 437.90572418 -243.89575195 443.83764648 C-240.79116943 447.82465096 -237.69821828 451.81967821 -234.63061523 455.83520508 C-232.66816732 458.39974557 -230.68893463 460.95130061 -228.71289062 463.50537109 C-227.5759375 465.00583984 -227.5759375 465.00583984 -226.41601562 466.53662109 C-220.04908471 474.70385661 -214.00165515 480.1992687 -203.71289062 482.50537109 C-200.3750645 482.79254812 -197.06139682 482.78800704 -193.71289062 482.75537109 C-192.7104834 482.75077881 -191.70807617 482.74618652 -190.67529297 482.74145508 C-180.21913459 482.6251386 -169.77953315 482.10312726 -159.33789062 481.56787109 C-158.4896875 481.52448608 -157.64148438 481.48110107 -156.76757812 481.43640137 C-146.26747947 480.9260889 -146.26747947 480.9260889 -135.79882812 480.00146484 C-126.58167349 478.99069859 -117.26615738 478.80819353 -108.0078125 478.38037109 C-96.84288524 477.93526763 -96.84288524 477.93526763 -85.71289062 477.00537109 C-76.52764108 475.97404483 -67.2364493 475.80682074 -58.0078125 475.38037109 C-45.45987472 474.82237271 -45.45987472 474.82237271 -32.95166016 473.71972656 C-28.36460837 473.28053011 -23.75434038 473.21156125 -19.15039062 473.06787109 C-10.47948805 472.76335725 -1.85664469 472.25269922 6.78710938 471.50537109 C15.12051337 470.78642353 23.42753867 470.28785073 31.78710938 470.00537109 C40.8591055 469.69585923 49.86488778 469.10542382 58.90576172 468.30175781 C65.60314403 467.73200983 72.2913346 467.34915412 79.00585938 467.07177734 C79.86094086 467.03478226 80.71602234 466.99778717 81.59701538 466.95967102 C88.59110454 466.65748456 88.59110454 466.65748456 91.91729736 466.54763794 C112.13679812 466.00313135 112.13679812 466.00313135 129.77539062 457.13818359 C137.47398303 448.82290808 137.58135865 439.10980718 137.55453491 428.40367126 C137.55827445 427.06546811 137.56287718 425.72726714 137.56826556 424.38906962 C137.58047276 420.72233362 137.58023781 417.05568902 137.57787681 413.38893735 C137.57746808 409.43047587 137.58851287 405.47204346 137.59799194 401.51359558 C137.61458869 393.76343182 137.62010082 386.01329849 137.6212167 378.26311844 C137.62216748 371.964705 137.62627926 365.66630158 137.63261795 359.36789131 C137.65022411 341.51027804 137.6594574 323.65268878 137.657957 305.79506677 C137.65787709 304.83281436 137.65779718 303.87056196 137.65771484 302.87915039 C137.6575922 301.43401017 137.6575922 301.43401017 137.65746708 299.9596752 C137.6566536 284.3345378 137.67580848 268.70949666 137.70399158 253.08438712 C137.73270235 237.04021359 137.74653298 220.99608706 137.74480402 204.95188719 C137.74413966 195.94430795 137.74965264 186.93682972 137.77116013 177.92927361 C137.78934781 170.2630624 137.79373892 162.59699803 137.78014128 154.93077462 C137.77360033 151.01909012 137.7735349 147.10768754 137.79084778 143.19602966 C137.80653347 139.6152536 137.8037617 136.03498408 137.78627951 132.45422072 C137.7817406 130.54523662 137.79690198 128.63623709 137.8127588 126.72731346 C137.74950679 118.91330305 136.91902495 115.31988852 131.52441406 109.65405273 C126.11420661 105.03180314 120.41138668 100.95314246 114.53710938 96.94287109 C112.48351424 95.52781082 110.43013261 94.11244065 108.37695312 92.69677734 C106.84143799 91.64127686 106.84143799 91.64127686 105.27490234 90.56445312 C100.86669803 87.52647346 96.48222326 84.4551005 92.09960938 81.38037109 C90.46033179 80.2318689 88.82100898 79.08343124 87.18164062 77.93505859 C85.97241943 77.08766113 85.97241943 77.08766113 84.73876953 76.22314453 C82.25924081 74.48584478 79.77914543 72.74935729 77.29882812 71.01318359 C76.4717334 70.4342334 75.64463867 69.8552832 74.79248047 69.25878906 C73.12756407 68.09357472 71.46252577 66.92853452 69.79736328 65.76367188 C65.56506748 62.8024753 61.33566847 59.83728286 57.11132812 56.86474609 C49.45716635 51.48250634 41.79566868 46.11148343 34.03710938 40.88037109 C33.1799231 40.29594238 33.1799231 40.29594238 32.30541992 39.69970703 C20.69767666 31.94412875 10.97229485 30.1685334 -2.90039062 30.31787109 C-4.04958984 30.31851562 -5.19878906 30.31916016 -6.3828125 30.31982422 C-11.64214435 30.34723243 -16.52494411 30.63773036 -21.71289062 31.50537109 Z " fill="#FEFEFE" transform="translate(336.712890625,-0.50537109375)"/>
<path d="M0 0 C0.77875703 9.8672625 0.77875703 9.8672625 -2.0625 14 C-6 16 -6 16 -21 19 C-21.495 115.03 -21.495 115.03 -22 213 C-50.27599425 225.37074748 -50.27599425 225.37074748 -64.25 220.4375 C-79.13970816 213.6737209 -87.74873679 194.24690429 -96.06738281 181.05615234 C-99.31547966 175.91976069 -102.59587681 170.80411818 -105.875 165.6875 C-107.22660107 163.57684761 -108.57816334 161.46617038 -109.9296875 159.35546875 C-110.60225586 158.30536621 -111.27482422 157.25526367 -111.96777344 156.17333984 C-115.31304949 150.94966156 -118.65643813 145.72477559 -122 140.5 C-123.33332409 138.41666075 -124.66665743 136.33332742 -126 134.25 C-128.66666667 130.08333333 -131.33333333 125.91666667 -134 121.75 C-134.66088623 120.71738037 -135.32177246 119.68476074 -136.00268555 118.62084961 C-137.32712256 116.55138643 -138.65150467 114.48188811 -139.97583008 112.41235352 C-143.07676801 107.56663646 -146.17822833 102.72125643 -149.28170776 97.87716675 C-150.37739531 96.1668968 -151.47290401 94.45651242 -152.56835938 92.74609375 C-153.9404004 90.60393937 -155.31277457 88.46199832 -156.68554688 86.3203125 C-157.30880859 85.34707031 -157.93207031 84.37382812 -158.57421875 83.37109375 C-159.11651123 82.52474365 -159.65880371 81.67839355 -160.2175293 80.80639648 C-162.49766396 77.21645704 -164.74599736 73.60640422 -167 70 C-167.33 112.9 -167.66 155.8 -168 200 C-165.36 200.33 -162.72 200.66 -160 201 C-158.44536923 201.28577109 -156.89434832 201.59347404 -155.3515625 201.9375 C-154.18560547 202.19660156 -154.18560547 202.19660156 -152.99609375 202.4609375 C-151.82240234 202.72777344 -151.82240234 202.72777344 -150.625 203 C-149.41650391 203.26683594 -149.41650391 203.26683594 -148.18359375 203.5390625 C-142.26491261 204.86754369 -142.26491261 204.86754369 -140 206 C-141.16344655 210.94464783 -142.21185406 214.40611796 -146 218 C-152.5015666 221.84135969 -158.50010974 222.61008095 -165.9375 222.6875 C-167.80084585 222.73035046 -169.66413147 222.77590841 -171.52734375 222.82421875 C-172.44346436 222.84605225 -173.35958496 222.86788574 -174.3034668 222.89038086 C-177.69841082 223.02839171 -181.04896457 223.38625391 -184.42553711 223.75268555 C-189.21074256 224.21237385 -194.01018937 224.37570086 -198.8125 224.5625 C-199.86115234 224.6049585 -200.90980469 224.64741699 -201.99023438 224.69116211 C-209.3315237 224.9735631 -216.65302297 225.12914608 -224 225 C-224.51988555 220.75426801 -224.3487761 217.79690414 -221.875 214.3125 C-217.26139569 209.37649925 -210.39915712 208.27983142 -204 207 C-203.01 207 -202.02 207 -201 207 C-201 149.91 -201 92.82 -201 34 C-208.26 33.34 -215.52 32.68 -223 32 C-223 20.42105263 -223 20.42105263 -219 16 C-214.4364863 12.38693745 -210.62486152 11.2789148 -204.9375 10.875 C-204.11040527 10.8042627 -203.28331055 10.73352539 -202.43115234 10.66064453 C-193.00860254 9.90611408 -183.56253016 9.40411966 -174.125 8.875 C-173.33471405 8.83034607 -172.5444281 8.78569214 -171.73019409 8.73968506 C-167.90878708 8.52748094 -164.08982554 8.34057579 -160.26489258 8.20532227 C-157.48161605 8.10101647 -154.86194483 7.85345863 -152.0847168 7.49584961 C-148.37598929 7.13668285 -145.60460469 7.04229362 -142 8 C-137.81456294 11.64074608 -135.29723657 16.07125617 -132.5625 20.8125 C-131.72428421 22.1757928 -130.88063739 23.53575916 -130.03198242 24.89257812 C-128.23831487 27.7705836 -126.46983638 30.66202363 -124.71679688 33.56494141 C-120.74057337 40.10829137 -116.48099654 46.46399932 -112.24429321 52.840271 C-109.81440492 56.50553508 -107.40631201 60.18506587 -104.99609375 63.86328125 C-100.90983423 70.09306314 -96.81835333 76.31938764 -92.72265625 82.54296875 C-92.1921315 83.34912628 -91.66160675 84.15528381 -91.11500549 84.98587036 C-89.06110284 88.10665857 -87.0070686 91.22736009 -84.95278931 94.34790039 C-74.28462719 110.55398708 -63.64518761 126.77876174 -53 143 C-52.67 103.4 -52.34 63.8 -52 23 C-57.28 22.67 -62.56 22.34 -68 22 C-75 21 -75 21 -76 20 C-76.44341984 16.18658939 -76.15445955 14.28603619 -74.3125 10.875 C-69.14792871 4.45418164 -64.93312366 3.0679866 -57 2 C-51.21336232 1.49472256 -45.40956368 1.2476656 -39.60742188 0.99462891 C-36.90186343 0.87617612 -34.19709358 0.74572023 -31.4921875 0.61328125 C-20.9859308 0.11668999 -10.51813672 -0.11697134 0 0 Z " fill="#000000" transform="translate(400,182)"/>
<path d="M0 0 C1.38128867 -0.01157186 2.76253084 -0.03210537 4.14355469 -0.06152344 C16.81572294 -0.32929798 27.32082916 1.5661196 37.6315918 9.23266602 C38.29562012 9.70720215 38.95964844 10.18173828 39.64379883 10.6706543 C41.77499281 12.19846484 43.89049595 13.74653366 46.0065918 15.29516602 C47.46903118 16.34748084 48.93258645 17.39824651 50.3972168 18.44750977 C53.39776898 20.6006853 56.39079161 22.76371012 59.37768555 24.93579102 C62.5901138 27.27135221 65.81222624 29.59267374 69.04174805 31.90454102 C69.86239746 32.49315918 70.68304688 33.08177734 71.52856445 33.68823242 C73.1036092 34.81753983 74.68004278 35.94491351 76.25805664 37.07006836 C76.96784668 37.58005371 77.67763672 38.09003906 78.40893555 38.61547852 C79.03276123 39.06165527 79.65658691 39.50783203 80.29931641 39.9675293 C82.04403646 41.32428429 83.58424973 42.59968417 85.0065918 44.29516602 C85.0065918 45.28516602 85.0065918 46.27516602 85.0065918 47.29516602 C77.66367685 48.17506993 70.32278842 48.74540293 62.9440918 49.23266602 C61.64826172 49.31911377 60.35243164 49.40556152 59.01733398 49.49462891 C47.43010444 50.25247623 35.83501 50.80461089 24.23626709 51.35150146 C9.92355029 52.03263371 -4.35755969 52.99519272 -18.6463623 54.06002808 C-28.59380497 54.79923072 -38.52141907 55.48338031 -48.4934082 55.79516602 C-59.82383407 56.15231028 -71.09902859 57.01156267 -82.40008545 57.86639404 C-102.60955194 59.38085405 -122.84406154 60.34827424 -143.08642578 61.29272461 C-144.97689888 61.38236481 -144.97689888 61.38236481 -146.90556335 61.47381592 C-149.2741734 61.58577461 -151.64291293 61.69504008 -154.01179504 61.80108643 C-158.49698164 62.01308671 -162.94580655 62.23709995 -167.39941406 62.82299805 C-172.74681067 63.52552267 -178.04449723 63.51956216 -183.4309082 63.54516602 C-185.05222656 63.57610352 -185.05222656 63.57610352 -186.70629883 63.60766602 C-195.7082768 63.65133844 -202.92348538 62.3832632 -210.1809082 56.79516602 C-211.10645508 56.09004883 -212.03200195 55.38493164 -212.9855957 54.65844727 C-213.97817383 53.87856445 -214.97075195 53.09868164 -215.9934082 52.29516602 C-217.09998396 51.43423814 -218.20676177 50.57356991 -219.3137207 49.71313477 C-222.27334231 47.40402071 -225.21804426 45.0765403 -228.15991211 42.74487305 C-230.03118149 41.26529947 -231.90782702 39.79282614 -233.78637695 38.32250977 C-234.40730225 37.8362915 -235.02822754 37.35007324 -235.66796875 36.84912109 C-236.84482022 35.92788107 -238.0220387 35.00710962 -239.19970703 34.08691406 C-242.85448947 31.22117665 -246.43778754 28.28317254 -249.9934082 25.29516602 C-249.2434082 20.54516602 -249.2434082 20.54516602 -246.9934082 18.29516602 C-238.15263724 16.21787972 -228.93741326 15.81900757 -219.8996582 15.29516602 C-217.89941718 15.17097106 -215.8991764 15.04677216 -213.89894867 14.92236328 C-211.12750561 14.75138568 -208.35575693 14.58570288 -205.58398438 14.42016602 C-199.43874471 14.05272905 -193.29400359 13.67725571 -187.1496582 13.29516602 C-186.48484625 13.25393679 -185.82003429 13.21270756 -185.13507652 13.17022896 C-176.28853897 12.61755399 -167.47184941 11.93015479 -158.65327454 11.04063416 C-147.5137477 9.92345444 -136.34677735 9.15892553 -125.1809082 8.35766602 C-124.00151672 8.27212463 -122.82212524 8.18658325 -121.60699463 8.09844971 C-102.45110392 6.70995049 -83.28894386 5.45066051 -64.11523438 4.33447266 C-52.46204343 3.64537046 -40.86368434 2.66121306 -29.24710083 1.51528931 C-19.49873244 0.56314397 -9.79200677 0.05681567 0 0 Z " fill="#FDFDFD" transform="translate(326.993408203125,55.704833984375)"/>
</svg>
