<?xml version="1.0" encoding="UTF-8"?>
<svg version="1.1" xmlns="http://www.w3.org/2000/svg" width="640" height="624">
<path d="M0 0 C1.82537867 -0.00302393 3.65075608 -0.00691462 5.47613126 -0.01159257 C10.47130778 -0.0218504 15.46641234 -0.01969638 20.4615947 -0.01541197 C25.85713032 -0.01294069 31.2526488 -0.02196398 36.6481781 -0.02944946 C47.21122924 -0.04218786 57.77425495 -0.04399117 68.33731248 -0.0416492 C76.92625637 -0.03986471 85.51519255 -0.0416185 94.10413551 -0.04587364 C95.32751059 -0.04646883 96.55088566 -0.04706402 97.81133271 -0.04767724 C100.29681513 -0.04888903 102.78229756 -0.05010316 105.26777998 -0.05131962 C128.56883323 -0.06219212 151.86987201 -0.0600342 175.17092607 -0.05393478 C196.46987899 -0.04876743 217.76876874 -0.06001678 239.06771477 -0.07903299 C260.95422478 -0.09842347 282.84071315 -0.10666517 304.7272318 -0.10290974 C317.00804196 -0.10099934 329.28881318 -0.10346949 341.56961632 -0.11762428 C352.02600282 -0.12955455 362.48232642 -0.13092459 372.93871381 -0.11883412 C378.26928971 -0.11295666 383.59975067 -0.11181457 388.93031883 -0.12383652 C393.81899108 -0.13473329 398.70745294 -0.13154703 403.59611551 -0.11757483 C405.35581738 -0.11493829 407.11553595 -0.11726129 408.87522139 -0.1253107 C423.27437996 -0.18655641 437.03032547 1.1922783 450.59187317 6.44819641 C451.38617737 6.75080383 452.18048157 7.05341125 452.99885559 7.3651886 C480.65614652 18.2465631 503.14761762 39.93226023 515.08357239 67.13227844 C516.63872385 70.87960028 518.02956109 74.67211244 519.34187317 78.51069641 C519.58075256 79.20654846 519.81963196 79.90240051 520.06575012 80.61933899 C523.89658957 92.51393602 524.25794014 104.39672872 524.22756958 116.76869202 C524.23059456 118.5248122 524.23448577 120.28093106 524.23916215 122.03704762 C524.24940636 126.83613898 524.24726947 131.63515533 524.24298155 136.43425274 C524.24050779 141.6204985 524.24953658 146.8067265 524.25701904 151.9929657 C524.26975032 162.14345893 524.27156167 172.29392568 524.26921878 182.44442555 C524.2674336 190.69820065 524.26918956 198.95196774 524.27344322 207.20574188 C524.27403841 208.38180033 524.2746336 209.55785877 524.27524683 210.76955535 C524.27645862 213.15896724 524.27767275 215.54837913 524.2788892 217.93779102 C524.28975882 240.33227527 524.28760506 262.72674446 524.28150436 285.12122956 C524.27633651 305.58916591 524.28758819 326.05705465 524.30660257 346.52498159 C524.32599496 367.5617541 524.33423446 388.59850411 524.33047932 409.63528562 C524.32856931 421.43765152 524.33103535 433.23997691 524.34519386 445.04233551 C524.35712652 455.09063311 524.35849145 465.13886527 524.3464037 475.1871638 C524.34052809 480.30914587 524.33937901 485.43100833 524.3514061 490.55298233 C524.36230908 495.25102405 524.35910938 499.94884695 524.34514441 504.64687863 C524.34250958 506.33723748 524.34482542 508.02761373 524.35288028 509.71795544 C524.41577672 523.91378946 522.95840152 537.52254302 517.77937317 550.88569641 C517.47676575 551.68000061 517.17415833 552.47430481 516.86238098 553.29267883 C505.98100648 580.94996976 484.29530935 603.44144086 457.09529114 615.37739563 C453.3479693 616.93254709 449.55545714 618.32338433 445.71687317 619.63569641 C445.02102112 619.87457581 444.32516907 620.1134552 443.60823059 620.35957336 C431.51450672 624.2545447 419.42835797 624.55111757 406.85145569 624.52139282 C405.02933876 624.52441747 403.2072231 624.52830853 401.38510966 624.53298539 C396.40359398 624.54323376 391.42215053 624.54109164 386.44062901 624.5368048 C381.05806268 624.5343318 375.67551349 624.54335888 370.29295349 624.55084229 C359.75744502 624.56357565 349.22196205 624.56538465 338.68644717 624.56304202 C330.11993376 624.56125708 321.55342808 624.56301229 312.98691559 624.56726646 C311.76645137 624.56786165 310.54598714 624.56845684 309.28853916 624.56907007 C306.80893526 624.57028185 304.32933137 624.57149599 301.84972748 624.57271244 C278.60828143 624.58358286 255.36684989 624.58142792 232.12540302 624.5753276 C210.88148418 624.57015963 189.63761122 624.58141162 168.39370146 624.60042582 C146.56140038 624.61981628 124.72912099 624.62805805 102.89681125 624.62430257 C90.64731509 624.62239226 78.39785796 624.62486138 66.14836884 624.63901711 C55.71945488 624.6509473 45.29060397 624.65231743 34.86168912 624.64022694 C29.54528303 624.63434963 24.22899217 624.63320702 18.91259384 624.64522934 C14.03691426 624.65612648 9.16144562 624.65293944 4.28577575 624.63896766 C2.53081437 624.63633123 0.77583624 624.63865374 -0.97910866 624.64670352 C-15.36435594 624.70805805 -29.1101315 623.32386217 -42.65812683 618.07319641 C-43.84958313 617.61928528 -43.84958313 617.61928528 -45.06510925 617.15620422 C-72.72240018 606.27482972 -95.21387128 584.58913259 -107.14982605 557.38911438 C-108.70497751 553.64179254 -110.09581475 549.84928038 -111.40812683 546.01069641 C-111.64700623 545.31484436 -111.88588562 544.61899231 -112.13200378 543.90205383 C-115.96284323 532.0074568 -116.32419381 520.1246641 -116.29382324 507.75270081 C-116.29684822 505.99658062 -116.30073943 504.24046176 -116.30541581 502.4843452 C-116.31566003 497.68525384 -116.31352313 492.88623749 -116.30923522 488.08714008 C-116.30676146 482.90089432 -116.31579025 477.71466632 -116.32327271 472.52842712 C-116.33600398 462.37793389 -116.33781533 452.22746714 -116.33547244 442.07696727 C-116.33368726 433.82319217 -116.33544322 425.56942508 -116.33969688 417.31565094 C-116.34029207 416.1395925 -116.34088726 414.96353405 -116.34150049 413.75183748 C-116.34271228 411.36242558 -116.34392641 408.97301369 -116.34514286 406.5836018 C-116.35601249 384.18911755 -116.35385873 361.79464836 -116.34775802 339.40016326 C-116.34259017 318.93222691 -116.35384186 298.46433817 -116.37285624 277.99641123 C-116.39224863 256.95963872 -116.40048813 235.92288871 -116.39673299 214.88610721 C-116.39482297 203.0837413 -116.39728901 191.28141591 -116.41144753 179.47905731 C-116.42338019 169.43075971 -116.42474511 159.38252756 -116.41265736 149.33422902 C-116.40678175 144.21224696 -116.40563267 139.09038449 -116.41765976 133.96841049 C-116.42856274 129.27036877 -116.42536304 124.57254587 -116.41139808 119.87451419 C-116.40876324 118.18415534 -116.41107908 116.49377909 -116.41913394 114.80343738 C-116.48203038 100.60760336 -115.02465518 86.9988498 -109.84562683 73.63569641 C-109.54301941 72.84139221 -109.24041199 72.04708801 -108.92863464 71.22871399 C-98.04803852 43.57340147 -76.3631987 21.08157753 -49.16593933 9.14399719 C-32.83300872 2.3797409 -17.61669739 -0.04146528 0 0 Z " fill="#001E36" transform="translate(116.03312683105469,-0.2606964111328125)"/>
<path d="M0 0 C3.15806881 -0.0089394 6.3157091 -0.03007919 9.47363281 -0.06152344 C43.5805397 -0.39269945 77.40258538 2.27070641 104.58496094 25.29516602 C105.24882812 25.8146582 105.91269531 26.33415039 106.59667969 26.86938477 C123.00448469 40.18259393 132.37264589 61.61932446 134.58496094 82.29516602 C135.78515983 110.3647882 133.36885436 136.74028822 114.08496094 158.54516602 C112.59101056 160.13420872 111.09149852 161.7180519 109.58496094 163.29516602 C109.04484375 163.91004883 108.50472656 164.52493164 107.94824219 165.15844727 C90.83480542 183.90994599 61.978819 191.29295137 37.58496094 193.29516602 C33.93674214 193.41860362 30.29351339 193.41245095 26.64355469 193.39282227 C25.63527115 193.39140732 24.62698761 193.38999237 23.58815002 193.38853455 C20.39955552 193.38298206 17.21103386 193.37043862 14.02246094 193.35766602 C11.84733175 193.35264487 9.67220145 193.34808304 7.49707031 193.34399414 C2.19300942 193.33302825 -3.11100961 193.31633816 -8.41503906 193.29516602 C-8.41059784 194.38066742 -8.40615662 195.46616882 -8.40158081 196.58456421 C-8.36109892 206.79693287 -8.3310856 217.00928534 -8.31141472 227.22171593 C-8.30096189 232.47247019 -8.28677543 237.72315987 -8.26416016 242.97387695 C-8.24248512 248.03778344 -8.23048174 253.10162766 -8.22528458 258.16557693 C-8.2215792 260.10094814 -8.21434388 262.0363158 -8.20357895 263.97166061 C-8.18913492 266.67511199 -8.18705813 269.37830358 -8.18798828 272.08178711 C-8.18079773 272.88811081 -8.17360718 273.69443451 -8.16619873 274.52519226 C-8.18693474 280.06706169 -8.18693474 280.06706169 -10.41503906 282.29516602 C-12.73683167 282.54240417 -12.73683167 282.54240417 -15.67504883 282.53808594 C-17.32169273 282.54270088 -17.32169273 282.54270088 -19.00160217 282.54740906 C-20.19120041 282.54022354 -21.38079865 282.53303802 -22.60644531 282.52563477 C-23.82202621 282.52517654 -25.03760712 282.52471832 -26.2900238 282.52424622 C-28.86319961 282.52122098 -31.43637354 282.51332665 -34.00952148 282.50097656 C-37.9644209 282.48272655 -41.91908633 282.48046677 -45.87402344 282.48071289 C-48.3681661 282.4757977 -50.86230717 282.46996938 -53.35644531 282.46313477 C-54.54806778 282.46202194 -55.73969025 282.46090912 -56.96742249 282.45976257 C-58.06203293 282.45338272 -59.15664337 282.44700287 -60.28442383 282.44042969 C-61.2532399 282.43661789 -62.22205597 282.43280609 -63.2202301 282.42887878 C-65.41503906 282.29516602 -65.41503906 282.29516602 -66.41503906 281.29516602 C-66.51271492 279.8052747 -66.54059388 278.31075473 -66.5408802 276.8176651 C-66.54348795 275.84442338 -66.5460957 274.87118167 -66.54878247 273.86844778 C-66.54655175 272.78646817 -66.54432102 271.70448855 -66.54202271 270.58972168 C-66.5435827 269.45026171 -66.54514269 268.31080174 -66.54674995 267.13681269 C-66.55006308 263.95995066 -66.54885087 260.78312643 -66.54576373 257.60626531 C-66.5435114 254.18564346 -66.54698841 250.76502693 -66.54974365 247.34440613 C-66.55420214 240.63784922 -66.55322453 233.93130347 -66.55033101 227.22474611 C-66.54807729 221.7766456 -66.54776432 216.32854823 -66.54885483 210.88044739 C-66.54900806 210.10654581 -66.54916129 209.33264424 -66.54931917 208.53529111 C-66.54963888 206.96337537 -66.54996309 205.39145963 -66.55029176 203.8195439 C-66.55314678 189.06205276 -66.54985918 174.30456783 -66.5444914 159.54707772 C-66.54002334 146.87049336 -66.54079926 134.19391817 -66.54541016 121.51733398 C-66.55075553 106.81448068 -66.55287209 92.11163281 -66.54979789 77.40877867 C-66.54947933 75.84248066 -66.54916496 74.27618265 -66.54885483 72.70988464 C-66.54870055 71.93913358 -66.54854628 71.16838251 -66.54838733 70.37427536 C-66.54752206 64.92951334 -66.54898526 59.48475477 -66.55133438 54.03999329 C-66.55413217 47.40925194 -66.55339457 40.77852243 -66.54805364 34.14778244 C-66.54541633 30.76139939 -66.54441205 27.37503612 -66.54770279 23.98865318 C-66.55041104 20.32595212 -66.54703716 16.66330774 -66.54202271 13.00061035 C-66.54425343 11.91863074 -66.54648415 10.83665112 -66.54878247 9.72188425 C-66.54617472 8.74864254 -66.54356697 7.77540082 -66.5408802 6.77266693 C-66.54071785 5.92605295 -66.5405555 5.07943896 -66.54038823 4.20717001 C-66.41503906 2.29516602 -66.41503906 2.29516602 -65.41503906 1.29516602 C-63.4148581 1.13823073 -61.40921121 1.05067973 -59.40380859 0.98974609 C-58.10982147 0.94935715 -56.81583435 0.9089682 -55.4826355 0.86735535 C-54.04605403 0.8284794 -52.60945881 0.79010877 -51.17285156 0.75219727 C-50.44192417 0.73162577 -49.71099678 0.71105427 -48.95792007 0.68985939 C-32.64053075 0.23301286 -16.32334055 0.04118402 0 0 Z " fill="#30A7FE" transform="translate(210.4150390625,158.704833984375)"/>
<path d="M0 0 C0.84337921 0.00182281 1.68675842 0.00364563 2.55569458 0.00552368 C43.38768365 0.1542891 43.38768365 0.1542891 58.625 10.3125 C58.99249268 12.4065094 58.99249268 12.4065094 58.98144531 15.02172852 C58.98594696 16.48818565 58.98594696 16.48818565 58.99053955 17.98426819 C58.97201935 19.57180153 58.97201935 19.57180153 58.953125 21.19140625 C58.95125183 22.27381088 58.94937866 23.35621552 58.94744873 24.47142029 C58.94071813 26.76214676 58.92678382 29.05286154 58.90625 31.34350586 C58.87509842 34.86387723 58.86528146 38.38380137 58.859375 41.90429688 C58.85020543 44.1250055 58.8398298 46.34570954 58.828125 48.56640625 C58.82387512 49.62678604 58.81962524 50.68716583 58.81524658 51.77967834 C58.80563904 52.75416428 58.79603149 53.72865021 58.78613281 54.73266602 C58.77589081 56.02600609 58.77589081 56.02600609 58.76544189 57.34547424 C58.625 59.3125 58.625 59.3125 57.625 60.3125 C53.14450846 60.6467691 50.22303965 59.96292435 46.1875 58.0625 C30.77735612 51.32175553 14.64456837 48.95483998 -2.0625 48.9375 C-3.31611328 48.91300781 -4.56972656 48.88851562 -5.86132812 48.86328125 C-13.10960708 48.84040399 -19.18151561 49.27149634 -25.375 53.3125 C-27.96603724 56.21760236 -28.32131886 57.89071964 -28.8125 61.75 C-28.26528172 66.20592031 -27.37698325 67.95313779 -24.375 71.3125 C-14.31086169 78.88654223 -1.44216866 83.96095507 10.375 88.125 C24.61107286 93.21072173 39.04645725 100.51369792 50.625 110.3125 C51.33398438 110.89902344 52.04296875 111.48554688 52.7734375 112.08984375 C64.04879502 122.30678649 68.91668138 135.75261698 69.96875 150.6328125 C70.4661283 161.36876374 68.55870324 170.36318931 64.625 180.3125 C64.10099609 181.69695312 64.10099609 181.69695312 63.56640625 183.109375 C58.72065125 194.25638651 48.8981317 203.18176011 38.625 209.3125 C37.92890625 209.74820313 37.2328125 210.18390625 36.515625 210.6328125 C5.9890397 227.84461059 -35.48796857 225.00520265 -68.08105469 215.99462891 C-81.67872631 211.9512174 -81.67872631 211.9512174 -85.375 207.3125 C-85.73576355 205.01557922 -85.73576355 205.01557922 -85.71557617 202.2902832 C-85.71534958 201.26945145 -85.71512299 200.24861969 -85.71488953 199.19685364 C-85.69940567 198.09677475 -85.68392181 196.99669586 -85.66796875 195.86328125 C-85.66372391 194.7355278 -85.65947906 193.60777435 -85.65510559 192.44584656 C-85.63829311 188.83865633 -85.60063528 185.23202178 -85.5625 181.625 C-85.54745653 179.18164868 -85.53376754 176.73828863 -85.52148438 174.29492188 C-85.48838116 168.30059118 -85.43815593 162.30658529 -85.375 156.3125 C-80.53538138 157.01870135 -76.70902799 158.42769011 -72.375 160.625 C-65.23783993 164.09197402 -58.09150064 166.41861 -50.375 168.3125 C-49.22515625 168.59996094 -48.0753125 168.88742187 -46.890625 169.18359375 C-37.30024327 171.49279857 -28.27878537 172.49326401 -18.4375 172.5 C-17.49970703 172.51224609 -16.56191406 172.52449219 -15.59570312 172.53710938 C-6.70608305 172.55564229 2.50492825 171.74989552 9.5 165.6875 C11.31127176 161.86370407 11.43244882 158.4480422 10.625 154.3125 C5.62303286 143.23508418 -12.54810566 138.99522947 -22.8125 134.875 C-37.18542844 129.10407373 -50.09533501 122.90533231 -62.375 113.3125 C-63.40625 112.57 -64.4375 111.8275 -65.5 111.0625 C-76.44818146 100.59032643 -84.1040072 87.54461042 -84.67578125 72.26171875 C-84.89043885 53.06880383 -81.37870859 37.81949217 -67.60546875 23.515625 C-66.86941406 22.78859375 -66.13335937 22.0615625 -65.375 21.3125 C-64.77300781 20.68859375 -64.17101562 20.0646875 -63.55078125 19.421875 C-54.38751549 10.59651709 -41.61650774 5.16133014 -29.375 2.3125 C-28.6516748 2.13662354 -27.92834961 1.96074707 -27.18310547 1.77954102 C-18.17673772 -0.15950944 -9.16634683 -0.04078899 0 0 Z " fill="#30A7FD" transform="translate(459.375,224.6875)"/>
<path d="M0 0 C59.9453125 0 59.9453125 0 74.83984375 14.53125 C84.74944885 25.85651297 85.8110029 36.99661521 85.1953125 51.45507812 C84.4013236 61.80075349 80.39501364 70.26161631 72.625 77.0859375 C51.47924721 93.62142442 25.83560499 91 0 91 C0 60.97 0 30.94 0 0 Z " fill="#001E37" transform="translate(202,211)"/>
</svg>
