<?xml version="1.0" encoding="UTF-8"?>
<svg version="1.1" xmlns="http://www.w3.org/2000/svg" width="514" height="512">
<path d="M0 0 C1.02446228 -0.00701431 2.04892456 -0.01402863 3.10443115 -0.02125549 C6.39128058 -0.038658 9.67794996 -0.04510719 12.96484375 -0.046875 C14.64699478 -0.04788712 14.64699478 -0.04788712 16.36312866 -0.04891968 C54.40139626 -0.01250574 97.20583966 3.22897601 126.4453125 30.58203125 C138.05785763 42.70031537 141.21210986 55.53359116 141.17700195 71.81274414 C141.18466835 73.66348038 141.18466835 73.66348038 141.19248962 75.55160522 C141.20395412 78.91369149 141.20646736 82.27553 141.20392632 85.6376183 C141.20284973 88.45990365 141.20775801 91.28216677 141.21253175 94.10444731 C141.22359985 100.77562204 141.22408109 107.44674047 141.21801758 114.11791992 C141.21199444 120.95874232 141.22425258 127.79935818 141.24558765 134.64014536 C141.26331819 140.54627369 141.26918671 146.45233699 141.2659499 152.35849088 C141.26415331 155.87113689 141.26660694 159.38363592 141.28066444 162.8962574 C141.37259276 188.03656807 140.52479011 209.73722997 122.94921875 229.38671875 C107.75786706 244.25916802 85.91062844 248.34394746 65.51000977 248.36083984 C64.15564308 248.36551514 62.80127795 248.37065987 61.44691467 248.37623596 C58.53922742 248.3874726 55.63155014 248.39592832 52.72384834 248.40235519 C48.11077773 248.41310104 43.49777877 248.43336576 38.88475037 248.45547485 C25.76963616 248.51716991 12.65452622 248.57126788 -0.46069336 248.60449219 C-7.71130497 248.62293971 -14.96179611 248.65200306 -22.21231896 248.6924969 C-26.03907718 248.71340267 -29.86568468 248.72900047 -33.69250298 248.73130417 C-70.53987286 248.72746349 -70.53987286 248.72746349 -102.28125 266.16015625 C-115.29794426 279.83656601 -122.07307432 298.77288209 -122.30297852 317.49365234 C-122.31287811 318.19678558 -122.32277771 318.89991882 -122.33297729 319.62435913 C-122.36435498 321.92922698 -122.38925494 324.23411538 -122.4140625 326.5390625 C-122.43465257 328.14475006 -122.45564956 329.75043246 -122.47703552 331.35610962 C-122.53204425 335.56788935 -122.58154638 339.77971627 -122.62988281 343.99157715 C-122.68025331 348.29520838 -122.73585796 352.59877168 -122.79101562 356.90234375 C-122.89833763 365.33587994 -122.99983946 373.76947323 -123.09765625 382.203125 C-129.83789685 382.27988017 -136.57802265 382.33201739 -143.31860352 382.36791992 C-145.60640678 382.38290448 -147.89418182 382.40329912 -150.18188477 382.42944336 C-172.63149404 382.67937352 -189.63342216 380.68278704 -207.09765625 365.203125 C-207.71125 364.68363281 -208.32484375 364.16414063 -208.95703125 363.62890625 C-231.87485035 342.76107555 -238.58648657 304.44590981 -240.09765625 275.203125 C-240.30893656 268.78789497 -240.34324627 262.37136004 -240.34765625 255.953125 C-240.34833099 255.06806274 -240.34900574 254.18300049 -240.34970093 253.27111816 C-240.33255458 239.07394023 -239.79118532 225.18243481 -237.09765625 211.203125 C-236.93136719 210.33929199 -236.76507813 209.47545898 -236.59375 208.58544922 C-231.5908874 183.87223445 -220.94972232 159.2766303 -199.72265625 144.328125 C-183.95944182 133.99159095 -168.02422124 131.74178311 -149.6394043 131.86254883 C-147.81485 131.86339677 -145.99029468 131.8629167 -144.16574097 131.86122131 C-139.25128675 131.86036645 -134.33705568 131.87790907 -129.42265296 131.89894319 C-124.2724064 131.91779555 -119.12215379 131.91946714 -113.97187805 131.92301941 C-104.23641266 131.93231485 -94.50104927 131.95689455 -84.76562864 131.98706788 C-73.67486334 132.02069004 -62.58409298 132.03711749 -51.49328935 132.05215418 C-28.69468668 132.08344651 -5.89618151 132.13676784 16.90234375 132.203125 C16.90234375 126.923125 16.90234375 121.643125 16.90234375 116.203125 C15.35108292 116.20534561 13.79982208 116.20756622 12.20155334 116.20985413 C-2.38183639 116.23008172 -16.96522101 116.24515525 -31.54862118 116.25493717 C-39.04698689 116.26010011 -46.54534216 116.26714276 -54.04370117 116.27856445 C-60.57696129 116.28851137 -67.11021384 116.29497844 -73.64348131 116.29721349 C-77.10487432 116.29852059 -80.56624567 116.30160636 -84.02763176 116.30885506 C-87.88553152 116.31686907 -91.74340982 116.31711613 -95.60131836 116.31665039 C-97.33516281 116.3220433 -97.33516281 116.3220433 -99.10403442 116.32754517 C-100.14876419 116.3261705 -101.19349396 116.32479584 -102.2698822 116.32337952 C-103.64012747 116.32476221 -103.64012747 116.32476221 -105.03805447 116.32617283 C-107.09765625 116.203125 -107.09765625 116.203125 -108.09765625 115.203125 C-108.20745263 113.26220795 -108.24677215 111.31727399 -108.25878906 109.37329102 C-108.26839661 108.12431534 -108.27800415 106.87533966 -108.28790283 105.58851624 C-108.29275413 104.21135643 -108.29703214 102.8341945 -108.30078125 101.45703125 C-108.30653454 100.04752094 -108.31229225 98.63801064 -108.3180542 97.22850037 C-108.32858163 94.26341385 -108.33441097 91.29835454 -108.33789062 88.33325195 C-108.34333955 84.55744685 -108.36728165 80.78200894 -108.39586258 77.00631809 C-108.41462351 74.08840443 -108.41970193 71.17057619 -108.4212265 68.25260735 C-108.42422995 66.86251789 -108.43217932 65.47242909 -108.44541168 64.08239937 C-108.5712039 49.83575653 -105.84299497 38.18687619 -95.91015625 27.515625 C-71.47158887 4.78083574 -31.95644044 0.14718157 0 0 Z M-71.65234375 49.16796875 C-74.76882997 53.55631826 -76.16263302 57.78220624 -76.09765625 63.203125 C-74.68066998 71.47526109 -71.73010129 76.56782174 -64.91015625 81.515625 C-59.06850716 84.53148722 -52.7098581 84.93098189 -46.41015625 83.203125 C-40.22086458 80.79313532 -36.45727783 76.52763931 -33.16015625 70.890625 C-31.39714628 64.77194335 -31.36011226 59.5322113 -33.28515625 53.453125 C-37.29607804 46.26112731 -41.11855997 42.50704024 -49.09765625 40.203125 C-58.79999678 38.73706675 -65.50791649 41.75178794 -71.65234375 49.16796875 Z " fill="#3672A4" transform="translate(240.09765625,-0.203125)"/>
<path d="M0 0 C7.47058325 -0.10210839 14.94098399 -0.17176094 22.41210938 -0.21972656 C24.94928716 -0.23973992 27.48641942 -0.26695917 30.0234375 -0.30175781 C33.68761486 -0.35072874 37.35117805 -0.37307263 41.015625 -0.390625 C42.13487366 -0.41127014 43.25412231 -0.43191528 44.4072876 -0.45318604 C60.73082389 -0.45775155 74.66251716 6.75137002 86.15234375 18.0390625 C115.20489259 47.74240397 118.37530402 94.57830749 117.98046875 133.89453125 C117.23370857 165.94136958 111.3914941 198.42495383 91 224 C90.3915625 224.81339844 89.783125 225.62679687 89.15625 226.46484375 C79.03667635 238.36267582 63.46753918 246.85627727 48 249 C41.93682604 249.28581695 35.88087665 249.25310844 29.81225586 249.22705078 C27.9685873 249.22648603 26.1249183 249.22680447 24.28125 249.22793579 C19.29636496 249.22850782 14.31157686 249.21677779 9.32671428 249.20278788 C4.10970604 249.19025551 -1.1073046 249.18910804 -6.32432556 249.18673706 C-16.19447727 249.18052965 -26.06458449 249.16412884 -35.93471664 249.14403808 C-47.17533403 249.12165607 -58.41595358 249.11067986 -69.65658772 249.10064721 C-92.77108395 249.07976196 -115.8855376 249.04419582 -139 249 C-139 254.61 -139 260.22 -139 266 C-98.08 266 -57.16 266 -15 266 C-14.896875 276.8075 -14.79375 287.615 -14.6875 298.75 C-14.64197998 302.13862305 -14.59645996 305.52724609 -14.54956055 309.01855469 C-14.53494297 311.73631809 -14.52220532 314.45409252 -14.51171875 317.171875 C-14.49211845 318.20577362 -14.49211845 318.20577362 -14.47212219 319.26055908 C-14.23850691 332.25464509 -16.99362235 342.59875299 -25.58984375 352.625 C-54.2736737 380.89042725 -103.21106568 382.40059005 -140.69360352 382.23657227 C-178.08810623 381.68678422 -220.37786598 377.60649751 -249.3125 351.3125 C-261.20083505 338.61817614 -264.51260803 323.52372852 -264.31225586 306.55322266 C-264.30936554 305.27819382 -264.30647522 304.00316498 -264.30349731 302.6894989 C-264.29480547 299.23256783 -264.26682915 295.77605914 -264.23397899 292.31928301 C-264.20819073 289.41472579 -264.19210369 286.51014566 -264.17591387 283.60552156 C-264.13750332 276.74337429 -264.08333247 269.88147907 -264.01879883 263.01953125 C-263.95286494 255.98216602 -263.91233759 248.94498412 -263.88460058 241.90737307 C-263.85979493 235.82611247 -263.81963256 229.74508285 -263.76739794 223.6639961 C-263.73645375 220.04919575 -263.71082386 216.4345811 -263.69981194 212.81966019 C-263.6200108 190.0337926 -262.87233856 170.66650244 -246.33984375 153.28125 C-229.28457213 136.653072 -207.38469939 132.84843118 -184.39648438 132.8581543 C-183.04344572 132.85511629 -181.69040808 132.85159308 -180.33737183 132.84762573 C-177.43845001 132.83978298 -174.53954023 132.83460928 -171.64060974 132.83133507 C-167.03970671 132.82537539 -162.43887904 132.80878713 -157.8380127 132.78999329 C-156.25594334 132.78365696 -154.67387394 132.77733132 -153.0918045 132.77101612 C-152.2998018 132.76785031 -151.50779909 132.7646845 -150.6917963 132.76142275 C-139.99539055 132.71953857 -129.29902139 132.68640874 -118.60253906 132.67407227 C-111.36762659 132.6656429 -104.13290305 132.64297574 -96.89808512 132.6047166 C-93.0818984 132.58512231 -89.26599296 132.57249523 -85.44975281 132.57755089 C-61.06772641 132.60363676 -38.81417765 132.23879492 -20.20703125 114.29296875 C-14.58351326 108.45048191 -10.59246491 102.68644284 -7.25 95.3125 C-6.96809814 94.70204834 -6.68619629 94.09159668 -6.39575195 93.46264648 C-1.17075067 81.24497402 -0.5404245 68.7180345 -0.48828125 55.6640625 C-0.4713883 54.04738037 -0.45323208 52.430711 -0.43388367 50.8140564 C-0.38687754 46.60896804 -0.3567517 42.4039314 -0.33044434 38.19866943 C-0.30038602 33.88755068 -0.2539443 29.57660954 -0.20898438 25.265625 C-0.12351509 16.84383833 -0.05592289 8.42203453 0 0 Z M-86.375 305.875 C-90.13347005 311.40035951 -91.67232531 316.27674694 -91 323 C-89.12964063 330.04464699 -86.2924725 335.12770923 -80 339 C-73.95914036 341.90041274 -67.05560315 342.17014124 -60.6171875 340.3125 C-54.5638991 337.55054331 -50.74867089 333.19270995 -48.1875 327.0625 C-46.16613287 320.97529727 -46.58377621 315.77604259 -49.03125 309.91796875 C-51.69153493 304.65103367 -55.30009712 301.09277294 -60.62890625 298.6953125 C-70.59264223 295.77349207 -79.89129792 297.73920076 -86.375 305.875 Z " fill="#FED242" transform="translate(396,129)"/>
</svg>
