<?xml version="1.0" encoding="utf-8"?>
<!-- Generator: Adobe Illustrator 23.0.5, SVG Export Plug-In . SVG Version: 6.00 Build 0)  -->
<svg version="1.1" id="Capa_1" xmlns="http://www.w3.org/2000/svg" xmlns:xlink="http://www.w3.org/1999/xlink" x="0px" y="0px"
	 viewBox="0 0 512 512" style="enable-background:new 0 0 512 512;" xml:space="preserve">
<style type="text/css">
	.st0{fill:#347AB4;}
	.st1{fill:#FFCA1D;}
	.st2{fill:#FFFFFF;}
</style>
<g id="_x32_67-python">
	<g>
		<path class="st0" d="M187.6,238.6h115.9c32.2,0,58-26.6,58-59V69c0-31.5-26.5-55-58-60.4c-38.9-6.4-81.1-6.1-115.9,0.1
			c-49.1,8.7-58,26.8-58,60.4v23.7h116.1v35.3H86.1c-33.8,0-63.3,20.3-72.5,58.8c-10.6,44.2-11.1,71.8,0,117.9
			c8.3,34.3,27.9,58.8,61.7,58.8h39.8v-53C115.1,272.4,148.2,238.6,187.6,238.6L187.6,238.6z"/>
		<path class="st1" d="M497.7,204.5c-8.4-33.5-24.2-58.8-58-58.8h-43.5v51.5c0,40-33.9,73.6-72.5,73.6h-116c-31.7,0-58,27.1-58,59
			v110.5c0,31.5,27.4,49.9,58,59c36.7,10.7,72,12.7,115.9,0c29.2-8.5,58-25.5,58-59v-23.2H265.8v-35.8h173.9
			c33.8,0,46.3-23.6,58-58.8C509.8,286.1,509.3,251.1,497.7,204.5L497.7,204.5z"/>
		<path class="st2" d="M180.3,72.3c-11.6,0-20.9-9.5-20.9-21.2c0.1-11.8,9.4-21.3,20.9-21.3c11.5,0,20.9,9.6,20.9,21.3
			C201.2,62.9,191.9,72.3,180.3,72.3z"/>
		<path class="st2" d="M321,481.2c-11.6,0-20.9-9.5-20.9-21.2c0.1-11.8,9.4-21.3,20.9-21.3c11.5,0,20.9,9.6,20.9,21.3
			C342,471.8,332.6,481.2,321,481.2z"/>
	</g>
</g>
<g id="Layer_1">
</g>
</svg>
