<?xml version="1.0" encoding="utf-8"?>
<!-- Generator: Adobe Illustrator 23.0.5, SVG Export Plug-In . SVG Version: 6.00 Build 0)  -->
<svg version="1.1" id="Camada_1" xmlns="http://www.w3.org/2000/svg" xmlns:xlink="http://www.w3.org/1999/xlink" x="0px" y="0px"
	 viewBox="0 0 32 32" style="enable-background:new 0 0 32 32;" xml:space="preserve">
<style type="text/css">
	.st0{fill:#087EA4;}
</style>
<g>
	<path class="st0" d="M10.8,12c0.9-0.2,1.9-0.4,2.9-0.5c0.6-0.8,1.2-1.5,1.8-2.2c-1.5-1.5-2.9-2.2-3.8-2.2c-0.2,0-0.4,0-0.5,0.1
		c-0.7,0.4-0.9,1.7-0.7,3.4C10.5,11,10.6,11.5,10.8,12z"/>
	<path class="st0" d="M19.6,12.7c0.2,0.3,0.4,0.6,0.6,1c0.2,0.3,0.4,0.7,0.6,1c0.2-0.5,0.4-1.1,0.6-1.7
		C20.8,12.9,20.2,12.8,19.6,12.7z"/>
	<path class="st0" d="M16.2,11.4c0.4,0,0.8,0,1.2,0c-0.4-0.5-0.8-1-1.2-1.4c-0.4,0.4-0.8,0.9-1.2,1.4C15.4,11.4,15.8,11.4,16.2,11.4
		z"/>
	<path class="st0" d="M20.8,17.3c-0.2,0.3-0.4,0.7-0.6,1c-0.2,0.4-0.4,0.7-0.6,1c0.6-0.1,1.2-0.2,1.8-0.3
		C21.2,18.4,21,17.9,20.8,17.3z"/>
	<path class="st0" d="M21.8,11.9c0.1-0.4,0.1-0.9,0.2-1.3c0.2-1.7-0.1-3-0.7-3.4c-0.1-0.1-0.3-0.1-0.5-0.1c-0.9,0-2.3,0.7-3.7,2.1
		c0.6,0.6,1.2,1.4,1.8,2.2C19.9,11.5,20.9,11.7,21.8,11.9z"/>
	<path class="st0" d="M14.3,19.5c0.6,0.1,1.3,0.1,2,0.1s1.3-0.1,2-0.1c0.3-0.6,0.7-1.1,1-1.7c0.3-0.6,0.7-1.2,1.1-1.8
		c-0.3-0.6-0.6-1.2-0.9-1.8c-0.4-0.6-0.7-1.2-1.1-1.7c-0.7-0.1-1.3-0.1-2-0.1c-0.7,0-1.4,0.1-2,0.1c-0.4,0.5-0.8,1.1-1.1,1.7
		c-0.3,0.6-0.6,1.2-0.9,1.8c0.3,0.6,0.6,1.2,0.9,1.8C13.6,18.4,13.9,19,14.3,19.5z M16.3,13.9c1.2,0,2.1,0.9,2.1,2.1
		s-0.9,2.1-2.1,2.1s-2.1-0.9-2.1-2.1S15.1,13.9,16.3,13.9z"/>
	<path class="st0" d="M12.3,13.7c0.2-0.3,0.4-0.7,0.6-1c-0.6,0.1-1.2,0.2-1.8,0.3c0.2,0.5,0.4,1.1,0.6,1.7
		C11.8,14.4,12,14,12.3,13.7z"/>
	<path class="st0" d="M12.8,19.3c-0.2-0.3-0.4-0.6-0.6-1c-0.2-0.3-0.4-0.7-0.6-1c-0.2,0.6-0.4,1.1-0.6,1.7
		C11.6,19.1,12.2,19.2,12.8,19.3z"/>
	<path class="st0" d="M21.7,19.9c-0.8,0.3-1.8,0.4-2.8,0.5c-0.6,0.9-1.3,1.6-1.9,2.3c1.5,1.5,2.9,2.2,3.8,2.2c0.2,0,0.4,0,0.5-0.1
		c0.7-0.4,0.9-1.7,0.7-3.4C21.9,21,21.8,20.5,21.7,19.9z"/>
	<path class="st0" d="M23.8,13.7c-0.4-0.1-0.8-0.3-1.3-0.4c-0.2,0.8-0.6,1.8-1,2.7c0.4,0.9,0.7,1.8,1,2.7c0.5-0.2,0.9-0.3,1.3-0.5
		c1.6-0.6,2.6-1.5,2.6-2.2C26.4,15.2,25.4,14.4,23.8,13.7z"/>
	<path class="st0" d="M26,2H6C3.8,2,2,3.8,2,6v20c0,2.2,1.8,4,4,4h20c2.2,0,4-1.8,4-4V6C30,3.8,28.2,2,26,2z M22.7,19.8
		c0.7,2.9,0.4,5.2-0.9,6c-0.3,0.2-0.7,0.3-1.1,0.3c-1.2,0-2.9-0.9-4.5-2.5c-1.6,1.6-3.2,2.5-4.5,2.5c-0.4,0-0.8-0.1-1.1-0.3
		c-1.4-0.8-1.6-3.1-0.9-6C6.9,18.9,5,17.6,5,16s1.9-2.9,4.7-3.8C9,9.3,9.3,7,10.6,6.3C10.9,6.1,11.3,6,11.7,6c1.3,0,2.9,0.9,4.6,2.5
		C17.9,6.9,19.5,6,20.8,6c0.4,0,0.7,0.1,1.1,0.3c1.3,0.7,1.6,3,0.9,5.9c2.8,0.9,4.7,2.2,4.7,3.8C27.5,17.5,25.6,18.9,22.7,19.8z"/>
	<path class="st0" d="M10.8,20c-0.2,0.5-0.2,1-0.3,1.4c-0.2,1.7,0.1,3,0.7,3.4c0.1,0.1,0.3,0.1,0.5,0.2c0.9,0,2.3-0.8,3.8-2.2
		c-0.7-0.7-1.3-1.5-1.9-2.3C12.6,20.4,11.7,20.2,10.8,20z"/>
	<path class="st0" d="M10,13.2c-0.5,0.1-0.9,0.2-1.3,0.4c-1.6,0.7-2.6,1.6-2.6,2.3c0,0.8,1,1.6,2.6,2.3c0.4,0.2,0.8,0.4,1.3,0.4
		c0.2-0.9,0.6-1.8,1-2.7C10.6,15,10.3,14.1,10,13.2z"/>
	<path class="st0" d="M16.2,20.6c-0.4,0-0.8,0-1.2,0c0.4,0.5,0.8,1,1.2,1.4c0.4-0.4,0.8-0.9,1.2-1.4C17,20.6,16.6,20.6,16.2,20.6z"
		/>
</g>
</svg>
