<?xml version="1.0" encoding="UTF-8"?>
<svg version="1.1" xmlns="http://www.w3.org/2000/svg" width="773" height="811">
<path d="M0 0 C1.35569092 0.69609375 1.35569092 0.69609375 2.73876953 1.40625 C18.18788158 9.42444095 32.40763879 17.85368974 45 30 C45.96824707 30.91362305 45.96824707 30.91362305 46.95605469 31.84570312 C63.67697784 47.66748942 75.79633182 64.2989637 77.18525362 88.18604577 C77.25629131 91.75792608 77.26664912 95.32490592 77.25396729 98.8974762 C77.25627623 100.27340307 77.25945565 101.64932871 77.26342177 103.02525181 C77.27171875 106.77785098 77.26766789 110.53034755 77.26144934 114.28294694 C77.25690488 118.34093101 77.26391843 122.39889803 77.26940918 126.45687866 C77.27828337 134.39500417 77.27639005 142.33309176 77.2705839 150.27121872 C77.26605995 156.72443988 77.26545767 163.17765044 77.26763153 169.63087273 C77.267938 170.5506904 77.26824446 171.47050808 77.26856022 172.41819901 C77.26919969 174.28700583 77.26984812 176.15581264 77.2705054 178.02461945 C77.27620283 195.53124448 77.26965985 213.03784854 77.25890467 230.54447012 C77.2499682 245.55529201 77.25152313 260.56608297 77.26074219 275.5769043 C77.27145262 293.02411293 77.27565513 310.47130321 77.26951766 327.91851467 C77.26888059 329.77999079 77.26825184 331.64146691 77.26763153 333.50294304 C77.26732298 334.41873977 77.26701443 335.33453651 77.26669653 336.27808465 C77.26497202 342.72161927 77.26787939 349.1651422 77.27259064 355.608675 C77.27820799 363.46385546 77.27666499 371.31899597 77.26602915 379.17417187 C77.26078418 383.17946155 77.25869565 387.18468469 77.26532745 391.18997383 C77.2713133 394.86072691 77.2679686 398.53135213 77.25737235 402.20209371 C77.25410137 404.14967023 77.26058563 406.09725571 77.26748681 408.04482275 C77.1867595 426.20245086 77.1867595 426.20245086 72.125 431.4375 C65.22203749 436.53305103 55.22003653 437.20736373 46.97143555 438.73535156 C-2.81761526 448.0155941 -42.96167616 475.55122241 -71.61669922 516.94384766 C-73.45998683 519.6837291 -75.16932864 522.48497768 -76.875 525.3125 C-80.07023523 530.40612683 -83.19780645 533.92568629 -89.11694336 535.59814453 C-95.82283638 536.94671447 -102.42952454 537.43261502 -109.25 537.8125 C-127.25672052 539.02851162 -144.44587017 542.74217345 -161 550 C-161.65129883 550.28182129 -162.30259766 550.56364258 -162.97363281 550.85400391 C-193.5952429 564.37319841 -215.15221945 589.28995498 -227.484375 619.95410156 C-230.88342802 628.75955652 -233.18057915 637.7487855 -235 647 C-235.32291016 648.63582031 -235.32291016 648.63582031 -235.65234375 650.3046875 C-237.15194546 659.25851377 -237.35753601 668.22890912 -237.4831543 677.29492188 C-237.61709487 682.87447855 -237.72801885 687.2407547 -241 692 C-249.79094035 696.39547017 -265.74444951 692.27856862 -275.1875 690.9375 C-275.97802765 690.82773834 -276.7685553 690.71797668 -277.58303833 690.60488892 C-339.3414602 681.98662978 -408.91745569 667.23850699 -454 621 C-454.90685547 620.14341797 -454.90685547 620.14341797 -455.83203125 619.26953125 C-470.87316767 604.86110038 -480.10565319 584.94236183 -481.09251443 564.0405345 C-481.12996272 561.85964525 -481.13646392 559.68081847 -481.13142776 557.49961185 C-481.1334804 556.66564864 -481.13553303 555.83168542 -481.13764787 554.97245058 C-481.14330301 552.17750603 -481.14186245 549.38261099 -481.14044189 546.58766174 C-481.14302639 544.56362109 -481.14603979 542.53958094 -481.1494453 540.51554149 C-481.15750878 534.9526699 -481.15930451 529.38981121 -481.16004276 523.82693446 C-481.16189448 517.82737357 -481.16944246 511.82781935 -481.17617798 505.82826233 C-481.19046577 492.02407569 -481.19628753 478.21989085 -481.20086992 464.41569863 C-481.20320762 457.59011415 -481.20681048 450.76453051 -481.2105653 443.93894669 C-481.22340017 420.56182291 -481.23411886 397.18469959 -481.2375679 373.80757236 C-481.23778953 372.34060883 -481.23801132 370.8736453 -481.23823325 369.40668177 C-481.23845389 367.93622686 -481.23867437 366.46577195 -481.2388947 364.99531704 C-481.23933725 362.04546201 -481.23978436 359.09560698 -481.24023438 356.14575195 C-481.24034377 355.4143617 -481.24045316 354.68297144 -481.24056586 353.92941784 C-481.24419482 330.22513131 -481.26010909 306.52087539 -481.28342474 282.81660058 C-481.3080456 257.73937787 -481.32174181 232.66217266 -481.32293582 207.58493751 C-481.32310727 204.82962954 -481.32332269 202.07432157 -481.32357025 199.3190136 C-481.32362602 198.64060783 -481.32368179 197.96220206 -481.32373925 197.26323855 C-481.3248878 186.36633532 -481.33589319 175.46946361 -481.35045731 164.57257101 C-481.36485573 153.60966906 -481.3677889 142.64680202 -481.36001733 131.68389238 C-481.3561169 125.74981621 -481.35701083 119.81584564 -481.37107468 113.88178253 C-481.38384987 108.44153645 -481.3825843 103.00147494 -481.37048396 97.56122898 C-481.36853322 95.60086865 -481.37157635 93.64049508 -481.38032833 91.68015332 C-481.48683568 66.19504048 -476.39992973 44.70009171 -458 26 C-456.89205078 24.87271484 -456.89205078 24.87271484 -455.76171875 23.72265625 C-390.27255871 -38.9047926 -264.72654414 -44.24988429 0 0 Z M-356.5625 37.625 C-358.23046631 38.289552 -358.23046631 38.289552 -359.93212891 38.9675293 C-368.09448383 42.34180967 -376.15041858 46.1717698 -381.9375 53.0625 C-382.48277344 53.69285156 -383.02804687 54.32320312 -383.58984375 54.97265625 C-388.11269895 61.47504365 -387.46659445 68.37895725 -387 76 C-386.92652344 77.21042969 -386.92652344 77.21042969 -386.8515625 78.4453125 C-386.0726306 82.19300372 -384.54268231 83.63740423 -381.375 85.75390625 C-336.53269775 108.53175751 -274.3004643 117.00255463 -224.16796875 117.203125 C-222.98553589 117.21018463 -221.80310303 117.21724426 -220.58483887 117.22451782 C-183.68868578 117.42082062 -183.68868578 117.42082062 -147 114 C-146.29002869 113.90054077 -145.58005737 113.80108154 -144.84857178 113.6986084 C-117.37931373 109.84371698 -90.48266639 104.27599005 -63.875 96.375 C-62.66013916 96.01494873 -61.44527832 95.65489746 -60.19360352 95.28393555 C-44.99034988 90.64151911 -29.55051112 85.45966641 -20 72 C-16.7760964 65.09009995 -16.56588473 58.5167152 -18.13671875 51.140625 C-19.8303183 46.94111119 -22.0803484 44.52006239 -26.01171875 42.296875 C-30.32390614 40.4821819 -34.64320401 38.70483321 -39 37 C-39.88381348 36.6488916 -40.76762695 36.2977832 -41.67822266 35.93603516 C-76.61195781 22.2114174 -113.62666549 15.42199762 -151 13 C-152.21880859 12.91387451 -153.43761719 12.82774902 -154.69335938 12.73901367 C-168.33006388 11.83419959 -181.9628553 11.7999574 -195.625 11.8125 C-197.44898315 11.81340637 -197.44898315 11.81340637 -199.30981445 11.81433105 C-253.22190411 11.88695066 -306.14494794 17.42841481 -356.5625 37.625 Z " fill="#01AAEA" transform="translate(481,41)"/>
<path d="M0 0 C23.47503012 -0.60927559 46.35233605 5.09122334 67.43359375 15.12109375 C68.10084473 15.4341748 68.7680957 15.74725586 69.45556641 16.06982422 C84.70599349 23.33907901 97.73929293 33.83088595 109.80957031 45.54833984 C111.49123903 47.1769192 113.19265805 48.78319484 114.89453125 50.390625 C144.26088338 78.51088589 161.71807413 115.82740379 162.71606445 156.64941406 C162.88663584 171.75399613 160.47877397 186.37014694 157.43359375 201.12109375 C158.16449219 201.10006592 158.89539063 201.07903809 159.6484375 201.05737305 C173.54921844 200.72945049 186.58866867 203.64795276 197.0390625 213.296875 C199.7966128 215.98749446 202.43992215 218.77338841 205.03955078 221.61621094 C206.36307849 223.04497185 207.73903501 224.4246348 209.1171875 225.80078125 C218.755399 235.45524606 223.23857775 247.2917757 223.62109375 260.87109375 C223.38447325 275.1113459 218.6968477 286.60415641 208.78125 296.93359375 C199.73974462 305.35829094 188.47742434 309.94549617 176.12785912 310.43295097 C175.08640413 310.47425861 174.04494914 310.51556624 172.97193491 310.55812562 C171.84491801 310.59686134 170.71790111 310.63559706 169.55673218 310.67550659 C168.3632118 310.71763397 167.16969142 310.75976135 165.94000375 310.80316532 C152.494743 311.2385073 139.05211264 311.26426707 125.60115051 311.25181842 C121.88733248 311.24950765 118.17351866 311.25307149 114.45970154 311.25579834 C107.22460068 311.26019593 99.98951032 311.25930664 92.75440909 311.2563857 C86.86190027 311.25410735 80.96939436 311.25382955 75.07688522 311.25490952 C73.80855208 311.25513936 73.80855208 311.25513936 72.51459604 311.25537386 C70.79569066 311.25569365 69.07678529 311.25601787 67.35787992 311.25634645 C51.31849106 311.25918372 35.27910795 311.25594207 19.23972003 311.25054608 C5.54555266 311.24608128 -8.14860622 311.24685473 -21.84277344 311.25146484 C-37.83010231 311.25684459 -53.81742616 311.2589075 -69.80475581 311.25585258 C-71.5171926 311.25553411 -73.2296294 311.25521973 -74.94206619 311.25490952 C-76.20516332 311.2546781 -76.20516332 311.2546781 -77.49377757 311.25444201 C-83.36250513 311.25358689 -89.23122945 311.25501785 -95.09995651 311.25738907 C-102.27603775 311.26022539 -109.45210809 311.2593696 -116.62818812 311.25410832 C-120.27340415 311.25152183 -123.91860217 311.25037763 -127.56381798 311.25375748 C-141.84594853 311.26575768 -156.11734369 311.15987658 -170.39321899 310.72238159 C-172.16224644 310.67370428 -172.16224644 310.67370428 -173.96701181 310.62404358 C-197.55980678 309.80069738 -219.59292897 301.55023123 -237.56640625 286.12109375 C-238.69103352 285.22479254 -239.81597582 284.32888628 -240.94140625 283.43359375 C-243.56640625 281.12109375 -243.56640625 281.12109375 -245.44140625 278.74609375 C-247.27586747 276.4799946 -248.89102456 274.99477994 -251.12890625 273.18359375 C-268.23324451 258.4362779 -278.61472641 236.24961605 -281.56640625 214.12109375 C-283.6708831 185.32274502 -277.73874383 160.79090918 -259.30859375 138.375 C-240.40896325 116.7424961 -214.91527623 105.04041253 -186.50390625 102.37109375 C-178.50924164 101.88286996 -171.99651856 103.33488769 -164.44140625 105.74609375 C-158.50260136 107.56769901 -153.97909532 107.91145741 -147.94140625 105.93359375 C-141.66636673 102.56366512 -138.10051893 99.03424802 -134.69140625 92.80859375 C-134.35608887 92.20466797 -134.02077148 91.60074219 -133.67529297 90.97851562 C-131.5429801 87.0900048 -129.58596258 83.13003352 -127.66381836 79.13452148 C-121.45974877 66.28868621 -113.44809295 55.41797737 -103.56640625 45.12109375 C-102.74785156 44.239375 -101.92929687 43.35765625 -101.0859375 42.44921875 C-74.72165342 14.87770748 -37.5246772 1.77057077 0 0 Z " fill="#01A9EA" transform="translate(549.56640625,499.87890625)"/>
<path d="M0 0 C1.05993164 0.00491455 2.11986328 0.0098291 3.21191406 0.01489258 C10.55589031 0.125154 17.20366843 0.69870409 24.125 3.3125 C25.12273437 3.67601562 26.12046875 4.03953125 27.1484375 4.4140625 C46.65267145 12.02906568 58.8875491 24.36410521 67.4296875 43.1875 C76.01802072 64.7523659 73.88643925 90.41561227 64.99121094 111.42480469 C61.78416216 118.41378471 57.22288752 124.59668672 52.125 130.3125 C57.24144393 136.49982755 62.81332048 142.14984871 68.5 147.8125 C69.4075 148.72386719 70.315 149.63523437 71.25 150.57421875 C75.87391453 155.19147058 80.53425925 159.66997967 85.55322266 163.85742188 C87.125 165.3125 87.125 165.3125 89.125 168.3125 C81.40751485 168.67033944 73.69219597 168.91377724 65.96826172 169.08154297 C63.34700622 169.15153343 60.72628912 169.24676837 58.10693359 169.36865234 C35.16238286 170.40880531 35.16238286 170.40880531 28.30175781 165.27441406 C24.71202986 161.99016238 21.8319045 158.33897706 19.125 154.3125 C18.12529773 152.97894342 17.12547015 151.64548059 16.125 150.3125 C15.15949219 150.47363281 14.19398438 150.63476562 13.19921875 150.80078125 C-7.40172726 153.72455279 -28.45692522 149.99024745 -45.875 138.3125 C-61.02909289 126.22734919 -71.83941707 109.69066149 -74.5625 90.1875 C-76.692025 64.36134577 -71.60952094 41.8691023 -54.75390625 21.78515625 C-40.46008015 6.442242 -20.49071432 -0.11238945 0 0 Z " fill="#FDFEFE" transform="translate(277.875,310.6875)"/>
<path d="M0 0 C16.13562923 13.11019875 25.23000066 29.30512671 28 50 C28.26911448 54.63458201 28.27044333 59.25604591 28.25396729 63.8974762 C28.25627623 65.27340307 28.25945565 66.64932871 28.26342177 68.02525181 C28.27171875 71.77785098 28.26766789 75.53034755 28.26144934 79.28294694 C28.25690488 83.34093101 28.26391843 87.39889803 28.26940918 91.45687866 C28.27828337 99.39500417 28.27639005 107.33309176 28.2705839 115.27121872 C28.26605995 121.72443988 28.26545767 128.17765044 28.26763153 134.63087273 C28.267938 135.5506904 28.26824446 136.47050808 28.26856022 137.41819901 C28.26919969 139.28700583 28.26984812 141.15581264 28.2705054 143.02461945 C28.27620283 160.53124448 28.26965985 178.03784854 28.25890467 195.54447012 C28.2499682 210.55529201 28.25152313 225.56608297 28.26074219 240.5769043 C28.27145262 258.02411293 28.27565513 275.47130321 28.26951766 292.91851467 C28.26888059 294.77999079 28.26825184 296.64146691 28.26763153 298.50294304 C28.26732298 299.41873977 28.26701443 300.33453651 28.26669653 301.27808465 C28.26497202 307.72161927 28.26787939 314.1651422 28.27259064 320.608675 C28.27820799 328.46385546 28.27666499 336.31899597 28.26602915 344.17417187 C28.26078418 348.17946155 28.25869565 352.18468469 28.26532745 356.18997383 C28.2713133 359.86072691 28.2679686 363.53135213 28.25737235 367.20209371 C28.25410137 369.14967023 28.26058563 371.09725571 28.26748681 373.04482275 C28.1867595 391.20245086 28.1867595 391.20245086 23.125 396.4375 C16.22203749 401.53305103 6.22003653 402.20736373 -2.02856445 403.73535156 C-51.81761526 413.0155941 -91.96167616 440.55122241 -120.61669922 481.94384766 C-122.45998683 484.6837291 -124.16932864 487.48497768 -125.875 490.3125 C-129.07023523 495.40612683 -132.19780645 498.92568629 -138.11694336 500.59814453 C-144.82283638 501.94671447 -151.42952454 502.43261502 -158.25 502.8125 C-176.25672052 504.02851162 -193.44587017 507.74217345 -210 515 C-210.65129883 515.28182129 -211.30259766 515.56364258 -211.97363281 515.85400391 C-242.5952429 529.37319841 -264.15221945 554.28995498 -276.484375 584.95410156 C-279.88342802 593.75955652 -282.18057915 602.7487855 -284 612 C-284.32291016 613.63582031 -284.32291016 613.63582031 -284.65234375 615.3046875 C-286.15194546 624.25851377 -286.35753601 633.22890912 -286.4831543 642.29492188 C-286.61709487 647.87447855 -286.72801885 652.2407547 -290 657 C-298.79094035 661.39547017 -314.74444951 657.27856862 -324.1875 655.9375 C-324.97802765 655.82773834 -325.7685553 655.71797668 -326.58303833 655.60488892 C-386.34772783 647.26485098 -452.46010056 633.20490681 -498 591 C-497.67 590.34 -497.34 589.68 -497 589 C-496.43796875 589.44988281 -495.8759375 589.89976562 -495.296875 590.36328125 C-454.57296801 621.5308113 -400.41335653 633.73364583 -350.81933594 641.5546875 C-348.15157575 641.9760587 -345.48595347 642.4092126 -342.8203125 642.84375 C-333.92892127 644.26633779 -325.0222139 645.41224167 -316.0625 646.3125 C-315.13228027 646.41320801 -314.20206055 646.51391602 -313.24365234 646.61767578 C-306.80806737 647.36078387 -306.80806737 647.36078387 -301 645 C-297.95841282 639.4698415 -298.70969398 632.64568765 -298.625 626.5 C-297.62459933 589.04671255 -284.62354022 552.93334385 -257.40478516 526.44775391 C-231.42117672 502.29921309 -196.10621017 490.65785102 -161.0546875 490.55395508 C-153.94572233 490.42584873 -147.58980907 489.19741601 -142.13500977 484.33886719 C-137.6933883 479.67450954 -134.34555987 474.08513304 -130.83447266 468.71289062 C-124.4829225 459.05949492 -116.86509455 450.44321261 -109 442 C-107.91525391 440.81664062 -107.91525391 440.81664062 -106.80859375 439.609375 C-86.06559141 417.84852652 -57.85807529 402.80775512 -29 395 C-28.08992188 394.73703125 -27.17984375 394.4740625 -26.2421875 394.203125 C-21.55216453 392.92284018 -16.89596769 391.95601517 -12.08203125 391.2890625 C-11.20426025 391.16732666 -10.32648926 391.04559082 -9.42211914 390.92016602 C-7.68487459 390.68763397 -5.94574941 390.4686129 -4.20483398 390.26538086 C2.58854528 389.3745009 8.3169984 387.89818993 13.07908821 382.75415993 C16.37371252 377.63785122 15.56149659 371.385246 15.53244019 365.5274353 C15.53975057 364.13661684 15.54880401 362.74580663 15.55944741 361.35500968 C15.58358666 357.53790503 15.58290062 353.72114744 15.57812357 349.90398431 C15.57729565 345.78515602 15.59943604 341.66644287 15.61869812 337.54766846 C15.65277917 329.47918014 15.66558184 321.41079105 15.67118792 313.34223811 C15.67848796 303.94130995 15.70658839 294.54047853 15.73549272 285.13959618 C15.78635334 268.35886627 15.81794129 251.57815482 15.83886719 234.79736328 C15.8591713 218.5264724 15.89349234 202.2556908 15.94335938 185.98486328 C15.94642628 184.98361996 15.94949319 183.98237663 15.95265304 182.9507926 C15.95571543 181.95125777 15.95877782 180.95172295 15.96193302 179.9218992 C16.01859302 161.38854438 16.06183415 142.85517882 16.09897985 124.32177531 C16.11241146 117.775037 16.12982976 111.22831617 16.14852524 104.68159103 C16.17107436 96.69424477 16.18589442 88.70692484 16.19122534 80.71954791 C16.19408617 76.64720143 16.20006402 72.57492755 16.21486855 68.50260544 C16.22833153 64.76803378 16.23226849 61.03357276 16.22887911 57.29897948 C16.22943702 55.32181173 16.23981067 53.3446541 16.25063789 51.36751592 C16.20990263 34.91707281 12.96084305 20.03377988 3.55078125 6.3046875 C2.17076951 4.25378844 1.04558492 2.23538846 0 0 Z " fill="#0180B0" transform="translate(530,76)"/>
<path d="M0 0 C0 12.21 0 24.42 0 37 C-3.29212368 36.34157526 -5.76916653 35.81531185 -8.77734375 34.625 C-9.45603516 34.36203125 -10.13472656 34.0990625 -10.83398438 33.828125 C-12.23294669 33.27737289 -13.63138801 32.7252955 -15.02929688 32.171875 C-24.31074204 28.58246303 -36.85126949 26.42284042 -46.3125 30.375 C-49.0332743 31.87379219 -49.0332743 31.87379219 -51 34 C-51.41141659 39.64742566 -51.41141659 39.64742566 -50 45 C-48.34709398 45.70008849 -46.67734468 46.36067453 -45 47 C-43.24134863 47.85747908 -41.49196426 48.73410971 -39.75 49.625 C-36.13970269 51.45908445 -32.51854989 53.23370187 -28.82421875 54.890625 C-13.0749752 61.98078143 0.39365082 70.26573535 7 87 C10.0424206 98.64310962 8.59948095 110.46730545 3 121 C-4.94636078 133.91530101 -16.92488309 139.642548 -31 144 C-51.98391394 148.56294505 -78.42095783 147.78952108 -98 138 C-98 124.8 -98 111.6 -98 98 C-95.51963221 99.2401839 -93.05078071 100.50406817 -90.6015625 101.8046875 C-77.74341018 108.55741308 -64.88012287 113.98273306 -50 112 C-47.05441127 110.82070684 -45.24514841 109.24514841 -43 107 C-42.68391655 105.03792276 -42.68391655 105.03792276 -42.625 102.75 C-42.57601562 101.98171875 -42.52703125 101.2134375 -42.4765625 100.421875 C-43.27783326 96.71450281 -45.08358726 95.37408891 -48 93 C-50.73050151 91.49665819 -53.55604983 90.30762564 -56.4375 89.125 C-58.05166325 88.43043158 -59.66493618 87.73379071 -61.27734375 87.03515625 C-62.47399658 86.52106201 -62.47399658 86.52106201 -63.69482422 85.99658203 C-78.80232685 79.46525119 -90.65025242 71.7873625 -97.6328125 56.40234375 C-99.45973005 51.34847948 -99.47778577 46.45004609 -99.4375 41.125 C-99.45748047 40.19558594 -99.47746094 39.26617187 -99.49804688 38.30859375 C-99.49043552 27.39390411 -95.42531035 18.88050178 -88 11 C-64.33901028 -11.36892203 -29.14078842 -7.28519711 0 0 Z " fill="#FCFEFE" transform="translate(186,316)"/>
<path d="M0 0 C14.52 0 29.04 0 44 0 C44 36.96 44 73.92 44 112 C60.5 112 77 112 94 112 C94 123.22 94 134.44 94 146 C62.98 146 31.96 146 0 146 C0 97.82 0 49.64 0 0 Z " fill="#FDFEFE" transform="translate(371,313)"/>
<path d="M0 0 C11.84659767 7.56951435 17.82788995 19.14196209 20.8125 32.6875 C21.71455401 48.62378756 19.4019586 61.88104215 8.6875 74.375 C-0.76430342 84.22128604 -12.60314536 89.77099664 -26.30573463 90.31185722 C-27.86791711 90.37381867 -27.86791711 90.37381867 -29.46165884 90.43703187 C-30.58867574 90.47576759 -31.71569264 90.51450331 -32.87686157 90.55441284 C-34.07038195 90.59654022 -35.26390233 90.6386676 -36.49359 90.68207157 C-49.93885075 91.11741355 -63.38148111 91.14317332 -76.83244324 91.13072467 C-80.54626127 91.1284139 -84.26007509 91.13197774 -87.97389221 91.13470459 C-95.20899307 91.13910218 -102.44408343 91.13821289 -109.67918466 91.13529195 C-115.57169348 91.1330136 -121.46419939 91.1327358 -127.35670853 91.13381577 C-128.62504167 91.13404561 -128.62504167 91.13404561 -129.91899771 91.13428011 C-131.63790309 91.1345999 -133.35680846 91.13492412 -135.07571383 91.1352527 C-151.11510269 91.13808997 -167.1544858 91.13484832 -183.19387372 91.12945233 C-196.88804109 91.12498753 -210.58219997 91.12576098 -224.27636719 91.13037109 C-240.26369606 91.13575084 -256.25101991 91.13781375 -272.23834956 91.13475883 C-273.95078635 91.13444036 -275.66322315 91.13412598 -277.37565994 91.13381577 C-278.63875707 91.13358435 -278.63875707 91.13358435 -279.92737132 91.13334826 C-285.79609888 91.13249314 -291.6648232 91.1339241 -297.53355026 91.13629532 C-304.7096315 91.13913164 -311.88570184 91.13827585 -319.06178187 91.13301457 C-322.7069979 91.13042808 -326.35219592 91.12928388 -329.99741173 91.13266373 C-344.27954228 91.14466393 -358.55093744 91.03878283 -372.82681274 90.60128784 C-374.59584019 90.55261053 -374.59584019 90.55261053 -376.40060556 90.50294983 C-400.00217899 89.67929728 -422.01337638 81.42174408 -440 66 C-441.1873139 65.06226433 -442.3747839 64.12472621 -443.5625 63.1875 C-446 61 -446 61 -447 58 C-446.34 58 -445.68 58 -445 58 C-445 58.66 -445 59.32 -445 60 C-443.96166016 60.37705078 -443.96166016 60.37705078 -442.90234375 60.76171875 C-439.58560349 62.17680174 -436.64819014 63.94681683 -433.5625 65.8125 C-412.99644687 77.79106712 -390.10643628 79.16881956 -366.78886414 79.12698364 C-365.4153382 79.12813922 -364.04181257 79.12972965 -362.66828758 79.13171089 C-358.93600626 79.13584444 -355.20375087 79.13384085 -351.47146952 79.13072467 C-347.42976949 79.12844613 -343.38807368 79.13196236 -339.34637451 79.13470459 C-331.4444208 79.13913551 -323.54247663 79.13819766 -315.64052256 79.13529195 C-309.21270265 79.13302689 -302.7848854 79.13273017 -296.3570652 79.13381577 C-295.43967506 79.133969 -294.52228491 79.13412223 -293.57709507 79.13428011 C-291.71297297 79.13459986 -289.84885088 79.13492407 -287.98472879 79.1352527 C-270.53129651 79.13809977 -253.0778695 79.13483284 -235.62443808 79.12945233 C-220.67841507 79.12498724 -205.73239983 79.1257593 -190.78637695 79.13037109 C-173.39694793 79.13573439 -156.00752352 79.1378228 -138.61809379 79.13475883 C-136.76018989 79.13444031 -134.90228599 79.13412594 -133.0443821 79.13381577 C-131.67349192 79.13358435 -131.67349192 79.13358435 -130.27490699 79.13334826 C-123.86318339 79.1324882 -117.45146275 79.133935 -111.03973961 79.13629532 C-103.21375541 79.13911313 -95.38778124 79.13831359 -87.56179818 79.13301457 C-83.57588976 79.13040382 -79.58999799 79.12932743 -75.60408974 79.13266373 C-36.48966361 80.84089201 -36.48966361 80.84089201 -3.1328125 63.17578125 C5.35425715 53.78089072 8.57809896 43.28436304 8.5 30.75 C8.49718018 29.74090576 8.49436035 28.73181152 8.49145508 27.69213867 C8.2999229 18.82683336 6.80941661 11.04056296 1.33203125 3.79296875 C0 2 0 2 0 0 Z " fill="#0180B0" transform="translate(752,720)"/>
<path d="M0 0 C0.66635719 0.00026688 1.33271439 0.00053375 2.01926422 0.00080872 C21.65435036 0.01068244 41.21063188 0.02612966 60.75 2.1875 C62.58087158 2.38883545 62.58087158 2.38883545 64.44873047 2.59423828 C86.5182733 5.11527524 108.49743018 8.60991684 129.75 15.1875 C131.18263637 15.59711341 132.61629958 16.00314648 134.05078125 16.40625 C140.72933084 18.29372912 147.25484871 20.13868181 153.5234375 23.1640625 C156.33698524 24.45730725 159.21893521 25.49399374 162.125 26.5625 C171.63908267 30.18319891 181.85809342 34.50469031 187.75 43.1875 C187.42 43.8475 187.09 44.5075 186.75 45.1875 C185.72132813 44.60355469 185.72132813 44.60355469 184.671875 44.0078125 C146.52620942 23.61961193 100.45988098 15.95533518 57.75 13.1875 C56.53119141 13.10137451 55.31238281 13.01524902 54.05664062 12.92651367 C40.41993612 12.02169959 26.7871447 11.9874574 13.125 12 C11.30101685 12.00090637 11.30101685 12.00090637 9.44018555 12.00183105 C-44.47190411 12.07445066 -97.39494794 17.61591481 -147.8125 37.8125 C-148.92447754 38.25553467 -150.03645508 38.69856934 -151.18212891 39.1550293 C-161.23116066 43.30925328 -171.32573159 48.33896318 -176.39453125 58.4765625 C-178.86547913 66.30687222 -177.71738924 75.47690864 -175.25 83.1875 C-182.17662642 78.64995813 -186.88068349 74.3044196 -189.06640625 66.13671875 C-190.58627613 58.00206925 -191.27710397 50.62593349 -186.45703125 43.55859375 C-160.9900179 13.31369825 -101.69083162 7.06027081 -64.6875 2.9375 C-63.94944122 2.85450653 -63.21138245 2.77151306 -62.45095825 2.68600464 C-41.62927703 0.37564536 -20.94372308 -0.01741843 0 0 Z " fill="#0180B0" transform="translate(272.25,41.8125)"/>
<path d="M0 0 C7.12174011 4.25200939 11.22055867 11.08364589 13.6171875 18.859375 C14.97086211 24.44711392 14.93064298 30.02781498 14.9375 35.75 C14.96199219 36.81412109 14.98648438 37.87824219 15.01171875 38.97460938 C15.05214822 50.01859216 12.05083896 59.21005226 4.5625 67.4375 C-1.10404876 72.82072133 -6.92212317 73.9852196 -14.55859375 73.80859375 C-21.21034119 72.95117719 -26.59672641 69.95896336 -30.8125 64.75 C-38.89667214 52.63519246 -40.05160671 38.05974635 -37.90625 23.94140625 C-35.5713688 13.98009245 -32.23059468 6.2265481 -23.4375 0.4375 C-16.22262458 -2.51941616 -7.25688396 -3.25790744 0 0 Z " fill="#03AAEB" transform="translate(288.4375,350.5625)"/>
<path d="M0 0 C28.11715591 22.61597323 44.76702708 58.66805373 48.62109375 94.08203125 C50.30852174 113.45209935 47.91196874 132.05030292 44 151 C41.703125 151.6171875 41.703125 151.6171875 39 152 C36.42096386 150.51209453 34.11387131 149.11387131 32 147 C31.53725301 140.17448186 32.70650786 134.22811663 34.19921875 127.578125 C42.28699318 91.43958167 34.55039925 52.30944234 15 21 C8.77966694 11.71246452 8.77966694 11.71246452 1.33740234 3.42529297 C0 2 0 2 0 0 Z " fill="#0180B0" transform="translate(663,550)"/>
</svg>
