<?xml version="1.0" encoding="UTF-8"?>
<svg version="1.1" xmlns="http://www.w3.org/2000/svg" width="512" height="512">
<path d="M0 0 C0.61875 -0.0103125 1.2375 -0.020625 1.875 -0.03125 C6.44338136 1.11084534 9.02191192 3.06185911 11.63085938 6.89794922 C13.41163255 9.9589793 15.09280428 13.05785648 16.75 16.1875 C17.99468874 18.47472349 19.2407853 20.76118141 20.48828125 23.046875 C21.39247803 24.7165332 21.39247803 24.7165332 22.31494141 26.41992188 C24.44248457 30.30880691 26.6655264 34.13175135 28.9375 37.9375 C32.92152861 44.64917256 36.85055178 51.39180686 40.75393677 58.15066528 C41.71767788 59.81904556 42.68290989 61.48656435 43.64819336 63.15405273 C46.60060003 68.27022294 49.53086893 73.39869256 52.40625 78.55859375 C52.88900391 79.42282959 53.37175781 80.28706543 53.86914062 81.17749023 C55.54790083 84.62525489 55.84864883 86.751801 55 90.5 C53.29561878 93.42708948 51.19881301 95.93159928 49 98.5 C28.75906292 122.3643147 21.53645387 149.48226419 23 180.5 C23.47957362 185.63369073 24.60085864 190.54094656 26 195.5 C26.3403125 196.72589844 26.680625 197.95179688 27.03125 199.21484375 C32.40623102 216.81064311 42.00231728 230.70266487 54 244.5 C55.52046485 247.54092971 55.56410127 250.21617848 55 253.5 C53.50967536 257.13182039 51.58503757 260.4784297 49.625 263.875 C49.07626221 264.85178711 48.52752441 265.82857422 47.9621582 266.83496094 C46.32603986 269.73402703 44.6684293 272.6194288 43 275.5 C42.5683252 276.24604492 42.13665039 276.99208984 41.69189453 277.76074219 C39.73607549 281.12574773 37.7567087 284.47607656 35.765625 287.8203125 C32.93633428 292.58443207 30.17465474 297.38671632 27.4128418 302.19018555 C24.85420471 306.63926046 22.2847875 311.08206916 19.71533203 315.52490234 C18.20585946 318.14295426 16.70875015 320.76758415 15.21484375 323.39453125 C14.43560478 324.74259755 13.6557247 326.09029361 12.875 327.4375 C12.23304688 328.56027344 11.59109375 329.68304688 10.9296875 330.83984375 C7.91962077 334.98934869 5.25486537 336.29085577 0.25 337.125 C-5.48871833 336.84714772 -8.91883168 333.20560068 -13 329.5 C-14.03638458 328.58324995 -15.07284741 327.66658835 -16.109375 326.75 C-33.03120834 311.60809283 -46.56033102 294.05798454 -58 274.5 C-58.35545898 273.89365723 -58.71091797 273.28731445 -59.07714844 272.66259766 C-63.48843459 265.0308655 -67.11986033 257.16488898 -70.4375 249 C-70.77990723 248.16307617 -71.12231445 247.32615234 -71.47509766 246.46386719 C-75.92091758 235.1805891 -75.92091758 235.1805891 -73.94921875 229.44140625 C-71.6081472 225.90868706 -68.912116 223.29639926 -65.8125 220.4375 C-51.51791489 206.63329857 -44.22107812 188.58132017 -43.6875 168.75 C-44.08353646 147.41062355 -52.22151194 129.84306907 -67.375 115.125 C-68.16124756 114.39289307 -68.16124756 114.39289307 -68.96337891 113.64599609 C-71.95981898 110.80587504 -74.07775601 108.57017014 -75 104.5 C-74.71026995 98.64886627 -72.748077 93.61220828 -70.5625 88.25 C-70.20760498 87.37738525 -69.85270996 86.50477051 -69.48706055 85.60571289 C-60.39366959 63.74338196 -47.81691587 44.09991366 -32 26.5 C-31.08583038 25.46363615 -30.17176865 24.42717711 -29.2578125 23.390625 C-8.30235694 -0.13837262 -8.30235694 -0.13837262 0 0 Z " fill="#FF5621" transform="translate(172,87.5)"/>
<path d="M0 0 C3.86758101 3.75126278 3.83992849 8.41642068 4.4375 13.5 C5.49582926 21.37176544 6.92248393 28.62957202 10 36 C10.50273437 37.23169922 10.50273437 37.23169922 11.015625 38.48828125 C18.9360139 55.97449195 33.50425467 68.60619915 51 76 C70.52636454 83.20142149 90.34663878 82.09676909 109.20898438 73.84082031 C112.79518762 72.15722108 116.21012257 70.19497156 119.5703125 68.1015625 C122.688126 66.68802005 124.60346007 66.54194245 128 67 C133.03122619 69.64253277 136.24843399 73.23034883 139.6875 77.625 C140.20223877 78.27742676 140.71697754 78.92985352 141.24731445 79.60205078 C147.19381756 87.31186166 152.17925794 95.55448744 157 104 C157.40347656 104.69851074 157.80695313 105.39702148 158.22265625 106.11669922 C169.21418598 125.31106611 186.39629786 159.19148435 182 182 C180.26866619 185.06362413 178.19538404 187.40230798 175 189 C172.03636664 189.10914536 169.09587562 189.1573383 166.1315918 189.16113281 C165.212742 189.16609772 164.29389221 189.17106262 163.34719849 189.17617798 C160.29786437 189.1908206 157.24858229 189.19760535 154.19921875 189.203125 C152.08413186 189.20887504 149.96904498 189.21463279 147.85395813 189.22039795 C143.41443641 189.23091413 138.97493282 189.23675265 134.53540039 189.24023438 C128.84563485 189.24571819 123.15610873 189.26974133 117.46641827 189.29820633 C113.09553832 189.31682756 108.72471608 189.32203805 104.35379982 189.32357025 C102.25623072 189.32659883 100.15866268 189.33463424 98.06113243 189.34775543 C95.12610026 189.36480381 92.19165335 189.36293846 89.2565918 189.35644531 C88.38939011 189.3656601 87.52218842 189.37487488 86.62870789 189.3843689 C81.93166042 189.35180612 78.80845089 189.06512163 75 186 C73.74902344 183.89379883 73.74902344 183.89379883 72.859375 181.45703125 C72.51616211 180.55605713 72.17294922 179.65508301 71.81933594 178.72680664 C71.46645508 177.76508545 71.11357422 176.80336426 70.75 175.8125 C60.24792501 148.92009321 43.54212105 126.66920326 16.578125 114.44921875 C2.0997781 108.27768291 -12.39586218 104.80222818 -28.1875 104.8125 C-29.21254639 104.81185547 -30.23759277 104.81121094 -31.29370117 104.81054688 C-37.51641724 104.85404509 -43.38302538 105.31610186 -49.49609375 106.53515625 C-52.13926083 107.02585341 -54.68977817 107.30699585 -57.375 107.4375 C-58.12523437 107.47746094 -58.87546875 107.51742187 -59.6484375 107.55859375 C-64.20741884 106.47564635 -66.9347444 103.57984021 -69.47021484 99.81958008 C-71.0455076 97.14053394 -72.53207831 94.4268409 -74 91.6875 C-75.14678804 89.60325825 -76.29527959 87.51995307 -77.4453125 85.4375 C-78.0321582 84.36886719 -78.61900391 83.30023438 -79.22363281 82.19921875 C-82.02797579 77.14862634 -84.94908688 72.16834135 -87.875 67.1875 C-91.65226844 60.7402778 -95.41876062 54.28736477 -99.1484375 47.8125 C-99.49232513 47.21552811 -99.83621277 46.61855621 -100.19052124 46.00349426 C-101.86287815 43.09922164 -103.53347503 40.19395289 -105.20263672 37.2878418 C-105.80092285 36.24797119 -106.39920898 35.20810059 -107.015625 34.13671875 C-107.80888184 32.75552856 -107.80888184 32.75552856 -108.61816406 31.34643555 C-109.68824811 29.52937233 -110.83027964 27.75458054 -112 26 C-113.14937672 22.10980188 -113.07075979 20.21972777 -111.8125 16.3125 C-108.30911442 9.90976083 -102.85709007 8.6939334 -96.25 6.625 C-95.2813501 6.32118408 -94.3127002 6.01736816 -93.31469727 5.7043457 C-71.36482173 -0.97758145 -20.85957403 -14.82127629 0 0 Z " fill="#FF5621" transform="translate(329,46)"/>
<path d="M0 0 C0.91768158 -0.00846954 1.83536316 -0.01693909 2.78085327 -0.02566528 C5.80920332 -0.04903167 8.8370452 -0.05005754 11.86547852 -0.04882812 C13.97388411 -0.05592968 16.08228776 -0.06362867 18.19068909 -0.07189941 C22.60813775 -0.08534324 27.0254077 -0.08691328 31.44287109 -0.08105469 C37.10017919 -0.07515742 42.75662947 -0.10575225 48.41377163 -0.14617157 C52.76756907 -0.172036 57.12115959 -0.17492713 61.47502327 -0.17127991 C63.56061014 -0.17297219 65.64620646 -0.18262505 67.73171806 -0.20042419 C70.6498526 -0.22258975 73.5662458 -0.21292413 76.484375 -0.1953125 C77.77271492 -0.21520737 77.77271492 -0.21520737 79.08708191 -0.23550415 C83.30053126 -0.17649656 85.98838092 0.13768608 89.32704163 2.83337402 C92.88276747 6.54209853 93.06321155 8.62849693 92.9987793 13.75341797 C92.6428206 18.69970406 91.44263659 23.43197203 90.24438477 28.23242188 C89.97335937 29.32973633 89.70233398 30.42705078 89.4230957 31.55761719 C81.79669053 61.60129564 68.43554224 89.36790496 48.80688477 113.41992188 C48.21907227 114.17273438 47.63125977 114.92554688 47.02563477 115.70117188 C44.2956025 119.09978348 42.17221034 121.56815103 37.80688477 122.41992188 C32.07723005 122.00564537 28.16019272 120.30776595 23.24438477 117.60742188 C4.15893629 107.66145273 -15.21901771 106.27839272 -35.81811523 112.54492188 C-55.56686143 119.61571514 -69.85103052 133.42414247 -78.84155273 152.15039062 C-82.57274723 161.17643048 -84.35359574 170.18463774 -84.92749023 179.88867188 C-85.3940267 184.33448995 -86.91414738 187.26085726 -90.19311523 190.23242188 C-110.07103579 202.03493721 -151.22595135 192.00412975 -172.03295898 186.81054688 C-177.15121192 185.46318102 -182.21831535 183.98120666 -187.25561523 182.35742188 C-187.98780273 182.12434326 -188.71999023 181.89126465 -189.47436523 181.65112305 C-194.25520758 180.02267686 -198.83877194 178.12860847 -201.19311523 173.41992188 C-202.15716632 164.97178998 -199.34891414 160.00238881 -195.06811523 152.85742188 C-194.43502441 151.76534424 -193.80193359 150.6732666 -193.1496582 149.5480957 C-191.18164552 146.16144748 -189.18850844 142.79049173 -187.19311523 139.41992188 C-186.02964033 137.42630571 -184.8681004 135.43155871 -183.70874023 133.43554688 C-182.01386112 130.51840386 -180.31579883 127.60348551 -178.60473633 124.69580078 C-175.32575146 119.12088519 -172.11429269 113.51485654 -168.96655273 107.86523438 C-167.89202564 105.94702128 -166.81675642 104.02922564 -165.74139404 102.11148071 C-165.05067078 100.8733467 -164.364237 99.63280847 -163.68243408 98.38973999 C-156.80620858 85.85619232 -156.80620858 85.85619232 -151.19311523 82.41992188 C-148.84155273 81.86132812 -148.84155273 81.86132812 -146.56811523 81.98242188 C-145.6928418 82.02496094 -144.81756836 82.0675 -143.91577148 82.11132812 C-141.23573981 82.41509068 -138.64995053 82.89259446 -136.00561523 83.41992188 C-109.76291737 88.12667672 -81.20434605 82.32640854 -59.10327148 67.32226562 C-56.0693985 65.09181424 -53.1201417 62.78844886 -50.19311523 60.41992188 C-49.41194336 59.80503906 -48.63077148 59.19015625 -47.82592773 58.55664062 C-32.47925425 45.80415572 -22.92377409 27.87714807 -16.6628418 9.21972656 C-16.40986328 8.50461914 -16.15688477 7.78951172 -15.89624023 7.05273438 C-15.68644531 6.42254395 -15.47665039 5.79235352 -15.26049805 5.14306641 C-11.79234613 -0.45579366 -5.82583609 -0.01983142 0 0 Z " fill="#FF5621" transform="translate(418.193115234375,276.580078125)"/>
<path d="M0 0 C10.52392841 9.12286078 19.22368693 20.61366916 20.4465332 35.00952148 C20.95578827 53.49892964 18.10911795 67.70470276 5.08203125 81.67578125 C-5.30727206 91.46940781 -18.37774324 96.82469985 -32.66796875 97.42578125 C-49.3896546 96.74878992 -63.29330109 90.13183414 -74.73046875 77.92578125 C-84.75287434 64.99055414 -87.80969809 50.95433554 -86.73046875 34.92578125 C-84.46626986 19.8439141 -75.93176627 7.02625006 -63.79296875 -1.94921875 C-44.15156685 -14.85122154 -18.83743951 -14.30998624 0 0 Z " fill="#FF5621" transform="translate(87.73046875,213.07421875)"/>
<path d="M0 0 C0.65613281 0.47308594 1.31226563 0.94617188 1.98828125 1.43359375 C11.4484476 8.83811419 18.30452053 21.13164372 20 33 C21.23134478 50.42309509 18.41799636 65.38903983 7.12109375 79.31640625 C-0.87760656 87.83219426 -13.31700349 95.21789522 -25.19140625 96.17700195 C-43.6455941 96.65393782 -58.11162632 93.90070594 -72.125 80.9609375 C-83.51505657 69.04883667 -87.55462581 54.52916334 -87.27734375 38.4296875 C-86.6603891 24.13230064 -79.44745113 11.29483728 -69.265625 1.5859375 C-49.18735206 -15.27128916 -20.78625965 -15.42862666 0 0 Z " fill="#FF5621" transform="translate(440,416)"/>
<path d="M0 0 C1.17175781 0.5259375 1.17175781 0.5259375 2.3671875 1.0625 C15.6982324 7.70495836 24.09232505 19.13496219 29.2734375 32.80859375 C33.33471439 45.0579289 32.21737287 60.34142605 27 72 C25.22865553 75.5227862 23.26373707 78.7734583 21 82 C20.37544922 82.91845703 20.37544922 82.91845703 19.73828125 83.85546875 C11.86042987 94.19367011 -1.35477271 100.9945895 -14 103 C-30.53159941 103.94155878 -44.88754899 101.32790083 -58.0546875 90.484375 C-69.03552536 80.06894614 -75.90449664 66.88215605 -76.421875 51.5871582 C-76.53316735 35.83059551 -71.50823911 21.7771736 -60.484375 10.25390625 C-44.45573024 -4.28780448 -19.93135961 -9.49707417 0 0 Z " fill="#FF5621" transform="translate(429,4)"/>
</svg>
