<?xml version="1.0" encoding="UTF-8"?>
<svg version="1.1" xmlns="http://www.w3.org/2000/svg" width="512" height="512">
<path d="M0 0 C1.55460938 -0.04253906 1.55460938 -0.04253906 3.140625 -0.0859375 C12.75783775 1.14223469 21.7038309 6.66743044 30.3125 10.875 C31.59876592 11.50039589 32.88522779 12.12538892 34.171875 12.75 C36.13636884 13.70375006 38.10073729 14.65774881 40.06448364 15.61303711 C46.11542702 18.5564774 52.18119894 21.46857094 58.25 24.375 C66.92964856 28.53743 75.60509524 32.70850694 84.27539062 36.89038086 C85.52803684 37.49447238 86.78079949 38.09832254 88.03369141 38.7019043 C91.94283258 40.58536099 95.84719191 42.47846205 99.75 44.375 C100.71711914 44.83890137 101.68423828 45.30280273 102.68066406 45.78076172 C104.00469238 46.42489014 104.00469238 46.42489014 105.35546875 47.08203125 C106.49665161 47.63274292 106.49665161 47.63274292 107.66088867 48.19458008 C114.48356914 52.04962975 118.49507143 57.98573532 120.75 65.375 C121.30259635 69.71845635 121.2947896 74.0125069 121.2646637 78.38658142 C121.27160922 79.67761813 121.27855475 80.96865484 121.28571075 82.29881388 C121.30426627 85.86220447 121.29805793 89.42517745 121.28755772 92.98858488 C121.28054542 96.83940604 121.29657899 100.69014316 121.30955505 104.54093933 C121.3311664 112.07697563 121.33107554 119.61286076 121.32292951 127.14891785 C121.31662261 133.27563476 121.31777287 139.40230767 121.32420158 145.52902412 C121.32510324 146.40193164 121.32600489 147.27483915 121.32693387 148.17419841 C121.32878513 149.9476593 121.33064769 151.72112018 121.33252143 153.49458105 C121.34908992 170.11467503 121.3403888 186.73468406 121.32353585 203.35477293 C121.30883985 218.55032321 121.32346756 233.74567574 121.35230602 248.94120055 C121.38171891 264.55606668 121.39266677 280.17084162 121.38312382 295.78573424 C121.3821013 297.55287618 121.38110668 299.32001814 121.3801403 301.08716011 C121.37966391 301.95655694 121.37918752 302.82595378 121.3786967 303.72169597 C121.37653506 309.83812431 121.38632329 315.95446603 121.40091133 322.07087517 C121.41845201 329.52909042 121.4182925 336.98705361 121.39555968 344.44525903 C121.3844331 348.2481402 121.38121846 352.05057757 121.39986038 355.85343933 C121.41983541 359.98146812 121.4008456 364.1084201 121.37818909 368.23643494 C121.39002482 369.43070711 121.40186054 370.62497928 121.41405493 371.85544151 C121.3108605 381.11909607 119.03755933 388.31376532 112.4375 395 C108.82975588 397.88511239 104.90668199 399.92504492 100.7734375 401.94140625 C100.08145767 402.28310349 99.38947784 402.62480072 98.67652893 402.97685242 C96.36988808 404.11410608 94.06009126 405.24477334 91.75 406.375 C90.0957021 407.1876578 88.4414886 408.00048741 86.78735352 408.81347656 C81.42462879 411.44613834 76.05656555 414.0677991 70.6875 416.6875 C69.74144897 417.14932678 68.79539795 417.61115356 67.82067871 418.0869751 C54.57699477 424.55096091 41.32887859 431.00420963 28.00732422 437.30664062 C25.73347919 438.38281906 23.46245598 439.46481268 21.19140625 440.546875 C19.81532684 441.1983872 18.43904014 441.84946182 17.0625 442.5 C15.92425781 443.03882813 14.78601563 443.57765625 13.61328125 444.1328125 C6.32109516 447.29640756 -1.84385489 447.7828171 -9.453125 445.3515625 C-15.80066844 442.40565131 -20.44259014 438.6867156 -25.1875 433.5859375 C-27.04262118 431.59730381 -28.93448437 429.8267946 -31 428.0625 C-34.61917048 424.95520423 -38.12795835 421.74299602 -41.625 418.5 C-45.47596612 414.93063715 -49.33877607 411.37853935 -53.25 407.875 C-57.11662567 404.41010167 -60.94013786 400.90195432 -64.75 397.375 C-69.37619807 393.09272721 -74.03678675 388.85292141 -78.73046875 384.64453125 C-84.12037666 379.78943591 -89.44951805 374.86720458 -94.79101562 369.95898438 C-99.92473745 365.24274437 -105.06247157 360.53217409 -110.25 355.875 C-116.47569011 350.28580217 -122.63053078 344.61975942 -128.79101562 338.95898438 C-133.92473745 334.24274437 -139.06247157 329.53217409 -144.25 324.875 C-150.47569011 319.28580217 -156.63053078 313.61975942 -162.79101562 307.95898438 C-168.7159914 302.51583636 -174.66027713 297.09639626 -180.6484375 291.72265625 C-185.54417333 287.30473247 -190.39517002 282.83777327 -195.25 278.375 C-200.76596936 281.9196885 -205.92738515 285.88262917 -211.125 289.875 C-213.01785774 291.3234022 -214.91108994 292.77131515 -216.8046875 294.21875 C-217.7337793 294.92902344 -218.66287109 295.63929688 -219.62011719 296.37109375 C-223.14827799 299.05946581 -226.69600552 301.72092621 -230.25 304.375 C-235.55160008 308.33568334 -240.82409389 312.33258921 -246.08203125 316.35107422 C-253.27935691 321.85074742 -260.47904078 327.34785227 -267.75 332.75 C-268.63860718 333.41914429 -268.63860718 333.41914429 -269.54516602 334.10180664 C-274.31523875 337.61934387 -278.2172978 339.6592052 -284.1875 339.6875 C-285.00089844 339.70425781 -285.81429687 339.72101563 -286.65234375 339.73828125 C-292.05958317 338.98208085 -295.911843 336.08037445 -299.8125 332.4375 C-301.08867187 331.25800781 -301.08867187 331.25800781 -302.390625 330.0546875 C-303.33421875 329.17039062 -304.2778125 328.28609375 -305.25 327.375 C-306.94649273 325.79853262 -308.64528654 324.22459773 -310.34545898 322.65209961 C-311.46437047 321.61623544 -312.58117949 320.57809415 -313.69555664 319.53735352 C-316.0730079 317.32732321 -318.43613416 315.22937583 -320.99609375 313.2265625 C-325.08509185 309.86748954 -326.8338726 306.00978623 -328.125 300.9375 C-328.35472578 294.39031519 -327.28824467 290.23145671 -323.0625 285.3125 C-321.8074778 283.98487321 -320.53659402 282.67205414 -319.25 281.375 C-318.67765625 280.776875 -318.1053125 280.17875 -317.515625 279.5625 C-314.03954357 275.99074661 -310.37296164 272.69587617 -306.6015625 269.44140625 C-303.68994638 266.88285986 -300.84369656 264.25856296 -298 261.625 C-297.44449463 261.11066406 -296.88898926 260.59632813 -296.31665039 260.06640625 C-295.18480431 259.01816522 -294.05304999 257.96982511 -292.92138672 256.92138672 C-285.94650626 250.468145 -278.92372052 244.06916939 -271.8515625 237.72265625 C-266.95582667 233.30473247 -262.10482998 228.83777327 -257.25 224.375 C-258.65678806 221.14951847 -260.31278555 219.11883125 -262.8828125 216.73046875 C-263.60726562 216.05306641 -264.33171875 215.37566406 -265.078125 214.67773438 C-265.83609375 213.97970703 -266.5940625 213.28167969 -267.375 212.5625 C-268.10976563 211.87607422 -268.84453125 211.18964844 -269.6015625 210.48242188 C-273.79575597 206.57990208 -278.05971011 202.77014451 -282.38330078 199.01196289 C-285.179327 196.5600461 -287.90347035 194.03395555 -290.625 191.5 C-294.47523355 187.92986427 -298.33879474 184.37852262 -302.25 180.875 C-308.30560394 175.43287228 -314.34630686 169.98216061 -320.25 164.375 C-320.93964844 163.7253125 -321.62929688 163.075625 -322.33984375 162.40625 C-326.53581305 158.0563943 -328.13001386 153.4204553 -328.25 147.375 C-326.80804621 138.87151552 -322.07200424 133.94303071 -315.72265625 128.53125 C-313.24692468 126.3723182 -310.84739592 124.14909443 -308.45043945 121.90380859 C-292.43376788 106.9150555 -292.43376788 106.9150555 -281.8515625 107.11328125 C-273.31999844 107.97156172 -266.81434897 114.62725696 -260.33886719 119.73974609 C-256.15476977 123.01523517 -251.91682517 126.22077754 -247.6875 129.4375 C-246.76815674 130.1377832 -245.84881348 130.83806641 -244.90161133 131.55957031 C-239.46742564 135.69683412 -234.01727855 139.81052235 -228.54296875 143.89453125 C-225.73862397 145.99710451 -222.95696188 148.12861953 -220.17578125 150.26171875 C-219.25345703 150.968125 -218.33113281 151.67453125 -217.38085938 152.40234375 C-215.55091478 153.80492083 -213.72268641 155.20974095 -211.89648438 156.6171875 C-206.48405845 160.76304874 -200.97670857 164.67470541 -195.25 168.375 C-194.71866455 167.83335205 -194.1873291 167.2917041 -193.63989258 166.73364258 C-189.7526951 162.782169 -185.77437145 159.02833928 -181.57421875 155.4140625 C-178.62589638 152.82746708 -175.75083846 150.16664876 -172.875 147.5 C-169.0240135 143.93065857 -165.16122447 140.37853983 -161.25 136.875 C-157.38337433 133.41010167 -153.55986214 129.90195432 -149.75 126.375 C-145.12380193 122.09272721 -140.46321325 117.85292141 -135.76953125 113.64453125 C-130.89789755 109.25628446 -126.07787676 104.81126191 -121.25 100.375 C-114.79632094 94.44481329 -108.32667264 88.53488822 -101.8046875 82.6796875 C-96.92405968 78.27667464 -92.09007959 73.82247491 -87.25 69.375 C-80.79632094 63.44481329 -74.32667264 57.53488822 -67.8046875 51.6796875 C-62.92405968 47.27667464 -58.09007959 42.82247491 -53.25 38.375 C-46.8037566 32.4516458 -40.34661251 26.54282054 -33.82421875 20.703125 C-31.93804011 18.9972639 -30.06728296 17.28054326 -28.20703125 15.546875 C-11.66000819 0.14359616 -11.66000819 0.14359616 0 0 Z M3.1796875 126.015625 C2.45676514 126.58522949 1.73384277 127.15483398 0.98901367 127.74169922 C-0.1811731 128.67393311 -0.1811731 128.67393311 -1.375 129.625 C-3.02645471 130.92560883 -4.67881442 132.22506926 -6.33203125 133.5234375 C-7.16299316 134.17666992 -7.99395508 134.82990234 -8.85009766 135.50292969 C-12.22007299 138.13171615 -15.63463285 140.69741749 -19.0625 143.25 C-25.23891002 147.8563073 -31.37670639 152.51081699 -37.5 157.1875 C-44.5577155 162.57634844 -51.63974421 167.93067076 -58.75 173.25 C-65.11065081 178.00965407 -71.43959107 182.80351122 -77.7265625 187.66015625 C-89.47314246 196.72628518 -101.29094942 205.70305549 -113.1887207 214.56982422 C-116.59373144 217.11153462 -119.94844763 219.69874164 -123.25 222.375 C-121.7527539 226.15575551 -119.71342576 227.78170546 -116.4375 230.125 C-115.3570421 230.91004156 -114.27770774 231.69663073 -113.19921875 232.484375 C-112.58481934 232.93103516 -111.97041992 233.37769531 -111.33740234 233.83789062 C-107.09835717 236.95941442 -102.93128124 240.17678789 -98.75 243.375 C-93.26440618 247.56115996 -87.77796361 251.74491225 -82.25 255.875 C-76.80549431 259.94282354 -71.40281111 264.06450372 -66 268.1875 C-59.76881879 272.94218129 -53.52808753 277.68241068 -47.25 282.375 C-38.46591186 288.94316089 -29.74905654 295.59894883 -21.03027344 302.25341797 C-16.2510609 305.90035834 -11.46923933 309.54387372 -6.6875 313.1875 C-5.80102783 313.86329102 -4.91455566 314.53908203 -4.0012207 315.23535156 C-3.17452881 315.86538086 -2.34783691 316.49541016 -1.49609375 317.14453125 C-0.77091553 317.69729736 -0.0457373 318.25006348 0.70141602 318.81958008 C1.37744873 319.33286865 2.05348145 319.84615723 2.75 320.375 C3.45632568 320.93662842 4.16265137 321.49825684 4.89038086 322.0769043 C6.64534987 323.56579511 6.64534987 323.56579511 8.75 323.375 C8.75 257.375 8.75 191.375 8.75 123.375 C6.06650193 123.375 5.27000412 124.35407782 3.1796875 126.015625 Z " fill="#0079CB" transform="translate(359.25,32.625)"/>
<path d="M0 0 C1.28626592 0.62539589 2.57272779 1.25038892 3.859375 1.875 C5.82386884 2.82875006 7.78823729 3.78274881 9.75198364 4.73803711 C15.80292702 7.6814774 21.86869894 10.59357094 27.9375 13.5 C36.61714856 17.66243 45.29259524 21.83350694 53.96289062 26.01538086 C55.21553684 26.61947238 56.46829949 27.22332254 57.72119141 27.8269043 C61.63033258 29.71036099 65.53469191 31.60346205 69.4375 33.5 C70.40461914 33.96390137 71.37173828 34.42780273 72.36816406 34.90576172 C73.25084961 35.33518066 74.13353516 35.76459961 75.04296875 36.20703125 C75.80375732 36.57417236 76.5645459 36.94131348 77.34838867 37.31958008 C84.17106914 41.17462975 88.18257143 47.11073532 90.4375 54.5 C90.99009635 58.84345635 90.9822896 63.1375069 90.9521637 67.51158142 C90.95910922 68.80261813 90.96605475 70.09365484 90.97321075 71.42381388 C90.99176627 74.98720447 90.98555793 78.55017745 90.97505772 82.11358488 C90.96804542 85.96440604 90.98407899 89.81514316 90.99705505 93.66593933 C91.0186664 101.20197563 91.01857554 108.73786076 91.01042951 116.27391785 C91.00412261 122.40063476 91.00527287 128.52730767 91.01170158 134.65402412 C91.01260324 135.52693164 91.01350489 136.39983915 91.01443387 137.29919841 C91.01628513 139.0726593 91.01814769 140.84612018 91.02002143 142.61958105 C91.03658992 159.23967503 91.0278888 175.85968406 91.01103585 192.47977293 C90.99633985 207.67532321 91.01096756 222.87067574 91.03980602 238.06620055 C91.06921891 253.68106668 91.08016677 269.29584162 91.07062382 284.91073424 C91.0696013 286.67787618 91.06860668 288.44501814 91.0676403 290.21216011 C91.06716391 291.08155694 91.06668752 291.95095378 91.0661967 292.84669597 C91.06403506 298.96312431 91.07382329 305.07946603 91.08841133 311.19587517 C91.10595201 318.65409042 91.1057925 326.11205361 91.08305968 333.57025903 C91.0719331 337.3731402 91.06871846 341.17557757 91.08736038 344.97843933 C91.10733541 349.10646812 91.0883456 353.2334201 91.06568909 357.36143494 C91.07752482 358.55570711 91.08936054 359.74997928 91.10155493 360.98044151 C90.9983605 370.24409607 88.72505933 377.43876532 82.125 384.125 C78.51725588 387.01011239 74.59418199 389.05004492 70.4609375 391.06640625 C69.76895767 391.40810349 69.07697784 391.74980072 68.36402893 392.10185242 C66.05738808 393.23910608 63.74759126 394.36977334 61.4375 395.5 C59.7832021 396.3126578 58.1289886 397.12548741 56.47485352 397.93847656 C51.11212879 400.57113834 45.74406555 403.1927991 40.375 405.8125 C39.42894897 406.27432678 38.48289795 406.73615356 37.50817871 407.2119751 C24.26449477 413.67596091 11.01637859 420.12920963 -2.30517578 426.43164062 C-4.57902081 427.50781906 -6.85004402 428.58981268 -9.12109375 429.671875 C-10.49717316 430.3233872 -11.87345986 430.97446182 -13.25 431.625 C-14.38824219 432.16382813 -15.52648437 432.70265625 -16.69921875 433.2578125 C-23.8275879 436.35033827 -32.26442922 437.06194186 -39.63671875 434.3828125 C-42.01896135 433.17979698 -44.30727194 431.92542631 -46.5625 430.5 C-45.9025 430.17 -45.2425 429.84 -44.5625 429.5 C-43.9025 429.83 -43.2425 430.16 -42.5625 430.5 C-37.26934932 431.1576012 -32.66196546 430.93205462 -28.17895285 427.86140916 C-24.4009604 424.6795078 -22.73826596 420.73309562 -22.06225401 415.99049711 C-22.06214667 414.74235369 -22.06203934 413.49421027 -22.06192875 412.20824432 C-22.0536575 411.15332722 -22.0536575 411.15332722 -22.04521915 410.07709867 C-22.031651 407.72645327 -22.04650569 405.3768703 -22.06129456 403.02624512 C-22.05740071 401.32164531 -22.05175959 399.61704875 -22.04452366 397.91245985 C-22.02976304 393.23282394 -22.03995388 388.55352432 -22.05426037 383.87389922 C-22.06536279 378.82542624 -22.05342997 373.77700072 -22.04441833 368.72853088 C-22.03047891 358.84035363 -22.03804727 348.952304 -22.05309392 339.06413281 C-22.06994657 327.55126793 -22.06674469 316.03843491 -22.06299984 304.52556151 C-22.05711997 283.9849514 -22.07129783 263.44440256 -22.09594727 242.90380859 C-22.11986839 222.96791283 -22.12695167 203.03209895 -22.11645508 183.09619141 C-22.10504809 161.39229402 -22.1031131 139.68843452 -22.11755317 117.9845376 C-22.11907903 115.67060503 -22.12059939 113.35667245 -22.12211418 111.04273987 C-22.122872 109.90421223 -22.12362981 108.76568458 -22.12441059 107.59265611 C-22.12915511 99.56578825 -22.12730078 91.5389373 -22.12304878 83.5120697 C-22.11812422 73.73127923 -22.12409713 63.95056621 -22.14394308 54.16979349 C-22.15382079 49.17858367 -22.15891498 44.18749184 -22.15105057 39.19627571 C-22.14399982 34.62802151 -22.15078426 30.0600055 -22.1686542 25.49178272 C-22.17270261 23.83845086 -22.17169222 22.18509733 -22.16513533 20.53177351 C-22.15698626 18.28481617 -22.16729527 16.03866167 -22.18218327 13.79175568 C-22.1832124 12.54361226 -22.18424152 11.29546884 -22.18530184 10.00950289 C-22.74918399 4.76306685 -24.15190667 0.84006366 -28.0625 -2.875 C-32.7713099 -5.93572644 -37.12208319 -5.89785361 -42.5625 -5.5 C-45.97721924 -4.61539972 -45.97721924 -4.61539972 -48.5625 -3.5 C-34.52454934 -18.7150459 -14.85738907 -7.26169135 0 0 Z " fill="#1E9BEF" transform="translate(389.5625,43.5)"/>
<path d="M0 0 C3.68915783 2.51533488 6.94803687 5.401872 8.37121201 9.79071999 C8.76954646 11.98255433 8.92849112 14.05934046 8.99810791 16.28598022 C9.02694061 17.16314697 9.05577332 18.04031372 9.08547974 18.94406128 C9.11173431 19.89886383 9.13798889 20.85366638 9.16503906 21.83740234 C9.19570465 22.84937683 9.22637024 23.86135132 9.25796509 24.9039917 C9.52637092 34.24782003 9.68849458 43.59349577 9.81656265 52.94020653 C9.90438126 59.21300593 10.02817673 65.48049474 10.23828125 71.75048828 C10.44080432 77.82463258 10.54837507 83.89388567 10.59160614 89.97117996 C10.62399379 92.27692641 10.68934928 94.58247161 10.78943634 96.88627243 C11.51587989 114.38089231 11.51587989 114.38089231 6.93791199 120.1641922 C2.48914854 124.33170218 -2.48361147 127.41061339 -7.77399445 130.39192581 C-11.88308474 132.85318271 -15.53482657 135.86530405 -19.25 138.875 C-25.33489062 143.65776634 -31.50149133 148.3082674 -37.75 152.875 C-44.83181535 158.05187146 -51.79144187 163.36203462 -58.69799805 168.77001953 C-64.08206875 172.98138651 -69.52182868 177.10887951 -75.00073242 181.19580078 C-80.61219597 185.3852708 -86.18406877 189.62527197 -91.75 193.875 C-98.86922889 199.31032586 -106.00743992 204.71815765 -113.18945312 210.0703125 C-113.78693359 210.51632813 -114.38441406 210.96234375 -115 211.421875 C-115.83724609 212.0415918 -115.83724609 212.0415918 -116.69140625 212.67382812 C-118.15977318 213.8054643 -119.55237131 215.03350471 -120.9375 216.265625 C-123.25 217.875 -123.25 217.875 -125.16577148 217.64233398 C-127.47954557 216.79049002 -128.99036853 215.75039001 -130.91015625 214.20703125 C-131.61140625 213.65080078 -132.31265625 213.09457031 -133.03515625 212.52148438 C-133.78667969 211.91626953 -134.53820312 211.31105469 -135.3125 210.6875 C-141.70461349 205.62273907 -148.15964192 200.67902059 -154.75 195.875 C-161.9126988 190.64100324 -168.96151004 185.2814297 -175.93310547 179.79541016 C-179.2616611 177.17953072 -182.59695436 174.5965952 -186.04296875 172.13671875 C-186.61152588 171.72784424 -187.18008301 171.31896973 -187.76586914 170.89770508 C-189.25560431 169.83515842 -190.75626772 168.78797885 -192.2578125 167.7421875 C-192.91523438 167.12601563 -193.57265625 166.50984375 -194.25 165.875 C-194.25 161.875 -194.25 161.875 -193 160.19921875 C-192.4225 159.65910156 -191.845 159.11898437 -191.25 158.5625 C-190.60289062 157.95148438 -189.95578125 157.34046875 -189.2890625 156.7109375 C-186.75346836 154.42793128 -184.19317444 152.1774954 -181.609375 149.94921875 C-178.65135701 147.34870956 -175.76305818 144.67770584 -172.875 142 C-169.02399311 138.43067999 -165.161225 134.87854031 -161.25 131.375 C-157.38337433 127.91010167 -153.55986214 124.40195432 -149.75 120.875 C-145.12380193 116.59272721 -140.46321325 112.35292141 -135.76953125 108.14453125 C-130.89789755 103.75628446 -126.07787676 99.31126191 -121.25 94.875 C-114.79632094 88.94481329 -108.32667264 83.03488822 -101.8046875 77.1796875 C-96.92405968 72.77667464 -92.09007959 68.32247491 -87.25 63.875 C-80.79632094 57.94481329 -74.32667264 52.03488822 -67.8046875 46.1796875 C-62.92405968 41.77667464 -58.09007959 37.32247491 -53.25 32.875 C-46.80508912 26.95287023 -40.35575575 21.03778371 -33.82421875 15.2109375 C-31.92542456 13.48790423 -30.05935711 11.74815042 -28.20703125 9.9765625 C-27.68431641 9.48220703 -27.16160156 8.98785156 -26.62304688 8.47851562 C-25.14490004 7.07806862 -23.67568973 5.66820682 -22.20703125 4.2578125 C-15.45827284 -1.18042083 -8.26261802 -2.86013701 0 0 Z " fill="#0065A9" transform="translate(359.25,38.125)"/>
<path d="M0 0 C4.08379341 1.35172847 6.37683519 3.06936242 9.3125 6.1875 C12.0043854 8.97190519 14.67986588 11.67226563 17.625 14.1875 C21.69369067 17.6761163 25.59290001 21.3330358 29.5 25 C35.24038152 30.3919174 35.24038152 30.3919174 41.125 35.625 C44.75322657 38.76357652 48.32435568 41.96166278 51.875 45.1875 C52.44750488 45.69941895 53.02000977 46.21133789 53.60986328 46.73876953 C56.43896148 49.32414045 58.42398651 51.52114781 60 55 C50.81708244 62.18858281 41.61065212 69.3377654 32.26269531 76.31079102 C26.56321488 80.56577696 20.90390631 84.87218989 15.25 89.1875 C7.85854271 94.82607124 0.46246062 100.45551301 -7 106 C-7.98613281 106.74121094 -8.97226563 107.48242188 -9.98828125 108.24609375 C-10.96152344 108.96925781 -11.93476562 109.69242187 -12.9375 110.4375 C-13.79214844 111.07558594 -14.64679688 111.71367187 -15.52734375 112.37109375 C-19.60549006 115.05764511 -23.05039692 116.28933837 -27.9375 116.3125 C-28.75089844 116.32925781 -29.56429687 116.34601563 -30.40234375 116.36328125 C-35.80958317 115.60708085 -39.661843 112.70537445 -43.5625 109.0625 C-44.41328125 108.27617187 -45.2640625 107.48984375 -46.140625 106.6796875 C-47.08421875 105.79539062 -48.0278125 104.91109375 -49 104 C-50.69649273 102.42353262 -52.39528654 100.84959773 -54.09545898 99.27709961 C-55.21437047 98.24123544 -56.33117949 97.20309415 -57.44555664 96.16235352 C-59.8230079 93.95232321 -62.18613416 91.85437583 -64.74609375 89.8515625 C-68.83509185 86.49248954 -70.5838726 82.63478623 -71.875 77.5625 C-72.10472578 71.01531519 -71.03824467 66.85645671 -66.8125 61.9375 C-65.5574778 60.60987321 -64.28659402 59.29705414 -63 58 C-62.42765625 57.401875 -61.8553125 56.80375 -61.265625 56.1875 C-57.78954357 52.61574661 -54.12296164 49.32087617 -50.3515625 46.06640625 C-47.43994638 43.50785986 -44.59369656 40.88356296 -41.75 38.25 C-41.19449463 37.73566406 -40.63898926 37.22132813 -40.06665039 36.69140625 C-38.93480431 35.64316522 -37.80304999 34.59482511 -36.67138672 33.54638672 C-29.69515057 27.0918907 -22.67059981 20.69214812 -15.59765625 14.34375 C-12.53100635 11.57684783 -9.4820678 8.7911555 -6.4375 6 C-5.91220703 5.51853516 -5.38691406 5.03707031 -4.84570312 4.54101562 C-2.39021862 2.3048608 -2.39021862 2.3048608 0 0 Z " fill="#0065A9" transform="translate(103,256)"/>
</svg>
