<?xml version="1.0" encoding="UTF-8"?>
<svg version="1.1" xmlns="http://www.w3.org/2000/svg" width="2048" height="2048">
<path d="M0 0 C0.72191528 0.22838562 1.44383057 0.45677124 2.18762207 0.69207764 C64.77536 20.56106444 125.76741447 46.54383754 182.16796875 80.31201172 C185.04960515 82.02956638 187.9443114 83.72284944 190.84375 85.41015625 C200.74224781 91.18057722 210.47604271 97.08498668 219.91943359 103.57470703 C222.33064459 105.22650823 224.75294524 106.86139333 227.17578125 108.49609375 C248.39783866 122.84371445 269.12580214 137.82489142 289 154 C289.85464844 154.69222656 290.70929688 155.38445312 291.58984375 156.09765625 C301.49076135 164.15191777 311.26756997 172.33715994 320.70703125 180.9296875 C323.56014712 183.50575464 326.47509974 186.00551494 329.40625 188.4921875 C331 190 331 190 333 193 C332.37770508 192.98428955 331.75541016 192.9685791 331.11425781 192.95239258 C290.60652701 192.07162816 253.48775786 203.35702143 223.54907227 231.54248047 C194.29913553 259.68177395 175.88579633 299.11302158 174.78515625 339.84765625 C174.52596859 354.82124304 175.04982719 369.30430649 178 384 C178.16628906 384.84256348 178.33257813 385.68512695 178.50390625 386.55322266 C187.20409275 429.30497244 208.64404476 468.03382506 231 505 C231.55655273 505.92345215 232.11310547 506.8469043 232.68652344 507.79833984 C237.94868923 516.52308877 243.2316224 525.23307724 248.69140625 533.8359375 C258.0471417 548.58723758 266.71451892 563.62234563 275 579 C275.85489014 580.57998779 275.85489014 580.57998779 276.72705078 582.19189453 C324.67008454 671.19319218 343.56826616 769.64290895 298.828125 974.3515625 C293.69171529 991.44798002 288.39658478 1008.49624021 283.06741333 1025.53340149 C270.76824743 1064.86462573 258.75503541 1104.27967092 246.98154449 1143.77125168 C245.28089895 1149.47374079 243.5775925 1155.17543507 241.87451172 1160.87719727 C239.38113849 1169.22546586 236.88843163 1177.57393279 234.39665794 1185.92267895 C229.75070472 1201.48886 225.09936596 1217.05342653 220.4453125 1232.6171875 C220.09683132 1233.78260826 219.74835014 1234.94802902 219.38930893 1236.14876556 C215.62281442 1248.74479603 211.85503504 1261.3404412 208.08544922 1273.93554688 C206.786084 1278.27732914 205.48678479 1282.61913116 204.1875 1286.9609375 C203.87428928 1288.00749763 203.56107857 1289.05405777 203.23837662 1290.13233185 C199.39448636 1302.97734626 195.56179801 1315.82560318 191.74518204 1328.67874718 C190.45627069 1333.0170483 189.16420781 1337.35441165 187.87179375 1341.69167042 C186.55679596 1346.10630945 185.25050702 1350.52346798 183.94580078 1354.94116211 C183.30019853 1357.10802754 182.65423153 1359.27478434 182.0078125 1361.44140625 C181.72615234 1362.40329865 181.44449219 1363.36519104 181.15429688 1364.35623169 C180.89600098 1365.2165097 180.63770508 1366.07678772 180.37158203 1366.96313477 C180.15277374 1367.70185318 179.93396545 1368.44057159 179.70852661 1369.20167542 C179 1371 179 1371 177 1373 C168.04768358 1346.92205756 159.19847688 1320.80925925 150.375 1294.6875 C150.0949688 1293.85850819 149.81493759 1293.02951637 149.52642059 1292.17540359 C141.293329 1267.79992365 133.11711102 1243.40618004 125.00054932 1218.9916687 C119.88739021 1203.61363728 114.72148917 1188.25641246 109.45275879 1172.93103027 C103.17720625 1154.66236827 97.09648842 1136.32896629 91 1118 C81.69208258 1089.99809069 81.69208258 1089.99809069 72.1875 1062.0625 C65.13875676 1041.59298597 58.33427925 1021.04182411 51.5 1000.5 C40.92338758 968.6840255 40.92338758 968.6840255 30.12353516 936.94335938 C23.49043734 917.67031215 17.09434519 898.31762147 10.66083145 878.97730637 C1.45841661 851.29977495 1.45841661 851.29977495 -7.9375 823.6875 C-15.07241449 802.96818675 -21.95688899 782.1652 -28.87410736 761.37248993 C-35.45355989 741.59593758 -42.03296533 721.82149067 -48.81933594 702.11474609 C-55.47021047 682.78484769 -61.88622088 663.37607025 -68.33852005 643.97925186 C-77.57283631 616.20711197 -77.57283631 616.20711197 -87 588.5 C-93.92553475 568.38444936 -100.61541288 548.19053091 -107.33028412 528.00395966 C-113.86619409 508.35618726 -120.4083894 488.71195787 -127.125 469.125 C-127.53881927 467.91756134 -127.53881927 467.91756134 -127.96099854 466.68572998 C-129.20535304 463.05574463 -130.45094889 459.42618703 -131.69726562 455.796875 C-133.60330223 450.24410982 -135.49866013 444.68787595 -137.375 439.125 C-137.65617676 438.30273926 -137.93735352 437.48047852 -138.22705078 436.63330078 C-139.23400054 433.63121038 -140 431.18983939 -140 428 C-137.21621795 427.07207265 -135.14508712 426.77650028 -132.24536133 426.58276367 C-131.27216446 426.5155159 -130.29896759 426.44826813 -129.29627991 426.37898254 C-128.23557785 426.30934799 -127.17487579 426.23971344 -126.08203125 426.16796875 C-123.79002274 426.00983928 -121.49803124 425.85146304 -119.20605469 425.69287109 C-117.39542542 425.56945343 -117.39542542 425.56945343 -115.54821777 425.44354248 C-96.75923563 424.15576383 -77.98946771 422.75799768 -59.25 420.875 C-58.43745758 420.79486664 -57.62491516 420.71473328 -56.78775024 420.63217163 C-34.43676057 418.961859 -34.43676057 418.961859 -16.0625 407.1875 C-9.11344727 398.4886858 -7.1921834 388.92755547 -8 378 C-9.78445335 368.44544665 -14.15736525 360.66655524 -21.73828125 354.54296875 C-28.38085847 350.01133144 -34.84700096 348.71122091 -42.8203125 348.76171875 C-43.62927475 348.76496155 -44.438237 348.76820435 -45.27171326 348.77154541 C-57.66112181 348.93267679 -70.02388129 350.00370684 -82.37652588 350.90881348 C-111.2301176 353.01816753 -140.0950217 354.73332308 -168.99192429 356.12321472 C-171.5819929 356.24792916 -174.17199737 356.37391021 -176.76199341 356.50012207 C-209.79433813 358.10381929 -242.80022989 359.2411741 -275.875 359.25 C-276.64659328 359.25044186 -277.41818657 359.25088371 -278.21316147 359.25133896 C-349.80208314 359.27256266 -421.41382784 354.77235444 -492.79536438 349.61997986 C-514.44321882 347.45011737 -514.44321882 347.45011737 -534.0625 355.25 C-534.701875 355.8275 -535.34125 356.405 -536 357 C-536.66 357 -537.32 357 -538 357 C-538.37125 357.7734375 -538.37125 357.7734375 -538.75 358.5625 C-539.741698 360.4963111 -540.82464693 362.38327872 -541.9375 364.25 C-547.61275162 374.4101883 -549.07713321 385.21288742 -546.05078125 396.55859375 C-542.42438096 405.72183233 -537.90059804 411.46101392 -528.84960938 415.59936523 C-524.69222879 417.24727836 -520.53897311 417.91097229 -516.125 418.515625 C-515.26228989 418.63900742 -514.39957977 418.76238983 -513.51072693 418.88951111 C-502.39616432 420.42989601 -491.23037982 421.49542179 -480.0625 422.5625 C-477.80727942 422.78291513 -475.55207118 423.0034565 -473.296875 423.22412109 C-463.65222333 424.15716271 -454.01158746 425.05925088 -444.33984375 425.66015625 C-443.29836937 425.72533195 -443.29836937 425.72533195 -442.2358551 425.79182434 C-439.15277723 425.97953772 -436.07045542 426.14388338 -432.98461914 426.27954102 C-431.94813232 426.33424561 -430.91164551 426.3889502 -429.84375 426.4453125 C-428.53180664 426.49969482 -428.53180664 426.49969482 -427.19335938 426.55517578 C-424.47921001 427.10561881 -423.77477679 427.90866272 -422 430 C-421.07701111 431.92922974 -421.07701111 431.92922974 -420.29272461 434.15283203 C-419.98993591 434.99750031 -419.68714722 435.84216858 -419.37518311 436.71243286 C-419.05414612 437.63490814 -418.73310913 438.55738342 -418.40234375 439.5078125 C-418.05641174 440.47903046 -417.71047974 441.45024841 -417.35406494 442.45089722 C-416.60316933 444.56166498 -415.8561036 446.67379819 -415.11239624 448.78710938 C-413.09711407 454.51254387 -411.05376371 460.22798402 -409.015625 465.9453125 C-408.38716927 467.71228485 -408.38716927 467.71228485 -407.74601746 469.51495361 C-403.64265938 481.04073304 -399.42440272 492.52279203 -395.1875 504 C-388.70642661 521.57841096 -382.29865515 539.18244297 -375.93125534 556.80233383 C-370.03706512 573.11270578 -364.139168 589.42092255 -358.125 605.6875 C-352.06150308 622.08862249 -346.05641403 638.51085111 -340.0625 654.9375 C-339.56908535 656.289603 -339.07566697 657.64170465 -338.58224487 658.99380493 C-335.30665399 667.96996713 -332.03203746 676.94648465 -328.75761414 685.92307281 C-327.50674448 689.35221316 -326.25582741 692.78133621 -325.00488281 696.21044922 C-324.63666019 697.21985455 -324.63666019 697.21985455 -324.26099873 698.24965191 C-323.02886301 701.62716698 -321.79648496 705.00459333 -320.56364441 708.3818512 C-320.07424227 709.72258249 -319.58484711 711.06331633 -319.09545898 712.40405273 C-318.85427936 713.06478696 -318.61309973 713.72552118 -318.36461163 714.40627766 C-316.92045083 718.36365016 -315.4787377 722.32190431 -314.03896999 726.28087711 C-309.27038888 739.39172168 -304.45731485 752.48285668 -299.51953125 765.53125 C-298.24848777 768.91096428 -296.97890023 772.29122145 -295.70986938 775.67169189 C-294.53418618 778.78448702 -293.33820372 781.88894697 -292.14135742 784.99365234 C-291.43692311 786.86776403 -290.73349205 788.74225325 -290.03125 790.6171875 C-289.70546463 791.44230835 -289.37967926 792.2674292 -289.04402161 793.11755371 C-288.61327583 794.28695496 -288.61327583 794.28695496 -288.17382812 795.47998047 C-287.92121216 796.1404538 -287.66859619 796.80092712 -287.4083252 797.48141479 C-286.2128361 804.85529516 -288.74503188 812.09852951 -291.08476162 819.00653839 C-291.40610727 819.97899639 -291.72745292 820.9514544 -292.05853632 821.95338082 C-293.13715882 825.21013677 -294.22854624 828.46246653 -295.31993103 831.71496582 C-296.10384432 834.07290312 -296.88697163 836.43110185 -297.66938025 838.78953886 C-299.37208697 843.91595957 -301.08036978 849.04046916 -302.79361725 854.16337585 C-305.34114326 861.78098805 -307.87835253 869.40200813 -310.41354196 877.0237335 C-314.94123907 890.63454055 -319.4791778 904.24191601 -324.02142671 917.84787274 C-327.99493854 929.75033026 -331.96497977 941.65393839 -335.9315815 953.55870056 C-336.1946284 954.34815444 -336.4576753 955.13760833 -336.72869331 955.95098506 C-337.79643813 959.15550573 -338.86416704 962.36003169 -339.9318719 965.56456568 C-349.94660902 995.62191801 -359.97159623 1025.67584266 -370.00135128 1055.72818657 C-378.91805424 1082.4456675 -387.82631652 1109.16594825 -396.72729492 1135.88867188 C-399.0077508 1142.7350821 -401.28821811 1149.58148851 -403.56877804 1156.42786407 C-403.98988592 1157.69205499 -403.98988592 1157.69205499 -404.41950103 1158.98178512 C-411.85307477 1181.29735601 -419.29358118 1203.61061506 -426.73623186 1225.92316008 C-427.53657821 1228.32256972 -428.3369212 1230.72198048 -429.13725945 1233.12139283 C-429.66820462 1234.7131648 -430.19915463 1236.30493516 -430.73010954 1237.89670389 C-434.70031691 1249.79938097 -438.66693535 1261.70325013 -442.63187981 1273.60768127 C-447.13685876 1287.13342089 -451.64722986 1300.65734896 -456.16477077 1314.17889839 C-458.69525967 1321.75345225 -461.22158487 1329.32936507 -463.74203304 1336.90726608 C-465.61949692 1342.55044383 -467.50472222 1348.19100738 -469.39310748 1353.8305406 C-470.15952746 1356.1234769 -470.92337221 1358.41727576 -471.68449568 1360.71197563 C-472.7126145 1363.81038872 -473.7497533 1366.90562943 -474.78939724 1370.00019073 C-475.088683 1370.909468 -475.38796876 1371.81874526 -475.69632378 1372.75557637 C-475.97291141 1373.57256544 -476.24949904 1374.38955451 -476.53446811 1375.23130083 C-476.77102296 1375.94040284 -477.00757781 1376.64950485 -477.25130099 1377.3800948 C-478 1379 -478 1379 -480 1380 C-487.08358609 1359.3609616 -494.12411247 1338.70927261 -501 1318 C-505.37263995 1304.83125835 -509.80420667 1291.68538376 -514.3125 1278.5625 C-521.17400746 1258.58580439 -527.83309124 1238.54222797 -534.5 1218.5 C-544.14905207 1189.46596445 -544.14905207 1189.46596445 -554 1160.5 C-560.92829187 1140.37644117 -567.6206531 1120.17442544 -574.33831787 1099.9798584 C-583.57273368 1072.20741472 -583.57273368 1072.20741472 -593 1044.5 C-599.92829187 1024.37644117 -606.6206531 1004.17442544 -613.33831787 983.9798584 C-622.57273368 956.20741472 -622.57273368 956.20741472 -632 928.5 C-638.92829187 908.37644117 -645.6206531 888.17442544 -652.33831787 867.9798584 C-661.57273368 840.20741472 -661.57273368 840.20741472 -671 812.5 C-677.64011036 793.21347829 -684.06175096 773.85458107 -690.5 754.5 C-700.11745664 725.55959396 -700.11745664 725.55959396 -709.9375 696.6875 C-717.07241449 675.96818675 -723.95688899 655.1652 -730.87410736 634.37248993 C-737.45355989 614.59593758 -744.03296533 594.82149067 -750.81933594 575.11474609 C-757.75062154 554.96986952 -764.43135127 534.74052289 -771.15441895 514.52548218 C-777.99579755 493.95610679 -784.862136 473.39728665 -791.94140625 452.90820312 C-794.79001986 444.65073255 -797.49896983 436.37053641 -800 428 C-797.02494803 427.16853706 -794.21167274 426.78907299 -791.13183594 426.58276367 C-790.15871964 426.5155159 -789.18560333 426.44826813 -788.18299866 426.37898254 C-787.12745285 426.30934799 -786.07190704 426.23971344 -784.984375 426.16796875 C-782.69553866 426.0098629 -780.40672106 425.8514857 -778.11791992 425.69287109 C-776.31343887 425.56945343 -776.31343887 425.56945343 -774.47250366 425.44354248 C-755.68839688 424.15152782 -736.92302985 422.75122006 -718.1875 420.875 C-717.37059692 420.79486664 -716.55369385 420.71473328 -715.71203613 420.63217163 C-693.69288104 419.00084722 -693.69288104 419.00084722 -675.5 407.625 C-668.47156744 398.19863163 -666.30180756 388.79971675 -667.45703125 377.15234375 C-668.23373846 372.64297165 -669.74712579 368.95862182 -672 365 C-672.598125 363.948125 -673.19625 362.89625 -673.8125 361.8125 C-679.27879178 354.78441057 -685.26662693 350.95719779 -694 349 C-709.91370413 347.84739381 -726.1523107 349.83623239 -742.03652954 350.96566772 C-750.43185235 351.56190191 -758.82915571 352.12930903 -767.2265625 352.6953125 C-768.07089403 352.75231764 -768.91522556 352.80932278 -769.7851429 352.86805534 C-794.04877624 354.50198844 -818.32773585 355.75339548 -842.62164307 356.84570312 C-845.93344163 356.99696014 -849.24480932 357.15551017 -852.55615234 357.31640625 C-881.5849799 358.71642278 -910.56756555 359.18329024 -939.625 359.1875 C-940.43886169 359.18802242 -941.25272339 359.18854485 -942.09124756 359.1890831 C-959.74779224 359.1995024 -977.3745407 359.19417777 -995 358 C-992.57277676 351.71515538 -988.81458777 346.51938988 -985 341 C-984.57428711 340.3807666 -984.14857422 339.7615332 -983.70996094 339.12353516 C-975.76081801 327.59294201 -967.34514666 316.44104271 -958.80224609 305.34570312 C-957.24163757 303.314502 -955.69001809 301.27708593 -954.14453125 299.234375 C-949.17908964 292.68618085 -943.99877556 286.36550844 -938.65625 280.125 C-936.19835363 277.24919041 -933.81304799 274.31934117 -931.4375 271.375 C-927.56070231 266.61049192 -923.48528468 262.0635611 -919.328125 257.54296875 C-917.39305738 255.42932946 -915.49791703 253.29340152 -913.625 251.125 C-903.19850969 239.18016595 -892.09304059 227.93528467 -880.87158203 216.74121094 C-878.23744018 214.11246591 -875.60873496 211.47836822 -872.98046875 208.84375 C-871.28417497 207.14811651 -869.5875713 205.45279297 -867.890625 203.7578125 C-867.11648254 202.98164581 -866.34234009 202.20547913 -865.54473877 201.40579224 C-861.3986126 197.27729215 -857.17226306 193.30586959 -852.73231506 189.49420166 C-850.15415633 187.27042081 -847.67885081 184.94561488 -845.1875 182.625 C-840.56219047 178.35160029 -835.79918099 174.31116271 -830.890625 170.36328125 C-828.25292188 168.20678072 -825.67738686 165.99797034 -823.10961914 163.75976562 C-815.38451377 157.03604266 -807.3472055 150.80133746 -799.16894531 144.64111328 C-797.02788126 143.02109611 -794.89876422 141.38668818 -792.7734375 139.74609375 C-788.53354099 136.47352835 -784.27500387 133.2265676 -780 130 C-779.01918457 129.25943359 -779.01918457 129.25943359 -778.01855469 128.50390625 C-708.7349315 76.54980194 -629.21010528 36.46507562 0 0 Z " fill="#21759A" transform="translate(1285,184)"/>
<path d="M0 0 C2.98733448 0.00564481 5.97466328 0.00846243 8.9620018 0.0110817 C36.76886868 0.04652232 64.46343608 0.2844478 92.15600204 3.06482315 C94.82521501 3.33142316 97.49544111 3.58546075 100.16601181 3.83807755 C187.49944139 12.19379846 272.60530685 31.83816423 525.754879 142.54999161 C528.37474392 144.12739947 531.00756527 145.67745362 533.65233994 147.21258926 C559.04517384 162.02331378 583.79267344 178.83640711 607.37890244 196.38055801 C608.17578476 196.97070694 608.97266708 197.56085587 609.79369736 198.16888809 C616.48867358 203.13965646 623.11779305 208.18783839 629.69140244 213.31805801 C630.26197372 213.76246231 630.83254501 214.20686661 631.42040634 214.6647377 C643.15712197 223.81214246 654.65845705 233.21985249 665.98681259 242.8678627 C667.71259573 244.3360884 669.44214516 245.79979334 671.17187119 247.26337051 C677.6485945 252.76062546 683.99351399 258.36783425 690.20775986 264.16058731 C693.09534694 266.85201285 696.01057786 269.49484917 699.00390244 272.06805801 C702.31995012 274.93223337 705.39848339 277.97896329 708.44140244 281.13055801 C710.28973401 282.92754705 712.16586017 284.58861029 714.12499619 286.25946426 C719.67686101 291.08376357 724.830228 296.30740715 730.01879501 301.5150795 C731.75034943 303.25199401 733.48718603 304.98349691 735.22460556 306.71454239 C740.41105286 311.89820363 745.5429937 317.07442933 750.27318954 322.68548965 C751.8353569 324.48377044 753.4910274 326.1505823 755.19140244 327.81805801 C758.20553826 330.78541124 760.99057576 333.89151094 763.74999619 337.09540176 C765.97944305 339.64782684 768.27141625 342.13693315 770.56640244 344.63055801 C774.61661535 349.07056586 778.44674365 353.63740083 782.21874619 358.31415176 C785.10023876 361.8147328 788.07884805 365.22063127 791.06640244 368.63055801 C796.6765529 375.05895679 802.00607977 381.6568656 807.21532822 388.4122963 C808.81011723 390.47133087 810.41952535 392.51834691 812.03124619 394.56415176 C819.56732781 404.15085357 826.84664684 413.89078133 833.91479111 423.82733536 C835.24788063 425.69626203 836.5877206 427.56037669 837.93090439 429.42206192 C844.27124576 438.22095161 850.37493993 447.1618476 856.37890244 456.19305801 C856.85562393 456.909384 857.33234543 457.62570999 857.82351303 458.36374283 C876.54412796 486.51969423 893.81532979 515.4594344 909.69140244 545.31805801 C910.2579454 546.38266251 910.82448837 547.447267 911.40819931 548.54413223 C939.7214099 601.98109022 962.50836001 657.63768108 981.00579453 715.18561172 C981.45252734 716.5750848 981.90042705 717.96418342 982.3496666 719.35284805 C1002.30354156 781.04020597 1014.96017392 845.09285967 1022.37890244 909.44305801 C1022.47595474 910.26262985 1022.57300705 911.08220169 1022.67300034 911.92660904 C1026.81004361 947.29536539 1028.20674962 982.81664453 1028.08251572 1018.40204239 C1028.06542562 1023.33172207 1028.07562648 1028.26091524 1028.09283829 1033.19057846 C1028.19699539 1068.49254645 1026.57541631 1103.741365 1022.44140244 1138.81805801 C1022.28650345 1140.16528946 1022.28650345 1140.16528946 1022.12847519 1141.5397377 C1011.68708001 1231.94223699 989.49982091 1320.82748998 874.12255478 1565.08807755 C872.6440096 1567.39190417 871.19007342 1569.70969905 869.74218369 1572.03290176 C863.20864741 1582.5083882 856.41250365 1592.76670455 849.3666954 1602.9044838 C847.67738931 1605.33824655 845.99847508 1607.77894815 844.32030869 1610.22040176 C836.36023911 1621.75081335 828.01586172 1632.94539966 819.4526329 1644.03387833 C817.93216867 1646.00580283 816.42009022 1647.98354463 814.91405869 1649.96649551 C805.35253675 1662.51889871 795.32869692 1674.70067786 785.07714462 1686.69403458 C783.63411152 1688.38520022 782.19765426 1690.0818042 780.76171494 1691.77899551 C775.25992176 1698.26286774 769.64733962 1704.61404043 763.84887314 1710.83441544 C761.15744759 1713.72200252 758.51461128 1716.63723344 755.94140244 1719.63055801 C753.07722708 1722.94660569 750.03049716 1726.02513897 746.87890244 1729.06805801 C745.072289 1730.92628897 743.39991156 1732.81415177 741.71874619 1734.78290176 C737.03654371 1740.17123976 731.97596151 1745.18321534 726.92162704 1750.2182045 C725.25713966 1751.87733121 723.59806797 1753.54173853 721.93944931 1755.20672989 C716.87936258 1760.26965209 711.81559467 1765.2609884 706.34154892 1769.882267 C704.5382832 1771.45128693 702.8646477 1773.11176529 701.19140244 1774.81805801 C698.24540029 1777.81040177 695.16157236 1780.57129974 691.98046494 1783.31024551 C689.75597328 1785.26142079 687.58025411 1787.25929902 685.41137314 1789.27191544 C680.2833974 1794.02736339 675.0444907 1798.55977966 669.59374619 1802.94696426 C666.30177355 1805.63636855 663.09132261 1808.40972887 659.87890244 1811.19305801 C654.13027708 1816.15624474 648.23640857 1820.8917113 642.23827744 1825.54852676 C639.2410949 1827.87737394 636.28679256 1830.25498634 633.33886337 1832.64569473 C586.35486426 1870.66547688 534.00668216 1903.08364886 480.69140244 1931.31805801 C479.57426865 1931.91086563 478.45713486 1932.50367325 477.30614853 1933.11444473 C405.30728248 1971.19259832 328.57367964 1999.84620119 97.39019394 2045.0609169 C94.8184076 2045.30595695 92.24784087 2045.56139122 89.67724228 2045.8185463 C61.98896476 2048.52872164 34.25443231 2048.60299681 6.4605217 2048.62768555 C3.55395548 2048.63050939 0.64740279 2048.63603321 -2.25915909 2048.64169693 C-34.79578951 2048.68750714 -67.0631133 2047.5007526 -99.43359756 2044.06805801 C-100.96503403 2043.90849121 -100.96503403 2043.90849121 -102.5274086 2043.74570084 C-182.30518536 2035.38987593 -260.62515931 2017.93886965 -336.30859756 1991.31805801 C-336.95431717 1991.09200882 -337.60003677 1990.86595963 -338.26532364 1990.63306046 C-388.08700751 1973.18215401 -437.42409637 1951.74850522 -483.48437881 1925.89422989 C-486.5610557 1924.17716333 -489.65230657 1922.48845757 -492.74609756 1920.80243301 C-508.59041282 1912.13750158 -524.01349673 1902.91488462 -539.30859756 1893.31805801 C-541.07130137 1892.22119421 -542.83430368 1891.12480991 -544.59766006 1890.02899551 C-553.9606595 1884.18953587 -563.14136028 1878.13424008 -572.18066788 1871.80585098 C-574.47665809 1870.20055448 -576.77909077 1868.60476654 -579.08203506 1867.00946426 C-602.28823074 1850.89776651 -624.72614367 1833.90923532 -646.45312881 1815.85321426 C-648.11598507 1814.47741951 -649.78679421 1813.11274328 -651.46484756 1811.75555801 C-656.776428 1807.45854912 -661.924003 1803.03427165 -666.97656631 1798.43524551 C-669.06683646 1796.53754632 -671.17845871 1794.67072387 -673.30859756 1792.81805801 C-678.02454671 1788.70575036 -682.67276233 1784.52032593 -687.30859756 1780.31805801 C-687.80472549 1779.86849747 -688.30085342 1779.41893692 -688.81201553 1778.95575333 C-694.17616893 1774.08843674 -699.49675339 1769.20665612 -704.5654335 1764.02875137 C-706.28975836 1762.33654629 -708.0751677 1760.77108627 -709.91406631 1759.20477676 C-714.77813518 1754.97199957 -719.3242672 1750.44916091 -723.87109756 1745.88055801 C-724.68256241 1745.07296036 -725.49402725 1744.2653627 -726.33008194 1743.43329239 C-730.65587216 1739.10051946 -734.80852965 1734.68599413 -738.80054092 1730.04437637 C-740.70565386 1727.86353559 -742.730719 1725.83391036 -744.80859756 1723.81805801 C-748.15793485 1720.50819103 -751.30785713 1717.11058852 -754.37109756 1713.53680801 C-756.29428512 1711.33444807 -758.26890286 1709.1856516 -760.25781631 1707.04266739 C-764.99482227 1701.93578563 -769.502464 1696.71639545 -773.87109756 1691.28680801 C-776.7378656 1687.79523157 -779.70653075 1684.40296255 -782.68359756 1681.00555801 C-788.29510039 1674.57572792 -793.62619645 1667.97622493 -798.83691788 1661.2194252 C-800.41968747 1659.1745331 -802.01539281 1657.14021481 -803.61328506 1655.10712051 C-812.06461595 1644.33597948 -820.2779548 1633.40628301 -828.30859756 1622.31805801 C-829.04578018 1621.3012294 -829.04578018 1621.3012294 -829.79785538 1620.2638588 C-848.45296314 1594.42928358 -865.70217325 1567.54412798 -881.73682022 1540.0163002 C-882.74159981 1538.29141296 -883.74884712 1536.56795931 -884.75928116 1534.84637833 C-927.66398734 1461.6831915 -960.10491659 1382.81698495 -983.30859756 1301.31805801 C-983.51593521 1300.59161087 -983.72327286 1299.86516373 -983.93689346 1299.11670303 C-1007.65273289 1215.78114745 -1020.35407766 1128.17805878 -1020.62665558 1027.40456009 C-1020.621006 1024.45779745 -1020.61819143 1021.51104058 -1020.61557388 1018.56427383 C-1020.57988618 990.92001338 -1020.31597144 963.39179167 -1017.56183243 935.86059952 C-1017.29559515 933.18751048 -1017.04145008 930.51343874 -1016.78857803 927.83905411 C-1008.79273763 844.26053248 -991.02956469 761.49964552 -879.30859756 504.31805801 C-878.2915382 502.596782 -877.27460693 500.87543029 -876.25781631 499.15399551 C-866.00621538 481.86645232 -855.30330628 464.85699203 -843.76416397 448.39764786 C-842.17149068 446.12217133 -840.58940238 443.8395346 -839.00781631 441.55633926 C-822.89433465 418.34568365 -805.90275558 395.90409862 -787.84375381 374.17352676 C-786.46795906 372.5106705 -785.10328283 370.83986137 -783.74609756 369.16180801 C-779.44908867 363.85022758 -775.0248112 358.70265258 -770.42578506 353.65008926 C-768.52808587 351.55981912 -766.66126342 349.44819686 -764.80859756 347.31805801 C-761.45666387 343.47182995 -758.04919411 339.67777758 -754.62891006 335.89227676 C-753.0965437 334.19222721 -751.57035956 332.48658233 -750.05078506 330.77508926 C-745.73098058 325.92095356 -741.31079494 321.23972826 -736.64453506 316.71649551 C-734.72926908 314.74998496 -732.94327427 312.75355277 -731.15625381 310.67352676 C-726.78680611 305.64140291 -722.09230755 300.95551724 -717.37109756 296.25555801 C-716.5158046 295.39639786 -715.66051163 294.5372377 -714.77930069 293.65204239 C-710.3221272 289.20166855 -705.79486776 284.91273542 -701.0173378 280.80853653 C-698.84132139 278.91046821 -696.81866359 276.88997223 -694.80859756 274.81805801 C-691.4773895 271.44705736 -688.05748128 268.27291772 -684.46094131 265.18915176 C-681.92807594 262.98725973 -679.46527234 260.71609976 -676.99609756 258.44305801 C-672.45335071 254.29560543 -667.76739795 250.38573106 -662.98047256 246.52508926 C-660.41000707 244.40182464 -657.94940394 242.19993953 -655.49609756 239.94305801 C-650.52657647 235.42032352 -645.29752469 231.3044177 -639.99219131 227.18915176 C-636.96439895 224.83971288 -633.97628029 222.44555433 -630.99756241 220.03436661 C-621.30076406 212.19601252 -611.33485163 204.72816389 -601.30859756 197.31805801 C-600.56239151 196.7650502 -599.81618546 196.21204239 -599.0473671 195.64227676 C-586.95790783 186.70765279 -574.50649806 178.35661198 -561.9614296 170.07782364 C-559.77309713 168.62618546 -557.59655142 167.1607948 -555.42969131 165.67743301 C-527.61612537 146.67282074 -497.82438472 129.98809747 -467.87402725 114.64569473 C-465.49729423 113.41571051 -463.13830665 112.15886851 -460.78516006 110.88446426 C-411.89658821 84.45674255 -359.20633306 64.08032464 -306.30859756 47.31805801 C-305.60839493 47.09589615 -304.90819229 46.87373428 -304.18677139 46.64484024 C-237.57765874 25.55930145 -169.20963586 11.87834946 -99.74609756 4.63055801 C-98.77779007 4.52773514 -97.80948257 4.42491226 -96.81183243 4.31897354 C-64.54508955 0.9238097 -32.4237297 -0.0622459 0 0 Z M-292.30859756 93.31805801 C-293.07710037 93.55933426 -293.84560318 93.8006105 -294.63739395 94.04919815 C-366.74437489 116.74271676 -436.91035655 148.71581562 -501.30859756 188.31805801 C-502.13810928 188.82465958 -502.967621 189.33126114 -503.82226944 189.85321426 C-525.539117 203.13917778 -546.76719696 217.27220817 -567.30859756 232.31805801 C-568.02773331 232.84173965 -568.74686905 233.3654213 -569.48779678 233.90497208 C-584.87095422 245.11166382 -599.77233813 256.81069737 -614.50879288 268.85028458 C-616.0817005 270.13301934 -617.6595804 271.40965215 -619.23828506 272.68524551 C-630.61946975 281.90501827 -641.60262216 291.56045135 -652.31641006 301.54462051 C-655.00820495 304.05065575 -657.74582121 306.50122386 -660.49609756 308.94305801 C-664.81315878 312.80532348 -668.88348252 316.87371674 -672.95312881 320.99383926 C-674.95221785 322.96640639 -676.9818584 324.81422288 -679.12109756 326.63055801 C-687.16392206 333.52907821 -694.65407191 341.21794568 -701.50391006 349.29462051 C-703.83498248 351.90824716 -706.31695561 354.35938753 -708.80859756 356.81805801 C-712.51269126 360.4779813 -716.06147524 364.20749596 -719.44141006 368.16962051 C-721.33654237 370.35021208 -723.28827084 372.47205526 -725.25366592 374.58929825 C-730.01309197 379.71927206 -734.54772984 384.96175266 -738.93750381 390.41571426 C-741.62691333 393.70769329 -744.40041711 396.91800296 -747.18359756 400.13055801 C-752.59484806 406.40340733 -757.74851179 412.84431452 -762.81641006 419.39618301 C-764.41934542 421.46069661 -766.03491815 423.51488277 -767.65234756 425.56805801 C-775.81902144 435.95807183 -783.66189137 446.54066818 -791.30859756 457.31805801 C-791.85451553 458.08279434 -792.4004335 458.84753067 -792.96289444 459.63544083 C-817.51704265 494.0599555 -839.34029811 530.07152316 -859.30859756 567.31805801 C-859.78232803 568.20090469 -860.2560585 569.08375137 -860.74414444 569.99335098 C-888.32254836 621.60355338 -910.64471205 675.54188962 -928.30859756 731.31805801 C-928.61993637 732.29911514 -928.61993637 732.29911514 -928.93756485 733.29999161 C-954.60071645 814.35284275 -969.79797427 899.87435048 -895.30859756 1406.31805801 C-894.8334169 1407.4268129 -894.35823624 1408.53556778 -893.86865616 1409.6779213 C-876.11800404 1450.83629441 -855.85253874 1491.16202035 -832.30859756 1529.31805801 C-831.91511124 1529.95904434 -831.52162491 1530.60003067 -831.11621475 1531.26044083 C-824.05985328 1542.71671592 -816.63625506 1553.9300522 -809.18359756 1565.13055801 C-808.72055222 1565.82775955 -808.25750687 1566.52496109 -807.78042984 1567.24328995 C-801.47032854 1576.73616494 -794.99834622 1586.08881536 -788.30859756 1595.31805801 C-787.67566788 1596.19180069 -787.04273819 1597.06554337 -786.39062881 1597.96576309 C-775.31237299 1613.19056765 -763.70457996 1627.91805014 -751.79394913 1642.49628067 C-750.45804859 1644.13475697 -749.12898073 1645.77879849 -747.80078506 1647.42352676 C-743.48676918 1652.75216311 -739.04084341 1657.91585021 -734.42578506 1662.98602676 C-732.52808587 1665.07629691 -730.66126342 1667.18791916 -728.80859756 1669.31805801 C-724.69627768 1674.03402118 -720.51018699 1678.6815907 -716.30859756 1683.31805801 C-715.86967178 1683.80355118 -715.430746 1684.28904434 -714.97851944 1684.78924942 C-709.57582607 1690.75872606 -704.08295715 1696.59351269 -698.34766006 1702.24774551 C-696.45470406 1704.16971234 -694.68518594 1706.14262044 -692.93359756 1708.19305801 C-686.67302994 1715.47042317 -679.77039515 1722.15451387 -672.46875381 1728.37665176 C-669.63975411 1730.91917048 -666.98111645 1733.61282624 -664.30859756 1736.31805801 C-660.44561615 1740.22353582 -656.54121357 1743.98936422 -652.35547256 1747.55243301 C-649.85144907 1749.71239221 -647.42862059 1751.95293794 -644.99609756 1754.19305801 C-640.45335071 1758.3405106 -635.76739795 1762.25038497 -630.98047256 1766.11102676 C-628.41000707 1768.23429139 -625.94940394 1770.4361765 -623.49609756 1772.69305801 C-617.93510636 1777.75329646 -612.03930992 1782.33104403 -606.0966835 1786.92840958 C-604.39093495 1788.25406779 -602.69544728 1789.5915199 -601.00391006 1790.93524551 C-594.2401387 1796.30479657 -587.39518444 1801.56098268 -580.49609756 1806.75555801 C-579.73925674 1807.3275795 -578.98241592 1807.89960098 -578.20264053 1808.48895645 C-564.99271115 1818.39297412 -551.37503604 1827.72566873 -537.63403702 1836.87298965 C-535.37231141 1838.37974935 -533.114784 1839.89265628 -530.85742569 1841.40594864 C-520.50481151 1848.32261411 -509.9773357 1854.90142047 -499.30859756 1861.31805801 C-498.28870743 1861.93527725 -497.26881729 1862.55249649 -496.21802139 1863.18841934 C-482.15056768 1871.67683843 -467.81695445 1879.61169603 -453.30859756 1887.31805801 C-452.39594131 1887.80596817 -451.48328506 1888.29387833 -450.54297256 1888.79657364 C-389.70201639 1921.28318246 -325.60389207 1946.38937309 -259.30859756 1965.31805801 C-257.55313614 1965.81982559 -257.55313614 1965.81982559 -255.76221085 1966.33172989 C-181.32956432 1987.37841456 -103.57690525 1998.62286884 -26.30859756 2000.88055801 C-25.25043839 2000.91182785 -25.25043839 2000.91182785 -24.17090225 2000.9437294 C64.76386016 2003.52273803 153.64355216 1993.67572055 392.69140244 1920.31805801 C393.53767197 1919.94938614 394.3839415 1919.58071426 395.25585556 1919.20087051 C429.10464069 1904.42068386 462.43300094 1887.81970339 494.12694931 1868.84637833 C496.46678213 1867.4519235 498.81695096 1866.07850018 501.17577744 1864.71649551 C541.18381549 1841.58481227 579.21431098 1814.57436979 614.97655869 1785.34540176 C617.90238039 1782.95515919 620.85152167 1780.59727829 623.81640244 1778.25555801 C632.98009162 1770.94311917 641.79719128 1763.19560379 650.47655869 1755.31805801 C652.46552745 1753.52202272 654.47703438 1751.75852498 656.50390244 1750.00555801 C664.83748028 1742.73476439 672.90062178 1735.18989878 680.66405869 1727.31415176 C682.53083749 1725.47614797 684.44639968 1723.7644325 686.44140244 1722.06805801 C694.4998301 1715.14007111 702.01643501 1707.44227334 708.88671494 1699.34149551 C711.21778735 1696.72786887 713.69976048 1694.27672849 716.19140244 1691.81805801 C719.89549613 1688.15813473 723.44428011 1684.42862007 726.82421494 1680.46649551 C728.71934724 1678.28590395 730.67107572 1676.16406077 732.63647079 1674.04681778 C737.39589684 1668.91684396 741.93053471 1663.67436337 746.32030869 1658.22040176 C749.0097182 1654.92842273 751.78322198 1651.71811307 754.56640244 1648.50555801 C759.97765293 1642.2327087 765.13131666 1635.7918015 770.19921494 1629.23993301 C771.80215029 1627.17541942 773.41772302 1625.12123325 775.03515244 1623.06805801 C783.20182631 1612.6780442 791.04469624 1602.09544785 798.69140244 1591.31805801 C799.2373204 1590.55332169 799.78323837 1589.78858536 800.34569931 1589.0006752 C824.89938049 1554.5768153 846.72666911 1518.56589053 866.69140244 1481.31805801 C867.17045029 1480.42457657 867.64949814 1479.53109512 868.14306259 1478.61053848 C905.90356815 1407.8814697 934.40970681 1332.430684 939.98461533 745.17987442 C928.60344595 707.76752984 915.36375841 671.15563596 899.69140244 635.31805801 C899.32128036 634.4674379 898.95115829 633.61681778 898.5698204 632.7404213 C883.78973271 598.89665135 867.19065303 565.57245915 848.21972275 533.88251114 C846.82526792 531.54267832 845.4518446 529.19250949 844.08983994 526.83368301 C821.46573242 487.70353649 795.09977369 450.44562665 766.69140244 415.31805801 C766.22363388 414.73685196 765.75586533 414.1556459 765.27392197 413.55682755 C755.38702752 401.27386654 745.2900094 389.21029551 734.69140244 377.53290176 C732.89536715 375.543933 731.1318694 373.53242607 729.37890244 371.50555801 C722.35129184 363.44832075 715.07853906 355.61251762 707.45702744 348.11493301 C705.75963692 346.38750019 704.19281316 344.60381614 702.62890244 342.75555801 C695.00636589 333.90358009 686.50378025 325.51765665 677.57812119 317.98602676 C675.17639146 315.86275845 672.94435681 313.59827961 670.69140244 311.31805801 C667.20098803 307.79051154 663.6449593 304.44421328 659.87499619 301.22040176 C657.68350184 299.31117503 655.54811312 297.3479926 653.41796494 295.37079239 C648.28849169 290.61235972 643.04690344 286.07827834 637.59374619 281.68915176 C634.30176716 278.99974225 631.09145749 276.22623847 627.87890244 273.44305801 C621.60605312 268.03180752 615.16514592 262.87814379 608.61327744 257.81024551 C606.54876384 256.20731016 604.49457768 254.59173743 602.44140244 252.97430801 C592.74898784 245.35633569 582.90147861 238.00111103 572.85448837 230.8576088 C570.80857866 229.4014568 568.76897494 227.9368861 566.73046494 226.47040176 C548.0796241 213.11211769 528.97786957 200.33824214 509.16454697 188.76874161 C506.54823633 187.23408042 503.94517926 185.67857599 501.34374619 184.11883926 C482.10727237 172.61042159 462.40674647 162.00960391 442.47802353 151.75311661 C440.69012576 150.83238215 438.90384208 149.90850271 437.11962509 148.98065567 C364.84600328 111.45478101 285.32353929 84.95339748 -292.30859756 93.31805801 Z " fill="#21759A" transform="translate(1020.3085975646973,-0.3180580139160156)"/>
<path d="M0 0 C2.25263396 2.25263396 2.80225173 3.79316419 3.86914062 6.77368164 C4.23206207 7.77857635 4.59498352 8.78347107 4.96890259 9.81881714 C5.36072723 10.92145905 5.75255188 12.02410095 6.15625 13.16015625 C6.57023041 14.31049347 6.98421082 15.46083069 7.41073608 16.64602661 C8.30765346 19.14000253 9.20255742 21.63459781 10.09417725 24.13046265 C11.51406624 28.10448951 12.9418676 32.07564145 14.37158203 36.04614258 C14.61130045 36.71190024 14.85101887 37.37765791 15.09800148 38.06359005 C15.58419267 39.41378366 16.07041468 40.76396617 16.55666733 42.11413765 C17.29260039 44.15826434 18.0278476 46.20263669 18.76296997 48.24705505 C23.07949856 60.24721523 27.46487908 72.22145333 31.875 84.1875 C33.3482427 88.18858637 34.82077208 92.18993489 36.29296875 96.19140625 C36.85426231 97.71691353 36.85426231 97.71691353 37.42689514 99.27323914 C42.37003582 112.71543326 47.27799723 126.17049412 52.1875 139.625 C52.67543455 140.96210764 53.16336994 142.29921498 53.65130615 143.63632202 C55.62081296 149.03355976 57.59014624 154.43086079 59.5592041 159.82826233 C62.96144967 169.1541745 66.3649501 178.47962772 69.76953125 187.8046875 C70.00613653 188.45274479 70.24274181 189.10080208 70.48651695 189.76849747 C71.68017102 193.03787153 72.87384803 196.30723722 74.0675354 199.57659912 C76.22213252 205.47780804 78.37652548 211.3790915 80.53093529 217.2803688 C81.72894863 220.56191554 82.92697497 223.84345753 84.125 227.125 C84.60416673 228.43749998 85.0833334 229.74999998 85.5625 231.0625 C85.7996875 231.7121875 86.036875 232.361875 86.28125 233.03125 C110 298 133.71875 362.96875 227.15626621 618.90629864 C227.6353752 620.21863784 228.11448783 621.53097571 228.59360409 622.84331226 C229.79243299 626.1270116 230.99119852 629.41073405 232.18983459 632.69450378 C234.33512592 638.5715307 236.48082768 644.44840569 238.62896442 650.32439327 C239.81415996 653.56640602 240.99897529 656.80855761 242.18359375 660.05078125 C242.41871611 660.69427332 242.65383846 661.33776539 242.89608574 662.00075722 C246.19612391 671.03471712 249.47813961 680.07506793 252.74807739 689.1199646 C254.58745202 694.20756875 256.43155333 699.29345594 258.27668953 704.37897301 C259.77508696 708.51018518 261.26722697 712.64358377 262.75452518 716.77880383 C263.4538367 718.71945448 264.15652703 720.65884199 264.86070251 722.59773254 C265.71292443 724.94425735 266.56005507 727.29264133 267.40065002 729.64335632 C269.80370423 736.2277167 272.59968985 742.37132714 275.95420837 748.52986145 C277 751 277 751 276 754 C273.4773218 755.08475162 271.06263397 755.96259098 268.453125 756.78515625 C267.66741119 757.04238968 266.88169739 757.29962311 266.07217407 757.56465149 C263.46904645 758.41119099 260.86015833 759.23791288 258.25 760.0625 C256.90763275 760.49227142 256.90763275 760.49227142 255.53814697 760.9307251 C236.85670438 766.90916892 218.01890123 772.20965618 199 777 C198.33993958 777.1663092 197.67987915 777.33261841 196.99981689 777.50396729 C148.71292859 789.61479328 99.61306021 797.16904546 50 801 C49.21937195 801.06058594 48.4387439 801.12117188 47.63446045 801.18359375 C-36.43329556 807.60046946 -121.75448557 800.96258325 -249.8125 771.5625 C-251.63696655 771.06762085 -251.63696655 771.06762085 -253.49829102 770.56274414 C-254.59842529 770.25457764 -255.69855957 769.94641113 -256.83203125 769.62890625 C-258.26639526 769.2278064 -258.26639526 769.2278064 -259.72973633 768.81860352 C-262 768 -262 768 -264 766 C-252.5883869 732.7482663 -241.1757922 699.49686474 -229.75 666.25 C-229.5227335 665.58869205 -229.295467 664.92738411 -229.06131363 664.24603653 C-222.19698222 644.2728703 -215.30989467 624.30765452 -208.40753174 604.34759521 C-201.78670342 585.19917927 -195.19978561 566.03925946 -188.625 546.875 C-188.3828904 546.16929619 -188.14078079 545.46359238 -187.89133453 544.7365036 C-187.40209353 543.31045058 -186.91285352 541.88439721 -186.4236145 540.45834351 C-185.20303897 536.90059507 -183.9824072 533.34286594 -182.76171875 529.78515625 C-182.52037956 529.08176369 -182.27904037 528.37837112 -182.03038788 527.65366364 C-176.4132379 511.28319219 -170.77927917 494.91852393 -165.14318848 478.55456543 C-160.24606182 464.33604333 -155.35122313 450.11675027 -150.46484375 435.89453125 C-150.23438103 435.22376808 -150.0039183 434.55300491 -149.76647186 433.86191559 C-148.83474138 431.15010283 -147.90302699 428.43828453 -146.97132111 425.72646332 C-139.5205383 404.04027384 -132.05683869 382.35868885 -124.5625 360.6875 C-117.55579766 340.42607577 -110.58210728 320.15349161 -103.625 299.875 C-103.38303768 299.16973804 -103.14107536 298.46447609 -102.89178085 297.73784256 C-102.40292641 296.31294814 -101.91407263 294.88805349 -101.42521954 293.46315861 C-100.20540537 289.90771335 -98.9855417 286.35228508 -97.765625 282.796875 C-97.52440729 282.09384687 -97.28318958 281.39081875 -97.03466225 280.66648674 C-91.8246089 265.48260424 -86.60177454 250.30313346 -81.375 235.125 C-80.94526886 233.87705658 -80.51553772 232.62911316 -80.07278442 231.34335327 C-77.91152171 225.0672102 -75.75002861 218.79114651 -73.58837891 212.51513672 C-69.46362945 200.53952394 -65.33994045 188.56354608 -61.21664429 176.58743286 C-60.56323302 174.68962902 -59.90979305 172.79183506 -59.25634766 170.89404297 C-53.61908263 154.52156775 -47.98764051 138.14710155 -42.3611412 121.77092361 C-37.57691914 107.84631073 -32.79006312 93.92260468 -28 80 C-27.77902901 79.35771202 -27.55805801 78.71542404 -27.33039093 78.05367279 C-24.52196086 69.89086884 -21.7109542 61.72895921 -18.89630127 53.56829834 C-18.11003279 51.2879411 -17.32431769 49.00739294 -16.53924561 46.72662354 C-11.16014741 31.1018771 -5.63577802 15.5340278 0 0 Z " fill="#21759A" transform="translate(1039,1100)"/>
<path d="M0 0 C3.44786391 1.72393196 3.95774656 5.89700812 5.17578125 9.375 C5.65133957 10.7037188 5.65133957 10.7037188 6.13650513 12.0592804 C6.83210273 14.00470253 7.52447006 15.95128184 8.21408081 17.89883423 C10.11466619 23.26475499 12.0394081 28.62202028 13.9609375 33.98046875 C14.57125069 35.68531685 14.57125069 35.68531685 15.19389343 37.42460632 C19.42231089 49.21885879 23.76184024 60.9713919 28.10931396 72.72216797 C35.22256182 91.95059001 42.26575386 111.20180054 49.1875 130.5 C54.95780544 146.58607839 60.78254124 162.65033797 66.6875 178.6875 C67.05162994 179.67651306 67.41575989 180.66552612 67.79092407 181.68450928 C68.1580954 182.6817804 68.52526672 183.67905151 68.90356445 184.70654297 C74.83970845 200.830807 80.74680671 216.96551812 86.638134 233.10619736 C87.37556123 235.1265376 88.11308438 237.14684281 88.85061646 239.16714478 C93.96795882 253.18583315 99.07849075 267.20696082 104.171875 281.234375 C104.58465698 282.37112671 104.99743896 283.50787842 105.42272949 284.67907715 C109.06364764 294.70601321 109.06364764 294.70601321 110.35546875 298.26416016 C117.07113879 316.7562373 123.86764395 335.21770307 130.68551636 353.67230225 C137.60731307 372.41705766 144.42437429 391.19760873 151.1875 410 C157.71472654 428.14578576 164.2728983 446.27908896 170.9375 464.375 C171.29553711 465.34717468 171.65357422 466.31934937 172.02246094 467.32098389 C172.38243164 468.2983551 172.74240234 469.27572632 173.11328125 470.28271484 C173.85159424 472.28742321 174.58987514 474.29214339 175.328125 476.296875 C175.88457703 477.80787277 175.88457703 477.80787277 176.45227051 479.34939575 C181.38984757 492.76514303 186.2874147 506.19552663 191.1875 519.625 C191.67552248 520.96238362 192.16354943 522.29976562 192.65158081 523.637146 C194.62098097 529.03409747 196.5902361 534.43110183 198.55918884 539.82821655 C201.96143737 549.15414475 205.36494459 558.47961262 208.76953125 567.8046875 C209.00613653 568.45274479 209.24274181 569.10080208 209.48651695 569.76849747 C210.68017102 573.03787153 211.87384803 576.30723722 213.0675354 579.57659912 C215.22213252 585.47780804 217.37652548 591.3790915 219.53093529 597.2803688 C220.72894863 600.56191554 221.92697497 603.84345753 223.125 607.125 C223.60416673 608.43749998 224.0833334 609.74999998 224.5625 611.0625 C224.91828125 612.03703125 224.91828125 612.03703125 225.28125 613.03125 C226 615 226.71875 616.96875 227.4375 618.9375 C227.67468844 619.58719002 227.91187689 620.23688004 228.15625286 620.90625763 C228.63541017 622.21873213 229.1145673 623.5312067 229.59372425 624.84368134 C230.79178264 628.12532196 231.98984413 631.40696146 233.18791199 634.68859863 C235.34247291 640.59018288 237.49701242 646.49177494 239.6514349 652.39340973 C240.84703491 655.66852879 242.04265325 658.94364116 243.23828125 662.21875 C243.47510431 662.86746567 243.71192738 663.51618134 243.9559269 664.18455505 C247.34394984 673.46505596 250.73301653 682.74517521 254.12268829 692.02507401 C256.06910212 697.35388519 258.01526544 702.68278786 259.96137238 708.01171112 C260.44528097 709.33675377 260.92920328 710.66179142 261.41313934 711.98682404 C266.67010753 726.3806123 271.92254897 740.77599711 277.15234375 755.1796875 C277.56635941 756.31989349 277.98037506 757.46009949 278.40693665 758.63485718 C279.23511371 760.9157692 280.06328453 763.19668349 280.89144897 765.4776001 C281.29852081 766.59874207 281.70559265 767.71988403 282.125 768.875 C282.53150787 769.99469177 282.93801575 771.11438354 283.35684204 772.26800537 C290.0720598 790.75879846 296.86811572 809.21898006 303.68551636 827.67230225 C310.60731307 846.41705766 317.42437429 865.19760873 324.1875 884 C330.71472654 902.14578576 337.2728983 920.27908896 343.9375 938.375 C344.29553711 939.34717468 344.65357422 940.31934937 345.02246094 941.32098389 C345.56241699 942.78704071 345.56241699 942.78704071 346.11328125 944.28271484 C346.85159424 946.28742321 347.58987514 948.29214339 348.328125 950.296875 C348.69909302 951.30420685 349.07006104 952.3115387 349.45227051 953.34939575 C354.1443727 966.09817038 358.80006713 978.86025383 363.45663071 991.62203979 C364.18753251 993.62508909 364.91853339 995.6281022 365.64956665 997.63110352 C370.32103531 1010.43083437 374.99066464 1023.23123552 379.65814018 1036.03242302 C381.59375814 1041.34102191 383.52990241 1046.64942866 385.46644783 1051.95768929 C386.66054315 1055.23084653 387.85441469 1058.50408497 389.04772949 1061.77752686 C394.11854211 1075.68663703 399.20814806 1089.58837959 404.35259247 1103.47044754 C405.10490705 1105.50083673 405.8566539 1107.53143519 406.60821533 1109.56210327 C407.09800943 1110.88531977 407.58781644 1112.20853148 408.07763672 1113.53173828 C408.31668983 1114.17753782 408.55574295 1114.82333736 408.8020401 1115.48870659 C409.97919364 1118.66738329 411.15852 1121.84522518 412.34234619 1125.02142334 C413.63724964 1128.49716179 414.92653827 1131.97493674 416.21484375 1135.453125 C416.60110428 1136.48424408 416.98736481 1137.51536316 417.3853302 1138.57772827 C417.73246567 1139.51790802 418.07960114 1140.45808777 418.43725586 1141.42675781 C418.74094589 1142.24267395 419.04463593 1143.05859009 419.35752869 1143.89923096 C420 1146 420 1146 420 1149 C415.56193771 1147.6333161 411.56793691 1145.88623101 407.44140625 1143.76171875 C406.82434311 1143.44486618 406.20727997 1143.12801361 405.57151794 1142.80155945 C403.56570286 1141.76887453 401.56379151 1140.72892162 399.5625 1139.6875 C398.87293213 1139.32996643 398.18336426 1138.97243286 397.47290039 1138.60406494 C384.80940623 1132.03256215 372.31287057 1125.21021928 360 1118 C359.14792969 1117.50483887 358.29585937 1117.00967773 357.41796875 1116.49951172 C343.68234005 1108.47750854 330.42628359 1099.74582001 317.1875 1090.9375 C315.96160156 1090.12341171 315.96160156 1090.12341171 314.7109375 1089.2928772 C291.88047538 1074.10936962 269.94075675 1057.84338948 248.75585938 1040.43994141 C247.19064408 1039.15634299 245.619183 1037.88036928 244.046875 1036.60546875 C233.56954797 1028.10412884 223.34077768 1019.34956875 213.47314453 1010.14697266 C210.69624957 1007.55764813 207.89370009 1005.02032895 205 1002.5625 C200.74879196 998.89673375 196.83894424 994.89344742 192.91796875 990.88110352 C190.06553033 987.98221565 187.15235667 985.23577702 184.0625 982.58984375 C179.91243184 979.00271546 176.20349423 975.10267552 172.5 971.0625 C171.18853837 969.64617322 169.87604967 968.23079672 168.5625 966.81640625 C167.94503906 966.15141113 167.32757813 965.48641602 166.69140625 964.80126953 C164.67374217 962.65255048 162.60253383 960.56557522 160.5 958.5 C157.47519777 955.52063471 154.67286381 952.40683243 151.90625 949.1875 C149.69054352 946.64488601 147.40901408 944.16889802 145.125 941.6875 C141.05140091 937.22126486 137.19172297 932.63078621 133.3984375 927.92578125 C131.22763547 925.27768561 129.00705377 922.68853577 126.7578125 920.10766602 C120.65327569 913.0927862 114.95181798 905.83564736 109.3515625 898.4140625 C107.10858033 895.44405381 104.83314766 892.5043485 102.5234375 889.5859375 C94.89635609 879.94503526 87.74843484 870.09562093 80.92285156 859.87255859 C79.14530977 857.21707908 77.35603757 854.5700209 75.56309509 851.92494202 C58.02550648 826.03408544 41.82121867 799.55499733 27 772 C26.39478516 770.87609863 25.78957031 769.75219727 25.16601562 768.59423828 C4.58515813 730.13909196 -12.50766963 690.12322822 -27 649 C-27.23912109 648.32342346 -27.47824219 647.64684692 -27.72460938 646.94976807 C-49.48803391 585.25590037 -63.78424689 521.0100121 -71 456 C-71.20834473 454.12683105 -71.20834473 454.12683105 -71.42089844 452.21582031 C-77.13335804 399.45957571 -78.05502369 345.90879642 -74 293 C-73.9391925 292.19506104 -73.87838501 291.39012207 -73.81573486 290.56079102 C-68.38224397 219.37630776 -53.96886038 149.86651431 -32 82 C-31.78428345 81.33222534 -31.56856689 80.66445068 -31.34631348 79.97644043 C-22.53462089 52.77229229 -12.05222717 25.93848892 0 0 Z " fill="#21759A" transform="translate(221,666)"/>
<path d="M0 0 C3.6173985 3.20698125 5.71727534 6.80431802 7.87109375 11.0625 C8.22959915 11.75718887 8.58810455 12.45187775 8.95747375 13.1676178 C10.12644885 15.44061531 11.2828459 17.7196977 12.4375 20 C12.83739136 20.78486786 13.23728271 21.56973572 13.64929199 22.37838745 C51.7224531 97.12917443 79.31899589 177.37135457 107 356 C107.06058594 356.76882507 107.12117188 357.53765015 107.18359375 358.32977295 C113.84290776 444.52395641 106.72472958 532.10428461 -9.43945312 863.37109375 C-10.84496717 865.73883079 -12.23242375 868.11557583 -13.609375 870.5 C-30.4315617 899.58645404 -49.58128474 927.32955229 -70 954 C-70.51675293 954.67530762 -71.03350586 955.35061523 -71.56591797 956.04638672 C-78.34634558 964.88512388 -85.22600969 973.59948083 -92.484375 982.05078125 C-94.89172596 984.87306382 -97.23338476 987.73803723 -99.5625 990.625 C-103.44163455 995.39238003 -107.51946207 999.94202987 -111.6796875 1004.46484375 C-113.57281203 1006.53325758 -115.42251704 1008.62405876 -117.25 1010.75 C-127.96905853 1023.03910468 -139.45649724 1034.6178991 -150.99755859 1046.12792969 C-153.3966873 1048.52163831 -155.7903427 1050.92072881 -158.18359375 1053.3203125 C-159.73405405 1054.87011282 -161.28482409 1056.41960335 -162.8359375 1057.96875 C-163.53818451 1058.67302124 -164.24043152 1059.37729248 -164.96395874 1060.10290527 C-168.93185551 1064.05227126 -172.99714819 1067.82974078 -177.24214172 1071.48025513 C-179.82681632 1073.71481864 -182.31237296 1076.04621034 -184.8125 1078.375 C-189.43433831 1082.64519259 -194.19423948 1086.68225373 -199.09765625 1090.62890625 C-202.38964165 1093.31832097 -205.5998102 1096.09196815 -208.8125 1098.875 C-215.70359651 1104.81463357 -222.79293047 1110.4504366 -230 1116 C-230.77230957 1116.59828613 -231.54461914 1117.19657227 -232.34033203 1117.81298828 C-256.6026552 1136.59443611 -281.90547601 1153.8524187 -307.875 1170.1875 C-308.84276367 1170.79907959 -309.81052734 1171.41065918 -310.80761719 1172.04077148 C-316.71708724 1175.72623087 -322.72343521 1178.98602135 -329 1182 C-327.10018023 1174.71364525 -324.93023398 1167.58839832 -322.4375 1160.484375 C-321.92249939 1159.00200348 -321.92249939 1159.00200348 -321.39709473 1157.48968506 C-320.26802794 1154.24196506 -319.1339611 1150.99601398 -318 1147.75 C-317.19554969 1145.43829502 -316.39152175 1143.12644301 -315.58789062 1140.81445312 C-313.90619442 1135.97677868 -312.22302811 1131.13961928 -310.5390625 1126.30273438 C-306.90200852 1115.84932998 -303.29205054 1105.38657983 -299.68164062 1094.9239502 C-297.69509116 1089.16767684 -295.70698216 1083.41194232 -293.71875 1077.65625 C-293.1294873 1075.95036713 -293.1294873 1075.95036713 -292.52832031 1074.21002197 C-287.98690359 1061.06476396 -283.43602527 1047.92278343 -278.88525391 1034.78076172 C-273.08266751 1018.02309537 -267.28889342 1001.26240118 -261.5 984.5 C-255.31878698 966.60198759 -249.13231751 948.70580846 -242.9375 930.8125 C-242.56769012 929.74432037 -242.19788025 928.67614075 -241.81686401 927.57559204 C-238.84001481 918.97732879 -235.86270621 910.37922463 -232.88537598 901.78112793 C-230.27753341 894.24999383 -227.66987732 886.71879519 -225.0625 879.1875 C-224.69277069 878.11956207 -224.32304138 877.05162415 -223.94210815 875.95132446 C-218.12104975 859.13663988 -212.30861188 842.31898786 -206.5 825.5 C-200.31874125 807.60200336 -194.13231753 789.7058085 -187.9375 771.8125 C-187.56769012 770.74432037 -187.19788025 769.67614075 -186.81686401 768.57559204 C-183.84001481 759.97732879 -180.86270621 751.37922463 -177.88537598 742.78112793 C-175.27753341 735.24999383 -172.66987732 727.71879519 -170.0625 720.1875 C-169.69277069 719.11956207 -169.32304138 718.05162415 -168.94210815 716.95132446 C-162.72102375 698.98112647 -156.51013496 681.00741723 -150.30252075 663.03256226 C-144.17128801 645.27923757 -138.03106459 627.52904461 -131.88525391 609.78076172 C-126.08266751 593.02309537 -120.28889342 576.26240118 -114.5 559.5 C-107.57965227 539.46178593 -100.6523491 519.42599509 -93.71459961 499.39379883 C-92.97378885 497.25472238 -92.23298481 495.1156436 -91.4921875 492.9765625 C-91.12551468 491.91779404 -90.75884186 490.85902557 -90.38105774 489.76817322 C-87.66974942 481.93782289 -84.96314586 474.10585385 -82.2578125 466.2734375 C-60.40115185 403.00445299 -60.40115185 403.00445299 -54.55297852 388.17749023 C-40.90716709 353.54116847 -29.39593654 318.01535563 -20 282 C-19.80166565 281.24599915 -19.6033313 280.49199829 -19.39898682 279.71514893 C-9.3152374 241.35790037 -2.18926716 202.43700009 2 163 C2.0825 162.24656311 2.165 161.49312622 2.25 160.71685791 C7.3470068 114.04359701 6.98674946 65.6540448 2 19 C1.81700086 17.25101648 1.63440342 15.5019909 1.45214844 13.75292969 C0.97324846 9.16806408 0.48815442 4.58388907 0 0 Z " fill="#21759A" transform="translate(1794,602)"/>
</svg>
